<?xml version="1.0" encoding="UTF-8"?>
<svg width="595.28pt" version="1.1" xmlns="http://www.w3.org/2000/svg" height="841.89pt" viewBox="0 0 595.28 841.89" xmlns:xlink="http://www.w3.org/1999/xlink">
 <defs>
  <path id="GlEbrima67" d="M5.68359 9.70703 C5.68359 9.70703 4.90719 10.1172 3.75 10.1172 C3.75 10.1172 2.25594 10.1172 1.3575 9.15531 C1.3575 9.15531 0.459062 8.19328 0.459062 6.63078 C0.459062 6.63078 0.459062 4.95109 1.46969 3.91594 C1.46969 3.91594 2.48047 2.88078 4.03328 2.88078 C4.03328 2.88078 5.02937 2.88078 5.68359 3.16891 L5.68359 4.04297 C5.68359 4.04297 4.93172 3.62297 4.02344 3.62297 C4.02344 3.62297 2.81734 3.62297 2.06781 4.42875 C2.06781 4.42875 1.31844 5.23438 1.31844 6.58203 C1.31844 6.58203 1.31844 7.86125 2.01906 8.62063 C2.01906 8.62063 2.71969 9.37984 3.8575 9.37984 C3.8575 9.37984 4.91219 9.37984 5.68359 8.91109 L5.68359 9.70703 Z"/>
  <path id="GlEbrima104" d="M4.96094 10 L4.16016 10 L4.16016 7.11906 C4.16016 7.11906 4.16016 5.55656 2.99812 5.55656 C2.99812 5.55656 2.41219 5.55656 2.01172 6.00828 C2.01172 6.00828 1.61141 6.46 1.61141 7.16797 L1.61141 10 L0.810625 10 L0.810625 2.59766 L1.61141 2.59766 L1.61141 5.83 L1.63094 5.83 C1.63094 5.83 2.20703 4.88281 3.27156 4.88281 C3.27156 4.88281 4.96094 4.88281 4.96094 6.91891 L4.96094 10 Z"/>
  <path id="GlEbrima114" d="M3.41797 5.81047 C3.41797 5.81047 3.20797 5.64938 2.8125 5.64938 C2.8125 5.64938 2.29984 5.64938 1.95562 6.13281 C1.95562 6.13281 1.61141 6.61625 1.61141 7.45109 L1.61141 10 L0.810625 10 L0.810625 5 L1.61141 5 L1.61141 6.03031 L1.63094 6.03031 C1.63094 6.03031 1.80172 5.50297 2.15328 5.2075 C2.15328 5.2075 2.50484 4.91203 2.93953 4.91203 C2.93953 4.91203 3.25203 4.91203 3.41797 4.98047 L3.41797 5.81047 Z"/>
  <path id="GlEbrima105" d="M1.22078 3.73047 C1.22078 3.73047 1.00594 3.73047 0.854531 3.58406 C0.854531 3.58406 0.703125 3.4375 0.703125 3.21281 C0.703125 3.21281 0.703125 2.98828 0.854531 2.83937 C0.854531 2.83937 1.00594 2.69047 1.22078 2.69047 C1.22078 2.69047 1.44047 2.69047 1.59422 2.83937 C1.59422 2.83937 1.74812 2.98828 1.74812 3.21281 C1.74812 3.21281 1.74812 3.42766 1.59422 3.57906 C1.59422 3.57906 1.44047 3.73047 1.22078 3.73047 L1.22078 3.73047 Z M1.61141 10 L0.810625 10 L0.810625 5 L1.61141 5 L1.61141 10 Z"/>
  <path id="GlEbrima115" d="M0.507812 9.81938 L0.507812 8.96 C0.507812 8.96 1.16219 9.44328 1.94828 9.44328 C1.94828 9.44328 3.00297 9.44328 3.00297 8.74016 C3.00297 8.74016 3.00297 8.54 2.91266 8.40094 C2.91266 8.40094 2.82234 8.26172 2.66844 8.15437 C2.66844 8.15437 2.51469 8.04688 2.30719 7.96141 C2.30719 7.96141 2.09969 7.87594 1.86031 7.78313 C1.86031 7.78313 1.52828 7.65141 1.27687 7.51719 C1.27687 7.51719 1.02547 7.38281 0.856875 7.21438 C0.856875 7.21438 0.688438 7.04594 0.602969 6.83109 C0.602969 6.83109 0.517656 6.61625 0.517656 6.32812 C0.517656 6.32812 0.517656 5.97656 0.67875 5.70562 C0.67875 5.70562 0.839844 5.43453 1.10844 5.25141 C1.10844 5.25141 1.37703 5.06828 1.72125 4.97562 C1.72125 4.97562 2.06547 4.88281 2.43172 4.88281 C2.43172 4.88281 3.08109 4.88281 3.59375 5.10734 L3.59375 5.91797 C3.59375 5.91797 3.04203 5.55656 2.32422 5.55656 C2.32422 5.55656 2.09969 5.55656 1.91891 5.60797 C1.91891 5.60797 1.73828 5.65922 1.60891 5.75203 C1.60891 5.75203 1.47953 5.84469 1.40875 5.97406 C1.40875 5.97406 1.33797 6.10344 1.33797 6.25969 C1.33797 6.25969 1.33797 6.455 1.40875 6.58688 C1.40875 6.58688 1.47953 6.71875 1.61625 6.82125 C1.61625 6.82125 1.75297 6.92375 1.94828 7.00687 C1.94828 7.00687 2.14359 7.08984 2.39266 7.1875 C2.39266 7.1875 2.72469 7.31438 2.98828 7.44875 C2.98828 7.44875 3.25203 7.58297 3.4375 7.75141 C3.4375 7.75141 3.62312 7.91984 3.72313 8.13969 C3.72313 8.13969 3.82328 8.35938 3.82328 8.66203 C3.82328 8.66203 3.82328 9.03313 3.65969 9.30656 C3.65969 9.30656 3.49609 9.58 3.22266 9.76078 C3.22266 9.76078 2.94922 9.94141 2.59281 10.0292 C2.59281 10.0292 2.23641 10.1172 1.84578 10.1172 C1.84578 10.1172 1.07422 10.1172 0.507812 9.81938 Z"/>
  <path id="GlEbrima116" d="M3.12984 9.95109 C3.12984 9.95109 2.84672 10.1075 2.38281 10.1075 C2.38281 10.1075 1.06937 10.1075 1.06937 8.6425 L1.06937 5.68359 L0.21 5.68359 L0.21 5 L1.06937 5 L1.06937 3.77922 L1.87016 3.52047 L1.87016 5 L3.12984 5 L3.12984 5.68359 L1.87016 5.68359 L1.87016 8.50094 C1.87016 8.50094 1.87016 9.00391 2.04094 9.21875 C2.04094 9.21875 2.21188 9.43359 2.6075 9.43359 C2.6075 9.43359 2.91016 9.43359 3.12984 9.2675 L3.12984 9.95109 Z"/>
  <path id="GlEbrima97" d="M4.38969 10 L3.58891 10 L3.58891 9.21875 L3.56937 9.21875 C3.56937 9.21875 3.04688 10.1172 2.03125 10.1172 C2.03125 10.1172 1.28422 10.1172 0.861875 9.72172 C0.861875 9.72172 0.439531 9.32609 0.439531 8.67188 C0.439531 8.67188 0.439531 7.27047 2.08984 7.04094 L3.58891 6.83109 C3.58891 6.83109 3.58891 5.55656 2.55859 5.55656 C2.55859 5.55656 1.65531 5.55656 0.927813 6.17188 L0.927813 5.35156 C0.927813 5.35156 1.665 4.88281 2.62703 4.88281 C2.62703 4.88281 4.38969 4.88281 4.38969 6.74797 L4.38969 10 L4.38969 10 Z M3.58891 7.47063 L2.38281 7.63672 C2.38281 7.63672 1.82625 7.71484 1.54297 7.91266 C1.54297 7.91266 1.25984 8.11031 1.25984 8.61328 C1.25984 8.61328 1.25984 8.97953 1.52094 9.21141 C1.52094 9.21141 1.78219 9.44328 2.21687 9.44328 C2.21687 9.44328 2.8125 9.44328 3.20063 9.02594 C3.20063 9.02594 3.58891 8.60844 3.58891 7.96875 L3.58891 7.47063 Z"/>
  <path id="GlEbrima110" d="M4.96094 10 L4.16016 10 L4.16016 7.14844 C4.16016 7.14844 4.16016 5.55656 2.99812 5.55656 C2.99812 5.55656 2.3975 5.55656 2.00438 6.00828 C2.00438 6.00828 1.61141 6.46 1.61141 7.14844 L1.61141 10 L0.810625 10 L0.810625 5 L1.61141 5 L1.61141 5.83 L1.63094 5.83 C1.63094 5.83 2.19734 4.88281 3.27156 4.88281 C3.27156 4.88281 4.09187 4.88281 4.52641 5.41266 C4.52641 5.41266 4.96094 5.94234 4.96094 6.94328 L4.96094 10 Z"/>
  <path id="GlEbrima38" d="M7.05563 10.1123 C7.05563 10.1123 6.77734 10.1123 6.56484 10.0366 C6.56484 10.0366 6.3525 9.96094 6.17188 9.82188 C6.17188 9.82188 5.99125 9.68266 5.82281 9.4825 C5.82281 9.4825 5.65437 9.28219 5.46875 9.02828 C5.46875 9.02828 5.27344 9.23828 5.01703 9.43359 C5.01703 9.43359 4.76078 9.62891 4.44828 9.78031 C4.44828 9.78031 4.13578 9.93156 3.76469 10.0219 C3.76469 10.0219 3.39359 10.1123 2.95906 10.1123 C2.95906 10.1123 2.43172 10.1123 1.99219 9.98047 C1.99219 9.98047 1.55281 9.84859 1.24031 9.59234 C1.24031 9.59234 0.927813 9.33594 0.754375 8.96 C0.754375 8.96 0.581094 8.58391 0.581094 8.09563 C0.581094 8.09563 0.581094 7.34859 1.00578 6.81891 C1.00578 6.81891 1.43063 6.28906 2.20703 5.95219 C2.20703 5.95219 2.06062 5.84469 1.91406 5.70062 C1.91406 5.70062 1.76766 5.55656 1.65281 5.37359 C1.65281 5.37359 1.53812 5.19047 1.46734 4.96828 C1.46734 4.96828 1.39656 4.74609 1.39656 4.48234 C1.39656 4.48234 1.39656 4.09672 1.53563 3.79891 C1.53563 3.79891 1.67484 3.50094 1.91891 3.29594 C1.91891 3.29594 2.16312 3.09078 2.49516 2.98578 C2.49516 2.98578 2.82719 2.88078 3.21297 2.88078 C3.21297 2.88078 3.59375 2.88078 3.90859 2.98578 C3.90859 2.98578 4.22359 3.09078 4.45063 3.28609 C4.45063 3.28609 4.67781 3.48141 4.80469 3.75484 C4.80469 3.75484 4.93172 4.02828 4.93172 4.36516 C4.93172 4.36516 4.93172 4.95109 4.59719 5.33937 C4.59719 5.33937 4.26266 5.7275 3.59375 6.00094 C3.59375 6.00094 3.93063 6.13281 4.20406 6.32328 C4.20406 6.32328 4.4775 6.51359 4.70938 6.74797 C4.70938 6.74797 4.94141 6.98234 5.14156 7.25094 C5.14156 7.25094 5.34187 7.51953 5.53719 7.80766 C5.53719 7.80766 5.93266 7.25578 6.13281 6.59172 C6.13281 6.59172 6.33297 5.92766 6.33297 5.20016 C6.33297 5.20016 6.33297 5.01469 6.31094 4.85109 C6.31094 4.85109 6.28906 4.6875 6.25 4.52641 L7.02641 4.52641 C7.02641 4.52641 7.06547 4.6875 7.07281 4.83156 C7.07281 4.83156 7.08016 4.97562 7.08984 5.17578 C7.08984 5.17578 7.08984 5.62016 6.99703 6.06937 C6.99703 6.06937 6.90437 6.51859 6.74812 6.94094 C6.74812 6.94094 6.59187 7.36328 6.38422 7.74422 C6.38422 7.74422 6.17672 8.125 5.94734 8.44234 C5.94734 8.44234 6.11813 8.67672 6.25969 8.85016 C6.25969 8.85016 6.40141 9.02344 6.54547 9.14062 C6.54547 9.14062 6.68953 9.25781 6.84328 9.31406 C6.84328 9.31406 6.99703 9.37016 7.19234 9.37016 C7.19234 9.37016 7.33891 9.37016 7.49016 9.33109 C7.49016 9.33109 7.64156 9.29203 7.80281 9.23344 L7.80281 9.97563 C7.80281 9.97563 7.62703 10.0439 7.43406 10.0781 C7.43406 10.0781 7.24125 10.1123 7.05563 10.1123 L7.05563 10.1123 Z M2.95906 9.41891 C2.95906 9.41891 3.33016 9.41891 3.64266 9.33844 C3.64266 9.33844 3.95516 9.25781 4.21875 9.12359 C4.21875 9.12359 4.4825 8.98922 4.69734 8.81109 C4.69734 8.81109 4.91219 8.63281 5.08797 8.4375 C5.08797 8.4375 4.79 7.97359 4.53859 7.64406 C4.53859 7.64406 4.28719 7.31438 4.03078 7.07516 C4.03078 7.07516 3.77438 6.83594 3.48391 6.665 C3.48391 6.665 3.19344 6.49406 2.8125 6.34766 C2.8125 6.34766 2.50484 6.46969 2.24609 6.61859 C2.24609 6.61859 1.98734 6.7675 1.79937 6.97016 C1.79937 6.97016 1.61141 7.17281 1.50391 7.44141 C1.50391 7.44141 1.39656 7.71 1.39656 8.07125 C1.39656 8.07125 1.39656 8.40328 1.51859 8.65719 C1.51859 8.65719 1.64062 8.91109 1.85297 9.07953 C1.85297 9.07953 2.06547 9.24797 2.34859 9.33344 C2.34859 9.33344 2.63187 9.41891 2.95906 9.41891 L2.95906 9.41891 Z M4.17969 4.43359 C4.17969 4.43359 4.17969 4.18938 4.08938 4.01859 C4.08938 4.01859 3.99906 3.84766 3.85984 3.73531 C3.85984 3.73531 3.72078 3.62297 3.54984 3.57172 C3.54984 3.57172 3.37891 3.52047 3.21297 3.52047 C3.21297 3.52047 2.73438 3.52047 2.44875 3.77937 C2.44875 3.77937 2.16312 4.03812 2.15828 4.48234 C2.15828 4.48234 2.15828 4.68266 2.21922 4.85844 C2.21922 4.85844 2.28031 5.03422 2.39016 5.18562 C2.39016 5.18562 2.5 5.33688 2.64641 5.45406 C2.64641 5.45406 2.79297 5.57125 2.95906 5.65422 C2.95906 5.65422 3.57422 5.43938 3.87688 5.15375 C3.87688 5.15375 4.17969 4.86813 4.17969 4.43359 Z"/>
  <path id="GlEbrima74" d="M2.71 7.49016 C2.71 7.49016 2.71 8.73531 2.18266 9.42625 C2.18266 9.42625 1.65531 10.1172 0.771563 10.1172 C0.771563 10.1172 0.361406 10.1172 0.0976562 10 L0.0976562 9.18938 C0.0976562 9.18938 0.361406 9.37984 0.78125 9.37984 C0.78125 9.37984 1.88969 9.37984 1.88969 7.5 L1.88969 2.99797 L2.71 2.99797 L2.71 7.49016 Z"/>
  <path id="GlEbrima252" d="M4.85359 10 L4.05281 10 L4.05281 9.20891 L4.03328 9.20891 C4.03328 9.20891 3.53516 10.1172 2.49031 10.1172 C2.49031 10.1172 0.703125 10.1172 0.703125 7.98828 L0.703125 5 L1.49906 5 L1.49906 7.86125 C1.49906 7.86125 1.49906 9.44328 2.71 9.44328 C2.71 9.44328 3.29594 9.44328 3.67437 9.01125 C3.67437 9.01125 4.05281 8.57906 4.05281 7.88078 L4.05281 5 L4.85359 5 L4.85359 10 L4.85359 10 Z M3.75859 4.05266 C3.75859 4.05266 3.56328 4.05266 3.42156 3.91594 C3.42156 3.91594 3.28 3.77922 3.28 3.56937 C3.28 3.56937 3.28 3.36422 3.41672 3.2275 C3.41672 3.2275 3.55344 3.09078 3.74875 3.09078 C3.74875 3.09078 3.95391 3.09078 4.09547 3.23 C4.09547 3.23 4.23703 3.36906 4.23703 3.56937 C4.23703 3.56937 4.23703 3.76953 4.10031 3.91109 C4.10031 3.91109 3.96359 4.05266 3.75859 4.05266 L3.75859 4.05266 Z M1.88359 4.05266 C1.88359 4.05266 1.67844 4.05266 1.53438 3.90875 C1.53438 3.90875 1.39031 3.76469 1.39031 3.56937 C1.39031 3.56937 1.39031 3.36422 1.52953 3.2275 C1.52953 3.2275 1.66875 3.09078 1.86891 3.09078 C1.86891 3.09078 2.06906 3.09078 2.21547 3.23 C2.21547 3.23 2.36203 3.36906 2.36203 3.56937 C2.36203 3.56937 2.36203 3.76953 2.22047 3.91109 C2.22047 3.91109 2.07891 4.05266 1.88359 4.05266 Z"/>
  <path id="GlEbrima103" d="M5.07812 9.59953 C5.07812 9.59953 5.07812 12.3536 2.44141 12.3536 C2.44141 12.3536 1.51375 12.3536 0.820312 12.002 L0.820312 11.2012 C0.820312 11.2012 1.665 11.67 2.43172 11.67 C2.43172 11.67 4.27734 11.67 4.27734 9.70703 L4.27734 9.16016 L4.25781 9.16016 C4.25781 9.16016 3.68656 10.1172 2.53906 10.1172 C2.53906 10.1172 1.60641 10.1172 1.0375 9.45078 C1.0375 9.45078 0.46875 8.78422 0.46875 7.66109 C0.46875 7.66109 0.46875 6.38672 1.08156 5.63484 C1.08156 5.63484 1.69437 4.88281 2.75875 4.88281 C2.75875 4.88281 3.76953 4.88281 4.25781 5.69328 L4.27734 5.69328 L4.27734 5 L5.07812 5 L5.07812 9.59953 L5.07812 9.59953 Z M4.27734 7.73922 L4.27734 7.00188 C4.27734 7.00188 4.27734 6.40625 3.87453 5.98141 C3.87453 5.98141 3.47172 5.55656 2.87109 5.55656 C2.87109 5.55656 2.12891 5.55656 1.70891 6.09625 C1.70891 6.09625 1.28906 6.63578 1.28906 7.60734 C1.28906 7.60734 1.28906 8.44234 1.69188 8.94281 C1.69188 8.94281 2.09469 9.44328 2.75875 9.44328 C2.75875 9.44328 3.43266 9.44328 3.855 8.96484 C3.855 8.96484 4.27734 8.48625 4.27734 7.73922 Z"/>
  <path id="GlEbrima101" d="M4.82906 7.70016 L1.29891 7.70016 C1.29891 7.70016 1.31844 8.53516 1.74812 8.98922 C1.74812 8.98922 2.17781 9.44328 2.92969 9.44328 C2.92969 9.44328 3.77438 9.44328 4.4825 8.88672 L4.4825 9.63859 C4.4825 9.63859 3.82328 10.1172 2.73922 10.1172 C2.73922 10.1172 1.67969 10.1172 1.07422 9.43609 C1.07422 9.43609 0.46875 8.75484 0.46875 7.51953 C0.46875 7.51953 0.46875 6.3525 1.13031 5.61766 C1.13031 5.61766 1.79203 4.88281 2.77344 4.88281 C2.77344 4.88281 3.75484 4.88281 4.29188 5.51766 C4.29188 5.51766 4.82906 6.15234 4.82906 7.28031 L4.82906 7.70016 L4.82906 7.70016 Z M4.00875 7.02141 C4.00875 7.02141 4.00391 6.32812 3.67422 5.94234 C3.67422 5.94234 3.34469 5.55656 2.75875 5.55656 C2.75875 5.55656 2.19234 5.55656 1.79688 5.96188 C1.79688 5.96188 1.40141 6.36719 1.30859 7.02141 L4.00875 7.02141 Z"/>
  <path id="GlEbrima87" d="M9.21875 2.99797 L7.24125 10 L6.27937 10 L4.83891 4.88281 C4.83891 4.88281 4.74609 4.55563 4.72656 4.16984 L4.70703 4.16984 C4.70703 4.16984 4.67781 4.53125 4.58016 4.87297 L3.12984 10 L2.17781 10 L0.127031 2.99797 L1.03031 2.99797 L2.51953 8.36906 C2.51953 8.36906 2.61234 8.70609 2.63672 9.07219 L2.66109 9.07219 C2.66109 9.07219 2.68562 8.81344 2.8125 8.36906 L4.36031 2.99797 L5.14656 2.99797 L6.63094 8.40813 C6.63094 8.40813 6.70906 8.68656 6.74812 9.0625 L6.76766 9.0625 C6.76766 9.0625 6.78719 8.80859 6.89938 8.38859 L8.33016 2.99797 L9.21875 2.99797 Z"/>
  <path id="GlEbrima108" d="M1.61141 10 L0.810625 10 L0.810625 2.59766 L1.61141 2.59766 L1.61141 10 Z"/>
  <path id="GlEbrima109" d="M7.91016 10 L7.10938 10 L7.10938 7.12891 C7.10938 7.12891 7.10938 6.29875 6.85297 5.92766 C6.85297 5.92766 6.59672 5.55656 5.99125 5.55656 C5.99125 5.55656 5.47859 5.55656 5.11969 6.02531 C5.11969 6.02531 4.76078 6.49406 4.76078 7.14844 L4.76078 10 L3.96 10 L3.96 7.03125 C3.96 7.03125 3.96 5.55656 2.82234 5.55656 C2.82234 5.55656 2.295 5.55656 1.95312 5.99859 C1.95312 5.99859 1.61141 6.44047 1.61141 7.14844 L1.61141 10 L0.810625 10 L0.810625 5 L1.61141 5 L1.61141 5.79094 L1.63094 5.79094 C1.63094 5.79094 2.16312 4.88281 3.18359 4.88281 C3.18359 4.88281 3.69625 4.88281 4.07703 5.16844 C4.07703 5.16844 4.45797 5.45406 4.59969 5.91797 C4.59969 5.91797 5.15625 4.88281 6.25984 4.88281 C6.25984 4.88281 7.91016 4.88281 7.91016 6.91891 L7.91016 10 Z"/>
  <path id="GlEbrima50" d="M3.76953 4.83391 C3.76953 4.83391 3.76953 4.51172 3.66938 4.2725 C3.66938 4.2725 3.56937 4.03313 3.39594 3.87453 C3.39594 3.87453 3.22266 3.71578 2.98828 3.63766 C2.98828 3.63766 2.75391 3.55953 2.48047 3.55953 C2.48047 3.55953 2.24609 3.55953 2.02141 3.62312 C2.02141 3.62312 1.79688 3.68656 1.58438 3.79891 C1.58438 3.79891 1.37203 3.91109 1.17422 4.06734 C1.17422 4.06734 0.976562 4.22359 0.805625 4.41406 L0.805625 3.55469 C0.805625 3.55469 1.14266 3.2275 1.56 3.05422 C1.56 3.05422 1.9775 2.88078 2.57812 2.88078 C2.57812 2.88078 3.00781 2.88078 3.37406 3.00531 C3.37406 3.00531 3.74031 3.12984 4.00875 3.36922 C4.00875 3.36922 4.27734 3.60844 4.43109 3.96 C4.43109 3.96 4.585 4.31156 4.585 4.76562 C4.585 4.76562 4.585 5.18063 4.48969 5.51766 C4.48969 5.51766 4.39453 5.85453 4.20156 6.15234 C4.20156 6.15234 4.00875 6.45016 3.71578 6.72359 C3.71578 6.72359 3.42281 6.99703 3.02734 7.28031 C3.02734 7.28031 2.53422 7.63187 2.21437 7.88094 C2.21437 7.88094 1.89453 8.12984 1.70656 8.34719 C1.70656 8.34719 1.51859 8.56438 1.44281 8.78172 C1.44281 8.78172 1.36719 8.99906 1.36719 9.28219 L4.85359 9.28219 L4.85359 10 L0.532188 10 L0.532188 9.65328 C0.532188 9.65328 0.532188 9.20406 0.629844 8.86234 C0.629844 8.86234 0.7275 8.52047 0.952031 8.21297 C0.952031 8.21297 1.17672 7.90531 1.54047 7.59766 C1.54047 7.59766 1.90437 7.29 2.43172 6.90422 C2.43172 6.90422 2.8125 6.63078 3.06875 6.38187 C3.06875 6.38187 3.32516 6.13281 3.48141 5.88375 C3.48141 5.88375 3.63766 5.63469 3.70359 5.37844 C3.70359 5.37844 3.76953 5.12203 3.76953 4.83391 Z"/>
  <path id="GlEbrima48" d="M4.98047 6.46969 C4.98047 6.46969 4.98047 7.34859 4.82172 8.02734 C4.82172 8.02734 4.66312 8.70609 4.36281 9.17234 C4.36281 9.17234 4.0625 9.63859 3.62547 9.88031 C3.62547 9.88031 3.18844 10.122 2.63187 10.122 C2.63187 10.122 2.10453 10.122 1.69188 9.89016 C1.69188 9.89016 1.27937 9.65813 0.996094 9.21391 C0.996094 9.21391 0.712969 8.76953 0.566406 8.12266 C0.566406 8.12266 0.42 7.47562 0.42 6.64062 C0.42 6.64062 0.42 5.72266 0.57375 5.01953 C0.57375 5.01953 0.7275 4.31641 1.02531 3.84031 C1.02531 3.84031 1.32328 3.36422 1.76516 3.1225 C1.76516 3.1225 2.20703 2.88078 2.77828 2.88078 C2.77828 2.88078 4.98047 2.88078 4.98047 6.46969 L4.98047 6.46969 Z M4.16016 6.54781 C4.16016 6.54781 4.16016 3.55953 2.73922 3.55953 C2.73922 3.55953 1.24031 3.55953 1.24031 6.60156 C1.24031 6.60156 1.24031 9.43844 2.71 9.43844 C2.71 9.43844 4.16016 9.43844 4.16016 6.54781 Z"/>
  <path id="GlEbrima49" d="M3.53516 10 L2.73438 10 L2.73438 3.95016 C2.73438 3.95016 2.64156 4.04297 2.46328 4.16266 C2.46328 4.16266 2.28516 4.28219 2.06297 4.39938 C2.06297 4.39938 1.84078 4.51656 1.59422 4.61922 C1.59422 4.61922 1.34766 4.72172 1.11328 4.78031 L1.11328 3.96969 C1.11328 3.96969 1.37703 3.89641 1.67234 3.77203 C1.67234 3.77203 1.96781 3.6475 2.25344 3.49375 C2.25344 3.49375 2.53906 3.33984 2.79297 3.17141 C2.79297 3.17141 3.04688 3.00297 3.2325 2.84172 L3.53516 2.84172 L3.53516 10 Z"/>
  <path id="GlEbrima57" d="M4.90234 6.07906 C4.90234 6.07906 4.90234 7.04094 4.71188 7.79047 C4.71188 7.79047 4.52156 8.54 4.15531 9.06 C4.15531 9.06 3.78906 9.58 3.26172 9.85109 C3.26172 9.85109 2.73438 10.122 2.06062 10.122 C2.06062 10.122 1.36719 10.122 0.839844 9.87797 L0.839844 9.11125 C0.839844 9.11125 1.42094 9.43844 2.08016 9.43844 C2.08016 9.43844 2.55375 9.43844 2.92719 9.24312 C2.92719 9.24312 3.30078 9.04781 3.55953 8.67437 C3.55953 8.67437 3.81844 8.30078 3.95516 7.75391 C3.95516 7.75391 4.09187 7.20703 4.09187 6.49906 L4.07234 6.49906 C4.07234 6.49906 3.62312 7.40234 2.50984 7.40234 C2.50984 7.40234 2.06062 7.40234 1.68453 7.24375 C1.68453 7.24375 1.30859 7.085 1.03516 6.79453 C1.03516 6.79453 0.761719 6.50391 0.610313 6.10359 C0.610313 6.10359 0.459062 5.70312 0.459062 5.21969 C0.459062 5.21969 0.459062 4.70219 0.6275 4.2725 C0.6275 4.2725 0.795937 3.84281 1.09625 3.53281 C1.09625 3.53281 1.39656 3.22266 1.80906 3.05172 C1.80906 3.05172 2.22172 2.88078 2.71 2.88078 C2.71 2.88078 3.23734 2.88078 3.645 3.09328 C3.645 3.09328 4.05281 3.30563 4.33109 3.71344 C4.33109 3.71344 4.60938 4.12109 4.75578 4.71687 C4.75578 4.71687 4.90234 5.3125 4.90234 6.07906 L4.90234 6.07906 Z M4.03812 5.36125 C4.03812 5.36125 4.03812 4.95609 3.93312 4.62406 C3.93312 4.62406 3.82812 4.29203 3.6425 4.05516 C3.6425 4.05516 3.45703 3.81828 3.20063 3.68891 C3.20063 3.68891 2.94437 3.55953 2.64156 3.55953 C2.64156 3.55953 2.35359 3.55953 2.10453 3.67437 C2.10453 3.67437 1.85547 3.78906 1.67234 3.99656 C1.67234 3.99656 1.48922 4.20406 1.38422 4.48969 C1.38422 4.48969 1.27937 4.77531 1.27937 5.11234 C1.27937 5.11234 1.27937 5.48344 1.37938 5.77641 C1.37938 5.77641 1.47953 6.06937 1.665 6.27203 C1.665 6.27203 1.85062 6.47453 2.11187 6.58203 C2.11187 6.58203 2.37312 6.68938 2.69047 6.68938 C2.69047 6.68938 2.96875 6.68938 3.21531 6.58453 C3.21531 6.58453 3.46188 6.47953 3.645 6.30125 C3.645 6.30125 3.82812 6.12297 3.93312 5.88141 C3.93312 5.88141 4.03812 5.63969 4.03812 5.36125 Z"/>
 </defs>
 <g id="Hintergrund">
  <g transform="translate(75, 88.75)">
   <use style="fill:#161413;stroke:none;" xlink:href="#GlEbrima67" transform="matrix(1.4 0 0 1.4 6.56543 -3.62672)"/>
   <use style="fill:#161413;stroke:none;" xlink:href="#GlEbrima104" transform="matrix(1.4 0 0 1.4 15.2334 -3.62672)"/>
   <use style="fill:#161413;stroke:none;" xlink:href="#GlEbrima114" transform="matrix(1.4 0 0 1.4 23.1562 -3.62672)"/>
   <use style="fill:#161413;stroke:none;" xlink:href="#GlEbrima105" transform="matrix(1.4 0 0 1.4 28.0234 -3.62672)"/>
   <use style="fill:#161413;stroke:none;" xlink:href="#GlEbrima115" transform="matrix(1.4 0 0 1.4 31.4141 -3.62672)"/>
   <use style="fill:#161413;stroke:none;" xlink:href="#GlEbrima116" transform="matrix(1.4 0 0 1.4 37.3545 -3.62672)"/>
   <use style="fill:#161413;stroke:none;" xlink:href="#GlEbrima105" transform="matrix(1.4 0 0 1.4 42.0986 -3.62672)"/>
   <use style="fill:#161413;stroke:none;" xlink:href="#GlEbrima97" transform="matrix(1.4 0 0 1.4 45.4893 -3.62672)"/>
   <use style="fill:#161413;stroke:none;" xlink:href="#GlEbrima110" transform="matrix(1.4 0 0 1.4 52.6123 -3.62672)"/>
   <use style="fill:#161413;stroke:none;" xlink:href="#GlEbrima38" transform="matrix(1.4 0 0 1.4 64.3701 -3.62672)"/>
   <use style="fill:#161413;stroke:none;" xlink:href="#GlEbrima74" transform="matrix(1.4 0 0 1.4 79.4092 -3.62672)"/>
   <use style="fill:#161413;stroke:none;" xlink:href="#GlEbrima252" transform="matrix(1.4 0 0 1.4 84.4062 -3.62672)"/>
   <use style="fill:#161413;stroke:none;" xlink:href="#GlEbrima114" transform="matrix(1.4 0 0 1.4 92.3291 -3.62672)"/>
   <use style="fill:#161413;stroke:none;" xlink:href="#GlEbrima103" transform="matrix(1.4 0 0 1.4 97.1963 -3.62672)"/>
   <use style="fill:#161413;stroke:none;" xlink:href="#GlEbrima101" transform="matrix(1.4 0 0 1.4 105.44 -3.62672)"/>
   <use style="fill:#161413;stroke:none;" xlink:href="#GlEbrima110" transform="matrix(1.4 0 0 1.4 112.762 -3.62672)"/>
   <use style="fill:#161413;stroke:none;" xlink:href="#GlEbrima87" transform="matrix(1.4 0 0 1.4 30.3545 11.3733)"/>
   <use style="fill:#161413;stroke:none;" xlink:href="#GlEbrima97" transform="matrix(1.4 0 0 1.4 43.4316 11.3733)"/>
   <use style="fill:#161413;stroke:none;" xlink:href="#GlEbrima104" transform="matrix(1.4 0 0 1.4 50.5547 11.3733)"/>
   <use style="fill:#161413;stroke:none;" xlink:href="#GlEbrima108" transform="matrix(1.4 0 0 1.4 58.4775 11.3733)"/>
   <use style="fill:#161413;stroke:none;" xlink:href="#GlEbrima109" transform="matrix(1.4 0 0 1.4 61.8682 11.3733)"/>
   <use style="fill:#161413;stroke:none;" xlink:href="#GlEbrima97" transform="matrix(1.4 0 0 1.4 73.9268 11.3733)"/>
   <use style="fill:#161413;stroke:none;" xlink:href="#GlEbrima110" transform="matrix(1.4 0 0 1.4 81.0498 11.3733)"/>
   <use style="fill:#161413;stroke:none;" xlink:href="#GlEbrima110" transform="matrix(1.4 0 0 1.4 88.9727 11.3733)"/>
   <use style="fill:#161413;stroke:none;" xlink:href="#GlEbrima50" transform="matrix(1.4 0 0 1.4 48.5312 41.3733)"/>
   <use style="fill:#161413;stroke:none;" xlink:href="#GlEbrima48" transform="matrix(1.4 0 0 1.4 56.0781 41.3733)"/>
   <use style="fill:#161413;stroke:none;" xlink:href="#GlEbrima49" transform="matrix(1.4 0 0 1.4 63.625 41.3733)"/>
   <use style="fill:#161413;stroke:none;" xlink:href="#GlEbrima57" transform="matrix(1.4 0 0 1.4 71.1719 41.3733)"/>
   <path style="fill:none; stroke:none;" d="M0 0 L128 0 L128 60 L0 60 L0 0 Z"/>
  </g>
 </g>
</svg>
