G04 #@! TF.FileFunction,Copper,L2,Bot,Signal*
%FSLAX46Y46*%
G04 Gerber Fmt 4.6, Leading zero omitted, Abs format (unit mm)*
G04 Created by KiCad (PCBNEW 4.0.1-stable) date 22.05.2019 22:43:50*
%MOMM*%
G01*
G04 APERTURE LIST*
%ADD10C,0.100000*%
%ADD11C,2.000000*%
%ADD12R,1.700000X1.700000*%
%ADD13O,1.700000X1.700000*%
%ADD14R,1.800000X1.800000*%
%ADD15C,1.800000*%
%ADD16C,0.600000*%
%ADD17C,0.250000*%
G04 APERTURE END LIST*
D10*
D11*
X192304000Y-122328000D03*
X192304000Y-117828000D03*
X198804000Y-122328000D03*
X198804000Y-117828000D03*
X179004000Y-122328000D03*
X179004000Y-117828000D03*
X185504000Y-122328000D03*
X185504000Y-117828000D03*
X212254000Y-108328000D03*
X212254000Y-103828000D03*
X218754000Y-108328000D03*
X218754000Y-103828000D03*
X176484000Y-80328000D03*
X176484000Y-75828000D03*
X182984000Y-80328000D03*
X182984000Y-75828000D03*
X136584000Y-80328000D03*
X136584000Y-75828000D03*
X143084000Y-80328000D03*
X143084000Y-75828000D03*
X96684000Y-80328000D03*
X96684000Y-75828000D03*
X103184000Y-80328000D03*
X103184000Y-75828000D03*
X229684000Y-80328000D03*
X229684000Y-75828000D03*
X236184000Y-80328000D03*
X236184000Y-75828000D03*
X205604000Y-122328000D03*
X205604000Y-117828000D03*
X212104000Y-122328000D03*
X212104000Y-117828000D03*
X189784000Y-80328000D03*
X189784000Y-75828000D03*
X196284000Y-80328000D03*
X196284000Y-75828000D03*
X149884000Y-80328000D03*
X149884000Y-75828000D03*
X156384000Y-80328000D03*
X156384000Y-75828000D03*
X109984000Y-80328000D03*
X109984000Y-75828000D03*
X116484000Y-80328000D03*
X116484000Y-75828000D03*
X216384000Y-80328000D03*
X216384000Y-75828000D03*
X222884000Y-80328000D03*
X222884000Y-75828000D03*
X218904000Y-122328000D03*
X218904000Y-117828000D03*
X225404000Y-122328000D03*
X225404000Y-117828000D03*
X203084000Y-80328000D03*
X203084000Y-75828000D03*
X209584000Y-80328000D03*
X209584000Y-75828000D03*
X163184000Y-80328000D03*
X163184000Y-75828000D03*
X169684000Y-80328000D03*
X169684000Y-75828000D03*
X123284000Y-80328000D03*
X123284000Y-75828000D03*
X129784000Y-80328000D03*
X129784000Y-75828000D03*
X105854000Y-108328000D03*
X105854000Y-103828000D03*
X112354000Y-108328000D03*
X112354000Y-103828000D03*
X145754000Y-108328000D03*
X145754000Y-103828000D03*
X152254000Y-108328000D03*
X152254000Y-103828000D03*
X198954000Y-108328000D03*
X198954000Y-103828000D03*
X205454000Y-108328000D03*
X205454000Y-103828000D03*
X222194000Y-94328000D03*
X222194000Y-89828000D03*
X228694000Y-94328000D03*
X228694000Y-89828000D03*
X182294000Y-94328000D03*
X182294000Y-89828000D03*
X188794000Y-94328000D03*
X188794000Y-89828000D03*
X112504000Y-122328000D03*
X112504000Y-117828000D03*
X119004000Y-122328000D03*
X119004000Y-117828000D03*
X165704000Y-122328000D03*
X165704000Y-117828000D03*
X172204000Y-122328000D03*
X172204000Y-117828000D03*
X159054000Y-108328000D03*
X159054000Y-103828000D03*
X165554000Y-108328000D03*
X165554000Y-103828000D03*
X102494000Y-94328000D03*
X102494000Y-89828000D03*
X108994000Y-94328000D03*
X108994000Y-89828000D03*
X152404000Y-122328000D03*
X152404000Y-117828000D03*
X158904000Y-122328000D03*
X158904000Y-117828000D03*
X235529000Y-122328000D03*
X235529000Y-117828000D03*
X242029000Y-122328000D03*
X242029000Y-117828000D03*
X225554000Y-108328000D03*
X225554000Y-103828000D03*
X232054000Y-108328000D03*
X232054000Y-103828000D03*
X139104000Y-122328000D03*
X139104000Y-117828000D03*
X145604000Y-122328000D03*
X145604000Y-117828000D03*
X172354000Y-108328000D03*
X172354000Y-103828000D03*
X178854000Y-108328000D03*
X178854000Y-103828000D03*
X142394000Y-94328000D03*
X142394000Y-89828000D03*
X148894000Y-94328000D03*
X148894000Y-89828000D03*
X115794000Y-94328000D03*
X115794000Y-89828000D03*
X122294000Y-94328000D03*
X122294000Y-89828000D03*
X238854000Y-108328000D03*
X238854000Y-103828000D03*
X245354000Y-108328000D03*
X245354000Y-103828000D03*
X132454000Y-108328000D03*
X132454000Y-103828000D03*
X138954000Y-108328000D03*
X138954000Y-103828000D03*
X195594000Y-94328000D03*
X195594000Y-89828000D03*
X202094000Y-94328000D03*
X202094000Y-89828000D03*
X119154000Y-108328000D03*
X119154000Y-103828000D03*
X125654000Y-108328000D03*
X125654000Y-103828000D03*
X125804000Y-122328000D03*
X125804000Y-117828000D03*
X132304000Y-122328000D03*
X132304000Y-117828000D03*
X92554000Y-108328000D03*
X92554000Y-103828000D03*
X99054000Y-108328000D03*
X99054000Y-103828000D03*
X95879000Y-122328000D03*
X95879000Y-117828000D03*
X102379000Y-122328000D03*
X102379000Y-117828000D03*
X129094000Y-94328000D03*
X129094000Y-89828000D03*
X135594000Y-94328000D03*
X135594000Y-89828000D03*
X185654000Y-108328000D03*
X185654000Y-103828000D03*
X192154000Y-108328000D03*
X192154000Y-103828000D03*
X208894000Y-94328000D03*
X208894000Y-89828000D03*
X215394000Y-94328000D03*
X215394000Y-89828000D03*
X155694000Y-94328000D03*
X155694000Y-89828000D03*
X162194000Y-94328000D03*
X162194000Y-89828000D03*
X168994000Y-94328000D03*
X168994000Y-89828000D03*
X175494000Y-94328000D03*
X175494000Y-89828000D03*
X237174000Y-94328000D03*
X237174000Y-89828000D03*
X243674000Y-94328000D03*
X243674000Y-89828000D03*
D12*
X93024000Y-68753000D03*
D13*
X95564000Y-68753000D03*
X98104000Y-68753000D03*
X100644000Y-68753000D03*
X103184000Y-68753000D03*
X105724000Y-68753000D03*
X108264000Y-68753000D03*
X110804000Y-68753000D03*
X113344000Y-68753000D03*
X115884000Y-68753000D03*
X118424000Y-68753000D03*
X120964000Y-68753000D03*
X123504000Y-68753000D03*
X126044000Y-68753000D03*
X128584000Y-68753000D03*
X131124000Y-68753000D03*
X133664000Y-68753000D03*
X136204000Y-68753000D03*
X138744000Y-68753000D03*
X141284000Y-68753000D03*
X143824000Y-68753000D03*
X146364000Y-68753000D03*
D14*
X244408000Y-77516000D03*
D15*
X246948000Y-77516000D03*
D12*
X156524000Y-68753000D03*
D13*
X159064000Y-68753000D03*
D16*
X247329000Y-100503000D03*
X240979000Y-97328000D03*
D17*
X92710000Y-73914000D02*
X93218000Y-73914000D01*
X94241974Y-74937974D02*
X94241974Y-74938010D01*
X93218000Y-73914000D02*
X94241974Y-74937974D01*
X90463000Y-127787000D02*
X87037000Y-127787000D01*
X84500000Y-117328994D02*
X86674000Y-115154994D01*
X84500000Y-125250000D02*
X84500000Y-117328994D01*
X87037000Y-127787000D02*
X84500000Y-125250000D01*
X89281000Y-73914000D02*
X87886953Y-72390034D01*
X87944000Y-67483000D02*
X87944000Y-64943000D01*
X87944000Y-64943000D02*
X88579000Y-64308000D01*
X88579000Y-64308000D02*
X133029000Y-64308000D01*
X133029000Y-64308000D02*
X134299000Y-65578000D01*
X134299000Y-65578000D02*
X149539000Y-65578000D01*
X149539000Y-65578000D02*
X150174000Y-66213000D01*
X150174000Y-66213000D02*
X150174000Y-70023000D01*
X150174000Y-70023000D02*
X150809000Y-70658000D01*
X150809000Y-70658000D02*
X225104000Y-70658000D01*
X225104000Y-70658000D02*
X225739000Y-71293000D01*
X225739000Y-71293000D02*
X225739000Y-83358000D01*
X96684000Y-80328000D02*
X95074000Y-80328000D01*
X94277519Y-79502650D02*
X94241974Y-74938010D01*
X95074000Y-80328000D02*
X94277519Y-79502650D01*
X92710000Y-73914000D02*
X89281000Y-73914000D01*
X87886953Y-72390034D02*
X87944000Y-67483000D01*
X103184000Y-80328000D02*
X96684000Y-80328000D01*
X143084000Y-80328000D02*
X136584000Y-80328000D01*
X96834000Y-96693000D02*
X96684000Y-80328000D01*
X95564000Y-97963000D02*
X96834000Y-96693000D01*
X88579000Y-97963000D02*
X95564000Y-97963000D01*
X86674000Y-99868000D02*
X88579000Y-97963000D01*
X86674000Y-115154994D02*
X86674000Y-99868000D01*
X93659000Y-130983000D02*
X90463000Y-127787000D01*
X174304000Y-130983000D02*
X93659000Y-130983000D01*
X178114000Y-127173000D02*
X174304000Y-130983000D01*
X103184000Y-80328000D02*
X97614000Y-80328000D01*
X182984000Y-80328000D02*
X184609000Y-80328000D01*
X184609000Y-80328000D02*
X187639000Y-83358000D01*
X187639000Y-83358000D02*
X197799000Y-83358000D01*
X197799000Y-83358000D02*
X200339000Y-80818000D01*
X200339000Y-80818000D02*
X200339000Y-75103000D01*
X200339000Y-75103000D02*
X202244000Y-73198000D01*
X202244000Y-73198000D02*
X210499000Y-73198000D01*
X210499000Y-73198000D02*
X213039000Y-75738000D01*
X213039000Y-75738000D02*
X213039000Y-80818000D01*
X213039000Y-80818000D02*
X215579000Y-83358000D01*
X215579000Y-83358000D02*
X225739000Y-83358000D01*
X226654000Y-83358000D02*
X229684000Y-80328000D01*
X226374000Y-83358000D02*
X226654000Y-83358000D01*
X225739000Y-83358000D02*
X226374000Y-83358000D01*
X236184000Y-80328000D02*
X229684000Y-80328000D01*
X176484000Y-80328000D02*
X182984000Y-80328000D01*
X176484000Y-80328000D02*
X174449000Y-80328000D01*
X146114000Y-83358000D02*
X143084000Y-80328000D01*
X157794000Y-83358000D02*
X146114000Y-83358000D01*
X159699000Y-81453000D02*
X157794000Y-83358000D01*
X159699000Y-75103000D02*
X159699000Y-81453000D01*
X162874000Y-71928000D02*
X159699000Y-75103000D01*
X169859000Y-71928000D02*
X162874000Y-71928000D01*
X172399000Y-74468000D02*
X169859000Y-71928000D01*
X172399000Y-78278000D02*
X172399000Y-74468000D01*
X174449000Y-80328000D02*
X172399000Y-78278000D01*
X136584000Y-80328000D02*
X135079000Y-80328000D01*
X135079000Y-80328000D02*
X134299000Y-79548000D01*
X134299000Y-79548000D02*
X134299000Y-74468000D01*
X134299000Y-74468000D02*
X136204000Y-72563000D01*
X136204000Y-72563000D02*
X136204000Y-68753000D01*
X205604000Y-122328000D02*
X212104000Y-122328000D01*
X205604000Y-122328000D02*
X205184000Y-122328000D01*
X205184000Y-122328000D02*
X201609000Y-127173000D01*
X201609000Y-127173000D02*
X178114000Y-127173000D01*
X87309000Y-115750000D02*
X87250000Y-115750000D01*
X87250000Y-126750000D02*
X90696000Y-126750000D01*
X85250000Y-124750000D02*
X87250000Y-126750000D01*
X85250000Y-117750000D02*
X85250000Y-124750000D01*
X87250000Y-115750000D02*
X85250000Y-117750000D01*
X216214000Y-119638000D02*
X218904000Y-122328000D01*
X90696000Y-126750000D02*
X94294000Y-130348000D01*
X94294000Y-130348000D02*
X173669000Y-130348000D01*
X173669000Y-130348000D02*
X178114000Y-125903000D01*
X178114000Y-125903000D02*
X201609000Y-125903000D01*
X201609000Y-125903000D02*
X202879000Y-123998000D01*
X202879000Y-123998000D02*
X202879000Y-116378000D01*
X202879000Y-116378000D02*
X204784000Y-114473000D01*
X204784000Y-114473000D02*
X214309000Y-114473000D01*
X214309000Y-114473000D02*
X216214000Y-116378000D01*
X216214000Y-116378000D02*
X216214000Y-119638000D01*
X97469000Y-97328000D02*
X96199000Y-98598000D01*
X107484000Y-80328000D02*
X102549000Y-85263000D01*
X102549000Y-85263000D02*
X98739000Y-85263000D01*
X98739000Y-85263000D02*
X97469000Y-86533000D01*
X97469000Y-86533000D02*
X97469000Y-97328000D01*
X109984000Y-80328000D02*
X107484000Y-80328000D01*
X87309000Y-100503000D02*
X87309000Y-115750000D01*
X89214000Y-98598000D02*
X87309000Y-100503000D01*
X96199000Y-98598000D02*
X89214000Y-98598000D01*
X218904000Y-122328000D02*
X225404000Y-122328000D01*
X109984000Y-80328000D02*
X116484000Y-80328000D01*
X133664000Y-68753000D02*
X133618873Y-66216223D01*
X107629000Y-77973000D02*
X109984000Y-80328000D01*
X107629000Y-74468000D02*
X107629000Y-77973000D01*
X106359000Y-73198000D02*
X107629000Y-74468000D01*
X89849000Y-73198000D02*
X106359000Y-73198000D01*
X88579000Y-71928000D02*
X89849000Y-73198000D01*
X88579000Y-65578000D02*
X88579000Y-71928000D01*
X89214000Y-64943000D02*
X88579000Y-65578000D01*
X132394000Y-64943000D02*
X89214000Y-64943000D01*
X133618873Y-66216223D02*
X132394000Y-64943000D01*
X189784000Y-80328000D02*
X186514000Y-80328000D01*
X159064000Y-77648000D02*
X156384000Y-80328000D01*
X159064000Y-74468000D02*
X159064000Y-77648000D01*
X162239000Y-71293000D02*
X159064000Y-74468000D01*
X183194000Y-71293000D02*
X162239000Y-71293000D01*
X185734000Y-73833000D02*
X183194000Y-71293000D01*
X185734000Y-79548000D02*
X185734000Y-73833000D01*
X186514000Y-80328000D02*
X185734000Y-79548000D01*
X216384000Y-80328000D02*
X222884000Y-80328000D01*
X196284000Y-80328000D02*
X198289000Y-80328000D01*
X213674000Y-77618000D02*
X216384000Y-80328000D01*
X213674000Y-74468000D02*
X213674000Y-77618000D01*
X211769000Y-72563000D02*
X213674000Y-74468000D01*
X201609000Y-72563000D02*
X211769000Y-72563000D01*
X199704000Y-74468000D02*
X201609000Y-72563000D01*
X199704000Y-78913000D02*
X199704000Y-74468000D01*
X198289000Y-80328000D02*
X199704000Y-78913000D01*
X196284000Y-80328000D02*
X189784000Y-80328000D01*
X149884000Y-80328000D02*
X156384000Y-80328000D01*
X133664000Y-68753000D02*
X133618873Y-66216223D01*
X147634000Y-78078000D02*
X149884000Y-80328000D01*
X147634000Y-74468000D02*
X147634000Y-78078000D01*
X149539000Y-72563000D02*
X147634000Y-74468000D01*
X149539000Y-66848000D02*
X149539000Y-72563000D01*
X148904000Y-66213000D02*
X149539000Y-66848000D01*
X133665237Y-66215371D02*
X148904000Y-66213000D01*
X133618873Y-66216223D02*
X133665237Y-66215371D01*
X94500000Y-122328000D02*
X94328000Y-122328000D01*
X94000000Y-122000000D02*
X94000000Y-121250000D01*
X94328000Y-122328000D02*
X94000000Y-122000000D01*
X92554000Y-116000000D02*
X92554000Y-117054000D01*
X92554000Y-116000000D02*
X92554000Y-108328000D01*
X94000000Y-118500000D02*
X93250000Y-117750000D01*
X94000000Y-121250000D02*
X94000000Y-118500000D01*
X92554000Y-117054000D02*
X93250000Y-117750000D01*
X95879000Y-122328000D02*
X94500000Y-122328000D01*
X91243000Y-124757000D02*
X87507000Y-124757000D01*
X86750000Y-118250000D02*
X88579000Y-116421000D01*
X86750000Y-124000000D02*
X86750000Y-118250000D01*
X87507000Y-124757000D02*
X86750000Y-124000000D01*
X240250000Y-86533000D02*
X240250000Y-86500000D01*
X248750000Y-85747000D02*
X246694000Y-87803000D01*
X248750000Y-82000000D02*
X248750000Y-85747000D01*
X247750000Y-81000000D02*
X248750000Y-82000000D01*
X243500000Y-81000000D02*
X247750000Y-81000000D01*
X242000000Y-82500000D02*
X243500000Y-81000000D01*
X242000000Y-84750000D02*
X242000000Y-82500000D01*
X240250000Y-86500000D02*
X242000000Y-84750000D01*
X120964000Y-68753000D02*
X120964000Y-70658000D01*
X120329000Y-71293000D02*
X120964000Y-70658000D01*
X120329000Y-83358000D02*
X120964000Y-83993000D01*
X120964000Y-83993000D02*
X122234000Y-85263000D01*
X192719000Y-96693000D02*
X195594000Y-94328000D01*
X181924000Y-96693000D02*
X192719000Y-96693000D01*
X179384000Y-94153000D02*
X181924000Y-96693000D01*
X179384000Y-87803000D02*
X179384000Y-94153000D01*
X176844000Y-85263000D02*
X179384000Y-87803000D01*
X122234000Y-85263000D02*
X176844000Y-85263000D01*
X120329000Y-83358000D02*
X120329000Y-71293000D01*
X179004000Y-122328000D02*
X185504000Y-122328000D01*
X179004000Y-122328000D02*
X179004000Y-122473000D01*
X179004000Y-122473000D02*
X172399000Y-129078000D01*
X172399000Y-129078000D02*
X95564000Y-129078000D01*
X95564000Y-129078000D02*
X91243000Y-124757000D01*
X88579000Y-116421000D02*
X88579000Y-102408000D01*
X88579000Y-102408000D02*
X88579000Y-101773000D01*
X88579000Y-101773000D02*
X90484000Y-99868000D01*
X90484000Y-99868000D02*
X114614000Y-99868000D01*
X114614000Y-99868000D02*
X116519000Y-101773000D01*
X116519000Y-101773000D02*
X116519000Y-105693000D01*
X116519000Y-105693000D02*
X119154000Y-108328000D01*
X92554000Y-108328000D02*
X99054000Y-108328000D01*
X102379000Y-122328000D02*
X95879000Y-122328000D01*
X125804000Y-122328000D02*
X125804000Y-122333000D01*
X125804000Y-122333000D02*
X120329000Y-127808000D01*
X107859000Y-127808000D02*
X102379000Y-122328000D01*
X120329000Y-127808000D02*
X107859000Y-127808000D01*
X132304000Y-122328000D02*
X125804000Y-122328000D01*
X129219000Y-108328000D02*
X129219000Y-113838000D01*
X134934000Y-119698000D02*
X132304000Y-122328000D01*
X134934000Y-117013000D02*
X134934000Y-119698000D01*
X133029000Y-115108000D02*
X134934000Y-117013000D01*
X130489000Y-115108000D02*
X133029000Y-115108000D01*
X129219000Y-113838000D02*
X130489000Y-115108000D01*
X125654000Y-108328000D02*
X119154000Y-108328000D01*
X132454000Y-108328000D02*
X129219000Y-108328000D01*
X129219000Y-108328000D02*
X125654000Y-108328000D01*
X138954000Y-108328000D02*
X132454000Y-108328000D01*
X202094000Y-94328000D02*
X204784000Y-94153000D01*
X141284000Y-105998000D02*
X138954000Y-108328000D01*
X246694000Y-87803000D02*
X246694000Y-96058000D01*
X246694000Y-96058000D02*
X243519000Y-99233000D01*
X243519000Y-99233000D02*
X196529000Y-99233000D01*
X196529000Y-99233000D02*
X195259000Y-100503000D01*
X195259000Y-100503000D02*
X195259000Y-110028000D01*
X195259000Y-110028000D02*
X193354000Y-111933000D01*
X193354000Y-111933000D02*
X183829000Y-111933000D01*
X183829000Y-111933000D02*
X181924000Y-110028000D01*
X181924000Y-110028000D02*
X181924000Y-101773000D01*
X181924000Y-101773000D02*
X179384000Y-99233000D01*
X179384000Y-99233000D02*
X141919000Y-99233000D01*
X141919000Y-99233000D02*
X141284000Y-99868000D01*
X141284000Y-99868000D02*
X141284000Y-105998000D01*
X235899000Y-86533000D02*
X240250000Y-86533000D01*
X233994000Y-88438000D02*
X235899000Y-86533000D01*
X233994000Y-94788000D02*
X233994000Y-88438000D01*
X232089000Y-96693000D02*
X233994000Y-94788000D01*
X220024000Y-96693000D02*
X232089000Y-96693000D01*
X218119000Y-94788000D02*
X220024000Y-96693000D01*
X218119000Y-88438000D02*
X218119000Y-94788000D01*
X216214000Y-86533000D02*
X218119000Y-88438000D01*
X207959000Y-86533000D02*
X216214000Y-86533000D01*
X206054000Y-88438000D02*
X207959000Y-86533000D01*
X206054000Y-92883000D02*
X206054000Y-88438000D01*
X204784000Y-94153000D02*
X206054000Y-92883000D01*
X195594000Y-94328000D02*
X202094000Y-94328000D01*
X203084000Y-80328000D02*
X202734000Y-80328000D01*
X202734000Y-80328000D02*
X199069000Y-83993000D01*
X209584000Y-80328000D02*
X203084000Y-80328000D01*
X169684000Y-80328000D02*
X170004000Y-80328000D01*
X170004000Y-80328000D02*
X173669000Y-83993000D01*
X197164000Y-83993000D02*
X199069000Y-83993000D01*
X173669000Y-83993000D02*
X197164000Y-83993000D01*
X129784000Y-80328000D02*
X130344000Y-80328000D01*
X130344000Y-80328000D02*
X131759000Y-78913000D01*
X131124000Y-72563000D02*
X131124000Y-68753000D01*
X131759000Y-73198000D02*
X131124000Y-72563000D01*
X131759000Y-78913000D02*
X131759000Y-73198000D01*
X163184000Y-80328000D02*
X169684000Y-80328000D01*
X129784000Y-80328000D02*
X129784000Y-81383000D01*
X159064000Y-83993000D02*
X163184000Y-80328000D01*
X132940708Y-84095742D02*
X159064000Y-83993000D01*
X129784000Y-81383000D02*
X132940708Y-84095742D01*
X129784000Y-80328000D02*
X123284000Y-80328000D01*
X91503000Y-123747000D02*
X88503000Y-123747000D01*
X87500000Y-118500000D02*
X89214000Y-116786000D01*
X87500000Y-122744000D02*
X87500000Y-118500000D01*
X88503000Y-123747000D02*
X87500000Y-122744000D01*
X239750000Y-85898000D02*
X239852000Y-85898000D01*
X249500000Y-86309004D02*
X247329000Y-88480004D01*
X249500000Y-81500000D02*
X249500000Y-86309004D01*
X248250000Y-80250000D02*
X249500000Y-81500000D01*
X243000000Y-80250000D02*
X248250000Y-80250000D01*
X241000000Y-82250000D02*
X243000000Y-80250000D01*
X241000000Y-84750000D02*
X241000000Y-82250000D01*
X239852000Y-85898000D02*
X241000000Y-84750000D01*
X128584000Y-68753000D02*
X128584000Y-68753000D01*
X191449000Y-84628000D02*
X193354000Y-86533000D01*
X121599000Y-73198000D02*
X120964000Y-73833000D01*
X127936630Y-73201071D02*
X121599000Y-73198000D01*
X128584000Y-72563000D02*
X127936630Y-73201071D01*
X122869000Y-84628000D02*
X186369000Y-84628000D01*
X120964000Y-82723000D02*
X122869000Y-84628000D01*
X120964000Y-73833000D02*
X120964000Y-82723000D01*
X186369000Y-84628000D02*
X191449000Y-84628000D01*
X128584000Y-68753000D02*
X128584000Y-72563000D01*
X105854000Y-108328000D02*
X112354000Y-108328000D01*
X188794000Y-94328000D02*
X182294000Y-94328000D01*
X222194000Y-94328000D02*
X220199000Y-94328000D01*
X191909000Y-94328000D02*
X188794000Y-94328000D01*
X193354000Y-92883000D02*
X191909000Y-94328000D01*
X193354000Y-86533000D02*
X193354000Y-92883000D01*
X193989000Y-85898000D02*
X193354000Y-86533000D01*
X207324000Y-85898000D02*
X193989000Y-85898000D01*
X216849000Y-85898000D02*
X207324000Y-85898000D01*
X218754000Y-87803000D02*
X216849000Y-85898000D01*
X218754000Y-92883000D02*
X218754000Y-87803000D01*
X220199000Y-94328000D02*
X218754000Y-92883000D01*
X228694000Y-94328000D02*
X222194000Y-94328000D01*
X205454000Y-108328000D02*
X207754000Y-108328000D01*
X207754000Y-108328000D02*
X208594000Y-107488000D01*
X208594000Y-107488000D02*
X208594000Y-101138000D01*
X208594000Y-101138000D02*
X209864000Y-99868000D01*
X209864000Y-99868000D02*
X244154000Y-99868000D01*
X244154000Y-99868000D02*
X247329000Y-96693000D01*
X247329000Y-96693000D02*
X247329000Y-88480004D01*
X232549000Y-94328000D02*
X228694000Y-94328000D01*
X233359000Y-93518000D02*
X232549000Y-94328000D01*
X233359000Y-87803000D02*
X233359000Y-93518000D01*
X235264000Y-85898000D02*
X233359000Y-87803000D01*
X239750000Y-85898000D02*
X235264000Y-85898000D01*
X198954000Y-108328000D02*
X205454000Y-108328000D01*
X152254000Y-108328000D02*
X153779000Y-108328000D01*
X194714000Y-112568000D02*
X198954000Y-108328000D01*
X183194000Y-112568000D02*
X194714000Y-112568000D01*
X181289000Y-110663000D02*
X183194000Y-112568000D01*
X181289000Y-102408000D02*
X181289000Y-110663000D01*
X178749000Y-99868000D02*
X181289000Y-102408000D01*
X156524000Y-99868000D02*
X178749000Y-99868000D01*
X154619000Y-101773000D02*
X156524000Y-99868000D01*
X154619000Y-107488000D02*
X154619000Y-101773000D01*
X153779000Y-108328000D02*
X154619000Y-107488000D01*
X145754000Y-108328000D02*
X152254000Y-108328000D01*
X105854000Y-108328000D02*
X104024000Y-108328000D01*
X104024000Y-108328000D02*
X101914000Y-106218000D01*
X101914000Y-106218000D02*
X101914000Y-101773000D01*
X101914000Y-101773000D02*
X100644000Y-100503000D01*
X100644000Y-100503000D02*
X91119000Y-100503000D01*
X91119000Y-100503000D02*
X89214000Y-102408000D01*
X89214000Y-102408000D02*
X89214000Y-116786000D01*
X142784000Y-111298000D02*
X145754000Y-108328000D01*
X137474000Y-111298000D02*
X142784000Y-111298000D01*
X135569000Y-113203000D02*
X137474000Y-111298000D01*
X135569000Y-126538000D02*
X135569000Y-113203000D01*
X133664000Y-128443000D02*
X135569000Y-126538000D01*
X96199000Y-128443000D02*
X133664000Y-128443000D01*
X91503000Y-123747000D02*
X96199000Y-128443000D01*
X112504000Y-122328000D02*
X119004000Y-122328000D01*
X112504000Y-122328000D02*
X109134000Y-122328000D01*
X105854000Y-119048000D02*
X105854000Y-108328000D01*
X109134000Y-122328000D02*
X105854000Y-119048000D01*
X90858000Y-125642000D02*
X87392000Y-125642000D01*
X86000000Y-118000000D02*
X87944000Y-116056000D01*
X86000000Y-124250000D02*
X86000000Y-118000000D01*
X87392000Y-125642000D02*
X86000000Y-124250000D01*
X126044000Y-68753000D02*
X126044000Y-66213000D01*
X125409000Y-65578000D02*
X126044000Y-66213000D01*
X89849000Y-65578000D02*
X125409000Y-65578000D01*
X89214000Y-66213000D02*
X89849000Y-65578000D01*
X89214000Y-71293000D02*
X89214000Y-66213000D01*
X90484000Y-72563000D02*
X89214000Y-71293000D01*
X117789000Y-72563000D02*
X90484000Y-72563000D01*
X118424000Y-73198000D02*
X117789000Y-72563000D01*
X118424000Y-82088000D02*
X118424000Y-73198000D01*
X116519000Y-83993000D02*
X118424000Y-82088000D01*
X113344000Y-83993000D02*
X116519000Y-83993000D01*
X111439000Y-85898000D02*
X113344000Y-83993000D01*
X111439000Y-92883000D02*
X111439000Y-85898000D01*
X111439000Y-92883000D02*
X109994000Y-94328000D01*
X108994000Y-94328000D02*
X102494000Y-94328000D01*
X212254000Y-108328000D02*
X210929000Y-108328000D01*
X199704000Y-125268000D02*
X187004000Y-125268000D01*
X200974000Y-123998000D02*
X199704000Y-125268000D01*
X200974000Y-113838000D02*
X200974000Y-123998000D01*
X203514000Y-111298000D02*
X200974000Y-113838000D01*
X207959000Y-111298000D02*
X203514000Y-111298000D01*
X210929000Y-108328000D02*
X207959000Y-111298000D01*
X98104000Y-99233000D02*
X89849000Y-99233000D01*
X89849000Y-99233000D02*
X87944000Y-101138000D01*
X87944000Y-101138000D02*
X87944000Y-116056000D01*
X108994000Y-94328000D02*
X108994000Y-97233000D01*
X106994000Y-99233000D02*
X98104000Y-99233000D01*
X108994000Y-97233000D02*
X106994000Y-99233000D01*
X148269000Y-118193000D02*
X152404000Y-122328000D01*
X148269000Y-116378000D02*
X148269000Y-118193000D01*
X146999000Y-115108000D02*
X148269000Y-116378000D01*
X137474000Y-115108000D02*
X146999000Y-115108000D01*
X136839000Y-115743000D02*
X137474000Y-115108000D01*
X136839000Y-123998000D02*
X136839000Y-115743000D01*
X139379000Y-126538000D02*
X136839000Y-123998000D01*
X173669000Y-126538000D02*
X139379000Y-126538000D01*
X174939000Y-125268000D02*
X173669000Y-126538000D01*
X174939000Y-117013000D02*
X174939000Y-125268000D01*
X176844000Y-115108000D02*
X174939000Y-117013000D01*
X187004000Y-115108000D02*
X176844000Y-115108000D01*
X188274000Y-116378000D02*
X187004000Y-115108000D01*
X188274000Y-123998000D02*
X188274000Y-116378000D01*
X187004000Y-125268000D02*
X188274000Y-123998000D01*
X177344002Y-125268000D02*
X187004000Y-125268000D01*
X172899002Y-129713000D02*
X177344002Y-125268000D01*
X94929000Y-129713000D02*
X172899002Y-129713000D01*
X90858000Y-125642000D02*
X94929000Y-129713000D01*
X108994000Y-94328000D02*
X109994000Y-94328000D01*
X242029000Y-122328000D02*
X235529000Y-122328000D01*
X232054000Y-108328000D02*
X232054000Y-119518000D01*
X232054000Y-119518000D02*
X234864000Y-122328000D01*
X234864000Y-122328000D02*
X235529000Y-122328000D01*
X218754000Y-108328000D02*
X212254000Y-108328000D01*
X225554000Y-108328000D02*
X218754000Y-108328000D01*
X232054000Y-108328000D02*
X225554000Y-108328000D01*
X165704000Y-122328000D02*
X172204000Y-122328000D01*
X158904000Y-122328000D02*
X152404000Y-122328000D01*
X165704000Y-122328000D02*
X158904000Y-122328000D01*
X159054000Y-108328000D02*
X165554000Y-108328000D01*
X165554000Y-108328000D02*
X165554000Y-110523000D01*
X162874000Y-119498000D02*
X165704000Y-122328000D01*
X162874000Y-113203000D02*
X162874000Y-119498000D01*
X165554000Y-110523000D02*
X162874000Y-113203000D01*
X123504000Y-68753000D02*
X123504000Y-66848000D01*
X90484000Y-66213000D02*
X89849000Y-66848000D01*
X89849000Y-66848000D02*
X89849000Y-70658000D01*
X89849000Y-70658000D02*
X91119000Y-71928000D01*
X91119000Y-71928000D02*
X118424000Y-71928000D01*
X118424000Y-71928000D02*
X119059000Y-72563000D01*
X119059000Y-72563000D02*
X119059000Y-83358000D01*
X119059000Y-83358000D02*
X116519000Y-85898000D01*
X116519000Y-85898000D02*
X115249000Y-85898000D01*
X115249000Y-85898000D02*
X112709000Y-88438000D01*
X112709000Y-88438000D02*
X112709000Y-91243000D01*
X112709000Y-91243000D02*
X115794000Y-94328000D01*
X123504000Y-66848000D02*
X122869000Y-66213000D01*
X122869000Y-66213000D02*
X96199000Y-66213000D01*
X96199000Y-66213000D02*
X90484000Y-66213000D01*
X239709000Y-97328000D02*
X240979000Y-97328000D01*
X233994000Y-98598000D02*
X234629000Y-98598000D01*
X244154000Y-97328000D02*
X246059000Y-95423000D01*
X235899000Y-97328000D02*
X239709000Y-97328000D01*
X239709000Y-97328000D02*
X244154000Y-97328000D01*
X234629000Y-98598000D02*
X235899000Y-97328000D01*
X122294000Y-94328000D02*
X115794000Y-94328000D01*
X195259000Y-98598000D02*
X194624000Y-99233000D01*
X206689000Y-89073000D02*
X208594000Y-87168000D01*
X206689000Y-89708000D02*
X206689000Y-89073000D01*
X206054000Y-97328000D02*
X206689000Y-96693000D01*
X206689000Y-96693000D02*
X206689000Y-89708000D01*
X194624000Y-97328000D02*
X206054000Y-97328000D01*
X246059000Y-88438000D02*
X246059000Y-95423000D01*
X242951000Y-87122000D02*
X246059000Y-88438000D01*
X236534000Y-87168000D02*
X242951000Y-87122000D01*
X235264000Y-88438000D02*
X236534000Y-87168000D01*
X235264000Y-94788000D02*
X235264000Y-88438000D01*
X232724000Y-97328000D02*
X235264000Y-94788000D01*
X219389000Y-97328000D02*
X232724000Y-97328000D01*
X217484000Y-95423000D02*
X219389000Y-97328000D01*
X217484000Y-89073000D02*
X217484000Y-95423000D01*
X215579000Y-87168000D02*
X217484000Y-89073000D01*
X208594000Y-87168000D02*
X215579000Y-87168000D01*
X233994000Y-98598000D02*
X195259000Y-98598000D01*
X126564000Y-98598000D02*
X122294000Y-94328000D01*
X180019000Y-98598000D02*
X126564000Y-98598000D01*
X182559000Y-101138000D02*
X180019000Y-98598000D01*
X182559000Y-109393000D02*
X182559000Y-101138000D01*
X184464000Y-111298000D02*
X182559000Y-109393000D01*
X192719000Y-111298000D02*
X184464000Y-111298000D01*
X194624000Y-109393000D02*
X192719000Y-111298000D01*
X194624000Y-99233000D02*
X194624000Y-109393000D01*
X195124002Y-97328000D02*
X194624000Y-97328000D01*
X194624000Y-97328000D02*
X193989000Y-97328000D01*
X178749000Y-94788000D02*
X181289000Y-97328000D01*
X151269000Y-94328000D02*
X152079000Y-93518000D01*
X152079000Y-93518000D02*
X152079000Y-87803000D01*
X152079000Y-87803000D02*
X153349000Y-86533000D01*
X153349000Y-86533000D02*
X176209000Y-86533000D01*
X176209000Y-86533000D02*
X178749000Y-89073000D01*
X178749000Y-89073000D02*
X178749000Y-94788000D01*
X148894000Y-94328000D02*
X151269000Y-94328000D01*
X181289000Y-97328000D02*
X193989000Y-97328000D01*
X193989000Y-97328000D02*
X195124002Y-97328000D01*
X142394000Y-94328000D02*
X148894000Y-94328000D01*
X246694000Y-101138000D02*
X235899000Y-101138000D01*
X247329000Y-100503000D02*
X246694000Y-101138000D01*
X194624000Y-113838000D02*
X195259000Y-113838000D01*
X206689000Y-110663000D02*
X209094002Y-108257998D01*
X209094002Y-108257998D02*
X209094002Y-101907998D01*
X209094002Y-101907998D02*
X210499000Y-100503000D01*
X210499000Y-100503000D02*
X235264000Y-100503000D01*
X235264000Y-100503000D02*
X235899000Y-101138000D01*
X188274000Y-113838000D02*
X194624000Y-113838000D01*
X195259000Y-113838000D02*
X198434000Y-110663000D01*
X198434000Y-110663000D02*
X206689000Y-110663000D01*
X238854000Y-108328000D02*
X245354000Y-108328000D01*
X236534000Y-106008000D02*
X238854000Y-108328000D01*
X235899000Y-101138000D02*
X236534000Y-101773000D01*
X236534000Y-101773000D02*
X236534000Y-106008000D01*
X192304000Y-122328000D02*
X198804000Y-122328000D01*
X178749000Y-111298000D02*
X180654000Y-111298000D01*
X190179000Y-120203000D02*
X192304000Y-122328000D01*
X190179000Y-115743000D02*
X190179000Y-120203000D01*
X188274000Y-113838000D02*
X190179000Y-115743000D01*
X183194000Y-113838000D02*
X188274000Y-113838000D01*
X180654000Y-111298000D02*
X183194000Y-113838000D01*
X145604000Y-122328000D02*
X139104000Y-122328000D01*
X174304000Y-124633000D02*
X173034000Y-125903000D01*
X178854000Y-111193000D02*
X178749000Y-111298000D01*
X178749000Y-111298000D02*
X178114000Y-111933000D01*
X178114000Y-111933000D02*
X175574000Y-111933000D01*
X175574000Y-111933000D02*
X174304000Y-113203000D01*
X174304000Y-113203000D02*
X174304000Y-124633000D01*
X178854000Y-108328000D02*
X178854000Y-111193000D01*
X149179000Y-125903000D02*
X145604000Y-122328000D01*
X173034000Y-125903000D02*
X149179000Y-125903000D01*
X178854000Y-108328000D02*
X172354000Y-108328000D01*
X185654000Y-108328000D02*
X192154000Y-108328000D01*
X183194000Y-97963000D02*
X183194000Y-106853000D01*
X183194000Y-106853000D02*
X184669000Y-108328000D01*
X184669000Y-108328000D02*
X185654000Y-108328000D01*
X237174000Y-94328000D02*
X243674000Y-94328000D01*
X216849000Y-97963000D02*
X233359000Y-97963000D01*
X215579000Y-96693000D02*
X216849000Y-97963000D01*
X233359000Y-97963000D02*
X236994000Y-94328000D01*
X236994000Y-94328000D02*
X237174000Y-94328000D01*
X215394000Y-94328000D02*
X215579000Y-96693000D01*
X208894000Y-94328000D02*
X215394000Y-94328000D01*
X175494000Y-94328000D02*
X177019000Y-94328000D01*
X208594000Y-96693000D02*
X208894000Y-94328000D01*
X207324000Y-97963000D02*
X208594000Y-96693000D01*
X180654000Y-97963000D02*
X183194000Y-97963000D01*
X183194000Y-97963000D02*
X207324000Y-97963000D01*
X177019000Y-94328000D02*
X180654000Y-97963000D01*
X168994000Y-94328000D02*
X175494000Y-94328000D01*
X162194000Y-94328000D02*
X168994000Y-94328000D01*
X155694000Y-94328000D02*
X162194000Y-94328000D01*
X135594000Y-94328000D02*
X137014000Y-94328000D01*
X153174000Y-94328000D02*
X155694000Y-94328000D01*
X150174000Y-97328000D02*
X153174000Y-94328000D01*
X140014000Y-97328000D02*
X150174000Y-97328000D01*
X137014000Y-94328000D02*
X140014000Y-97328000D01*
X129094000Y-94328000D02*
X135594000Y-94328000D01*
X118424000Y-68753000D02*
X118424000Y-70658000D01*
X126854000Y-94328000D02*
X129094000Y-94328000D01*
X125409000Y-92883000D02*
X126854000Y-94328000D01*
X125409000Y-88438000D02*
X125409000Y-92883000D01*
X124139000Y-87168000D02*
X125409000Y-88438000D01*
X121599000Y-87168000D02*
X124139000Y-87168000D01*
X119694000Y-85263000D02*
X121599000Y-87168000D01*
X119694000Y-71928000D02*
X119694000Y-85263000D01*
X118424000Y-70658000D02*
X119694000Y-71928000D01*
M02*
