%FSLAX45Y45*%
G04 Gerber Fmt 4.5, Leading zero omitted, Abs format (unit mm)*
G04 Created by KiCad (PCBNEW 4.0.1-stable) date 03.08.2019 21:48:38*
%MOMM*%
G01*
G04 APERTURE LIST*
%ADD10C,0.127000*%
%ADD11C,0.150000*%
%ADD12C,0.200000*%
%ADD13C,0.300000*%
G04 APERTURE END LIST*
D10*
D11*
X9194100Y-7781400D02*
G75*
G03X9194100Y-7781400I-125000J0D01*
G01*
X9194100Y-12006400D02*
G75*
G03X9194100Y-12006400I-125000J0D01*
G01*
X24825000Y-12025000D02*
G75*
G03X24825000Y-12025000I-125000J0D01*
G01*
X24675000Y-8425000D02*
G75*
G03X24675000Y-8425000I-125000J0D01*
G01*
X8311800Y-6151400D02*
X8311800Y-6164100D01*
X25761600Y-6151400D02*
X25761600Y-6354600D01*
X8311800Y-6164100D02*
X8311800Y-13314200D01*
X8311800Y-6151400D02*
X25761600Y-6151400D01*
X25761600Y-13187200D02*
X25761600Y-13314200D01*
X8311800Y-13314200D02*
X25761600Y-13314200D01*
X25761600Y-6354600D02*
X25761600Y-13187200D01*
D12*
X24077900Y-9712800D02*
X24117900Y-9752800D01*
X24117900Y-9712800D02*
X24077900Y-9752800D01*
X24712900Y-10030300D02*
X24752900Y-10070300D01*
X24752900Y-10030300D02*
X24712900Y-10070300D01*
X23542700Y-7086600D02*
G75*
G03X23542700Y-7086600I-35000J0D01*
G01*
X24304700Y-7086600D02*
G75*
G03X24304700Y-7086600I-35000J0D01*
G01*
X24440800Y-7706600D02*
X24440800Y-7796600D01*
X24395800Y-7751600D02*
X24485800Y-7751600D01*
X24694800Y-7706600D02*
X24694800Y-7796600D01*
X24649800Y-7751600D02*
X24739800Y-7751600D01*
X9337756Y-6910656D02*
X9337756Y-6839944D01*
X9267044Y-6839944D01*
X9267044Y-6910656D01*
X9337756Y-6910656D01*
X9591756Y-6910656D02*
X9591756Y-6839944D01*
X9521044Y-6839944D01*
X9521044Y-6910656D01*
X9591756Y-6910656D01*
X9845756Y-6910656D02*
X9845756Y-6839944D01*
X9775044Y-6839944D01*
X9775044Y-6910656D01*
X9845756Y-6910656D01*
X10099756Y-6910656D02*
X10099756Y-6839944D01*
X10029044Y-6839944D01*
X10029044Y-6910656D01*
X10099756Y-6910656D01*
X10353756Y-6910656D02*
X10353756Y-6839944D01*
X10283044Y-6839944D01*
X10283044Y-6910656D01*
X10353756Y-6910656D01*
X10607756Y-6910656D02*
X10607756Y-6839944D01*
X10537044Y-6839944D01*
X10537044Y-6910656D01*
X10607756Y-6910656D01*
X10861756Y-6910656D02*
X10861756Y-6839944D01*
X10791044Y-6839944D01*
X10791044Y-6910656D01*
X10861756Y-6910656D01*
X11115756Y-6910656D02*
X11115756Y-6839944D01*
X11045044Y-6839944D01*
X11045044Y-6910656D01*
X11115756Y-6910656D01*
X11369756Y-6910656D02*
X11369756Y-6839944D01*
X11299044Y-6839944D01*
X11299044Y-6910656D01*
X11369756Y-6910656D01*
X11623756Y-6910656D02*
X11623756Y-6839944D01*
X11553044Y-6839944D01*
X11553044Y-6910656D01*
X11623756Y-6910656D01*
X11877756Y-6910656D02*
X11877756Y-6839944D01*
X11807044Y-6839944D01*
X11807044Y-6910656D01*
X11877756Y-6910656D01*
X12131756Y-6910656D02*
X12131756Y-6839944D01*
X12061044Y-6839944D01*
X12061044Y-6910656D01*
X12131756Y-6910656D01*
X12385756Y-6910656D02*
X12385756Y-6839944D01*
X12315044Y-6839944D01*
X12315044Y-6910656D01*
X12385756Y-6910656D01*
X12639756Y-6910656D02*
X12639756Y-6839944D01*
X12569044Y-6839944D01*
X12569044Y-6910656D01*
X12639756Y-6910656D01*
X12893756Y-6910656D02*
X12893756Y-6839944D01*
X12823044Y-6839944D01*
X12823044Y-6910656D01*
X12893756Y-6910656D01*
X13147756Y-6910656D02*
X13147756Y-6839944D01*
X13077044Y-6839944D01*
X13077044Y-6910656D01*
X13147756Y-6910656D01*
X13401756Y-6910656D02*
X13401756Y-6839944D01*
X13331044Y-6839944D01*
X13331044Y-6910656D01*
X13401756Y-6910656D01*
X13655756Y-6910656D02*
X13655756Y-6839944D01*
X13585044Y-6839944D01*
X13585044Y-6910656D01*
X13655756Y-6910656D01*
X13909756Y-6910656D02*
X13909756Y-6839944D01*
X13839044Y-6839944D01*
X13839044Y-6910656D01*
X13909756Y-6910656D01*
X14163756Y-6910656D02*
X14163756Y-6839944D01*
X14093044Y-6839944D01*
X14093044Y-6910656D01*
X14163756Y-6910656D01*
X14417756Y-6910656D02*
X14417756Y-6839944D01*
X14347044Y-6839944D01*
X14347044Y-6910656D01*
X14417756Y-6910656D01*
X14671756Y-6910656D02*
X14671756Y-6839944D01*
X14601044Y-6839944D01*
X14601044Y-6910656D01*
X14671756Y-6910656D01*
X15687756Y-6910656D02*
X15687756Y-6839944D01*
X15617044Y-6839944D01*
X15617044Y-6910656D01*
X15687756Y-6910656D01*
X15941756Y-6910656D02*
X15941756Y-6839944D01*
X15871044Y-6839944D01*
X15871044Y-6910656D01*
X15941756Y-6910656D01*
X16761256Y-6899706D02*
X16761256Y-6828994D01*
X16690544Y-6828994D01*
X16690544Y-6899706D01*
X16761256Y-6899706D01*
X17015256Y-6899706D02*
X17015256Y-6828994D01*
X16944544Y-6828994D01*
X16944544Y-6899706D01*
X17015256Y-6899706D01*
X9255400Y-10437800D02*
X9310400Y-10382800D01*
X9255400Y-10327800D01*
X9200400Y-10382800D01*
X9255400Y-10437800D01*
X9255400Y-10887800D02*
X9310400Y-10832800D01*
X9255400Y-10777800D01*
X9200400Y-10832800D01*
X9255400Y-10887800D01*
X9587900Y-11837800D02*
X9642900Y-11782800D01*
X9587900Y-11727800D01*
X9532900Y-11782800D01*
X9587900Y-11837800D01*
X9587900Y-12287800D02*
X9642900Y-12232800D01*
X9587900Y-12177800D01*
X9532900Y-12232800D01*
X9587900Y-12287800D01*
X9668400Y-7637800D02*
X9723400Y-7582800D01*
X9668400Y-7527800D01*
X9613400Y-7582800D01*
X9668400Y-7637800D01*
X9668400Y-8087800D02*
X9723400Y-8032800D01*
X9668400Y-7977800D01*
X9613400Y-8032800D01*
X9668400Y-8087800D01*
X9905400Y-10437800D02*
X9960400Y-10382800D01*
X9905400Y-10327800D01*
X9850400Y-10382800D01*
X9905400Y-10437800D01*
X9905400Y-10887800D02*
X9960400Y-10832800D01*
X9905400Y-10777800D01*
X9850400Y-10832800D01*
X9905400Y-10887800D01*
X10237900Y-11837800D02*
X10292900Y-11782800D01*
X10237900Y-11727800D01*
X10182900Y-11782800D01*
X10237900Y-11837800D01*
X10237900Y-12287800D02*
X10292900Y-12232800D01*
X10237900Y-12177800D01*
X10182900Y-12232800D01*
X10237900Y-12287800D01*
X10249400Y-9037800D02*
X10304400Y-8982800D01*
X10249400Y-8927800D01*
X10194400Y-8982800D01*
X10249400Y-9037800D01*
X10249400Y-9487800D02*
X10304400Y-9432800D01*
X10249400Y-9377800D01*
X10194400Y-9432800D01*
X10249400Y-9487800D01*
X10318400Y-7637800D02*
X10373400Y-7582800D01*
X10318400Y-7527800D01*
X10263400Y-7582800D01*
X10318400Y-7637800D01*
X10318400Y-8087800D02*
X10373400Y-8032800D01*
X10318400Y-7977800D01*
X10263400Y-8032800D01*
X10318400Y-8087800D01*
X10585400Y-10437800D02*
X10640400Y-10382800D01*
X10585400Y-10327800D01*
X10530400Y-10382800D01*
X10585400Y-10437800D01*
X10585400Y-10887800D02*
X10640400Y-10832800D01*
X10585400Y-10777800D01*
X10530400Y-10832800D01*
X10585400Y-10887800D01*
X10899400Y-9037800D02*
X10954400Y-8982800D01*
X10899400Y-8927800D01*
X10844400Y-8982800D01*
X10899400Y-9037800D01*
X10899400Y-9487800D02*
X10954400Y-9432800D01*
X10899400Y-9377800D01*
X10844400Y-9432800D01*
X10899400Y-9487800D01*
X10998400Y-7637800D02*
X11053400Y-7582800D01*
X10998400Y-7527800D01*
X10943400Y-7582800D01*
X10998400Y-7637800D01*
X10998400Y-8087800D02*
X11053400Y-8032800D01*
X10998400Y-7977800D01*
X10943400Y-8032800D01*
X10998400Y-8087800D01*
X11235400Y-10437800D02*
X11290400Y-10382800D01*
X11235400Y-10327800D01*
X11180400Y-10382800D01*
X11235400Y-10437800D01*
X11235400Y-10887800D02*
X11290400Y-10832800D01*
X11235400Y-10777800D01*
X11180400Y-10832800D01*
X11235400Y-10887800D01*
X11250400Y-11837800D02*
X11305400Y-11782800D01*
X11250400Y-11727800D01*
X11195400Y-11782800D01*
X11250400Y-11837800D01*
X11250400Y-12287800D02*
X11305400Y-12232800D01*
X11250400Y-12177800D01*
X11195400Y-12232800D01*
X11250400Y-12287800D01*
X11579400Y-9037800D02*
X11634400Y-8982800D01*
X11579400Y-8927800D01*
X11524400Y-8982800D01*
X11579400Y-9037800D01*
X11579400Y-9487800D02*
X11634400Y-9432800D01*
X11579400Y-9377800D01*
X11524400Y-9432800D01*
X11579400Y-9487800D01*
X11648400Y-7637800D02*
X11703400Y-7582800D01*
X11648400Y-7527800D01*
X11593400Y-7582800D01*
X11648400Y-7637800D01*
X11648400Y-8087800D02*
X11703400Y-8032800D01*
X11648400Y-7977800D01*
X11593400Y-8032800D01*
X11648400Y-8087800D01*
X11900400Y-11837800D02*
X11955400Y-11782800D01*
X11900400Y-11727800D01*
X11845400Y-11782800D01*
X11900400Y-11837800D01*
X11900400Y-12287800D02*
X11955400Y-12232800D01*
X11900400Y-12177800D01*
X11845400Y-12232800D01*
X11900400Y-12287800D01*
X11915400Y-10437800D02*
X11970400Y-10382800D01*
X11915400Y-10327800D01*
X11860400Y-10382800D01*
X11915400Y-10437800D01*
X11915400Y-10887800D02*
X11970400Y-10832800D01*
X11915400Y-10777800D01*
X11860400Y-10832800D01*
X11915400Y-10887800D01*
X12229400Y-9037800D02*
X12284400Y-8982800D01*
X12229400Y-8927800D01*
X12174400Y-8982800D01*
X12229400Y-9037800D01*
X12229400Y-9487800D02*
X12284400Y-9432800D01*
X12229400Y-9377800D01*
X12174400Y-9432800D01*
X12229400Y-9487800D01*
X12328400Y-7637800D02*
X12383400Y-7582800D01*
X12328400Y-7527800D01*
X12273400Y-7582800D01*
X12328400Y-7637800D01*
X12328400Y-8087800D02*
X12383400Y-8032800D01*
X12328400Y-7977800D01*
X12273400Y-8032800D01*
X12328400Y-8087800D01*
X12565400Y-10437800D02*
X12620400Y-10382800D01*
X12565400Y-10327800D01*
X12510400Y-10382800D01*
X12565400Y-10437800D01*
X12565400Y-10887800D02*
X12620400Y-10832800D01*
X12565400Y-10777800D01*
X12510400Y-10832800D01*
X12565400Y-10887800D01*
X12580400Y-11837800D02*
X12635400Y-11782800D01*
X12580400Y-11727800D01*
X12525400Y-11782800D01*
X12580400Y-11837800D01*
X12580400Y-12287800D02*
X12635400Y-12232800D01*
X12580400Y-12177800D01*
X12525400Y-12232800D01*
X12580400Y-12287800D01*
X12909400Y-9037800D02*
X12964400Y-8982800D01*
X12909400Y-8927800D01*
X12854400Y-8982800D01*
X12909400Y-9037800D01*
X12909400Y-9487800D02*
X12964400Y-9432800D01*
X12909400Y-9377800D01*
X12854400Y-9432800D01*
X12909400Y-9487800D01*
X12978400Y-7637800D02*
X13033400Y-7582800D01*
X12978400Y-7527800D01*
X12923400Y-7582800D01*
X12978400Y-7637800D01*
X12978400Y-8087800D02*
X13033400Y-8032800D01*
X12978400Y-7977800D01*
X12923400Y-8032800D01*
X12978400Y-8087800D01*
X13230400Y-11837800D02*
X13285400Y-11782800D01*
X13230400Y-11727800D01*
X13175400Y-11782800D01*
X13230400Y-11837800D01*
X13230400Y-12287800D02*
X13285400Y-12232800D01*
X13230400Y-12177800D01*
X13175400Y-12232800D01*
X13230400Y-12287800D01*
X13245400Y-10437800D02*
X13300400Y-10382800D01*
X13245400Y-10327800D01*
X13190400Y-10382800D01*
X13245400Y-10437800D01*
X13245400Y-10887800D02*
X13300400Y-10832800D01*
X13245400Y-10777800D01*
X13190400Y-10832800D01*
X13245400Y-10887800D01*
X13559400Y-9037800D02*
X13614400Y-8982800D01*
X13559400Y-8927800D01*
X13504400Y-8982800D01*
X13559400Y-9037800D01*
X13559400Y-9487800D02*
X13614400Y-9432800D01*
X13559400Y-9377800D01*
X13504400Y-9432800D01*
X13559400Y-9487800D01*
X13658400Y-7637800D02*
X13713400Y-7582800D01*
X13658400Y-7527800D01*
X13603400Y-7582800D01*
X13658400Y-7637800D01*
X13658400Y-8087800D02*
X13713400Y-8032800D01*
X13658400Y-7977800D01*
X13603400Y-8032800D01*
X13658400Y-8087800D01*
X13895400Y-10437800D02*
X13950400Y-10382800D01*
X13895400Y-10327800D01*
X13840400Y-10382800D01*
X13895400Y-10437800D01*
X13895400Y-10887800D02*
X13950400Y-10832800D01*
X13895400Y-10777800D01*
X13840400Y-10832800D01*
X13895400Y-10887800D01*
X13910400Y-11837800D02*
X13965400Y-11782800D01*
X13910400Y-11727800D01*
X13855400Y-11782800D01*
X13910400Y-11837800D01*
X13910400Y-12287800D02*
X13965400Y-12232800D01*
X13910400Y-12177800D01*
X13855400Y-12232800D01*
X13910400Y-12287800D01*
X14239400Y-9037800D02*
X14294400Y-8982800D01*
X14239400Y-8927800D01*
X14184400Y-8982800D01*
X14239400Y-9037800D01*
X14239400Y-9487800D02*
X14294400Y-9432800D01*
X14239400Y-9377800D01*
X14184400Y-9432800D01*
X14239400Y-9487800D01*
X14308400Y-7637800D02*
X14363400Y-7582800D01*
X14308400Y-7527800D01*
X14253400Y-7582800D01*
X14308400Y-7637800D01*
X14308400Y-8087800D02*
X14363400Y-8032800D01*
X14308400Y-7977800D01*
X14253400Y-8032800D01*
X14308400Y-8087800D01*
X14560400Y-11837800D02*
X14615400Y-11782800D01*
X14560400Y-11727800D01*
X14505400Y-11782800D01*
X14560400Y-11837800D01*
X14560400Y-12287800D02*
X14615400Y-12232800D01*
X14560400Y-12177800D01*
X14505400Y-12232800D01*
X14560400Y-12287800D01*
X14575400Y-10437800D02*
X14630400Y-10382800D01*
X14575400Y-10327800D01*
X14520400Y-10382800D01*
X14575400Y-10437800D01*
X14575400Y-10887800D02*
X14630400Y-10832800D01*
X14575400Y-10777800D01*
X14520400Y-10832800D01*
X14575400Y-10887800D01*
X14889400Y-9037800D02*
X14944400Y-8982800D01*
X14889400Y-8927800D01*
X14834400Y-8982800D01*
X14889400Y-9037800D01*
X14889400Y-9487800D02*
X14944400Y-9432800D01*
X14889400Y-9377800D01*
X14834400Y-9432800D01*
X14889400Y-9487800D01*
X14988400Y-7637800D02*
X15043400Y-7582800D01*
X14988400Y-7527800D01*
X14933400Y-7582800D01*
X14988400Y-7637800D01*
X14988400Y-8087800D02*
X15043400Y-8032800D01*
X14988400Y-7977800D01*
X14933400Y-8032800D01*
X14988400Y-8087800D01*
X15225400Y-10437800D02*
X15280400Y-10382800D01*
X15225400Y-10327800D01*
X15170400Y-10382800D01*
X15225400Y-10437800D01*
X15225400Y-10887800D02*
X15280400Y-10832800D01*
X15225400Y-10777800D01*
X15170400Y-10832800D01*
X15225400Y-10887800D01*
X15240400Y-11837800D02*
X15295400Y-11782800D01*
X15240400Y-11727800D01*
X15185400Y-11782800D01*
X15240400Y-11837800D01*
X15240400Y-12287800D02*
X15295400Y-12232800D01*
X15240400Y-12177800D01*
X15185400Y-12232800D01*
X15240400Y-12287800D01*
X15569400Y-9037800D02*
X15624400Y-8982800D01*
X15569400Y-8927800D01*
X15514400Y-8982800D01*
X15569400Y-9037800D01*
X15569400Y-9487800D02*
X15624400Y-9432800D01*
X15569400Y-9377800D01*
X15514400Y-9432800D01*
X15569400Y-9487800D01*
X15638400Y-7637800D02*
X15693400Y-7582800D01*
X15638400Y-7527800D01*
X15583400Y-7582800D01*
X15638400Y-7637800D01*
X15638400Y-8087800D02*
X15693400Y-8032800D01*
X15638400Y-7977800D01*
X15583400Y-8032800D01*
X15638400Y-8087800D01*
X15890400Y-11837800D02*
X15945400Y-11782800D01*
X15890400Y-11727800D01*
X15835400Y-11782800D01*
X15890400Y-11837800D01*
X15890400Y-12287800D02*
X15945400Y-12232800D01*
X15890400Y-12177800D01*
X15835400Y-12232800D01*
X15890400Y-12287800D01*
X15905400Y-10437800D02*
X15960400Y-10382800D01*
X15905400Y-10327800D01*
X15850400Y-10382800D01*
X15905400Y-10437800D01*
X15905400Y-10887800D02*
X15960400Y-10832800D01*
X15905400Y-10777800D01*
X15850400Y-10832800D01*
X15905400Y-10887800D01*
X16219400Y-9037800D02*
X16274400Y-8982800D01*
X16219400Y-8927800D01*
X16164400Y-8982800D01*
X16219400Y-9037800D01*
X16219400Y-9487800D02*
X16274400Y-9432800D01*
X16219400Y-9377800D01*
X16164400Y-9432800D01*
X16219400Y-9487800D01*
X16318400Y-7637800D02*
X16373400Y-7582800D01*
X16318400Y-7527800D01*
X16263400Y-7582800D01*
X16318400Y-7637800D01*
X16318400Y-8087800D02*
X16373400Y-8032800D01*
X16318400Y-7977800D01*
X16263400Y-8032800D01*
X16318400Y-8087800D01*
X16555400Y-10437800D02*
X16610400Y-10382800D01*
X16555400Y-10327800D01*
X16500400Y-10382800D01*
X16555400Y-10437800D01*
X16555400Y-10887800D02*
X16610400Y-10832800D01*
X16555400Y-10777800D01*
X16500400Y-10832800D01*
X16555400Y-10887800D01*
X16570400Y-11837800D02*
X16625400Y-11782800D01*
X16570400Y-11727800D01*
X16515400Y-11782800D01*
X16570400Y-11837800D01*
X16570400Y-12287800D02*
X16625400Y-12232800D01*
X16570400Y-12177800D01*
X16515400Y-12232800D01*
X16570400Y-12287800D01*
X16899400Y-9037800D02*
X16954400Y-8982800D01*
X16899400Y-8927800D01*
X16844400Y-8982800D01*
X16899400Y-9037800D01*
X16899400Y-9487800D02*
X16954400Y-9432800D01*
X16899400Y-9377800D01*
X16844400Y-9432800D01*
X16899400Y-9487800D01*
X16968400Y-7637800D02*
X17023400Y-7582800D01*
X16968400Y-7527800D01*
X16913400Y-7582800D01*
X16968400Y-7637800D01*
X16968400Y-8087800D02*
X17023400Y-8032800D01*
X16968400Y-7977800D01*
X16913400Y-8032800D01*
X16968400Y-8087800D01*
X17220400Y-11837800D02*
X17275400Y-11782800D01*
X17220400Y-11727800D01*
X17165400Y-11782800D01*
X17220400Y-11837800D01*
X17220400Y-12287800D02*
X17275400Y-12232800D01*
X17220400Y-12177800D01*
X17165400Y-12232800D01*
X17220400Y-12287800D01*
X17235400Y-10437800D02*
X17290400Y-10382800D01*
X17235400Y-10327800D01*
X17180400Y-10382800D01*
X17235400Y-10437800D01*
X17235400Y-10887800D02*
X17290400Y-10832800D01*
X17235400Y-10777800D01*
X17180400Y-10832800D01*
X17235400Y-10887800D01*
X17549400Y-9037800D02*
X17604400Y-8982800D01*
X17549400Y-8927800D01*
X17494400Y-8982800D01*
X17549400Y-9037800D01*
X17549400Y-9487800D02*
X17604400Y-9432800D01*
X17549400Y-9377800D01*
X17494400Y-9432800D01*
X17549400Y-9487800D01*
X17648400Y-7637800D02*
X17703400Y-7582800D01*
X17648400Y-7527800D01*
X17593400Y-7582800D01*
X17648400Y-7637800D01*
X17648400Y-8087800D02*
X17703400Y-8032800D01*
X17648400Y-7977800D01*
X17593400Y-8032800D01*
X17648400Y-8087800D01*
X17885400Y-10437800D02*
X17940400Y-10382800D01*
X17885400Y-10327800D01*
X17830400Y-10382800D01*
X17885400Y-10437800D01*
X17885400Y-10887800D02*
X17940400Y-10832800D01*
X17885400Y-10777800D01*
X17830400Y-10832800D01*
X17885400Y-10887800D01*
X17900400Y-11837800D02*
X17955400Y-11782800D01*
X17900400Y-11727800D01*
X17845400Y-11782800D01*
X17900400Y-11837800D01*
X17900400Y-12287800D02*
X17955400Y-12232800D01*
X17900400Y-12177800D01*
X17845400Y-12232800D01*
X17900400Y-12287800D01*
X18229400Y-9037800D02*
X18284400Y-8982800D01*
X18229400Y-8927800D01*
X18174400Y-8982800D01*
X18229400Y-9037800D01*
X18229400Y-9487800D02*
X18284400Y-9432800D01*
X18229400Y-9377800D01*
X18174400Y-9432800D01*
X18229400Y-9487800D01*
X18298400Y-7637800D02*
X18353400Y-7582800D01*
X18298400Y-7527800D01*
X18243400Y-7582800D01*
X18298400Y-7637800D01*
X18298400Y-8087800D02*
X18353400Y-8032800D01*
X18298400Y-7977800D01*
X18243400Y-8032800D01*
X18298400Y-8087800D01*
X18550400Y-11837800D02*
X18605400Y-11782800D01*
X18550400Y-11727800D01*
X18495400Y-11782800D01*
X18550400Y-11837800D01*
X18550400Y-12287800D02*
X18605400Y-12232800D01*
X18550400Y-12177800D01*
X18495400Y-12232800D01*
X18550400Y-12287800D01*
X18565400Y-10437800D02*
X18620400Y-10382800D01*
X18565400Y-10327800D01*
X18510400Y-10382800D01*
X18565400Y-10437800D01*
X18565400Y-10887800D02*
X18620400Y-10832800D01*
X18565400Y-10777800D01*
X18510400Y-10832800D01*
X18565400Y-10887800D01*
X18879400Y-9037800D02*
X18934400Y-8982800D01*
X18879400Y-8927800D01*
X18824400Y-8982800D01*
X18879400Y-9037800D01*
X18879400Y-9487800D02*
X18934400Y-9432800D01*
X18879400Y-9377800D01*
X18824400Y-9432800D01*
X18879400Y-9487800D01*
X18978400Y-7637800D02*
X19033400Y-7582800D01*
X18978400Y-7527800D01*
X18923400Y-7582800D01*
X18978400Y-7637800D01*
X18978400Y-8087800D02*
X19033400Y-8032800D01*
X18978400Y-7977800D01*
X18923400Y-8032800D01*
X18978400Y-8087800D01*
X19215400Y-10437800D02*
X19270400Y-10382800D01*
X19215400Y-10327800D01*
X19160400Y-10382800D01*
X19215400Y-10437800D01*
X19215400Y-10887800D02*
X19270400Y-10832800D01*
X19215400Y-10777800D01*
X19160400Y-10832800D01*
X19215400Y-10887800D01*
X19230400Y-11837800D02*
X19285400Y-11782800D01*
X19230400Y-11727800D01*
X19175400Y-11782800D01*
X19230400Y-11837800D01*
X19230400Y-12287800D02*
X19285400Y-12232800D01*
X19230400Y-12177800D01*
X19175400Y-12232800D01*
X19230400Y-12287800D01*
X19559400Y-9037800D02*
X19614400Y-8982800D01*
X19559400Y-8927800D01*
X19504400Y-8982800D01*
X19559400Y-9037800D01*
X19559400Y-9487800D02*
X19614400Y-9432800D01*
X19559400Y-9377800D01*
X19504400Y-9432800D01*
X19559400Y-9487800D01*
X19628400Y-7637800D02*
X19683400Y-7582800D01*
X19628400Y-7527800D01*
X19573400Y-7582800D01*
X19628400Y-7637800D01*
X19628400Y-8087800D02*
X19683400Y-8032800D01*
X19628400Y-7977800D01*
X19573400Y-8032800D01*
X19628400Y-8087800D01*
X19880400Y-11837800D02*
X19935400Y-11782800D01*
X19880400Y-11727800D01*
X19825400Y-11782800D01*
X19880400Y-11837800D01*
X19880400Y-12287800D02*
X19935400Y-12232800D01*
X19880400Y-12177800D01*
X19825400Y-12232800D01*
X19880400Y-12287800D01*
X19895400Y-10437800D02*
X19950400Y-10382800D01*
X19895400Y-10327800D01*
X19840400Y-10382800D01*
X19895400Y-10437800D01*
X19895400Y-10887800D02*
X19950400Y-10832800D01*
X19895400Y-10777800D01*
X19840400Y-10832800D01*
X19895400Y-10887800D01*
X20209400Y-9037800D02*
X20264400Y-8982800D01*
X20209400Y-8927800D01*
X20154400Y-8982800D01*
X20209400Y-9037800D01*
X20209400Y-9487800D02*
X20264400Y-9432800D01*
X20209400Y-9377800D01*
X20154400Y-9432800D01*
X20209400Y-9487800D01*
X20308400Y-7637800D02*
X20363400Y-7582800D01*
X20308400Y-7527800D01*
X20253400Y-7582800D01*
X20308400Y-7637800D01*
X20308400Y-8087800D02*
X20363400Y-8032800D01*
X20308400Y-7977800D01*
X20253400Y-8032800D01*
X20308400Y-8087800D01*
X20545400Y-10437800D02*
X20600400Y-10382800D01*
X20545400Y-10327800D01*
X20490400Y-10382800D01*
X20545400Y-10437800D01*
X20545400Y-10887800D02*
X20600400Y-10832800D01*
X20545400Y-10777800D01*
X20490400Y-10832800D01*
X20545400Y-10887800D01*
X20560400Y-11837800D02*
X20615400Y-11782800D01*
X20560400Y-11727800D01*
X20505400Y-11782800D01*
X20560400Y-11837800D01*
X20560400Y-12287800D02*
X20615400Y-12232800D01*
X20560400Y-12177800D01*
X20505400Y-12232800D01*
X20560400Y-12287800D01*
X20889400Y-9037800D02*
X20944400Y-8982800D01*
X20889400Y-8927800D01*
X20834400Y-8982800D01*
X20889400Y-9037800D01*
X20889400Y-9487800D02*
X20944400Y-9432800D01*
X20889400Y-9377800D01*
X20834400Y-9432800D01*
X20889400Y-9487800D01*
X20958400Y-7637800D02*
X21013400Y-7582800D01*
X20958400Y-7527800D01*
X20903400Y-7582800D01*
X20958400Y-7637800D01*
X20958400Y-8087800D02*
X21013400Y-8032800D01*
X20958400Y-7977800D01*
X20903400Y-8032800D01*
X20958400Y-8087800D01*
X21210400Y-11837800D02*
X21265400Y-11782800D01*
X21210400Y-11727800D01*
X21155400Y-11782800D01*
X21210400Y-11837800D01*
X21210400Y-12287800D02*
X21265400Y-12232800D01*
X21210400Y-12177800D01*
X21155400Y-12232800D01*
X21210400Y-12287800D01*
X21225400Y-10437800D02*
X21280400Y-10382800D01*
X21225400Y-10327800D01*
X21170400Y-10382800D01*
X21225400Y-10437800D01*
X21225400Y-10887800D02*
X21280400Y-10832800D01*
X21225400Y-10777800D01*
X21170400Y-10832800D01*
X21225400Y-10887800D01*
X21539400Y-9037800D02*
X21594400Y-8982800D01*
X21539400Y-8927800D01*
X21484400Y-8982800D01*
X21539400Y-9037800D01*
X21539400Y-9487800D02*
X21594400Y-9432800D01*
X21539400Y-9377800D01*
X21484400Y-9432800D01*
X21539400Y-9487800D01*
X21638400Y-7637800D02*
X21693400Y-7582800D01*
X21638400Y-7527800D01*
X21583400Y-7582800D01*
X21638400Y-7637800D01*
X21638400Y-8087800D02*
X21693400Y-8032800D01*
X21638400Y-7977800D01*
X21583400Y-8032800D01*
X21638400Y-8087800D01*
X21875400Y-10437800D02*
X21930400Y-10382800D01*
X21875400Y-10327800D01*
X21820400Y-10382800D01*
X21875400Y-10437800D01*
X21875400Y-10887800D02*
X21930400Y-10832800D01*
X21875400Y-10777800D01*
X21820400Y-10832800D01*
X21875400Y-10887800D01*
X21890400Y-11837800D02*
X21945400Y-11782800D01*
X21890400Y-11727800D01*
X21835400Y-11782800D01*
X21890400Y-11837800D01*
X21890400Y-12287800D02*
X21945400Y-12232800D01*
X21890400Y-12177800D01*
X21835400Y-12232800D01*
X21890400Y-12287800D01*
X22219400Y-9037800D02*
X22274400Y-8982800D01*
X22219400Y-8927800D01*
X22164400Y-8982800D01*
X22219400Y-9037800D01*
X22219400Y-9487800D02*
X22274400Y-9432800D01*
X22219400Y-9377800D01*
X22164400Y-9432800D01*
X22219400Y-9487800D01*
X22288400Y-7637800D02*
X22343400Y-7582800D01*
X22288400Y-7527800D01*
X22233400Y-7582800D01*
X22288400Y-7637800D01*
X22288400Y-8087800D02*
X22343400Y-8032800D01*
X22288400Y-7977800D01*
X22233400Y-8032800D01*
X22288400Y-8087800D01*
X22540400Y-11837800D02*
X22595400Y-11782800D01*
X22540400Y-11727800D01*
X22485400Y-11782800D01*
X22540400Y-11837800D01*
X22540400Y-12287800D02*
X22595400Y-12232800D01*
X22540400Y-12177800D01*
X22485400Y-12232800D01*
X22540400Y-12287800D01*
X22555400Y-10437800D02*
X22610400Y-10382800D01*
X22555400Y-10327800D01*
X22500400Y-10382800D01*
X22555400Y-10437800D01*
X22555400Y-10887800D02*
X22610400Y-10832800D01*
X22555400Y-10777800D01*
X22500400Y-10832800D01*
X22555400Y-10887800D01*
X22869400Y-9037800D02*
X22924400Y-8982800D01*
X22869400Y-8927800D01*
X22814400Y-8982800D01*
X22869400Y-9037800D01*
X22869400Y-9487800D02*
X22924400Y-9432800D01*
X22869400Y-9377800D01*
X22814400Y-9432800D01*
X22869400Y-9487800D01*
X22968400Y-7637800D02*
X23023400Y-7582800D01*
X22968400Y-7527800D01*
X22913400Y-7582800D01*
X22968400Y-7637800D01*
X22968400Y-8087800D02*
X23023400Y-8032800D01*
X22968400Y-7977800D01*
X22913400Y-8032800D01*
X22968400Y-8087800D01*
X23205400Y-10437800D02*
X23260400Y-10382800D01*
X23205400Y-10327800D01*
X23150400Y-10382800D01*
X23205400Y-10437800D01*
X23205400Y-10887800D02*
X23260400Y-10832800D01*
X23205400Y-10777800D01*
X23150400Y-10832800D01*
X23205400Y-10887800D01*
X23552900Y-11837800D02*
X23607900Y-11782800D01*
X23552900Y-11727800D01*
X23497900Y-11782800D01*
X23552900Y-11837800D01*
X23552900Y-12287800D02*
X23607900Y-12232800D01*
X23552900Y-12177800D01*
X23497900Y-12232800D01*
X23552900Y-12287800D01*
X23618400Y-7637800D02*
X23673400Y-7582800D01*
X23618400Y-7527800D01*
X23563400Y-7582800D01*
X23618400Y-7637800D01*
X23618400Y-8087800D02*
X23673400Y-8032800D01*
X23618400Y-7977800D01*
X23563400Y-8032800D01*
X23618400Y-8087800D01*
X23717400Y-9037800D02*
X23772400Y-8982800D01*
X23717400Y-8927800D01*
X23662400Y-8982800D01*
X23717400Y-9037800D01*
X23717400Y-9487800D02*
X23772400Y-9432800D01*
X23717400Y-9377800D01*
X23662400Y-9432800D01*
X23717400Y-9487800D01*
X23885400Y-10437800D02*
X23940400Y-10382800D01*
X23885400Y-10327800D01*
X23830400Y-10382800D01*
X23885400Y-10437800D01*
X23885400Y-10887800D02*
X23940400Y-10832800D01*
X23885400Y-10777800D01*
X23830400Y-10832800D01*
X23885400Y-10887800D01*
X24202900Y-11837800D02*
X24257900Y-11782800D01*
X24202900Y-11727800D01*
X24147900Y-11782800D01*
X24202900Y-11837800D01*
X24202900Y-12287800D02*
X24257900Y-12232800D01*
X24202900Y-12177800D01*
X24147900Y-12232800D01*
X24202900Y-12287800D01*
X24367400Y-9037800D02*
X24422400Y-8982800D01*
X24367400Y-8927800D01*
X24312400Y-8982800D01*
X24367400Y-9037800D01*
X24367400Y-9487800D02*
X24422400Y-9432800D01*
X24367400Y-9377800D01*
X24312400Y-9432800D01*
X24367400Y-9487800D01*
X24535400Y-10437800D02*
X24590400Y-10382800D01*
X24535400Y-10327800D01*
X24480400Y-10382800D01*
X24535400Y-10437800D01*
X24535400Y-10887800D02*
X24590400Y-10832800D01*
X24535400Y-10777800D01*
X24480400Y-10832800D01*
X24535400Y-10887800D01*
D13*
X8575729Y-13787414D02*
X8575729Y-13487414D01*
X8647157Y-13487414D01*
X8690014Y-13501700D01*
X8718586Y-13530271D01*
X8732871Y-13558843D01*
X8747157Y-13615986D01*
X8747157Y-13658843D01*
X8732871Y-13715986D01*
X8718586Y-13744557D01*
X8690014Y-13773129D01*
X8647157Y-13787414D01*
X8575729Y-13787414D01*
X8875729Y-13787414D02*
X8875729Y-13587414D01*
X8875729Y-13644557D02*
X8890014Y-13615986D01*
X8904300Y-13601700D01*
X8932871Y-13587414D01*
X8961443Y-13587414D01*
X9061443Y-13787414D02*
X9061443Y-13587414D01*
X9061443Y-13487414D02*
X9047157Y-13501700D01*
X9061443Y-13515986D01*
X9075729Y-13501700D01*
X9061443Y-13487414D01*
X9061443Y-13515986D01*
X9247157Y-13787414D02*
X9218586Y-13773129D01*
X9204300Y-13744557D01*
X9204300Y-13487414D01*
X9404300Y-13787414D02*
X9375729Y-13773129D01*
X9361443Y-13744557D01*
X9361443Y-13487414D01*
X9747157Y-13787414D02*
X9747157Y-13487414D01*
X9847157Y-13701700D01*
X9947157Y-13487414D01*
X9947157Y-13787414D01*
X10218586Y-13787414D02*
X10218586Y-13630271D01*
X10204300Y-13601700D01*
X10175729Y-13587414D01*
X10118586Y-13587414D01*
X10090014Y-13601700D01*
X10218586Y-13773129D02*
X10190014Y-13787414D01*
X10118586Y-13787414D01*
X10090014Y-13773129D01*
X10075729Y-13744557D01*
X10075729Y-13715986D01*
X10090014Y-13687414D01*
X10118586Y-13673129D01*
X10190014Y-13673129D01*
X10218586Y-13658843D01*
X10361443Y-13587414D02*
X10361443Y-13887414D01*
X10361443Y-13601700D02*
X10390014Y-13587414D01*
X10447157Y-13587414D01*
X10475729Y-13601700D01*
X10490014Y-13615986D01*
X10504300Y-13644557D01*
X10504300Y-13730271D01*
X10490014Y-13758843D01*
X10475729Y-13773129D01*
X10447157Y-13787414D01*
X10390014Y-13787414D01*
X10361443Y-13773129D01*
X10632871Y-13758843D02*
X10647157Y-13773129D01*
X10632871Y-13787414D01*
X10618586Y-13773129D01*
X10632871Y-13758843D01*
X10632871Y-13787414D01*
X10632871Y-13601700D02*
X10647157Y-13615986D01*
X10632871Y-13630271D01*
X10618586Y-13615986D01*
X10632871Y-13601700D01*
X10632871Y-13630271D01*
X8264300Y-14261700D02*
X8304300Y-14301700D01*
X8304300Y-14261700D02*
X8264300Y-14301700D01*
X8632871Y-14117414D02*
X8661443Y-14117414D01*
X8690014Y-14131700D01*
X8704300Y-14145986D01*
X8718586Y-14174557D01*
X8732871Y-14231700D01*
X8732871Y-14303129D01*
X8718586Y-14360271D01*
X8704300Y-14388843D01*
X8690014Y-14403129D01*
X8661443Y-14417414D01*
X8632871Y-14417414D01*
X8604300Y-14403129D01*
X8590014Y-14388843D01*
X8575729Y-14360271D01*
X8561443Y-14303129D01*
X8561443Y-14231700D01*
X8575729Y-14174557D01*
X8590014Y-14145986D01*
X8604300Y-14131700D01*
X8632871Y-14117414D01*
X8861443Y-14388843D02*
X8875729Y-14403129D01*
X8861443Y-14417414D01*
X8847157Y-14403129D01*
X8861443Y-14388843D01*
X8861443Y-14417414D01*
X9132871Y-14217414D02*
X9132871Y-14417414D01*
X9061443Y-14103129D02*
X8990014Y-14317414D01*
X9175728Y-14317414D01*
X9347157Y-14117414D02*
X9375729Y-14117414D01*
X9404300Y-14131700D01*
X9418586Y-14145986D01*
X9432871Y-14174557D01*
X9447157Y-14231700D01*
X9447157Y-14303129D01*
X9432871Y-14360271D01*
X9418586Y-14388843D01*
X9404300Y-14403129D01*
X9375729Y-14417414D01*
X9347157Y-14417414D01*
X9318586Y-14403129D01*
X9304300Y-14388843D01*
X9290014Y-14360271D01*
X9275729Y-14303129D01*
X9275729Y-14231700D01*
X9290014Y-14174557D01*
X9304300Y-14145986D01*
X9318586Y-14131700D01*
X9347157Y-14117414D01*
X9575729Y-14417414D02*
X9575729Y-14217414D01*
X9575729Y-14245986D02*
X9590014Y-14231700D01*
X9618586Y-14217414D01*
X9661443Y-14217414D01*
X9690014Y-14231700D01*
X9704300Y-14260271D01*
X9704300Y-14417414D01*
X9704300Y-14260271D02*
X9718586Y-14231700D01*
X9747157Y-14217414D01*
X9790014Y-14217414D01*
X9818586Y-14231700D01*
X9832871Y-14260271D01*
X9832871Y-14417414D01*
X9975729Y-14417414D02*
X9975729Y-14217414D01*
X9975729Y-14245986D02*
X9990014Y-14231700D01*
X10018586Y-14217414D01*
X10061443Y-14217414D01*
X10090014Y-14231700D01*
X10104300Y-14260271D01*
X10104300Y-14417414D01*
X10104300Y-14260271D02*
X10118586Y-14231700D01*
X10147157Y-14217414D01*
X10190014Y-14217414D01*
X10218586Y-14231700D01*
X10232871Y-14260271D01*
X10232871Y-14417414D01*
X10818586Y-14103129D02*
X10561443Y-14488843D01*
X11204300Y-14117414D02*
X11232871Y-14117414D01*
X11261443Y-14131700D01*
X11275728Y-14145986D01*
X11290014Y-14174557D01*
X11304300Y-14231700D01*
X11304300Y-14303129D01*
X11290014Y-14360271D01*
X11275728Y-14388843D01*
X11261443Y-14403129D01*
X11232871Y-14417414D01*
X11204300Y-14417414D01*
X11175728Y-14403129D01*
X11161443Y-14388843D01*
X11147157Y-14360271D01*
X11132871Y-14303129D01*
X11132871Y-14231700D01*
X11147157Y-14174557D01*
X11161443Y-14145986D01*
X11175728Y-14131700D01*
X11204300Y-14117414D01*
X11432871Y-14388843D02*
X11447157Y-14403129D01*
X11432871Y-14417414D01*
X11418586Y-14403129D01*
X11432871Y-14388843D01*
X11432871Y-14417414D01*
X11632871Y-14117414D02*
X11661443Y-14117414D01*
X11690014Y-14131700D01*
X11704300Y-14145986D01*
X11718585Y-14174557D01*
X11732871Y-14231700D01*
X11732871Y-14303129D01*
X11718585Y-14360271D01*
X11704300Y-14388843D01*
X11690014Y-14403129D01*
X11661443Y-14417414D01*
X11632871Y-14417414D01*
X11604300Y-14403129D01*
X11590014Y-14388843D01*
X11575728Y-14360271D01*
X11561443Y-14303129D01*
X11561443Y-14231700D01*
X11575728Y-14174557D01*
X11590014Y-14145986D01*
X11604300Y-14131700D01*
X11632871Y-14117414D01*
X12018585Y-14417414D02*
X11847157Y-14417414D01*
X11932871Y-14417414D02*
X11932871Y-14117414D01*
X11904300Y-14160271D01*
X11875728Y-14188843D01*
X11847157Y-14203129D01*
X12275728Y-14117414D02*
X12218585Y-14117414D01*
X12190014Y-14131700D01*
X12175728Y-14145986D01*
X12147157Y-14188843D01*
X12132871Y-14245986D01*
X12132871Y-14360271D01*
X12147157Y-14388843D01*
X12161443Y-14403129D01*
X12190014Y-14417414D01*
X12247157Y-14417414D01*
X12275728Y-14403129D01*
X12290014Y-14388843D01*
X12304300Y-14360271D01*
X12304300Y-14288843D01*
X12290014Y-14260271D01*
X12275728Y-14245986D01*
X12247157Y-14231700D01*
X12190014Y-14231700D01*
X12161443Y-14245986D01*
X12147157Y-14260271D01*
X12132871Y-14288843D01*
X12418586Y-14117414D02*
X12418586Y-14174557D01*
X12532871Y-14117414D02*
X12532871Y-14174557D01*
X12975728Y-14531700D02*
X12961443Y-14517414D01*
X12932871Y-14474557D01*
X12918585Y-14445986D01*
X12904300Y-14403129D01*
X12890014Y-14331700D01*
X12890014Y-14274557D01*
X12904300Y-14203129D01*
X12918585Y-14160271D01*
X12932871Y-14131700D01*
X12961443Y-14088843D01*
X12975728Y-14074557D01*
X13075728Y-14145986D02*
X13090014Y-14131700D01*
X13118585Y-14117414D01*
X13190014Y-14117414D01*
X13218585Y-14131700D01*
X13232871Y-14145986D01*
X13247157Y-14174557D01*
X13247157Y-14203129D01*
X13232871Y-14245986D01*
X13061443Y-14417414D01*
X13247157Y-14417414D01*
X13604300Y-14417414D02*
X13604300Y-14117414D01*
X13732871Y-14417414D02*
X13732871Y-14260271D01*
X13718585Y-14231700D01*
X13690014Y-14217414D01*
X13647157Y-14217414D01*
X13618585Y-14231700D01*
X13604300Y-14245986D01*
X13918585Y-14417414D02*
X13890014Y-14403129D01*
X13875728Y-14388843D01*
X13861443Y-14360271D01*
X13861443Y-14274557D01*
X13875728Y-14245986D01*
X13890014Y-14231700D01*
X13918585Y-14217414D01*
X13961443Y-14217414D01*
X13990014Y-14231700D01*
X14004300Y-14245986D01*
X14018585Y-14274557D01*
X14018585Y-14360271D01*
X14004300Y-14388843D01*
X13990014Y-14403129D01*
X13961443Y-14417414D01*
X13918585Y-14417414D01*
X14190014Y-14417414D02*
X14161443Y-14403129D01*
X14147157Y-14374557D01*
X14147157Y-14117414D01*
X14418586Y-14403129D02*
X14390014Y-14417414D01*
X14332871Y-14417414D01*
X14304300Y-14403129D01*
X14290014Y-14374557D01*
X14290014Y-14260271D01*
X14304300Y-14231700D01*
X14332871Y-14217414D01*
X14390014Y-14217414D01*
X14418586Y-14231700D01*
X14432871Y-14260271D01*
X14432871Y-14288843D01*
X14290014Y-14317414D01*
X14547157Y-14403129D02*
X14575728Y-14417414D01*
X14632871Y-14417414D01*
X14661443Y-14403129D01*
X14675728Y-14374557D01*
X14675728Y-14360271D01*
X14661443Y-14331700D01*
X14632871Y-14317414D01*
X14590014Y-14317414D01*
X14561443Y-14303129D01*
X14547157Y-14274557D01*
X14547157Y-14260271D01*
X14561443Y-14231700D01*
X14590014Y-14217414D01*
X14632871Y-14217414D01*
X14661443Y-14231700D01*
X14775728Y-14531700D02*
X14790014Y-14517414D01*
X14818586Y-14474557D01*
X14832871Y-14445986D01*
X14847157Y-14403129D01*
X14861443Y-14331700D01*
X14861443Y-14274557D01*
X14847157Y-14203129D01*
X14832871Y-14160271D01*
X14818586Y-14131700D01*
X14790014Y-14088843D01*
X14775728Y-14074557D01*
X8304300Y-14677700D02*
G75*
G03X8304300Y-14677700I-35000J0D01*
G01*
X8632871Y-14513414D02*
X8661443Y-14513414D01*
X8690014Y-14527700D01*
X8704300Y-14541986D01*
X8718586Y-14570557D01*
X8732871Y-14627700D01*
X8732871Y-14699129D01*
X8718586Y-14756271D01*
X8704300Y-14784843D01*
X8690014Y-14799129D01*
X8661443Y-14813414D01*
X8632871Y-14813414D01*
X8604300Y-14799129D01*
X8590014Y-14784843D01*
X8575729Y-14756271D01*
X8561443Y-14699129D01*
X8561443Y-14627700D01*
X8575729Y-14570557D01*
X8590014Y-14541986D01*
X8604300Y-14527700D01*
X8632871Y-14513414D01*
X8861443Y-14784843D02*
X8875729Y-14799129D01*
X8861443Y-14813414D01*
X8847157Y-14799129D01*
X8861443Y-14784843D01*
X8861443Y-14813414D01*
X8975728Y-14513414D02*
X9175728Y-14513414D01*
X9047157Y-14813414D01*
X9347157Y-14513414D02*
X9375729Y-14513414D01*
X9404300Y-14527700D01*
X9418586Y-14541986D01*
X9432871Y-14570557D01*
X9447157Y-14627700D01*
X9447157Y-14699129D01*
X9432871Y-14756271D01*
X9418586Y-14784843D01*
X9404300Y-14799129D01*
X9375729Y-14813414D01*
X9347157Y-14813414D01*
X9318586Y-14799129D01*
X9304300Y-14784843D01*
X9290014Y-14756271D01*
X9275729Y-14699129D01*
X9275729Y-14627700D01*
X9290014Y-14570557D01*
X9304300Y-14541986D01*
X9318586Y-14527700D01*
X9347157Y-14513414D01*
X9575729Y-14813414D02*
X9575729Y-14613414D01*
X9575729Y-14641986D02*
X9590014Y-14627700D01*
X9618586Y-14613414D01*
X9661443Y-14613414D01*
X9690014Y-14627700D01*
X9704300Y-14656271D01*
X9704300Y-14813414D01*
X9704300Y-14656271D02*
X9718586Y-14627700D01*
X9747157Y-14613414D01*
X9790014Y-14613414D01*
X9818586Y-14627700D01*
X9832871Y-14656271D01*
X9832871Y-14813414D01*
X9975729Y-14813414D02*
X9975729Y-14613414D01*
X9975729Y-14641986D02*
X9990014Y-14627700D01*
X10018586Y-14613414D01*
X10061443Y-14613414D01*
X10090014Y-14627700D01*
X10104300Y-14656271D01*
X10104300Y-14813414D01*
X10104300Y-14656271D02*
X10118586Y-14627700D01*
X10147157Y-14613414D01*
X10190014Y-14613414D01*
X10218586Y-14627700D01*
X10232871Y-14656271D01*
X10232871Y-14813414D01*
X10818586Y-14499129D02*
X10561443Y-14884843D01*
X11204300Y-14513414D02*
X11232871Y-14513414D01*
X11261443Y-14527700D01*
X11275728Y-14541986D01*
X11290014Y-14570557D01*
X11304300Y-14627700D01*
X11304300Y-14699129D01*
X11290014Y-14756271D01*
X11275728Y-14784843D01*
X11261443Y-14799129D01*
X11232871Y-14813414D01*
X11204300Y-14813414D01*
X11175728Y-14799129D01*
X11161443Y-14784843D01*
X11147157Y-14756271D01*
X11132871Y-14699129D01*
X11132871Y-14627700D01*
X11147157Y-14570557D01*
X11161443Y-14541986D01*
X11175728Y-14527700D01*
X11204300Y-14513414D01*
X11432871Y-14784843D02*
X11447157Y-14799129D01*
X11432871Y-14813414D01*
X11418586Y-14799129D01*
X11432871Y-14784843D01*
X11432871Y-14813414D01*
X11632871Y-14513414D02*
X11661443Y-14513414D01*
X11690014Y-14527700D01*
X11704300Y-14541986D01*
X11718585Y-14570557D01*
X11732871Y-14627700D01*
X11732871Y-14699129D01*
X11718585Y-14756271D01*
X11704300Y-14784843D01*
X11690014Y-14799129D01*
X11661443Y-14813414D01*
X11632871Y-14813414D01*
X11604300Y-14799129D01*
X11590014Y-14784843D01*
X11575728Y-14756271D01*
X11561443Y-14699129D01*
X11561443Y-14627700D01*
X11575728Y-14570557D01*
X11590014Y-14541986D01*
X11604300Y-14527700D01*
X11632871Y-14513414D01*
X11847157Y-14541986D02*
X11861443Y-14527700D01*
X11890014Y-14513414D01*
X11961443Y-14513414D01*
X11990014Y-14527700D01*
X12004300Y-14541986D01*
X12018585Y-14570557D01*
X12018585Y-14599129D01*
X12004300Y-14641986D01*
X11832871Y-14813414D01*
X12018585Y-14813414D01*
X12190014Y-14641986D02*
X12161443Y-14627700D01*
X12147157Y-14613414D01*
X12132871Y-14584843D01*
X12132871Y-14570557D01*
X12147157Y-14541986D01*
X12161443Y-14527700D01*
X12190014Y-14513414D01*
X12247157Y-14513414D01*
X12275728Y-14527700D01*
X12290014Y-14541986D01*
X12304300Y-14570557D01*
X12304300Y-14584843D01*
X12290014Y-14613414D01*
X12275728Y-14627700D01*
X12247157Y-14641986D01*
X12190014Y-14641986D01*
X12161443Y-14656271D01*
X12147157Y-14670557D01*
X12132871Y-14699129D01*
X12132871Y-14756271D01*
X12147157Y-14784843D01*
X12161443Y-14799129D01*
X12190014Y-14813414D01*
X12247157Y-14813414D01*
X12275728Y-14799129D01*
X12290014Y-14784843D01*
X12304300Y-14756271D01*
X12304300Y-14699129D01*
X12290014Y-14670557D01*
X12275728Y-14656271D01*
X12247157Y-14641986D01*
X12418586Y-14513414D02*
X12418586Y-14570557D01*
X12532871Y-14513414D02*
X12532871Y-14570557D01*
X12975728Y-14927700D02*
X12961443Y-14913414D01*
X12932871Y-14870557D01*
X12918585Y-14841986D01*
X12904300Y-14799129D01*
X12890014Y-14727700D01*
X12890014Y-14670557D01*
X12904300Y-14599129D01*
X12918585Y-14556271D01*
X12932871Y-14527700D01*
X12961443Y-14484843D01*
X12975728Y-14470557D01*
X13075728Y-14541986D02*
X13090014Y-14527700D01*
X13118585Y-14513414D01*
X13190014Y-14513414D01*
X13218585Y-14527700D01*
X13232871Y-14541986D01*
X13247157Y-14570557D01*
X13247157Y-14599129D01*
X13232871Y-14641986D01*
X13061443Y-14813414D01*
X13247157Y-14813414D01*
X13604300Y-14813414D02*
X13604300Y-14513414D01*
X13732871Y-14813414D02*
X13732871Y-14656271D01*
X13718585Y-14627700D01*
X13690014Y-14613414D01*
X13647157Y-14613414D01*
X13618585Y-14627700D01*
X13604300Y-14641986D01*
X13918585Y-14813414D02*
X13890014Y-14799129D01*
X13875728Y-14784843D01*
X13861443Y-14756271D01*
X13861443Y-14670557D01*
X13875728Y-14641986D01*
X13890014Y-14627700D01*
X13918585Y-14613414D01*
X13961443Y-14613414D01*
X13990014Y-14627700D01*
X14004300Y-14641986D01*
X14018585Y-14670557D01*
X14018585Y-14756271D01*
X14004300Y-14784843D01*
X13990014Y-14799129D01*
X13961443Y-14813414D01*
X13918585Y-14813414D01*
X14190014Y-14813414D02*
X14161443Y-14799129D01*
X14147157Y-14770557D01*
X14147157Y-14513414D01*
X14418586Y-14799129D02*
X14390014Y-14813414D01*
X14332871Y-14813414D01*
X14304300Y-14799129D01*
X14290014Y-14770557D01*
X14290014Y-14656271D01*
X14304300Y-14627700D01*
X14332871Y-14613414D01*
X14390014Y-14613414D01*
X14418586Y-14627700D01*
X14432871Y-14656271D01*
X14432871Y-14684843D01*
X14290014Y-14713414D01*
X14547157Y-14799129D02*
X14575728Y-14813414D01*
X14632871Y-14813414D01*
X14661443Y-14799129D01*
X14675728Y-14770557D01*
X14675728Y-14756271D01*
X14661443Y-14727700D01*
X14632871Y-14713414D01*
X14590014Y-14713414D01*
X14561443Y-14699129D01*
X14547157Y-14670557D01*
X14547157Y-14656271D01*
X14561443Y-14627700D01*
X14590014Y-14613414D01*
X14632871Y-14613414D01*
X14661443Y-14627700D01*
X14775728Y-14927700D02*
X14790014Y-14913414D01*
X14818586Y-14870557D01*
X14832871Y-14841986D01*
X14847157Y-14799129D01*
X14861443Y-14727700D01*
X14861443Y-14670557D01*
X14847157Y-14599129D01*
X14832871Y-14556271D01*
X14818586Y-14527700D01*
X14790014Y-14484843D01*
X14775728Y-14470557D01*
X8259300Y-15028700D02*
X8259300Y-15118700D01*
X8214300Y-15073700D02*
X8304300Y-15073700D01*
X8632871Y-14909414D02*
X8661443Y-14909414D01*
X8690014Y-14923700D01*
X8704300Y-14937986D01*
X8718586Y-14966557D01*
X8732871Y-15023700D01*
X8732871Y-15095129D01*
X8718586Y-15152271D01*
X8704300Y-15180843D01*
X8690014Y-15195129D01*
X8661443Y-15209414D01*
X8632871Y-15209414D01*
X8604300Y-15195129D01*
X8590014Y-15180843D01*
X8575729Y-15152271D01*
X8561443Y-15095129D01*
X8561443Y-15023700D01*
X8575729Y-14966557D01*
X8590014Y-14937986D01*
X8604300Y-14923700D01*
X8632871Y-14909414D01*
X8861443Y-15180843D02*
X8875729Y-15195129D01*
X8861443Y-15209414D01*
X8847157Y-15195129D01*
X8861443Y-15180843D01*
X8861443Y-15209414D01*
X9018586Y-15209414D02*
X9075728Y-15209414D01*
X9104300Y-15195129D01*
X9118586Y-15180843D01*
X9147157Y-15137986D01*
X9161443Y-15080843D01*
X9161443Y-14966557D01*
X9147157Y-14937986D01*
X9132871Y-14923700D01*
X9104300Y-14909414D01*
X9047157Y-14909414D01*
X9018586Y-14923700D01*
X9004300Y-14937986D01*
X8990014Y-14966557D01*
X8990014Y-15037986D01*
X9004300Y-15066557D01*
X9018586Y-15080843D01*
X9047157Y-15095129D01*
X9104300Y-15095129D01*
X9132871Y-15080843D01*
X9147157Y-15066557D01*
X9161443Y-15037986D01*
X9347157Y-14909414D02*
X9375729Y-14909414D01*
X9404300Y-14923700D01*
X9418586Y-14937986D01*
X9432871Y-14966557D01*
X9447157Y-15023700D01*
X9447157Y-15095129D01*
X9432871Y-15152271D01*
X9418586Y-15180843D01*
X9404300Y-15195129D01*
X9375729Y-15209414D01*
X9347157Y-15209414D01*
X9318586Y-15195129D01*
X9304300Y-15180843D01*
X9290014Y-15152271D01*
X9275729Y-15095129D01*
X9275729Y-15023700D01*
X9290014Y-14966557D01*
X9304300Y-14937986D01*
X9318586Y-14923700D01*
X9347157Y-14909414D01*
X9575729Y-15209414D02*
X9575729Y-15009414D01*
X9575729Y-15037986D02*
X9590014Y-15023700D01*
X9618586Y-15009414D01*
X9661443Y-15009414D01*
X9690014Y-15023700D01*
X9704300Y-15052271D01*
X9704300Y-15209414D01*
X9704300Y-15052271D02*
X9718586Y-15023700D01*
X9747157Y-15009414D01*
X9790014Y-15009414D01*
X9818586Y-15023700D01*
X9832871Y-15052271D01*
X9832871Y-15209414D01*
X9975729Y-15209414D02*
X9975729Y-15009414D01*
X9975729Y-15037986D02*
X9990014Y-15023700D01*
X10018586Y-15009414D01*
X10061443Y-15009414D01*
X10090014Y-15023700D01*
X10104300Y-15052271D01*
X10104300Y-15209414D01*
X10104300Y-15052271D02*
X10118586Y-15023700D01*
X10147157Y-15009414D01*
X10190014Y-15009414D01*
X10218586Y-15023700D01*
X10232871Y-15052271D01*
X10232871Y-15209414D01*
X10818586Y-14895129D02*
X10561443Y-15280843D01*
X11204300Y-14909414D02*
X11232871Y-14909414D01*
X11261443Y-14923700D01*
X11275728Y-14937986D01*
X11290014Y-14966557D01*
X11304300Y-15023700D01*
X11304300Y-15095129D01*
X11290014Y-15152271D01*
X11275728Y-15180843D01*
X11261443Y-15195129D01*
X11232871Y-15209414D01*
X11204300Y-15209414D01*
X11175728Y-15195129D01*
X11161443Y-15180843D01*
X11147157Y-15152271D01*
X11132871Y-15095129D01*
X11132871Y-15023700D01*
X11147157Y-14966557D01*
X11161443Y-14937986D01*
X11175728Y-14923700D01*
X11204300Y-14909414D01*
X11432871Y-15180843D02*
X11447157Y-15195129D01*
X11432871Y-15209414D01*
X11418586Y-15195129D01*
X11432871Y-15180843D01*
X11432871Y-15209414D01*
X11632871Y-14909414D02*
X11661443Y-14909414D01*
X11690014Y-14923700D01*
X11704300Y-14937986D01*
X11718585Y-14966557D01*
X11732871Y-15023700D01*
X11732871Y-15095129D01*
X11718585Y-15152271D01*
X11704300Y-15180843D01*
X11690014Y-15195129D01*
X11661443Y-15209414D01*
X11632871Y-15209414D01*
X11604300Y-15195129D01*
X11590014Y-15180843D01*
X11575728Y-15152271D01*
X11561443Y-15095129D01*
X11561443Y-15023700D01*
X11575728Y-14966557D01*
X11590014Y-14937986D01*
X11604300Y-14923700D01*
X11632871Y-14909414D01*
X11832871Y-14909414D02*
X12018585Y-14909414D01*
X11918585Y-15023700D01*
X11961443Y-15023700D01*
X11990014Y-15037986D01*
X12004300Y-15052271D01*
X12018585Y-15080843D01*
X12018585Y-15152271D01*
X12004300Y-15180843D01*
X11990014Y-15195129D01*
X11961443Y-15209414D01*
X11875728Y-15209414D01*
X11847157Y-15195129D01*
X11832871Y-15180843D01*
X12290014Y-14909414D02*
X12147157Y-14909414D01*
X12132871Y-15052271D01*
X12147157Y-15037986D01*
X12175728Y-15023700D01*
X12247157Y-15023700D01*
X12275728Y-15037986D01*
X12290014Y-15052271D01*
X12304300Y-15080843D01*
X12304300Y-15152271D01*
X12290014Y-15180843D01*
X12275728Y-15195129D01*
X12247157Y-15209414D01*
X12175728Y-15209414D01*
X12147157Y-15195129D01*
X12132871Y-15180843D01*
X12418586Y-14909414D02*
X12418586Y-14966557D01*
X12532871Y-14909414D02*
X12532871Y-14966557D01*
X12975728Y-15323700D02*
X12961443Y-15309414D01*
X12932871Y-15266557D01*
X12918585Y-15237986D01*
X12904300Y-15195129D01*
X12890014Y-15123700D01*
X12890014Y-15066557D01*
X12904300Y-14995129D01*
X12918585Y-14952271D01*
X12932871Y-14923700D01*
X12961443Y-14880843D01*
X12975728Y-14866557D01*
X13075728Y-14937986D02*
X13090014Y-14923700D01*
X13118585Y-14909414D01*
X13190014Y-14909414D01*
X13218585Y-14923700D01*
X13232871Y-14937986D01*
X13247157Y-14966557D01*
X13247157Y-14995129D01*
X13232871Y-15037986D01*
X13061443Y-15209414D01*
X13247157Y-15209414D01*
X13604300Y-15209414D02*
X13604300Y-14909414D01*
X13732871Y-15209414D02*
X13732871Y-15052271D01*
X13718585Y-15023700D01*
X13690014Y-15009414D01*
X13647157Y-15009414D01*
X13618585Y-15023700D01*
X13604300Y-15037986D01*
X13918585Y-15209414D02*
X13890014Y-15195129D01*
X13875728Y-15180843D01*
X13861443Y-15152271D01*
X13861443Y-15066557D01*
X13875728Y-15037986D01*
X13890014Y-15023700D01*
X13918585Y-15009414D01*
X13961443Y-15009414D01*
X13990014Y-15023700D01*
X14004300Y-15037986D01*
X14018585Y-15066557D01*
X14018585Y-15152271D01*
X14004300Y-15180843D01*
X13990014Y-15195129D01*
X13961443Y-15209414D01*
X13918585Y-15209414D01*
X14190014Y-15209414D02*
X14161443Y-15195129D01*
X14147157Y-15166557D01*
X14147157Y-14909414D01*
X14418586Y-15195129D02*
X14390014Y-15209414D01*
X14332871Y-15209414D01*
X14304300Y-15195129D01*
X14290014Y-15166557D01*
X14290014Y-15052271D01*
X14304300Y-15023700D01*
X14332871Y-15009414D01*
X14390014Y-15009414D01*
X14418586Y-15023700D01*
X14432871Y-15052271D01*
X14432871Y-15080843D01*
X14290014Y-15109414D01*
X14547157Y-15195129D02*
X14575728Y-15209414D01*
X14632871Y-15209414D01*
X14661443Y-15195129D01*
X14675728Y-15166557D01*
X14675728Y-15152271D01*
X14661443Y-15123700D01*
X14632871Y-15109414D01*
X14590014Y-15109414D01*
X14561443Y-15095129D01*
X14547157Y-15066557D01*
X14547157Y-15052271D01*
X14561443Y-15023700D01*
X14590014Y-15009414D01*
X14632871Y-15009414D01*
X14661443Y-15023700D01*
X14775728Y-15323700D02*
X14790014Y-15309414D01*
X14818586Y-15266557D01*
X14832871Y-15237986D01*
X14847157Y-15195129D01*
X14861443Y-15123700D01*
X14861443Y-15066557D01*
X14847157Y-14995129D01*
X14832871Y-14952271D01*
X14818586Y-14923700D01*
X14790014Y-14880843D01*
X14775728Y-14866557D01*
X8289656Y-15505056D02*
X8289656Y-15434344D01*
X8218944Y-15434344D01*
X8218944Y-15505056D01*
X8289656Y-15505056D01*
X8732871Y-15605414D02*
X8561443Y-15605414D01*
X8647157Y-15605414D02*
X8647157Y-15305414D01*
X8618586Y-15348271D01*
X8590014Y-15376843D01*
X8561443Y-15391129D01*
X8861443Y-15576843D02*
X8875729Y-15591129D01*
X8861443Y-15605414D01*
X8847157Y-15591129D01*
X8861443Y-15576843D01*
X8861443Y-15605414D01*
X9061443Y-15305414D02*
X9090014Y-15305414D01*
X9118586Y-15319700D01*
X9132871Y-15333986D01*
X9147157Y-15362557D01*
X9161443Y-15419700D01*
X9161443Y-15491129D01*
X9147157Y-15548271D01*
X9132871Y-15576843D01*
X9118586Y-15591129D01*
X9090014Y-15605414D01*
X9061443Y-15605414D01*
X9032871Y-15591129D01*
X9018586Y-15576843D01*
X9004300Y-15548271D01*
X8990014Y-15491129D01*
X8990014Y-15419700D01*
X9004300Y-15362557D01*
X9018586Y-15333986D01*
X9032871Y-15319700D01*
X9061443Y-15305414D01*
X9347157Y-15305414D02*
X9375729Y-15305414D01*
X9404300Y-15319700D01*
X9418586Y-15333986D01*
X9432871Y-15362557D01*
X9447157Y-15419700D01*
X9447157Y-15491129D01*
X9432871Y-15548271D01*
X9418586Y-15576843D01*
X9404300Y-15591129D01*
X9375729Y-15605414D01*
X9347157Y-15605414D01*
X9318586Y-15591129D01*
X9304300Y-15576843D01*
X9290014Y-15548271D01*
X9275729Y-15491129D01*
X9275729Y-15419700D01*
X9290014Y-15362557D01*
X9304300Y-15333986D01*
X9318586Y-15319700D01*
X9347157Y-15305414D01*
X9575729Y-15605414D02*
X9575729Y-15405414D01*
X9575729Y-15433986D02*
X9590014Y-15419700D01*
X9618586Y-15405414D01*
X9661443Y-15405414D01*
X9690014Y-15419700D01*
X9704300Y-15448271D01*
X9704300Y-15605414D01*
X9704300Y-15448271D02*
X9718586Y-15419700D01*
X9747157Y-15405414D01*
X9790014Y-15405414D01*
X9818586Y-15419700D01*
X9832871Y-15448271D01*
X9832871Y-15605414D01*
X9975729Y-15605414D02*
X9975729Y-15405414D01*
X9975729Y-15433986D02*
X9990014Y-15419700D01*
X10018586Y-15405414D01*
X10061443Y-15405414D01*
X10090014Y-15419700D01*
X10104300Y-15448271D01*
X10104300Y-15605414D01*
X10104300Y-15448271D02*
X10118586Y-15419700D01*
X10147157Y-15405414D01*
X10190014Y-15405414D01*
X10218586Y-15419700D01*
X10232871Y-15448271D01*
X10232871Y-15605414D01*
X10818586Y-15291129D02*
X10561443Y-15676843D01*
X11204300Y-15305414D02*
X11232871Y-15305414D01*
X11261443Y-15319700D01*
X11275728Y-15333986D01*
X11290014Y-15362557D01*
X11304300Y-15419700D01*
X11304300Y-15491129D01*
X11290014Y-15548271D01*
X11275728Y-15576843D01*
X11261443Y-15591129D01*
X11232871Y-15605414D01*
X11204300Y-15605414D01*
X11175728Y-15591129D01*
X11161443Y-15576843D01*
X11147157Y-15548271D01*
X11132871Y-15491129D01*
X11132871Y-15419700D01*
X11147157Y-15362557D01*
X11161443Y-15333986D01*
X11175728Y-15319700D01*
X11204300Y-15305414D01*
X11432871Y-15576843D02*
X11447157Y-15591129D01*
X11432871Y-15605414D01*
X11418586Y-15591129D01*
X11432871Y-15576843D01*
X11432871Y-15605414D01*
X11632871Y-15305414D02*
X11661443Y-15305414D01*
X11690014Y-15319700D01*
X11704300Y-15333986D01*
X11718585Y-15362557D01*
X11732871Y-15419700D01*
X11732871Y-15491129D01*
X11718585Y-15548271D01*
X11704300Y-15576843D01*
X11690014Y-15591129D01*
X11661443Y-15605414D01*
X11632871Y-15605414D01*
X11604300Y-15591129D01*
X11590014Y-15576843D01*
X11575728Y-15548271D01*
X11561443Y-15491129D01*
X11561443Y-15419700D01*
X11575728Y-15362557D01*
X11590014Y-15333986D01*
X11604300Y-15319700D01*
X11632871Y-15305414D01*
X11832871Y-15305414D02*
X12018585Y-15305414D01*
X11918585Y-15419700D01*
X11961443Y-15419700D01*
X11990014Y-15433986D01*
X12004300Y-15448271D01*
X12018585Y-15476843D01*
X12018585Y-15548271D01*
X12004300Y-15576843D01*
X11990014Y-15591129D01*
X11961443Y-15605414D01*
X11875728Y-15605414D01*
X11847157Y-15591129D01*
X11832871Y-15576843D01*
X12161443Y-15605414D02*
X12218585Y-15605414D01*
X12247157Y-15591129D01*
X12261443Y-15576843D01*
X12290014Y-15533986D01*
X12304300Y-15476843D01*
X12304300Y-15362557D01*
X12290014Y-15333986D01*
X12275728Y-15319700D01*
X12247157Y-15305414D01*
X12190014Y-15305414D01*
X12161443Y-15319700D01*
X12147157Y-15333986D01*
X12132871Y-15362557D01*
X12132871Y-15433986D01*
X12147157Y-15462557D01*
X12161443Y-15476843D01*
X12190014Y-15491129D01*
X12247157Y-15491129D01*
X12275728Y-15476843D01*
X12290014Y-15462557D01*
X12304300Y-15433986D01*
X12418586Y-15305414D02*
X12418586Y-15362557D01*
X12532871Y-15305414D02*
X12532871Y-15362557D01*
X12975728Y-15719700D02*
X12961443Y-15705414D01*
X12932871Y-15662557D01*
X12918585Y-15633986D01*
X12904300Y-15591129D01*
X12890014Y-15519700D01*
X12890014Y-15462557D01*
X12904300Y-15391129D01*
X12918585Y-15348271D01*
X12932871Y-15319700D01*
X12961443Y-15276843D01*
X12975728Y-15262557D01*
X13075728Y-15333986D02*
X13090014Y-15319700D01*
X13118585Y-15305414D01*
X13190014Y-15305414D01*
X13218585Y-15319700D01*
X13232871Y-15333986D01*
X13247157Y-15362557D01*
X13247157Y-15391129D01*
X13232871Y-15433986D01*
X13061443Y-15605414D01*
X13247157Y-15605414D01*
X13504300Y-15305414D02*
X13447157Y-15305414D01*
X13418585Y-15319700D01*
X13404300Y-15333986D01*
X13375728Y-15376843D01*
X13361443Y-15433986D01*
X13361443Y-15548271D01*
X13375728Y-15576843D01*
X13390014Y-15591129D01*
X13418585Y-15605414D01*
X13475728Y-15605414D01*
X13504300Y-15591129D01*
X13518585Y-15576843D01*
X13532871Y-15548271D01*
X13532871Y-15476843D01*
X13518585Y-15448271D01*
X13504300Y-15433986D01*
X13475728Y-15419700D01*
X13418585Y-15419700D01*
X13390014Y-15433986D01*
X13375728Y-15448271D01*
X13361443Y-15476843D01*
X13890014Y-15605414D02*
X13890014Y-15305414D01*
X14018585Y-15605414D02*
X14018585Y-15448271D01*
X14004300Y-15419700D01*
X13975728Y-15405414D01*
X13932871Y-15405414D01*
X13904300Y-15419700D01*
X13890014Y-15433986D01*
X14204300Y-15605414D02*
X14175728Y-15591129D01*
X14161443Y-15576843D01*
X14147157Y-15548271D01*
X14147157Y-15462557D01*
X14161443Y-15433986D01*
X14175728Y-15419700D01*
X14204300Y-15405414D01*
X14247157Y-15405414D01*
X14275728Y-15419700D01*
X14290014Y-15433986D01*
X14304300Y-15462557D01*
X14304300Y-15548271D01*
X14290014Y-15576843D01*
X14275728Y-15591129D01*
X14247157Y-15605414D01*
X14204300Y-15605414D01*
X14475728Y-15605414D02*
X14447157Y-15591129D01*
X14432871Y-15562557D01*
X14432871Y-15305414D01*
X14704300Y-15591129D02*
X14675728Y-15605414D01*
X14618586Y-15605414D01*
X14590014Y-15591129D01*
X14575728Y-15562557D01*
X14575728Y-15448271D01*
X14590014Y-15419700D01*
X14618586Y-15405414D01*
X14675728Y-15405414D01*
X14704300Y-15419700D01*
X14718586Y-15448271D01*
X14718586Y-15476843D01*
X14575728Y-15505414D01*
X14832871Y-15591129D02*
X14861443Y-15605414D01*
X14918586Y-15605414D01*
X14947157Y-15591129D01*
X14961443Y-15562557D01*
X14961443Y-15548271D01*
X14947157Y-15519700D01*
X14918586Y-15505414D01*
X14875728Y-15505414D01*
X14847157Y-15491129D01*
X14832871Y-15462557D01*
X14832871Y-15448271D01*
X14847157Y-15419700D01*
X14875728Y-15405414D01*
X14918586Y-15405414D01*
X14947157Y-15419700D01*
X15061443Y-15719700D02*
X15075728Y-15705414D01*
X15104300Y-15662557D01*
X15118586Y-15633986D01*
X15132871Y-15591129D01*
X15147157Y-15519700D01*
X15147157Y-15462557D01*
X15132871Y-15391129D01*
X15118586Y-15348271D01*
X15104300Y-15319700D01*
X15075728Y-15276843D01*
X15061443Y-15262557D01*
X8249300Y-15920700D02*
X8304300Y-15865700D01*
X8249300Y-15810700D01*
X8194300Y-15865700D01*
X8249300Y-15920700D01*
X8732871Y-16001414D02*
X8561443Y-16001414D01*
X8647157Y-16001414D02*
X8647157Y-15701414D01*
X8618586Y-15744271D01*
X8590014Y-15772843D01*
X8561443Y-15787129D01*
X8861443Y-15972843D02*
X8875729Y-15987129D01*
X8861443Y-16001414D01*
X8847157Y-15987129D01*
X8861443Y-15972843D01*
X8861443Y-16001414D01*
X9161443Y-16001414D02*
X8990014Y-16001414D01*
X9075728Y-16001414D02*
X9075728Y-15701414D01*
X9047157Y-15744271D01*
X9018586Y-15772843D01*
X8990014Y-15787129D01*
X9347157Y-15701414D02*
X9375729Y-15701414D01*
X9404300Y-15715700D01*
X9418586Y-15729986D01*
X9432871Y-15758557D01*
X9447157Y-15815700D01*
X9447157Y-15887129D01*
X9432871Y-15944271D01*
X9418586Y-15972843D01*
X9404300Y-15987129D01*
X9375729Y-16001414D01*
X9347157Y-16001414D01*
X9318586Y-15987129D01*
X9304300Y-15972843D01*
X9290014Y-15944271D01*
X9275729Y-15887129D01*
X9275729Y-15815700D01*
X9290014Y-15758557D01*
X9304300Y-15729986D01*
X9318586Y-15715700D01*
X9347157Y-15701414D01*
X9575729Y-16001414D02*
X9575729Y-15801414D01*
X9575729Y-15829986D02*
X9590014Y-15815700D01*
X9618586Y-15801414D01*
X9661443Y-15801414D01*
X9690014Y-15815700D01*
X9704300Y-15844271D01*
X9704300Y-16001414D01*
X9704300Y-15844271D02*
X9718586Y-15815700D01*
X9747157Y-15801414D01*
X9790014Y-15801414D01*
X9818586Y-15815700D01*
X9832871Y-15844271D01*
X9832871Y-16001414D01*
X9975729Y-16001414D02*
X9975729Y-15801414D01*
X9975729Y-15829986D02*
X9990014Y-15815700D01*
X10018586Y-15801414D01*
X10061443Y-15801414D01*
X10090014Y-15815700D01*
X10104300Y-15844271D01*
X10104300Y-16001414D01*
X10104300Y-15844271D02*
X10118586Y-15815700D01*
X10147157Y-15801414D01*
X10190014Y-15801414D01*
X10218586Y-15815700D01*
X10232871Y-15844271D01*
X10232871Y-16001414D01*
X10818586Y-15687129D02*
X10561443Y-16072843D01*
X11204300Y-15701414D02*
X11232871Y-15701414D01*
X11261443Y-15715700D01*
X11275728Y-15729986D01*
X11290014Y-15758557D01*
X11304300Y-15815700D01*
X11304300Y-15887129D01*
X11290014Y-15944271D01*
X11275728Y-15972843D01*
X11261443Y-15987129D01*
X11232871Y-16001414D01*
X11204300Y-16001414D01*
X11175728Y-15987129D01*
X11161443Y-15972843D01*
X11147157Y-15944271D01*
X11132871Y-15887129D01*
X11132871Y-15815700D01*
X11147157Y-15758557D01*
X11161443Y-15729986D01*
X11175728Y-15715700D01*
X11204300Y-15701414D01*
X11432871Y-15972843D02*
X11447157Y-15987129D01*
X11432871Y-16001414D01*
X11418586Y-15987129D01*
X11432871Y-15972843D01*
X11432871Y-16001414D01*
X11632871Y-15701414D02*
X11661443Y-15701414D01*
X11690014Y-15715700D01*
X11704300Y-15729986D01*
X11718585Y-15758557D01*
X11732871Y-15815700D01*
X11732871Y-15887129D01*
X11718585Y-15944271D01*
X11704300Y-15972843D01*
X11690014Y-15987129D01*
X11661443Y-16001414D01*
X11632871Y-16001414D01*
X11604300Y-15987129D01*
X11590014Y-15972843D01*
X11575728Y-15944271D01*
X11561443Y-15887129D01*
X11561443Y-15815700D01*
X11575728Y-15758557D01*
X11590014Y-15729986D01*
X11604300Y-15715700D01*
X11632871Y-15701414D01*
X11990014Y-15801414D02*
X11990014Y-16001414D01*
X11918585Y-15687129D02*
X11847157Y-15901414D01*
X12032871Y-15901414D01*
X12118585Y-15701414D02*
X12304300Y-15701414D01*
X12204300Y-15815700D01*
X12247157Y-15815700D01*
X12275728Y-15829986D01*
X12290014Y-15844271D01*
X12304300Y-15872843D01*
X12304300Y-15944271D01*
X12290014Y-15972843D01*
X12275728Y-15987129D01*
X12247157Y-16001414D01*
X12161443Y-16001414D01*
X12132871Y-15987129D01*
X12118585Y-15972843D01*
X12418586Y-15701414D02*
X12418586Y-15758557D01*
X12532871Y-15701414D02*
X12532871Y-15758557D01*
X12975728Y-16115700D02*
X12961443Y-16101414D01*
X12932871Y-16058557D01*
X12918585Y-16029986D01*
X12904300Y-15987129D01*
X12890014Y-15915700D01*
X12890014Y-15858557D01*
X12904300Y-15787129D01*
X12918585Y-15744271D01*
X12932871Y-15715700D01*
X12961443Y-15672843D01*
X12975728Y-15658557D01*
X13247157Y-16001414D02*
X13075728Y-16001414D01*
X13161443Y-16001414D02*
X13161443Y-15701414D01*
X13132871Y-15744271D01*
X13104300Y-15772843D01*
X13075728Y-15787129D01*
X13418585Y-15829986D02*
X13390014Y-15815700D01*
X13375728Y-15801414D01*
X13361443Y-15772843D01*
X13361443Y-15758557D01*
X13375728Y-15729986D01*
X13390014Y-15715700D01*
X13418585Y-15701414D01*
X13475728Y-15701414D01*
X13504300Y-15715700D01*
X13518585Y-15729986D01*
X13532871Y-15758557D01*
X13532871Y-15772843D01*
X13518585Y-15801414D01*
X13504300Y-15815700D01*
X13475728Y-15829986D01*
X13418585Y-15829986D01*
X13390014Y-15844271D01*
X13375728Y-15858557D01*
X13361443Y-15887129D01*
X13361443Y-15944271D01*
X13375728Y-15972843D01*
X13390014Y-15987129D01*
X13418585Y-16001414D01*
X13475728Y-16001414D01*
X13504300Y-15987129D01*
X13518585Y-15972843D01*
X13532871Y-15944271D01*
X13532871Y-15887129D01*
X13518585Y-15858557D01*
X13504300Y-15844271D01*
X13475728Y-15829986D01*
X13718585Y-15701414D02*
X13747157Y-15701414D01*
X13775728Y-15715700D01*
X13790014Y-15729986D01*
X13804300Y-15758557D01*
X13818585Y-15815700D01*
X13818585Y-15887129D01*
X13804300Y-15944271D01*
X13790014Y-15972843D01*
X13775728Y-15987129D01*
X13747157Y-16001414D01*
X13718585Y-16001414D01*
X13690014Y-15987129D01*
X13675728Y-15972843D01*
X13661443Y-15944271D01*
X13647157Y-15887129D01*
X13647157Y-15815700D01*
X13661443Y-15758557D01*
X13675728Y-15729986D01*
X13690014Y-15715700D01*
X13718585Y-15701414D01*
X14175728Y-16001414D02*
X14175728Y-15701414D01*
X14304300Y-16001414D02*
X14304300Y-15844271D01*
X14290014Y-15815700D01*
X14261443Y-15801414D01*
X14218585Y-15801414D01*
X14190014Y-15815700D01*
X14175728Y-15829986D01*
X14490014Y-16001414D02*
X14461443Y-15987129D01*
X14447157Y-15972843D01*
X14432871Y-15944271D01*
X14432871Y-15858557D01*
X14447157Y-15829986D01*
X14461443Y-15815700D01*
X14490014Y-15801414D01*
X14532871Y-15801414D01*
X14561443Y-15815700D01*
X14575728Y-15829986D01*
X14590014Y-15858557D01*
X14590014Y-15944271D01*
X14575728Y-15972843D01*
X14561443Y-15987129D01*
X14532871Y-16001414D01*
X14490014Y-16001414D01*
X14761443Y-16001414D02*
X14732871Y-15987129D01*
X14718586Y-15958557D01*
X14718586Y-15701414D01*
X14990014Y-15987129D02*
X14961443Y-16001414D01*
X14904300Y-16001414D01*
X14875728Y-15987129D01*
X14861443Y-15958557D01*
X14861443Y-15844271D01*
X14875728Y-15815700D01*
X14904300Y-15801414D01*
X14961443Y-15801414D01*
X14990014Y-15815700D01*
X15004300Y-15844271D01*
X15004300Y-15872843D01*
X14861443Y-15901414D01*
X15118586Y-15987129D02*
X15147157Y-16001414D01*
X15204300Y-16001414D01*
X15232871Y-15987129D01*
X15247157Y-15958557D01*
X15247157Y-15944271D01*
X15232871Y-15915700D01*
X15204300Y-15901414D01*
X15161443Y-15901414D01*
X15132871Y-15887129D01*
X15118586Y-15858557D01*
X15118586Y-15844271D01*
X15132871Y-15815700D01*
X15161443Y-15801414D01*
X15204300Y-15801414D01*
X15232871Y-15815700D01*
X15347157Y-16115700D02*
X15361443Y-16101414D01*
X15390014Y-16058557D01*
X15404300Y-16029986D01*
X15418586Y-15987129D01*
X15432871Y-15915700D01*
X15432871Y-15858557D01*
X15418586Y-15787129D01*
X15404300Y-15744271D01*
X15390014Y-15715700D01*
X15361443Y-15672843D01*
X15347157Y-15658557D01*
M02*
