G04 #@! TF.FileFunction,Copper,L1,Top,Signal*
%FSLAX46Y46*%
G04 Gerber Fmt 4.6, Leading zero omitted, Abs format (unit mm)*
G04 Created by KiCad (PCBNEW 4.0.1-stable) date 22.05.2019 22:43:50*
%MOMM*%
G01*
G04 APERTURE LIST*
%ADD10C,0.100000*%
%ADD11C,2.000000*%
%ADD12R,1.700000X1.700000*%
%ADD13O,1.700000X1.700000*%
%ADD14R,1.800000X1.800000*%
%ADD15C,1.800000*%
%ADD16C,0.600000*%
%ADD17C,0.250000*%
G04 APERTURE END LIST*
D10*
D11*
X192304000Y-122328000D03*
X192304000Y-117828000D03*
X198804000Y-122328000D03*
X198804000Y-117828000D03*
X179004000Y-122328000D03*
X179004000Y-117828000D03*
X185504000Y-122328000D03*
X185504000Y-117828000D03*
X212254000Y-108328000D03*
X212254000Y-103828000D03*
X218754000Y-108328000D03*
X218754000Y-103828000D03*
X176484000Y-80328000D03*
X176484000Y-75828000D03*
X182984000Y-80328000D03*
X182984000Y-75828000D03*
X136584000Y-80328000D03*
X136584000Y-75828000D03*
X143084000Y-80328000D03*
X143084000Y-75828000D03*
X96684000Y-80328000D03*
X96684000Y-75828000D03*
X103184000Y-80328000D03*
X103184000Y-75828000D03*
X229684000Y-80328000D03*
X229684000Y-75828000D03*
X236184000Y-80328000D03*
X236184000Y-75828000D03*
X205604000Y-122328000D03*
X205604000Y-117828000D03*
X212104000Y-122328000D03*
X212104000Y-117828000D03*
X189784000Y-80328000D03*
X189784000Y-75828000D03*
X196284000Y-80328000D03*
X196284000Y-75828000D03*
X149884000Y-80328000D03*
X149884000Y-75828000D03*
X156384000Y-80328000D03*
X156384000Y-75828000D03*
X109984000Y-80328000D03*
X109984000Y-75828000D03*
X116484000Y-80328000D03*
X116484000Y-75828000D03*
X216384000Y-80328000D03*
X216384000Y-75828000D03*
X222884000Y-80328000D03*
X222884000Y-75828000D03*
X218904000Y-122328000D03*
X218904000Y-117828000D03*
X225404000Y-122328000D03*
X225404000Y-117828000D03*
X203084000Y-80328000D03*
X203084000Y-75828000D03*
X209584000Y-80328000D03*
X209584000Y-75828000D03*
X163184000Y-80328000D03*
X163184000Y-75828000D03*
X169684000Y-80328000D03*
X169684000Y-75828000D03*
X123284000Y-80328000D03*
X123284000Y-75828000D03*
X129784000Y-80328000D03*
X129784000Y-75828000D03*
X105854000Y-108328000D03*
X105854000Y-103828000D03*
X112354000Y-108328000D03*
X112354000Y-103828000D03*
X145754000Y-108328000D03*
X145754000Y-103828000D03*
X152254000Y-108328000D03*
X152254000Y-103828000D03*
X198954000Y-108328000D03*
X198954000Y-103828000D03*
X205454000Y-108328000D03*
X205454000Y-103828000D03*
X222194000Y-94328000D03*
X222194000Y-89828000D03*
X228694000Y-94328000D03*
X228694000Y-89828000D03*
X182294000Y-94328000D03*
X182294000Y-89828000D03*
X188794000Y-94328000D03*
X188794000Y-89828000D03*
X112504000Y-122328000D03*
X112504000Y-117828000D03*
X119004000Y-122328000D03*
X119004000Y-117828000D03*
X165704000Y-122328000D03*
X165704000Y-117828000D03*
X172204000Y-122328000D03*
X172204000Y-117828000D03*
X159054000Y-108328000D03*
X159054000Y-103828000D03*
X165554000Y-108328000D03*
X165554000Y-103828000D03*
X102494000Y-94328000D03*
X102494000Y-89828000D03*
X108994000Y-94328000D03*
X108994000Y-89828000D03*
X152404000Y-122328000D03*
X152404000Y-117828000D03*
X158904000Y-122328000D03*
X158904000Y-117828000D03*
X235529000Y-122328000D03*
X235529000Y-117828000D03*
X242029000Y-122328000D03*
X242029000Y-117828000D03*
X225554000Y-108328000D03*
X225554000Y-103828000D03*
X232054000Y-108328000D03*
X232054000Y-103828000D03*
X139104000Y-122328000D03*
X139104000Y-117828000D03*
X145604000Y-122328000D03*
X145604000Y-117828000D03*
X172354000Y-108328000D03*
X172354000Y-103828000D03*
X178854000Y-108328000D03*
X178854000Y-103828000D03*
X142394000Y-94328000D03*
X142394000Y-89828000D03*
X148894000Y-94328000D03*
X148894000Y-89828000D03*
X115794000Y-94328000D03*
X115794000Y-89828000D03*
X122294000Y-94328000D03*
X122294000Y-89828000D03*
X238854000Y-108328000D03*
X238854000Y-103828000D03*
X245354000Y-108328000D03*
X245354000Y-103828000D03*
X132454000Y-108328000D03*
X132454000Y-103828000D03*
X138954000Y-108328000D03*
X138954000Y-103828000D03*
X195594000Y-94328000D03*
X195594000Y-89828000D03*
X202094000Y-94328000D03*
X202094000Y-89828000D03*
X119154000Y-108328000D03*
X119154000Y-103828000D03*
X125654000Y-108328000D03*
X125654000Y-103828000D03*
X125804000Y-122328000D03*
X125804000Y-117828000D03*
X132304000Y-122328000D03*
X132304000Y-117828000D03*
X92554000Y-108328000D03*
X92554000Y-103828000D03*
X99054000Y-108328000D03*
X99054000Y-103828000D03*
X95879000Y-122328000D03*
X95879000Y-117828000D03*
X102379000Y-122328000D03*
X102379000Y-117828000D03*
X129094000Y-94328000D03*
X129094000Y-89828000D03*
X135594000Y-94328000D03*
X135594000Y-89828000D03*
X185654000Y-108328000D03*
X185654000Y-103828000D03*
X192154000Y-108328000D03*
X192154000Y-103828000D03*
X208894000Y-94328000D03*
X208894000Y-89828000D03*
X215394000Y-94328000D03*
X215394000Y-89828000D03*
X155694000Y-94328000D03*
X155694000Y-89828000D03*
X162194000Y-94328000D03*
X162194000Y-89828000D03*
X168994000Y-94328000D03*
X168994000Y-89828000D03*
X175494000Y-94328000D03*
X175494000Y-89828000D03*
X237174000Y-94328000D03*
X237174000Y-89828000D03*
X243674000Y-94328000D03*
X243674000Y-89828000D03*
D12*
X93024000Y-68753000D03*
D13*
X95564000Y-68753000D03*
X98104000Y-68753000D03*
X100644000Y-68753000D03*
X103184000Y-68753000D03*
X105724000Y-68753000D03*
X108264000Y-68753000D03*
X110804000Y-68753000D03*
X113344000Y-68753000D03*
X115884000Y-68753000D03*
X118424000Y-68753000D03*
X120964000Y-68753000D03*
X123504000Y-68753000D03*
X126044000Y-68753000D03*
X128584000Y-68753000D03*
X131124000Y-68753000D03*
X133664000Y-68753000D03*
X136204000Y-68753000D03*
X138744000Y-68753000D03*
X141284000Y-68753000D03*
X143824000Y-68753000D03*
X146364000Y-68753000D03*
D14*
X244408000Y-77516000D03*
D15*
X246948000Y-77516000D03*
D12*
X156524000Y-68753000D03*
D13*
X159064000Y-68753000D03*
D16*
X247329000Y-100503000D03*
X240979000Y-97328000D03*
D17*
X199704000Y-75828000D02*
X199704000Y-83358000D01*
X199704000Y-83358000D02*
X199704000Y-84628000D01*
X131124000Y-71928000D02*
X119694000Y-71928000D01*
X134299000Y-75103000D02*
X131124000Y-71928000D01*
X134299000Y-82088000D02*
X134299000Y-75103000D01*
X136839000Y-84628000D02*
X134299000Y-82088000D01*
X188274000Y-84628000D02*
X136839000Y-84628000D01*
X190814000Y-87168000D02*
X188274000Y-84628000D01*
X190814000Y-96693000D02*
X190814000Y-87168000D01*
X187004000Y-100503000D02*
X190814000Y-96693000D01*
X145729000Y-100503000D02*
X187004000Y-100503000D01*
X143824000Y-102408000D02*
X145729000Y-100503000D01*
X143824000Y-109393000D02*
X143824000Y-102408000D01*
X145094000Y-110663000D02*
X143824000Y-109393000D01*
X193989000Y-110663000D02*
X145094000Y-110663000D01*
X194624000Y-110028000D02*
X193989000Y-110663000D01*
X194624000Y-104313000D02*
X194624000Y-110028000D01*
X198434000Y-100503000D02*
X194624000Y-104313000D01*
X200339000Y-100503000D02*
X198434000Y-100503000D01*
X204149000Y-96693000D02*
X200339000Y-100503000D01*
X204149000Y-96058000D02*
X204149000Y-96693000D01*
X204149000Y-87168000D02*
X204149000Y-96058000D01*
X202879000Y-85898000D02*
X204149000Y-87168000D01*
X200974000Y-85898000D02*
X202879000Y-85898000D01*
X199704000Y-84628000D02*
X200974000Y-85898000D01*
X203084000Y-75828000D02*
X209584000Y-75828000D01*
X196284000Y-75828000D02*
X199704000Y-75828000D01*
X199704000Y-75828000D02*
X203084000Y-75828000D01*
X189784000Y-75828000D02*
X196284000Y-75828000D01*
X182984000Y-75828000D02*
X189784000Y-75828000D01*
X176484000Y-75828000D02*
X182984000Y-75828000D01*
X165704000Y-117828000D02*
X172204000Y-117828000D01*
X139104000Y-117828000D02*
X145604000Y-117828000D01*
X140649000Y-112568000D02*
X138744000Y-115108000D01*
X138744000Y-115108000D02*
X138744000Y-117468000D01*
X138744000Y-117468000D02*
X139104000Y-117828000D01*
X138954000Y-103828000D02*
X140164000Y-103828000D01*
X165704000Y-115398000D02*
X165704000Y-117828000D01*
X164144000Y-113838000D02*
X165704000Y-115398000D01*
X141919000Y-113838000D02*
X164144000Y-113838000D01*
X140649000Y-112568000D02*
X141919000Y-113838000D01*
X140649000Y-104948000D02*
X140649000Y-112568000D01*
X140164000Y-103828000D02*
X140649000Y-104948000D01*
X132454000Y-103828000D02*
X138954000Y-103828000D01*
X112354000Y-103828000D02*
X105854000Y-103828000D01*
X126044000Y-97328000D02*
X124774000Y-98598000D01*
X112074000Y-99868000D02*
X112354000Y-103828000D01*
X113344000Y-98598000D02*
X112074000Y-99868000D01*
X124774000Y-98598000D02*
X113344000Y-98598000D01*
X126044000Y-87168000D02*
X126044000Y-97328000D01*
X132454000Y-101198000D02*
X132454000Y-103828000D01*
X131124000Y-99868000D02*
X132454000Y-101198000D01*
X127314000Y-98598000D02*
X131124000Y-99868000D01*
X126044000Y-97328000D02*
X127314000Y-98598000D01*
X129094000Y-89828000D02*
X135594000Y-89828000D01*
X110804000Y-68753000D02*
X110804000Y-70658000D01*
X126434000Y-87168000D02*
X129094000Y-89828000D01*
X120964000Y-87168000D02*
X126044000Y-87168000D01*
X126044000Y-87168000D02*
X126434000Y-87168000D01*
X119694000Y-85898000D02*
X120964000Y-87168000D01*
X119694000Y-71928000D02*
X119694000Y-71928000D01*
X119694000Y-71928000D02*
X119694000Y-85898000D01*
X117789000Y-71928000D02*
X119694000Y-71928000D01*
X112074000Y-71928000D02*
X117789000Y-71928000D01*
X110804000Y-70658000D02*
X112074000Y-71928000D01*
X93398000Y-74094000D02*
X89101000Y-74094000D01*
X88816000Y-81577000D02*
X93024000Y-81577000D01*
X86487000Y-79248000D02*
X88816000Y-81577000D01*
X86487000Y-76708000D02*
X86487000Y-79248000D01*
X89101000Y-74094000D02*
X86487000Y-76708000D01*
X93024000Y-81580000D02*
X93024000Y-81577000D01*
X93024000Y-81580000D02*
X95564337Y-84120339D01*
X95564337Y-84120339D02*
X97214987Y-84124729D01*
X97214987Y-84124729D02*
X98104000Y-85136000D01*
X98104000Y-85136000D02*
X98104000Y-97328000D01*
X98104000Y-97328000D02*
X101914000Y-101138000D01*
X101914000Y-101138000D02*
X101914000Y-112568000D01*
X101914000Y-112568000D02*
X103184000Y-113838000D01*
X103184000Y-113838000D02*
X121814000Y-113838000D01*
X121814000Y-113838000D02*
X125804000Y-117828000D01*
X100644000Y-68753000D02*
X100644000Y-71928000D01*
X100644000Y-71928000D02*
X100009000Y-72563000D01*
X100009000Y-72563000D02*
X94929000Y-72563000D01*
X94929000Y-72563000D02*
X93398000Y-74094000D01*
X212104000Y-117828000D02*
X205604000Y-117828000D01*
X218904000Y-117828000D02*
X225404000Y-117828000D01*
X212104000Y-117828000D02*
X218904000Y-117828000D01*
X205604000Y-117828000D02*
X203969000Y-117828000D01*
X203969000Y-117828000D02*
X202244000Y-119553000D01*
X202244000Y-119553000D02*
X202244000Y-123998000D01*
X202244000Y-123998000D02*
X199704000Y-126538000D01*
X199704000Y-126538000D02*
X178114000Y-126538000D01*
X178114000Y-126538000D02*
X176844000Y-125268000D01*
X125804000Y-117828000D02*
X132304000Y-117828000D01*
X160969000Y-125268000D02*
X150809000Y-125268000D01*
X123504000Y-120128000D02*
X125804000Y-117828000D01*
X123504000Y-123998000D02*
X123504000Y-120128000D01*
X126679000Y-127173000D02*
X123504000Y-123998000D01*
X148904000Y-127173000D02*
X126679000Y-127173000D01*
X150809000Y-125268000D02*
X148904000Y-127173000D01*
X158904000Y-117828000D02*
X152404000Y-117828000D01*
X173669000Y-111298000D02*
X174304000Y-111298000D01*
X167834000Y-89828000D02*
X165414000Y-92248000D01*
X165414000Y-92248000D02*
X165414000Y-97328000D01*
X165414000Y-97328000D02*
X162874000Y-99868000D01*
X162874000Y-99868000D02*
X144459000Y-99868000D01*
X144459000Y-99868000D02*
X143189000Y-101138000D01*
X143189000Y-101138000D02*
X143189000Y-108758000D01*
X143189000Y-108758000D02*
X143189000Y-110028000D01*
X143189000Y-110028000D02*
X143824000Y-110663000D01*
X143824000Y-110663000D02*
X144459000Y-111298000D01*
X144459000Y-111298000D02*
X173669000Y-111298000D01*
X168994000Y-89828000D02*
X167834000Y-89828000D01*
X160969000Y-119893000D02*
X158904000Y-117828000D01*
X160969000Y-125903000D02*
X160969000Y-125268000D01*
X160969000Y-125268000D02*
X160969000Y-119893000D01*
X162874000Y-127808000D02*
X160969000Y-125903000D01*
X174304000Y-127808000D02*
X162874000Y-127808000D01*
X176844000Y-125268000D02*
X174304000Y-127808000D01*
X176844000Y-113838000D02*
X176844000Y-125268000D01*
X174304000Y-111298000D02*
X176844000Y-113838000D01*
X182294000Y-89828000D02*
X188794000Y-89828000D01*
X175494000Y-89828000D02*
X182294000Y-89828000D01*
X168994000Y-89828000D02*
X175494000Y-89828000D01*
X137474000Y-99868000D02*
X137474000Y-89073000D01*
X163509000Y-115743000D02*
X163509000Y-123363000D01*
X163509000Y-123363000D02*
X164779000Y-124633000D01*
X164779000Y-124633000D02*
X173669000Y-124633000D01*
X173669000Y-124633000D02*
X174304000Y-123998000D01*
X174304000Y-123998000D02*
X174304000Y-116378000D01*
X174304000Y-116378000D02*
X171129000Y-113203000D01*
X171129000Y-113203000D02*
X142554000Y-113203000D01*
X142554000Y-113203000D02*
X141284000Y-111933000D01*
X141284000Y-111933000D02*
X141284000Y-104313000D01*
X141284000Y-104313000D02*
X137474000Y-99868000D01*
X129219000Y-101773000D02*
X129854000Y-102408000D01*
X114614000Y-109393000D02*
X114614000Y-102408000D01*
X114614000Y-102408000D02*
X116519000Y-100503000D01*
X116519000Y-100503000D02*
X127949000Y-100503000D01*
X127949000Y-100503000D02*
X129219000Y-101773000D01*
X115129000Y-89828000D02*
X112709000Y-92248000D01*
X112709000Y-92248000D02*
X112709000Y-96693000D01*
X112709000Y-96693000D02*
X110169000Y-99233000D01*
X110169000Y-99233000D02*
X104454000Y-99233000D01*
X104454000Y-99233000D02*
X103819000Y-99868000D01*
X103819000Y-99868000D02*
X103819000Y-110028000D01*
X103819000Y-110028000D02*
X104454000Y-110663000D01*
X104454000Y-110663000D02*
X113344000Y-110663000D01*
X113344000Y-110663000D02*
X114614000Y-109393000D01*
X150174000Y-114473000D02*
X162239000Y-114473000D01*
X148269000Y-116378000D02*
X150174000Y-114473000D01*
X148269000Y-123998000D02*
X148269000Y-116378000D01*
X146999000Y-125268000D02*
X148269000Y-123998000D01*
X137474000Y-125268000D02*
X146999000Y-125268000D01*
X136839000Y-124633000D02*
X137474000Y-125268000D01*
X136839000Y-113203000D02*
X136839000Y-124633000D01*
X134934000Y-111298000D02*
X136839000Y-113203000D01*
X134299000Y-111298000D02*
X134934000Y-111298000D01*
X132394000Y-111298000D02*
X134299000Y-111298000D01*
X129854000Y-108758000D02*
X132394000Y-111298000D01*
X129854000Y-102408000D02*
X129854000Y-108758000D01*
X162239000Y-114473000D02*
X163509000Y-115743000D01*
X164779000Y-85263000D02*
X168994000Y-89478000D01*
X135569000Y-85263000D02*
X164779000Y-85263000D01*
X133664000Y-83358000D02*
X135569000Y-85263000D01*
X133664000Y-75738000D02*
X133664000Y-83358000D01*
X130489000Y-72563000D02*
X133664000Y-75738000D01*
X122234000Y-72563000D02*
X130489000Y-72563000D01*
X120964000Y-73833000D02*
X122234000Y-72563000D01*
X120964000Y-83358000D02*
X120964000Y-73833000D01*
X122869000Y-85263000D02*
X120964000Y-83358000D01*
X131759000Y-85263000D02*
X122869000Y-85263000D01*
X134299000Y-87803000D02*
X131759000Y-85263000D01*
X136204000Y-87803000D02*
X134299000Y-87803000D01*
X137474000Y-89073000D02*
X136204000Y-87803000D01*
X168994000Y-89478000D02*
X168994000Y-89828000D01*
X115794000Y-89828000D02*
X122294000Y-89828000D01*
X115794000Y-89828000D02*
X115129000Y-89828000D01*
X152254000Y-103828000D02*
X145754000Y-103828000D01*
X159054000Y-103828000D02*
X152254000Y-103828000D01*
X165554000Y-103828000D02*
X159054000Y-103828000D01*
X172354000Y-103828000D02*
X165554000Y-103828000D01*
X178854000Y-103828000D02*
X172354000Y-103828000D01*
X185654000Y-103828000D02*
X178854000Y-103828000D01*
X192154000Y-103828000D02*
X185654000Y-103828000D01*
X192084000Y-83358000D02*
X192084000Y-103758000D01*
X192084000Y-103758000D02*
X192154000Y-103828000D01*
X195594000Y-89828000D02*
X202094000Y-89828000D01*
X169684000Y-75828000D02*
X170584000Y-75828000D01*
X170584000Y-75828000D02*
X171764000Y-77008000D01*
X195594000Y-85598000D02*
X195594000Y-89828000D01*
X193354000Y-83358000D02*
X195594000Y-85598000D01*
X173034000Y-83358000D02*
X192084000Y-83358000D01*
X192084000Y-83358000D02*
X193354000Y-83358000D01*
X171764000Y-82088000D02*
X173034000Y-83358000D01*
X171764000Y-77008000D02*
X171764000Y-82088000D01*
X163184000Y-75828000D02*
X169684000Y-75828000D01*
X156384000Y-75828000D02*
X163184000Y-75828000D01*
X143084000Y-75828000D02*
X149884000Y-75828000D01*
X149884000Y-75828000D02*
X156384000Y-75828000D01*
X136584000Y-75828000D02*
X143084000Y-75828000D01*
X108264000Y-68753000D02*
X108264000Y-66848000D01*
X150174000Y-67483000D02*
X150174000Y-75538000D01*
X148904000Y-66213000D02*
X150174000Y-67483000D01*
X143189000Y-66213000D02*
X148904000Y-66213000D01*
X108899000Y-66213000D02*
X143189000Y-66213000D01*
X108264000Y-66848000D02*
X108899000Y-66213000D01*
X150174000Y-75538000D02*
X149884000Y-75828000D01*
X129784000Y-75828000D02*
X123284000Y-75828000D01*
X105724000Y-68753000D02*
X105724000Y-66213000D01*
X212404000Y-74468000D02*
X212404000Y-89828000D01*
X211134000Y-73198000D02*
X212404000Y-74468000D01*
X152079000Y-73198000D02*
X211134000Y-73198000D01*
X151444000Y-72563000D02*
X152079000Y-73198000D01*
X151444000Y-67483000D02*
X151444000Y-72563000D01*
X149539000Y-65578000D02*
X151444000Y-67483000D01*
X146364000Y-65578000D02*
X149539000Y-65578000D01*
X106359000Y-65578000D02*
X146364000Y-65578000D01*
X105724000Y-66213000D02*
X106359000Y-65578000D01*
X208894000Y-89828000D02*
X212404000Y-89828000D01*
X212404000Y-89828000D02*
X215394000Y-89828000D01*
X205454000Y-103828000D02*
X205454000Y-92283000D01*
X205454000Y-92283000D02*
X207909000Y-89828000D01*
X207909000Y-89828000D02*
X208894000Y-89828000D01*
X212254000Y-103828000D02*
X218754000Y-103828000D01*
X205454000Y-103828000D02*
X212254000Y-103828000D01*
X198954000Y-103828000D02*
X205454000Y-103828000D01*
X198804000Y-117828000D02*
X198804000Y-114843000D01*
X195894000Y-106888000D02*
X198954000Y-103828000D01*
X195894000Y-111933000D02*
X195894000Y-106888000D01*
X198804000Y-114843000D02*
X195894000Y-111933000D01*
X192304000Y-117828000D02*
X198804000Y-117828000D01*
X185504000Y-117828000D02*
X192304000Y-117828000D01*
X185504000Y-117828000D02*
X179004000Y-117828000D01*
X174304000Y-125268000D02*
X164144000Y-125268000D01*
X141919000Y-101773000D02*
X141919000Y-111298000D01*
X141919000Y-111298000D02*
X143189000Y-112568000D01*
X143189000Y-112568000D02*
X172399000Y-112568000D01*
X172399000Y-112568000D02*
X174939000Y-115108000D01*
X174939000Y-115108000D02*
X174939000Y-124633000D01*
X174939000Y-124633000D02*
X174304000Y-125268000D01*
X129784000Y-75828000D02*
X131214000Y-75828000D01*
X138744000Y-98598000D02*
X141284000Y-101138000D01*
X138744000Y-88438000D02*
X138744000Y-98598000D01*
X137474000Y-87168000D02*
X138744000Y-88438000D01*
X134934000Y-87168000D02*
X137474000Y-87168000D01*
X132394000Y-84628000D02*
X134934000Y-87168000D01*
X132394000Y-77008000D02*
X132394000Y-84628000D01*
X131214000Y-75828000D02*
X132394000Y-77008000D01*
X141284000Y-101138000D02*
X141919000Y-101773000D01*
X115249000Y-104313000D02*
X115249000Y-108758000D01*
X117789000Y-101138000D02*
X115249000Y-104313000D01*
X127314000Y-101138000D02*
X117789000Y-101138000D01*
X129219000Y-103043000D02*
X127314000Y-101138000D01*
X129219000Y-104313000D02*
X129219000Y-103043000D01*
X129219000Y-109393000D02*
X129219000Y-104313000D01*
X131759000Y-111933000D02*
X129219000Y-109393000D01*
X134299000Y-111933000D02*
X131759000Y-111933000D01*
X135569000Y-113203000D02*
X134299000Y-111933000D01*
X135569000Y-124633000D02*
X135569000Y-113203000D01*
X136839000Y-125903000D02*
X135569000Y-124633000D01*
X147634000Y-125903000D02*
X136839000Y-125903000D01*
X149539000Y-123998000D02*
X147634000Y-125903000D01*
X149539000Y-116378000D02*
X149539000Y-123998000D01*
X150809000Y-115108000D02*
X149539000Y-116378000D01*
X161604000Y-115108000D02*
X150809000Y-115108000D01*
X162874000Y-116378000D02*
X161604000Y-115108000D01*
X162874000Y-123998000D02*
X162874000Y-116378000D01*
X164144000Y-125268000D02*
X162874000Y-123998000D01*
X115249000Y-108758000D02*
X115249000Y-111298000D01*
X115249000Y-111298000D02*
X114614000Y-111933000D01*
X114614000Y-111933000D02*
X103819000Y-111933000D01*
X103819000Y-111933000D02*
X103184000Y-111298000D01*
X103184000Y-111298000D02*
X103184000Y-98598000D01*
X103184000Y-98598000D02*
X103819000Y-97963000D01*
X103819000Y-97963000D02*
X110169000Y-97963000D01*
X110169000Y-97963000D02*
X111439000Y-96693000D01*
X111439000Y-96693000D02*
X111439000Y-87803000D01*
X111439000Y-87803000D02*
X109534000Y-85898000D01*
X109534000Y-85898000D02*
X106994000Y-85898000D01*
X106994000Y-85898000D02*
X105724000Y-84628000D01*
X105724000Y-84628000D02*
X105724000Y-75828000D01*
X109984000Y-75828000D02*
X116484000Y-75828000D01*
X103184000Y-75828000D02*
X105724000Y-75828000D01*
X105724000Y-75828000D02*
X109984000Y-75828000D01*
X103184000Y-75828000D02*
X96684000Y-75828000D01*
X105724000Y-68753000D02*
X105724000Y-73198000D01*
X105724000Y-73198000D02*
X103184000Y-75738000D01*
X103184000Y-75738000D02*
X103184000Y-75828000D01*
X97977000Y-83358000D02*
X98231000Y-83358000D01*
X98231000Y-83358000D02*
X99374000Y-84501000D01*
X94294000Y-81326000D02*
X94294000Y-81707000D01*
X94294000Y-81707000D02*
X95945000Y-83358000D01*
X119154000Y-103828000D02*
X117304000Y-103828000D01*
X116519000Y-104948000D02*
X116519000Y-106218000D01*
X117304000Y-103828000D02*
X116519000Y-104948000D01*
X99374000Y-89828000D02*
X99374000Y-97328000D01*
X99374000Y-97328000D02*
X102549000Y-100503000D01*
X102549000Y-100503000D02*
X102549000Y-108758000D01*
X102549000Y-108758000D02*
X102549000Y-111933000D01*
X102549000Y-111933000D02*
X103184000Y-112568000D01*
X103184000Y-112568000D02*
X115249000Y-112568000D01*
X115249000Y-112568000D02*
X116519000Y-111298000D01*
X116519000Y-111298000D02*
X116519000Y-106218000D01*
X150174000Y-122093000D02*
X150174000Y-124633000D01*
X140014000Y-92208000D02*
X142394000Y-89828000D01*
X150174000Y-122093000D02*
X150174000Y-117013000D01*
X150174000Y-117013000D02*
X151444000Y-115743000D01*
X151444000Y-115743000D02*
X160334000Y-115743000D01*
X160334000Y-115743000D02*
X161604000Y-117013000D01*
X161604000Y-117013000D02*
X161604000Y-125268000D01*
X161604000Y-125268000D02*
X162874000Y-126538000D01*
X162874000Y-126538000D02*
X174304000Y-126538000D01*
X174304000Y-126538000D02*
X175574000Y-125268000D01*
X175574000Y-125268000D02*
X175574000Y-113838000D01*
X175574000Y-113838000D02*
X173669000Y-111933000D01*
X173669000Y-111933000D02*
X143824000Y-111933000D01*
X143824000Y-111933000D02*
X142554000Y-110663000D01*
X142554000Y-110663000D02*
X142554000Y-100503000D01*
X142554000Y-100503000D02*
X140014000Y-97328000D01*
X140014000Y-97328000D02*
X140014000Y-92208000D01*
X134299000Y-113838000D02*
X134299000Y-113838000D01*
X133029000Y-112568000D02*
X134299000Y-113838000D01*
X125654000Y-103828000D02*
X127314000Y-103678000D01*
X135569000Y-126538000D02*
X148269000Y-126538000D01*
X134299000Y-125268000D02*
X135569000Y-126538000D01*
X134299000Y-113838000D02*
X134299000Y-125268000D01*
X131124000Y-112568000D02*
X132394000Y-112568000D01*
X128584000Y-110028000D02*
X131124000Y-112568000D01*
X128584000Y-106853000D02*
X128584000Y-110028000D01*
X127314000Y-103678000D02*
X128584000Y-104948000D01*
X128584000Y-104948000D02*
X128584000Y-106853000D01*
X132394000Y-112568000D02*
X133029000Y-112568000D01*
X150174000Y-124633000D02*
X148269000Y-126538000D01*
X164144000Y-72563000D02*
X214944000Y-72563000D01*
X152714000Y-67483000D02*
X152714000Y-71928000D01*
X153349000Y-72563000D02*
X164144000Y-72563000D01*
X152714000Y-71928000D02*
X153349000Y-72563000D01*
X103184000Y-68753000D02*
X103184000Y-65578000D01*
X150809000Y-65578000D02*
X152714000Y-67483000D01*
X150174000Y-64943000D02*
X150809000Y-65578000D01*
X103819000Y-64943000D02*
X150174000Y-64943000D01*
X103184000Y-65578000D02*
X103819000Y-64943000D01*
X216214000Y-73833000D02*
X216214000Y-75658000D01*
X214944000Y-72563000D02*
X216214000Y-73833000D01*
X216214000Y-75658000D02*
X216384000Y-75828000D01*
X226374000Y-75828000D02*
X226374000Y-87508000D01*
X226374000Y-87508000D02*
X228694000Y-89828000D01*
X222884000Y-75828000D02*
X216384000Y-75828000D01*
X236184000Y-75828000D02*
X229684000Y-75828000D01*
X222884000Y-75828000D02*
X226374000Y-75828000D01*
X226374000Y-75828000D02*
X229684000Y-75828000D01*
X222194000Y-89828000D02*
X228694000Y-89828000D01*
X119154000Y-103828000D02*
X125654000Y-103828000D01*
X155694000Y-89828000D02*
X162194000Y-89828000D01*
X148894000Y-89828000D02*
X155694000Y-89828000D01*
X142394000Y-89828000D02*
X148894000Y-89828000D01*
X102494000Y-89828000D02*
X99374000Y-89828000D01*
X99374000Y-89828000D02*
X99374000Y-84501000D01*
X97977000Y-83358000D02*
X95945000Y-83358000D01*
X103184000Y-71928000D02*
X103184000Y-68753000D01*
X101914000Y-73198000D02*
X103184000Y-71928000D01*
X95564000Y-73198000D02*
X101914000Y-73198000D01*
X94294000Y-74468000D02*
X95564000Y-73198000D01*
X94294000Y-81326000D02*
X94294000Y-74468000D01*
X102494000Y-89828000D02*
X108994000Y-89828000D01*
X106359000Y-108828000D02*
X107194000Y-108828000D01*
X92735896Y-82396185D02*
X88619185Y-82396185D01*
X88900000Y-73279000D02*
X92943000Y-73279000D01*
X85852000Y-76327000D02*
X88900000Y-73279000D01*
X85852000Y-79629000D02*
X85852000Y-76327000D01*
X88619185Y-82396185D02*
X85852000Y-79629000D01*
X92735896Y-82396185D02*
X95310000Y-84882000D01*
X95310000Y-84882000D02*
X96199000Y-84882000D01*
X96199000Y-84882000D02*
X96834000Y-85390000D01*
X96834000Y-85390000D02*
X96834000Y-97328000D01*
X96834000Y-97328000D02*
X101279000Y-101773000D01*
X101279000Y-101773000D02*
X101279000Y-113203000D01*
X101279000Y-113203000D02*
X102866500Y-114790500D01*
X102866500Y-114790500D02*
X109215682Y-114767720D01*
X109215682Y-114767720D02*
X112504000Y-117828000D01*
X235529000Y-117828000D02*
X242029000Y-117828000D01*
X227009000Y-125903000D02*
X230184000Y-125903000D01*
X121419000Y-117828000D02*
X122234000Y-118643000D01*
X122234000Y-118643000D02*
X122234000Y-124633000D01*
X122234000Y-124633000D02*
X125409000Y-127808000D01*
X125409000Y-127808000D02*
X161604000Y-127808000D01*
X161604000Y-127808000D02*
X162239000Y-128443000D01*
X162239000Y-128443000D02*
X175574000Y-128443000D01*
X175574000Y-128443000D02*
X176844000Y-127173000D01*
X176844000Y-127173000D02*
X200974000Y-127173000D01*
X200974000Y-127173000D02*
X202244000Y-125903000D01*
X202244000Y-125903000D02*
X227009000Y-125903000D01*
X119004000Y-117828000D02*
X121419000Y-117828000D01*
X233359000Y-119998000D02*
X235529000Y-117828000D01*
X233359000Y-122728000D02*
X233359000Y-119998000D01*
X230184000Y-125903000D02*
X233359000Y-122728000D01*
X112504000Y-117828000D02*
X119004000Y-117828000D01*
X98104000Y-68753000D02*
X98104000Y-71293000D01*
X94294000Y-71928000D02*
X92943000Y-73279000D01*
X97469000Y-71928000D02*
X94294000Y-71928000D01*
X98104000Y-71293000D02*
X97469000Y-71928000D01*
X92445500Y-72506500D02*
X88686498Y-72506500D01*
X88392000Y-83312000D02*
X92757448Y-83312000D01*
X85217000Y-80137000D02*
X88392000Y-83312000D01*
X85217000Y-75975998D02*
X85217000Y-80137000D01*
X88686498Y-72506500D02*
X85217000Y-75975998D01*
X247964000Y-115500000D02*
X247964000Y-115786000D01*
X244250000Y-118250000D02*
X244250000Y-125807000D01*
X245500000Y-117000000D02*
X244250000Y-118250000D01*
X246750000Y-117000000D02*
X245500000Y-117000000D01*
X247964000Y-115786000D02*
X246750000Y-117000000D01*
X95564000Y-97709000D02*
X98993000Y-101138000D01*
X95564000Y-97709000D02*
X95564000Y-86025000D01*
X95564000Y-86025000D02*
X92757448Y-83312000D01*
X98993000Y-101138000D02*
X98993000Y-103767000D01*
X98993000Y-103767000D02*
X99054000Y-103828000D01*
X95564000Y-68753000D02*
X95564000Y-68753000D01*
X92445500Y-72506500D02*
X93659000Y-71293000D01*
X93659000Y-71293000D02*
X94929000Y-71293000D01*
X95564000Y-70658000D02*
X95564000Y-68753000D01*
X94929000Y-71293000D02*
X95564000Y-70658000D01*
X92554000Y-103828000D02*
X99054000Y-103828000D01*
X100644000Y-113838000D02*
X98739000Y-111933000D01*
X90484000Y-105898000D02*
X92554000Y-103828000D01*
X90484000Y-110028000D02*
X90484000Y-105898000D01*
X92389000Y-111933000D02*
X90484000Y-110028000D01*
X98739000Y-111933000D02*
X92389000Y-111933000D01*
X102549000Y-115743000D02*
X100644000Y-113838000D01*
X109534000Y-117648000D02*
X109534000Y-117013000D01*
X247964000Y-105583000D02*
X247964000Y-115500000D01*
X244250000Y-125807000D02*
X243519000Y-126538000D01*
X243519000Y-126538000D02*
X202879000Y-126538000D01*
X202879000Y-126538000D02*
X201609000Y-127808000D01*
X201609000Y-127808000D02*
X177479000Y-127808000D01*
X177479000Y-127808000D02*
X176209000Y-129078000D01*
X176209000Y-129078000D02*
X124139000Y-129078000D01*
X124139000Y-129078000D02*
X120964000Y-125903000D01*
X120964000Y-125903000D02*
X112074000Y-125903000D01*
X112074000Y-125903000D02*
X109534000Y-123363000D01*
X109534000Y-123363000D02*
X109534000Y-117648000D01*
X246209000Y-103828000D02*
X247964000Y-105583000D01*
X102549000Y-115743000D02*
X105089000Y-115743000D01*
X108264000Y-115743000D02*
X102549000Y-115743000D01*
X109534000Y-117013000D02*
X108264000Y-115743000D01*
X245354000Y-103828000D02*
X246209000Y-103828000D01*
X232054000Y-103828000D02*
X225554000Y-103828000D01*
X238854000Y-103828000D02*
X232054000Y-103828000D01*
X245354000Y-103828000D02*
X238854000Y-103828000D01*
X245424000Y-98598000D02*
X247329000Y-100503000D01*
X242249000Y-98598000D02*
X245424000Y-98598000D01*
X240979000Y-97328000D02*
X242249000Y-98598000D01*
X91716000Y-71966000D02*
X88284000Y-71966000D01*
X88000000Y-84000000D02*
X92351143Y-84000000D01*
X84500000Y-80500000D02*
X88000000Y-84000000D01*
X84500000Y-75750000D02*
X84500000Y-80500000D01*
X88284000Y-71966000D02*
X84500000Y-75750000D01*
X249234000Y-115750000D02*
X249250000Y-115750000D01*
X250000000Y-121327000D02*
X249234000Y-122093000D01*
X250000000Y-116500000D02*
X250000000Y-121327000D01*
X249250000Y-115750000D02*
X250000000Y-116500000D01*
X95879000Y-117828000D02*
X95879000Y-116693000D01*
X95879000Y-116693000D02*
X89849000Y-110663000D01*
X89849000Y-110663000D02*
X89849000Y-102408000D01*
X89849000Y-102408000D02*
X90865000Y-101138000D01*
X94929000Y-86406000D02*
X92351143Y-84000000D01*
X94929000Y-101138000D02*
X94929000Y-86406000D01*
X90865000Y-101138000D02*
X94929000Y-101138000D01*
X93024000Y-70658000D02*
X93024000Y-68753000D01*
X91716000Y-71966000D02*
X93024000Y-70658000D01*
X102379000Y-117828000D02*
X95879000Y-117828000D01*
X243674000Y-89828000D02*
X243674000Y-89863000D01*
X243674000Y-89863000D02*
X248317555Y-94506555D01*
X106539000Y-117828000D02*
X102379000Y-117828000D01*
X249234000Y-122093000D02*
X244154000Y-127173000D01*
X244154000Y-127173000D02*
X203514000Y-127173000D01*
X203514000Y-127173000D02*
X200974000Y-129713000D01*
X200974000Y-129713000D02*
X122234000Y-129713000D01*
X122234000Y-129713000D02*
X120964000Y-128443000D01*
X120964000Y-128443000D02*
X119694000Y-127173000D01*
X119694000Y-127173000D02*
X111439000Y-127173000D01*
X111439000Y-127173000D02*
X107629000Y-123363000D01*
X107629000Y-123363000D02*
X107629000Y-118918000D01*
X107629000Y-118918000D02*
X106539000Y-117828000D01*
X249234000Y-95423000D02*
X249234000Y-115750000D01*
X248317555Y-94506555D02*
X249234000Y-95423000D01*
X237174000Y-89828000D02*
X243674000Y-89828000D01*
X244408000Y-77516000D02*
X244408000Y-74087000D01*
X156524000Y-71293000D02*
X156524000Y-68753000D01*
X157159000Y-71928000D02*
X156524000Y-71293000D01*
X214944000Y-71928000D02*
X157159000Y-71928000D01*
X216849000Y-71928000D02*
X214944000Y-71928000D01*
X242249000Y-71928000D02*
X216849000Y-71928000D01*
X244408000Y-74087000D02*
X242249000Y-71928000D01*
X159064000Y-68753000D02*
X159064000Y-70658000D01*
X246948000Y-75357000D02*
X246948000Y-77516000D01*
X242884000Y-71293000D02*
X246948000Y-75357000D01*
X159699000Y-71293000D02*
X242884000Y-71293000D01*
X159064000Y-70658000D02*
X159699000Y-71293000D01*
M02*
