G04 #@! TF.FileFunction,Legend,Top*
%FSLAX46Y46*%
G04 Gerber Fmt 4.6, Leading zero omitted, Abs format (unit mm)*
G04 Created by KiCad (PCBNEW 4.0.1-stable) date 19.05.2019 22:52:57*
%MOMM*%
G01*
G04 APERTURE LIST*
%ADD10C,0.100000*%
%ADD11C,0.300000*%
%ADD12C,0.120000*%
%ADD13C,0.150000*%
G04 APERTURE END LIST*
D10*
D11*
X228403002Y-30236571D02*
X228903002Y-31736571D01*
X229403002Y-30236571D01*
X229760145Y-30236571D02*
X230760145Y-30236571D01*
X229760145Y-31736571D01*
X230760145Y-31736571D01*
X231260144Y-30379429D02*
X231331573Y-30308000D01*
X231474430Y-30236571D01*
X231831573Y-30236571D01*
X231974430Y-30308000D01*
X232045859Y-30379429D01*
X232117287Y-30522286D01*
X232117287Y-30665143D01*
X232045859Y-30879429D01*
X231188716Y-31736571D01*
X232117287Y-31736571D01*
X233045858Y-30236571D02*
X233188715Y-30236571D01*
X233331572Y-30308000D01*
X233403001Y-30379429D01*
X233474430Y-30522286D01*
X233545858Y-30808000D01*
X233545858Y-31165143D01*
X233474430Y-31450857D01*
X233403001Y-31593714D01*
X233331572Y-31665143D01*
X233188715Y-31736571D01*
X233045858Y-31736571D01*
X232903001Y-31665143D01*
X232831572Y-31593714D01*
X232760144Y-31450857D01*
X232688715Y-31165143D01*
X232688715Y-30808000D01*
X232760144Y-30522286D01*
X232831572Y-30379429D01*
X232903001Y-30308000D01*
X233045858Y-30236571D01*
X234474429Y-30236571D02*
X234617286Y-30236571D01*
X234760143Y-30308000D01*
X234831572Y-30379429D01*
X234903001Y-30522286D01*
X234974429Y-30808000D01*
X234974429Y-31165143D01*
X234903001Y-31450857D01*
X234831572Y-31593714D01*
X234760143Y-31665143D01*
X234617286Y-31736571D01*
X234474429Y-31736571D01*
X234331572Y-31665143D01*
X234260143Y-31593714D01*
X234188715Y-31450857D01*
X234117286Y-31165143D01*
X234117286Y-30808000D01*
X234188715Y-30522286D01*
X234260143Y-30379429D01*
X234331572Y-30308000D01*
X234474429Y-30236571D01*
X236760143Y-31736571D02*
X236760143Y-30236571D01*
X237617286Y-31736571D02*
X236974429Y-30879429D01*
X237617286Y-30236571D02*
X236760143Y-31093714D01*
X238831571Y-31665143D02*
X238688714Y-31736571D01*
X238403000Y-31736571D01*
X238260143Y-31665143D01*
X238188714Y-31522286D01*
X238188714Y-30950857D01*
X238260143Y-30808000D01*
X238403000Y-30736571D01*
X238688714Y-30736571D01*
X238831571Y-30808000D01*
X238903000Y-30950857D01*
X238903000Y-31093714D01*
X238188714Y-31236571D01*
X239403000Y-30736571D02*
X239760143Y-31736571D01*
X240117285Y-30736571D02*
X239760143Y-31736571D01*
X239617285Y-32093714D01*
X239545857Y-32165143D01*
X239403000Y-32236571D01*
X240688714Y-31736571D02*
X240688714Y-30236571D01*
X240688714Y-30808000D02*
X240831571Y-30736571D01*
X241117285Y-30736571D01*
X241260142Y-30808000D01*
X241331571Y-30879429D01*
X241403000Y-31022286D01*
X241403000Y-31450857D01*
X241331571Y-31593714D01*
X241260142Y-31665143D01*
X241117285Y-31736571D01*
X240831571Y-31736571D01*
X240688714Y-31665143D01*
X242260143Y-31736571D02*
X242117285Y-31665143D01*
X242045857Y-31593714D01*
X241974428Y-31450857D01*
X241974428Y-31022286D01*
X242045857Y-30879429D01*
X242117285Y-30808000D01*
X242260143Y-30736571D01*
X242474428Y-30736571D01*
X242617285Y-30808000D01*
X242688714Y-30879429D01*
X242760143Y-31022286D01*
X242760143Y-31450857D01*
X242688714Y-31593714D01*
X242617285Y-31665143D01*
X242474428Y-31736571D01*
X242260143Y-31736571D01*
X244045857Y-31736571D02*
X244045857Y-30950857D01*
X243974428Y-30808000D01*
X243831571Y-30736571D01*
X243545857Y-30736571D01*
X243403000Y-30808000D01*
X244045857Y-31665143D02*
X243903000Y-31736571D01*
X243545857Y-31736571D01*
X243403000Y-31665143D01*
X243331571Y-31522286D01*
X243331571Y-31379429D01*
X243403000Y-31236571D01*
X243545857Y-31165143D01*
X243903000Y-31165143D01*
X244045857Y-31093714D01*
X244760143Y-31736571D02*
X244760143Y-30736571D01*
X244760143Y-31022286D02*
X244831571Y-30879429D01*
X244903000Y-30808000D01*
X245045857Y-30736571D01*
X245188714Y-30736571D01*
X246331571Y-31736571D02*
X246331571Y-30236571D01*
X246331571Y-31665143D02*
X246188714Y-31736571D01*
X245903000Y-31736571D01*
X245760142Y-31665143D01*
X245688714Y-31593714D01*
X245617285Y-31450857D01*
X245617285Y-31022286D01*
X245688714Y-30879429D01*
X245760142Y-30808000D01*
X245903000Y-30736571D01*
X246188714Y-30736571D01*
X246331571Y-30808000D01*
X248188714Y-31736571D02*
X248188714Y-30236571D01*
X248760142Y-30236571D01*
X248903000Y-30308000D01*
X248974428Y-30379429D01*
X249045857Y-30522286D01*
X249045857Y-30736571D01*
X248974428Y-30879429D01*
X248903000Y-30950857D01*
X248760142Y-31022286D01*
X248188714Y-31022286D01*
X249903000Y-31736571D02*
X249760142Y-31665143D01*
X249688714Y-31522286D01*
X249688714Y-30236571D01*
X251117285Y-31736571D02*
X251117285Y-30950857D01*
X251045856Y-30808000D01*
X250902999Y-30736571D01*
X250617285Y-30736571D01*
X250474428Y-30808000D01*
X251117285Y-31665143D02*
X250974428Y-31736571D01*
X250617285Y-31736571D01*
X250474428Y-31665143D01*
X250402999Y-31522286D01*
X250402999Y-31379429D01*
X250474428Y-31236571D01*
X250617285Y-31165143D01*
X250974428Y-31165143D01*
X251117285Y-31093714D01*
X251617285Y-30736571D02*
X252188714Y-30736571D01*
X251831571Y-30236571D02*
X251831571Y-31522286D01*
X251902999Y-31665143D01*
X252045857Y-31736571D01*
X252188714Y-31736571D01*
X252688714Y-31736571D02*
X252688714Y-30736571D01*
X252688714Y-30236571D02*
X252617285Y-30308000D01*
X252688714Y-30379429D01*
X252760142Y-30308000D01*
X252688714Y-30236571D01*
X252688714Y-30379429D01*
X253403000Y-30736571D02*
X253403000Y-31736571D01*
X253403000Y-30879429D02*
X253474428Y-30808000D01*
X253617286Y-30736571D01*
X253831571Y-30736571D01*
X253974428Y-30808000D01*
X254045857Y-30950857D01*
X254045857Y-31736571D01*
X255331571Y-31665143D02*
X255188714Y-31736571D01*
X254903000Y-31736571D01*
X254760143Y-31665143D01*
X254688714Y-31522286D01*
X254688714Y-30950857D01*
X254760143Y-30808000D01*
X254903000Y-30736571D01*
X255188714Y-30736571D01*
X255331571Y-30808000D01*
X255403000Y-30950857D01*
X255403000Y-31093714D01*
X254688714Y-31236571D01*
X256045857Y-30736571D02*
X256045857Y-31736571D01*
X256045857Y-30879429D02*
X256117285Y-30808000D01*
X256260143Y-30736571D01*
X256474428Y-30736571D01*
X256617285Y-30808000D01*
X256688714Y-30950857D01*
X256688714Y-31736571D01*
X257617286Y-31736571D02*
X257474428Y-31665143D01*
X257403000Y-31522286D01*
X257403000Y-30236571D01*
X258831571Y-31736571D02*
X258831571Y-30950857D01*
X258760142Y-30808000D01*
X258617285Y-30736571D01*
X258331571Y-30736571D01*
X258188714Y-30808000D01*
X258831571Y-31665143D02*
X258688714Y-31736571D01*
X258331571Y-31736571D01*
X258188714Y-31665143D01*
X258117285Y-31522286D01*
X258117285Y-31379429D01*
X258188714Y-31236571D01*
X258331571Y-31165143D01*
X258688714Y-31165143D01*
X258831571Y-31093714D01*
X259403000Y-30736571D02*
X259760143Y-31736571D01*
X260117285Y-30736571D02*
X259760143Y-31736571D01*
X259617285Y-32093714D01*
X259545857Y-32165143D01*
X259403000Y-32236571D01*
X260903000Y-31736571D02*
X260760142Y-31665143D01*
X260688714Y-31593714D01*
X260617285Y-31450857D01*
X260617285Y-31022286D01*
X260688714Y-30879429D01*
X260760142Y-30808000D01*
X260903000Y-30736571D01*
X261117285Y-30736571D01*
X261260142Y-30808000D01*
X261331571Y-30879429D01*
X261403000Y-31022286D01*
X261403000Y-31450857D01*
X261331571Y-31593714D01*
X261260142Y-31665143D01*
X261117285Y-31736571D01*
X260903000Y-31736571D01*
X262688714Y-30736571D02*
X262688714Y-31736571D01*
X262045857Y-30736571D02*
X262045857Y-31522286D01*
X262117285Y-31665143D01*
X262260143Y-31736571D01*
X262474428Y-31736571D01*
X262617285Y-31665143D01*
X262688714Y-31593714D01*
X263188714Y-30736571D02*
X263760143Y-30736571D01*
X263403000Y-30236571D02*
X263403000Y-31522286D01*
X263474428Y-31665143D01*
X263617286Y-31736571D01*
X263760143Y-31736571D01*
X238188713Y-34136571D02*
X238188713Y-32636571D01*
X238188713Y-33208000D02*
X238331570Y-33136571D01*
X238617284Y-33136571D01*
X238760141Y-33208000D01*
X238831570Y-33279429D01*
X238902999Y-33422286D01*
X238902999Y-33850857D01*
X238831570Y-33993714D01*
X238760141Y-34065143D01*
X238617284Y-34136571D01*
X238331570Y-34136571D01*
X238188713Y-34065143D01*
X239402999Y-33136571D02*
X239760142Y-34136571D01*
X240117284Y-33136571D02*
X239760142Y-34136571D01*
X239617284Y-34493714D01*
X239545856Y-34565143D01*
X239402999Y-34636571D01*
X242688713Y-33993714D02*
X242617284Y-34065143D01*
X242402998Y-34136571D01*
X242260141Y-34136571D01*
X242045856Y-34065143D01*
X241902998Y-33922286D01*
X241831570Y-33779429D01*
X241760141Y-33493714D01*
X241760141Y-33279429D01*
X241831570Y-32993714D01*
X241902998Y-32850857D01*
X242045856Y-32708000D01*
X242260141Y-32636571D01*
X242402998Y-32636571D01*
X242617284Y-32708000D01*
X242688713Y-32779429D01*
X243331570Y-34136571D02*
X243331570Y-32636571D01*
X243974427Y-34136571D02*
X243974427Y-33350857D01*
X243902998Y-33208000D01*
X243760141Y-33136571D01*
X243545856Y-33136571D01*
X243402998Y-33208000D01*
X243331570Y-33279429D01*
X244688713Y-34136571D02*
X244688713Y-33136571D01*
X244688713Y-33422286D02*
X244760141Y-33279429D01*
X244831570Y-33208000D01*
X244974427Y-33136571D01*
X245117284Y-33136571D01*
X245617284Y-34136571D02*
X245617284Y-33136571D01*
X245617284Y-32636571D02*
X245545855Y-32708000D01*
X245617284Y-32779429D01*
X245688712Y-32708000D01*
X245617284Y-32636571D01*
X245617284Y-32779429D01*
X246260141Y-34065143D02*
X246402998Y-34136571D01*
X246688713Y-34136571D01*
X246831570Y-34065143D01*
X246902998Y-33922286D01*
X246902998Y-33850857D01*
X246831570Y-33708000D01*
X246688713Y-33636571D01*
X246474427Y-33636571D01*
X246331570Y-33565143D01*
X246260141Y-33422286D01*
X246260141Y-33350857D01*
X246331570Y-33208000D01*
X246474427Y-33136571D01*
X246688713Y-33136571D01*
X246831570Y-33208000D01*
X247331570Y-33136571D02*
X247902999Y-33136571D01*
X247545856Y-32636571D02*
X247545856Y-33922286D01*
X247617284Y-34065143D01*
X247760142Y-34136571D01*
X247902999Y-34136571D01*
X248402999Y-34136571D02*
X248402999Y-33136571D01*
X248402999Y-32636571D02*
X248331570Y-32708000D01*
X248402999Y-32779429D01*
X248474427Y-32708000D01*
X248402999Y-32636571D01*
X248402999Y-32779429D01*
X249760142Y-34136571D02*
X249760142Y-33350857D01*
X249688713Y-33208000D01*
X249545856Y-33136571D01*
X249260142Y-33136571D01*
X249117285Y-33208000D01*
X249760142Y-34065143D02*
X249617285Y-34136571D01*
X249260142Y-34136571D01*
X249117285Y-34065143D01*
X249045856Y-33922286D01*
X249045856Y-33779429D01*
X249117285Y-33636571D01*
X249260142Y-33565143D01*
X249617285Y-33565143D01*
X249760142Y-33493714D01*
X250474428Y-33136571D02*
X250474428Y-34136571D01*
X250474428Y-33279429D02*
X250545856Y-33208000D01*
X250688714Y-33136571D01*
X250902999Y-33136571D01*
X251045856Y-33208000D01*
X251117285Y-33350857D01*
X251117285Y-34136571D01*
X252831571Y-32636571D02*
X253188714Y-34136571D01*
X253474428Y-33065143D01*
X253760142Y-34136571D01*
X254117285Y-32636571D01*
X255331571Y-34136571D02*
X255331571Y-33350857D01*
X255260142Y-33208000D01*
X255117285Y-33136571D01*
X254831571Y-33136571D01*
X254688714Y-33208000D01*
X255331571Y-34065143D02*
X255188714Y-34136571D01*
X254831571Y-34136571D01*
X254688714Y-34065143D01*
X254617285Y-33922286D01*
X254617285Y-33779429D01*
X254688714Y-33636571D01*
X254831571Y-33565143D01*
X255188714Y-33565143D01*
X255331571Y-33493714D01*
X256045857Y-34136571D02*
X256045857Y-32636571D01*
X256688714Y-34136571D02*
X256688714Y-33350857D01*
X256617285Y-33208000D01*
X256474428Y-33136571D01*
X256260143Y-33136571D01*
X256117285Y-33208000D01*
X256045857Y-33279429D01*
X257617286Y-34136571D02*
X257474428Y-34065143D01*
X257403000Y-33922286D01*
X257403000Y-32636571D01*
X258188714Y-34136571D02*
X258188714Y-33136571D01*
X258188714Y-33279429D02*
X258260142Y-33208000D01*
X258403000Y-33136571D01*
X258617285Y-33136571D01*
X258760142Y-33208000D01*
X258831571Y-33350857D01*
X258831571Y-34136571D01*
X258831571Y-33350857D02*
X258903000Y-33208000D01*
X259045857Y-33136571D01*
X259260142Y-33136571D01*
X259403000Y-33208000D01*
X259474428Y-33350857D01*
X259474428Y-34136571D01*
X260831571Y-34136571D02*
X260831571Y-33350857D01*
X260760142Y-33208000D01*
X260617285Y-33136571D01*
X260331571Y-33136571D01*
X260188714Y-33208000D01*
X260831571Y-34065143D02*
X260688714Y-34136571D01*
X260331571Y-34136571D01*
X260188714Y-34065143D01*
X260117285Y-33922286D01*
X260117285Y-33779429D01*
X260188714Y-33636571D01*
X260331571Y-33565143D01*
X260688714Y-33565143D01*
X260831571Y-33493714D01*
X261545857Y-33136571D02*
X261545857Y-34136571D01*
X261545857Y-33279429D02*
X261617285Y-33208000D01*
X261760143Y-33136571D01*
X261974428Y-33136571D01*
X262117285Y-33208000D01*
X262188714Y-33350857D01*
X262188714Y-34136571D01*
X262903000Y-33136571D02*
X262903000Y-34136571D01*
X262903000Y-33279429D02*
X262974428Y-33208000D01*
X263117286Y-33136571D01*
X263331571Y-33136571D01*
X263474428Y-33208000D01*
X263545857Y-33350857D01*
X263545857Y-34136571D01*
D12*
X203020000Y-89500000D02*
X207520000Y-89500000D01*
X201770000Y-85500000D02*
X201770000Y-87000000D01*
X207520000Y-83000000D02*
X203020000Y-83000000D01*
X208770000Y-87000000D02*
X208770000Y-85500000D01*
X189720000Y-89500000D02*
X194220000Y-89500000D01*
X188470000Y-85500000D02*
X188470000Y-87000000D01*
X194220000Y-83000000D02*
X189720000Y-83000000D01*
X195470000Y-87000000D02*
X195470000Y-85500000D01*
X222970000Y-75500000D02*
X227470000Y-75500000D01*
X221720000Y-71500000D02*
X221720000Y-73000000D01*
X227470000Y-69000000D02*
X222970000Y-69000000D01*
X228720000Y-73000000D02*
X228720000Y-71500000D01*
X187200000Y-47500000D02*
X191700000Y-47500000D01*
X185950000Y-43500000D02*
X185950000Y-45000000D01*
X191700000Y-41000000D02*
X187200000Y-41000000D01*
X192950000Y-45000000D02*
X192950000Y-43500000D01*
X147300000Y-47500000D02*
X151800000Y-47500000D01*
X146050000Y-43500000D02*
X146050000Y-45000000D01*
X151800000Y-41000000D02*
X147300000Y-41000000D01*
X153050000Y-45000000D02*
X153050000Y-43500000D01*
X107400000Y-47500000D02*
X111900000Y-47500000D01*
X106150000Y-43500000D02*
X106150000Y-45000000D01*
X111900000Y-41000000D02*
X107400000Y-41000000D01*
X113150000Y-45000000D02*
X113150000Y-43500000D01*
X240400000Y-47500000D02*
X244900000Y-47500000D01*
X239150000Y-43500000D02*
X239150000Y-45000000D01*
X244900000Y-41000000D02*
X240400000Y-41000000D01*
X246150000Y-45000000D02*
X246150000Y-43500000D01*
X216320000Y-89500000D02*
X220820000Y-89500000D01*
X215070000Y-85500000D02*
X215070000Y-87000000D01*
X220820000Y-83000000D02*
X216320000Y-83000000D01*
X222070000Y-87000000D02*
X222070000Y-85500000D01*
X200500000Y-47500000D02*
X205000000Y-47500000D01*
X199250000Y-43500000D02*
X199250000Y-45000000D01*
X205000000Y-41000000D02*
X200500000Y-41000000D01*
X206250000Y-45000000D02*
X206250000Y-43500000D01*
X160600000Y-47500000D02*
X165100000Y-47500000D01*
X159350000Y-43500000D02*
X159350000Y-45000000D01*
X165100000Y-41000000D02*
X160600000Y-41000000D01*
X166350000Y-45000000D02*
X166350000Y-43500000D01*
X120700000Y-47500000D02*
X125200000Y-47500000D01*
X119450000Y-43500000D02*
X119450000Y-45000000D01*
X125200000Y-41000000D02*
X120700000Y-41000000D01*
X126450000Y-45000000D02*
X126450000Y-43500000D01*
X227100000Y-47500000D02*
X231600000Y-47500000D01*
X225850000Y-43500000D02*
X225850000Y-45000000D01*
X231600000Y-41000000D02*
X227100000Y-41000000D01*
X232850000Y-45000000D02*
X232850000Y-43500000D01*
X229620000Y-89500000D02*
X234120000Y-89500000D01*
X228370000Y-85500000D02*
X228370000Y-87000000D01*
X234120000Y-83000000D02*
X229620000Y-83000000D01*
X235370000Y-87000000D02*
X235370000Y-85500000D01*
X213800000Y-47500000D02*
X218300000Y-47500000D01*
X212550000Y-43500000D02*
X212550000Y-45000000D01*
X218300000Y-41000000D02*
X213800000Y-41000000D01*
X219550000Y-45000000D02*
X219550000Y-43500000D01*
X173900000Y-47500000D02*
X178400000Y-47500000D01*
X172650000Y-43500000D02*
X172650000Y-45000000D01*
X178400000Y-41000000D02*
X173900000Y-41000000D01*
X179650000Y-45000000D02*
X179650000Y-43500000D01*
X134000000Y-47500000D02*
X138500000Y-47500000D01*
X132750000Y-43500000D02*
X132750000Y-45000000D01*
X138500000Y-41000000D02*
X134000000Y-41000000D01*
X139750000Y-45000000D02*
X139750000Y-43500000D01*
X116570000Y-75500000D02*
X121070000Y-75500000D01*
X115320000Y-71500000D02*
X115320000Y-73000000D01*
X121070000Y-69000000D02*
X116570000Y-69000000D01*
X122320000Y-73000000D02*
X122320000Y-71500000D01*
X156470000Y-75500000D02*
X160970000Y-75500000D01*
X155220000Y-71500000D02*
X155220000Y-73000000D01*
X160970000Y-69000000D02*
X156470000Y-69000000D01*
X162220000Y-73000000D02*
X162220000Y-71500000D01*
X209670000Y-75500000D02*
X214170000Y-75500000D01*
X208420000Y-71500000D02*
X208420000Y-73000000D01*
X214170000Y-69000000D02*
X209670000Y-69000000D01*
X215420000Y-73000000D02*
X215420000Y-71500000D01*
X232910000Y-61500000D02*
X237410000Y-61500000D01*
X231660000Y-57500000D02*
X231660000Y-59000000D01*
X237410000Y-55000000D02*
X232910000Y-55000000D01*
X238660000Y-59000000D02*
X238660000Y-57500000D01*
X193010000Y-61500000D02*
X197510000Y-61500000D01*
X191760000Y-57500000D02*
X191760000Y-59000000D01*
X197510000Y-55000000D02*
X193010000Y-55000000D01*
X198760000Y-59000000D02*
X198760000Y-57500000D01*
X123220000Y-89500000D02*
X127720000Y-89500000D01*
X121970000Y-85500000D02*
X121970000Y-87000000D01*
X127720000Y-83000000D02*
X123220000Y-83000000D01*
X128970000Y-87000000D02*
X128970000Y-85500000D01*
X176420000Y-89500000D02*
X180920000Y-89500000D01*
X175170000Y-85500000D02*
X175170000Y-87000000D01*
X180920000Y-83000000D02*
X176420000Y-83000000D01*
X182170000Y-87000000D02*
X182170000Y-85500000D01*
X169770000Y-75500000D02*
X174270000Y-75500000D01*
X168520000Y-71500000D02*
X168520000Y-73000000D01*
X174270000Y-69000000D02*
X169770000Y-69000000D01*
X175520000Y-73000000D02*
X175520000Y-71500000D01*
X113210000Y-61500000D02*
X117710000Y-61500000D01*
X111960000Y-57500000D02*
X111960000Y-59000000D01*
X117710000Y-55000000D02*
X113210000Y-55000000D01*
X118960000Y-59000000D02*
X118960000Y-57500000D01*
X163120000Y-89500000D02*
X167620000Y-89500000D01*
X161870000Y-85500000D02*
X161870000Y-87000000D01*
X167620000Y-83000000D02*
X163120000Y-83000000D01*
X168870000Y-87000000D02*
X168870000Y-85500000D01*
X246245000Y-89500000D02*
X250745000Y-89500000D01*
X244995000Y-85500000D02*
X244995000Y-87000000D01*
X250745000Y-83000000D02*
X246245000Y-83000000D01*
X251995000Y-87000000D02*
X251995000Y-85500000D01*
X236270000Y-75500000D02*
X240770000Y-75500000D01*
X235020000Y-71500000D02*
X235020000Y-73000000D01*
X240770000Y-69000000D02*
X236270000Y-69000000D01*
X242020000Y-73000000D02*
X242020000Y-71500000D01*
X149820000Y-89500000D02*
X154320000Y-89500000D01*
X148570000Y-85500000D02*
X148570000Y-87000000D01*
X154320000Y-83000000D02*
X149820000Y-83000000D01*
X155570000Y-87000000D02*
X155570000Y-85500000D01*
X183070000Y-75500000D02*
X187570000Y-75500000D01*
X181820000Y-71500000D02*
X181820000Y-73000000D01*
X187570000Y-69000000D02*
X183070000Y-69000000D01*
X188820000Y-73000000D02*
X188820000Y-71500000D01*
X153110000Y-61500000D02*
X157610000Y-61500000D01*
X151860000Y-57500000D02*
X151860000Y-59000000D01*
X157610000Y-55000000D02*
X153110000Y-55000000D01*
X158860000Y-59000000D02*
X158860000Y-57500000D01*
X126510000Y-61500000D02*
X131010000Y-61500000D01*
X125260000Y-57500000D02*
X125260000Y-59000000D01*
X131010000Y-55000000D02*
X126510000Y-55000000D01*
X132260000Y-59000000D02*
X132260000Y-57500000D01*
X249570000Y-75500000D02*
X254070000Y-75500000D01*
X248320000Y-71500000D02*
X248320000Y-73000000D01*
X254070000Y-69000000D02*
X249570000Y-69000000D01*
X255320000Y-73000000D02*
X255320000Y-71500000D01*
X143170000Y-75500000D02*
X147670000Y-75500000D01*
X141920000Y-71500000D02*
X141920000Y-73000000D01*
X147670000Y-69000000D02*
X143170000Y-69000000D01*
X148920000Y-73000000D02*
X148920000Y-71500000D01*
X206310000Y-61500000D02*
X210810000Y-61500000D01*
X205060000Y-57500000D02*
X205060000Y-59000000D01*
X210810000Y-55000000D02*
X206310000Y-55000000D01*
X212060000Y-59000000D02*
X212060000Y-57500000D01*
X129870000Y-75500000D02*
X134370000Y-75500000D01*
X128620000Y-71500000D02*
X128620000Y-73000000D01*
X134370000Y-69000000D02*
X129870000Y-69000000D01*
X135620000Y-73000000D02*
X135620000Y-71500000D01*
X136520000Y-89500000D02*
X141020000Y-89500000D01*
X135270000Y-85500000D02*
X135270000Y-87000000D01*
X141020000Y-83000000D02*
X136520000Y-83000000D01*
X142270000Y-87000000D02*
X142270000Y-85500000D01*
X103270000Y-75500000D02*
X107770000Y-75500000D01*
X102020000Y-71500000D02*
X102020000Y-73000000D01*
X107770000Y-69000000D02*
X103270000Y-69000000D01*
X109020000Y-73000000D02*
X109020000Y-71500000D01*
X106595000Y-89500000D02*
X111095000Y-89500000D01*
X105345000Y-85500000D02*
X105345000Y-87000000D01*
X111095000Y-83000000D02*
X106595000Y-83000000D01*
X112345000Y-87000000D02*
X112345000Y-85500000D01*
X139810000Y-61500000D02*
X144310000Y-61500000D01*
X138560000Y-57500000D02*
X138560000Y-59000000D01*
X144310000Y-55000000D02*
X139810000Y-55000000D01*
X145560000Y-59000000D02*
X145560000Y-57500000D01*
X196370000Y-75500000D02*
X200870000Y-75500000D01*
X195120000Y-71500000D02*
X195120000Y-73000000D01*
X200870000Y-69000000D02*
X196370000Y-69000000D01*
X202120000Y-73000000D02*
X202120000Y-71500000D01*
X219610000Y-61500000D02*
X224110000Y-61500000D01*
X218360000Y-57500000D02*
X218360000Y-59000000D01*
X224110000Y-55000000D02*
X219610000Y-55000000D01*
X225360000Y-59000000D02*
X225360000Y-57500000D01*
X166410000Y-61500000D02*
X170910000Y-61500000D01*
X165160000Y-57500000D02*
X165160000Y-59000000D01*
X170910000Y-55000000D02*
X166410000Y-55000000D01*
X172160000Y-59000000D02*
X172160000Y-57500000D01*
X179710000Y-61500000D02*
X184210000Y-61500000D01*
X178460000Y-57500000D02*
X178460000Y-59000000D01*
X184210000Y-55000000D02*
X179710000Y-55000000D01*
X185460000Y-59000000D02*
X185460000Y-57500000D01*
X247890000Y-61500000D02*
X252390000Y-61500000D01*
X246640000Y-57500000D02*
X246640000Y-59000000D01*
X252390000Y-55000000D02*
X247890000Y-55000000D01*
X253640000Y-59000000D02*
X253640000Y-57500000D01*
X104010000Y-36255000D02*
X157410000Y-36255000D01*
X157410000Y-36255000D02*
X157410000Y-33595000D01*
X157410000Y-33595000D02*
X104010000Y-33595000D01*
X104010000Y-33595000D02*
X104010000Y-36255000D01*
X102740000Y-36255000D02*
X101410000Y-36255000D01*
X101410000Y-36255000D02*
X101410000Y-34925000D01*
X253684000Y-42428000D02*
X257104000Y-42428000D01*
X253684000Y-44948000D02*
X257104000Y-44948000D01*
X253684000Y-42428000D02*
X253684000Y-42608000D01*
X253684000Y-44768000D02*
X253684000Y-44948000D01*
X257104000Y-42428000D02*
X257104000Y-42593000D01*
X257104000Y-44783000D02*
X257104000Y-44948000D01*
X253804000Y-42428000D02*
X253804000Y-42608000D01*
X253804000Y-44768000D02*
X253804000Y-44948000D01*
X253924000Y-42428000D02*
X253924000Y-42608000D01*
X253924000Y-44768000D02*
X253924000Y-44948000D01*
X170110000Y-36255000D02*
X170110000Y-33595000D01*
X167510000Y-36255000D02*
X170110000Y-36255000D01*
X167510000Y-33595000D02*
X170110000Y-33595000D01*
X167510000Y-36255000D02*
X167510000Y-33595000D01*
X166240000Y-36255000D02*
X164910000Y-36255000D01*
X164910000Y-36255000D02*
X164910000Y-34925000D01*
D13*
X203460476Y-82404762D02*
X203603333Y-82452381D01*
X203841429Y-82452381D01*
X203936667Y-82404762D01*
X203984286Y-82357143D01*
X204031905Y-82261905D01*
X204031905Y-82166667D01*
X203984286Y-82071429D01*
X203936667Y-82023810D01*
X203841429Y-81976190D01*
X203650952Y-81928571D01*
X203555714Y-81880952D01*
X203508095Y-81833333D01*
X203460476Y-81738095D01*
X203460476Y-81642857D01*
X203508095Y-81547619D01*
X203555714Y-81500000D01*
X203650952Y-81452381D01*
X203889048Y-81452381D01*
X204031905Y-81500000D01*
X204365238Y-81452381D02*
X204603333Y-82452381D01*
X204793810Y-81738095D01*
X204984286Y-82452381D01*
X205222381Y-81452381D01*
X205555714Y-81547619D02*
X205603333Y-81500000D01*
X205698571Y-81452381D01*
X205936667Y-81452381D01*
X206031905Y-81500000D01*
X206079524Y-81547619D01*
X206127143Y-81642857D01*
X206127143Y-81738095D01*
X206079524Y-81880952D01*
X205508095Y-82452381D01*
X206127143Y-82452381D01*
X206603333Y-82452381D02*
X206793809Y-82452381D01*
X206889048Y-82404762D01*
X206936667Y-82357143D01*
X207031905Y-82214286D01*
X207079524Y-82023810D01*
X207079524Y-81642857D01*
X207031905Y-81547619D01*
X206984286Y-81500000D01*
X206889048Y-81452381D01*
X206698571Y-81452381D01*
X206603333Y-81500000D01*
X206555714Y-81547619D01*
X206508095Y-81642857D01*
X206508095Y-81880952D01*
X206555714Y-81976190D01*
X206603333Y-82023810D01*
X206698571Y-82071429D01*
X206889048Y-82071429D01*
X206984286Y-82023810D01*
X207031905Y-81976190D01*
X207079524Y-81880952D01*
X190160476Y-82404762D02*
X190303333Y-82452381D01*
X190541429Y-82452381D01*
X190636667Y-82404762D01*
X190684286Y-82357143D01*
X190731905Y-82261905D01*
X190731905Y-82166667D01*
X190684286Y-82071429D01*
X190636667Y-82023810D01*
X190541429Y-81976190D01*
X190350952Y-81928571D01*
X190255714Y-81880952D01*
X190208095Y-81833333D01*
X190160476Y-81738095D01*
X190160476Y-81642857D01*
X190208095Y-81547619D01*
X190255714Y-81500000D01*
X190350952Y-81452381D01*
X190589048Y-81452381D01*
X190731905Y-81500000D01*
X191065238Y-81452381D02*
X191303333Y-82452381D01*
X191493810Y-81738095D01*
X191684286Y-82452381D01*
X191922381Y-81452381D01*
X192208095Y-81452381D02*
X192827143Y-81452381D01*
X192493809Y-81833333D01*
X192636667Y-81833333D01*
X192731905Y-81880952D01*
X192779524Y-81928571D01*
X192827143Y-82023810D01*
X192827143Y-82261905D01*
X192779524Y-82357143D01*
X192731905Y-82404762D01*
X192636667Y-82452381D01*
X192350952Y-82452381D01*
X192255714Y-82404762D01*
X192208095Y-82357143D01*
X193731905Y-81452381D02*
X193255714Y-81452381D01*
X193208095Y-81928571D01*
X193255714Y-81880952D01*
X193350952Y-81833333D01*
X193589048Y-81833333D01*
X193684286Y-81880952D01*
X193731905Y-81928571D01*
X193779524Y-82023810D01*
X193779524Y-82261905D01*
X193731905Y-82357143D01*
X193684286Y-82404762D01*
X193589048Y-82452381D01*
X193350952Y-82452381D01*
X193255714Y-82404762D01*
X193208095Y-82357143D01*
X223410476Y-68404762D02*
X223553333Y-68452381D01*
X223791429Y-68452381D01*
X223886667Y-68404762D01*
X223934286Y-68357143D01*
X223981905Y-68261905D01*
X223981905Y-68166667D01*
X223934286Y-68071429D01*
X223886667Y-68023810D01*
X223791429Y-67976190D01*
X223600952Y-67928571D01*
X223505714Y-67880952D01*
X223458095Y-67833333D01*
X223410476Y-67738095D01*
X223410476Y-67642857D01*
X223458095Y-67547619D01*
X223505714Y-67500000D01*
X223600952Y-67452381D01*
X223839048Y-67452381D01*
X223981905Y-67500000D01*
X224315238Y-67452381D02*
X224553333Y-68452381D01*
X224743810Y-67738095D01*
X224934286Y-68452381D01*
X225172381Y-67452381D01*
X225505714Y-67547619D02*
X225553333Y-67500000D01*
X225648571Y-67452381D01*
X225886667Y-67452381D01*
X225981905Y-67500000D01*
X226029524Y-67547619D01*
X226077143Y-67642857D01*
X226077143Y-67738095D01*
X226029524Y-67880952D01*
X225458095Y-68452381D01*
X226077143Y-68452381D01*
X226458095Y-67547619D02*
X226505714Y-67500000D01*
X226600952Y-67452381D01*
X226839048Y-67452381D01*
X226934286Y-67500000D01*
X226981905Y-67547619D01*
X227029524Y-67642857D01*
X227029524Y-67738095D01*
X226981905Y-67880952D01*
X226410476Y-68452381D01*
X227029524Y-68452381D01*
X188116667Y-40404762D02*
X188259524Y-40452381D01*
X188497620Y-40452381D01*
X188592858Y-40404762D01*
X188640477Y-40357143D01*
X188688096Y-40261905D01*
X188688096Y-40166667D01*
X188640477Y-40071429D01*
X188592858Y-40023810D01*
X188497620Y-39976190D01*
X188307143Y-39928571D01*
X188211905Y-39880952D01*
X188164286Y-39833333D01*
X188116667Y-39738095D01*
X188116667Y-39642857D01*
X188164286Y-39547619D01*
X188211905Y-39500000D01*
X188307143Y-39452381D01*
X188545239Y-39452381D01*
X188688096Y-39500000D01*
X189021429Y-39452381D02*
X189259524Y-40452381D01*
X189450001Y-39738095D01*
X189640477Y-40452381D01*
X189878572Y-39452381D01*
X190783334Y-40452381D02*
X190211905Y-40452381D01*
X190497619Y-40452381D02*
X190497619Y-39452381D01*
X190402381Y-39595238D01*
X190307143Y-39690476D01*
X190211905Y-39738095D01*
X148216667Y-40404762D02*
X148359524Y-40452381D01*
X148597620Y-40452381D01*
X148692858Y-40404762D01*
X148740477Y-40357143D01*
X148788096Y-40261905D01*
X148788096Y-40166667D01*
X148740477Y-40071429D01*
X148692858Y-40023810D01*
X148597620Y-39976190D01*
X148407143Y-39928571D01*
X148311905Y-39880952D01*
X148264286Y-39833333D01*
X148216667Y-39738095D01*
X148216667Y-39642857D01*
X148264286Y-39547619D01*
X148311905Y-39500000D01*
X148407143Y-39452381D01*
X148645239Y-39452381D01*
X148788096Y-39500000D01*
X149121429Y-39452381D02*
X149359524Y-40452381D01*
X149550001Y-39738095D01*
X149740477Y-40452381D01*
X149978572Y-39452381D01*
X150311905Y-39547619D02*
X150359524Y-39500000D01*
X150454762Y-39452381D01*
X150692858Y-39452381D01*
X150788096Y-39500000D01*
X150835715Y-39547619D01*
X150883334Y-39642857D01*
X150883334Y-39738095D01*
X150835715Y-39880952D01*
X150264286Y-40452381D01*
X150883334Y-40452381D01*
X108316667Y-40404762D02*
X108459524Y-40452381D01*
X108697620Y-40452381D01*
X108792858Y-40404762D01*
X108840477Y-40357143D01*
X108888096Y-40261905D01*
X108888096Y-40166667D01*
X108840477Y-40071429D01*
X108792858Y-40023810D01*
X108697620Y-39976190D01*
X108507143Y-39928571D01*
X108411905Y-39880952D01*
X108364286Y-39833333D01*
X108316667Y-39738095D01*
X108316667Y-39642857D01*
X108364286Y-39547619D01*
X108411905Y-39500000D01*
X108507143Y-39452381D01*
X108745239Y-39452381D01*
X108888096Y-39500000D01*
X109221429Y-39452381D02*
X109459524Y-40452381D01*
X109650001Y-39738095D01*
X109840477Y-40452381D01*
X110078572Y-39452381D01*
X110364286Y-39452381D02*
X110983334Y-39452381D01*
X110650000Y-39833333D01*
X110792858Y-39833333D01*
X110888096Y-39880952D01*
X110935715Y-39928571D01*
X110983334Y-40023810D01*
X110983334Y-40261905D01*
X110935715Y-40357143D01*
X110888096Y-40404762D01*
X110792858Y-40452381D01*
X110507143Y-40452381D01*
X110411905Y-40404762D01*
X110364286Y-40357143D01*
X241316667Y-40404762D02*
X241459524Y-40452381D01*
X241697620Y-40452381D01*
X241792858Y-40404762D01*
X241840477Y-40357143D01*
X241888096Y-40261905D01*
X241888096Y-40166667D01*
X241840477Y-40071429D01*
X241792858Y-40023810D01*
X241697620Y-39976190D01*
X241507143Y-39928571D01*
X241411905Y-39880952D01*
X241364286Y-39833333D01*
X241316667Y-39738095D01*
X241316667Y-39642857D01*
X241364286Y-39547619D01*
X241411905Y-39500000D01*
X241507143Y-39452381D01*
X241745239Y-39452381D01*
X241888096Y-39500000D01*
X242221429Y-39452381D02*
X242459524Y-40452381D01*
X242650001Y-39738095D01*
X242840477Y-40452381D01*
X243078572Y-39452381D01*
X243888096Y-39785714D02*
X243888096Y-40452381D01*
X243650000Y-39404762D02*
X243411905Y-40119048D01*
X244030953Y-40119048D01*
X217236667Y-82404762D02*
X217379524Y-82452381D01*
X217617620Y-82452381D01*
X217712858Y-82404762D01*
X217760477Y-82357143D01*
X217808096Y-82261905D01*
X217808096Y-82166667D01*
X217760477Y-82071429D01*
X217712858Y-82023810D01*
X217617620Y-81976190D01*
X217427143Y-81928571D01*
X217331905Y-81880952D01*
X217284286Y-81833333D01*
X217236667Y-81738095D01*
X217236667Y-81642857D01*
X217284286Y-81547619D01*
X217331905Y-81500000D01*
X217427143Y-81452381D01*
X217665239Y-81452381D01*
X217808096Y-81500000D01*
X218141429Y-81452381D02*
X218379524Y-82452381D01*
X218570001Y-81738095D01*
X218760477Y-82452381D01*
X218998572Y-81452381D01*
X219855715Y-81452381D02*
X219379524Y-81452381D01*
X219331905Y-81928571D01*
X219379524Y-81880952D01*
X219474762Y-81833333D01*
X219712858Y-81833333D01*
X219808096Y-81880952D01*
X219855715Y-81928571D01*
X219903334Y-82023810D01*
X219903334Y-82261905D01*
X219855715Y-82357143D01*
X219808096Y-82404762D01*
X219712858Y-82452381D01*
X219474762Y-82452381D01*
X219379524Y-82404762D01*
X219331905Y-82357143D01*
X201416667Y-40404762D02*
X201559524Y-40452381D01*
X201797620Y-40452381D01*
X201892858Y-40404762D01*
X201940477Y-40357143D01*
X201988096Y-40261905D01*
X201988096Y-40166667D01*
X201940477Y-40071429D01*
X201892858Y-40023810D01*
X201797620Y-39976190D01*
X201607143Y-39928571D01*
X201511905Y-39880952D01*
X201464286Y-39833333D01*
X201416667Y-39738095D01*
X201416667Y-39642857D01*
X201464286Y-39547619D01*
X201511905Y-39500000D01*
X201607143Y-39452381D01*
X201845239Y-39452381D01*
X201988096Y-39500000D01*
X202321429Y-39452381D02*
X202559524Y-40452381D01*
X202750001Y-39738095D01*
X202940477Y-40452381D01*
X203178572Y-39452381D01*
X203988096Y-39452381D02*
X203797619Y-39452381D01*
X203702381Y-39500000D01*
X203654762Y-39547619D01*
X203559524Y-39690476D01*
X203511905Y-39880952D01*
X203511905Y-40261905D01*
X203559524Y-40357143D01*
X203607143Y-40404762D01*
X203702381Y-40452381D01*
X203892858Y-40452381D01*
X203988096Y-40404762D01*
X204035715Y-40357143D01*
X204083334Y-40261905D01*
X204083334Y-40023810D01*
X204035715Y-39928571D01*
X203988096Y-39880952D01*
X203892858Y-39833333D01*
X203702381Y-39833333D01*
X203607143Y-39880952D01*
X203559524Y-39928571D01*
X203511905Y-40023810D01*
X161516667Y-40404762D02*
X161659524Y-40452381D01*
X161897620Y-40452381D01*
X161992858Y-40404762D01*
X162040477Y-40357143D01*
X162088096Y-40261905D01*
X162088096Y-40166667D01*
X162040477Y-40071429D01*
X161992858Y-40023810D01*
X161897620Y-39976190D01*
X161707143Y-39928571D01*
X161611905Y-39880952D01*
X161564286Y-39833333D01*
X161516667Y-39738095D01*
X161516667Y-39642857D01*
X161564286Y-39547619D01*
X161611905Y-39500000D01*
X161707143Y-39452381D01*
X161945239Y-39452381D01*
X162088096Y-39500000D01*
X162421429Y-39452381D02*
X162659524Y-40452381D01*
X162850001Y-39738095D01*
X163040477Y-40452381D01*
X163278572Y-39452381D01*
X163564286Y-39452381D02*
X164230953Y-39452381D01*
X163802381Y-40452381D01*
X121616667Y-40404762D02*
X121759524Y-40452381D01*
X121997620Y-40452381D01*
X122092858Y-40404762D01*
X122140477Y-40357143D01*
X122188096Y-40261905D01*
X122188096Y-40166667D01*
X122140477Y-40071429D01*
X122092858Y-40023810D01*
X121997620Y-39976190D01*
X121807143Y-39928571D01*
X121711905Y-39880952D01*
X121664286Y-39833333D01*
X121616667Y-39738095D01*
X121616667Y-39642857D01*
X121664286Y-39547619D01*
X121711905Y-39500000D01*
X121807143Y-39452381D01*
X122045239Y-39452381D01*
X122188096Y-39500000D01*
X122521429Y-39452381D02*
X122759524Y-40452381D01*
X122950001Y-39738095D01*
X123140477Y-40452381D01*
X123378572Y-39452381D01*
X123902381Y-39880952D02*
X123807143Y-39833333D01*
X123759524Y-39785714D01*
X123711905Y-39690476D01*
X123711905Y-39642857D01*
X123759524Y-39547619D01*
X123807143Y-39500000D01*
X123902381Y-39452381D01*
X124092858Y-39452381D01*
X124188096Y-39500000D01*
X124235715Y-39547619D01*
X124283334Y-39642857D01*
X124283334Y-39690476D01*
X124235715Y-39785714D01*
X124188096Y-39833333D01*
X124092858Y-39880952D01*
X123902381Y-39880952D01*
X123807143Y-39928571D01*
X123759524Y-39976190D01*
X123711905Y-40071429D01*
X123711905Y-40261905D01*
X123759524Y-40357143D01*
X123807143Y-40404762D01*
X123902381Y-40452381D01*
X124092858Y-40452381D01*
X124188096Y-40404762D01*
X124235715Y-40357143D01*
X124283334Y-40261905D01*
X124283334Y-40071429D01*
X124235715Y-39976190D01*
X124188096Y-39928571D01*
X124092858Y-39880952D01*
X228016667Y-40404762D02*
X228159524Y-40452381D01*
X228397620Y-40452381D01*
X228492858Y-40404762D01*
X228540477Y-40357143D01*
X228588096Y-40261905D01*
X228588096Y-40166667D01*
X228540477Y-40071429D01*
X228492858Y-40023810D01*
X228397620Y-39976190D01*
X228207143Y-39928571D01*
X228111905Y-39880952D01*
X228064286Y-39833333D01*
X228016667Y-39738095D01*
X228016667Y-39642857D01*
X228064286Y-39547619D01*
X228111905Y-39500000D01*
X228207143Y-39452381D01*
X228445239Y-39452381D01*
X228588096Y-39500000D01*
X228921429Y-39452381D02*
X229159524Y-40452381D01*
X229350001Y-39738095D01*
X229540477Y-40452381D01*
X229778572Y-39452381D01*
X230207143Y-40452381D02*
X230397619Y-40452381D01*
X230492858Y-40404762D01*
X230540477Y-40357143D01*
X230635715Y-40214286D01*
X230683334Y-40023810D01*
X230683334Y-39642857D01*
X230635715Y-39547619D01*
X230588096Y-39500000D01*
X230492858Y-39452381D01*
X230302381Y-39452381D01*
X230207143Y-39500000D01*
X230159524Y-39547619D01*
X230111905Y-39642857D01*
X230111905Y-39880952D01*
X230159524Y-39976190D01*
X230207143Y-40023810D01*
X230302381Y-40071429D01*
X230492858Y-40071429D01*
X230588096Y-40023810D01*
X230635715Y-39976190D01*
X230683334Y-39880952D01*
X230060476Y-82404762D02*
X230203333Y-82452381D01*
X230441429Y-82452381D01*
X230536667Y-82404762D01*
X230584286Y-82357143D01*
X230631905Y-82261905D01*
X230631905Y-82166667D01*
X230584286Y-82071429D01*
X230536667Y-82023810D01*
X230441429Y-81976190D01*
X230250952Y-81928571D01*
X230155714Y-81880952D01*
X230108095Y-81833333D01*
X230060476Y-81738095D01*
X230060476Y-81642857D01*
X230108095Y-81547619D01*
X230155714Y-81500000D01*
X230250952Y-81452381D01*
X230489048Y-81452381D01*
X230631905Y-81500000D01*
X230965238Y-81452381D02*
X231203333Y-82452381D01*
X231393810Y-81738095D01*
X231584286Y-82452381D01*
X231822381Y-81452381D01*
X232727143Y-82452381D02*
X232155714Y-82452381D01*
X232441428Y-82452381D02*
X232441428Y-81452381D01*
X232346190Y-81595238D01*
X232250952Y-81690476D01*
X232155714Y-81738095D01*
X233346190Y-81452381D02*
X233441429Y-81452381D01*
X233536667Y-81500000D01*
X233584286Y-81547619D01*
X233631905Y-81642857D01*
X233679524Y-81833333D01*
X233679524Y-82071429D01*
X233631905Y-82261905D01*
X233584286Y-82357143D01*
X233536667Y-82404762D01*
X233441429Y-82452381D01*
X233346190Y-82452381D01*
X233250952Y-82404762D01*
X233203333Y-82357143D01*
X233155714Y-82261905D01*
X233108095Y-82071429D01*
X233108095Y-81833333D01*
X233155714Y-81642857D01*
X233203333Y-81547619D01*
X233250952Y-81500000D01*
X233346190Y-81452381D01*
X214240476Y-40404762D02*
X214383333Y-40452381D01*
X214621429Y-40452381D01*
X214716667Y-40404762D01*
X214764286Y-40357143D01*
X214811905Y-40261905D01*
X214811905Y-40166667D01*
X214764286Y-40071429D01*
X214716667Y-40023810D01*
X214621429Y-39976190D01*
X214430952Y-39928571D01*
X214335714Y-39880952D01*
X214288095Y-39833333D01*
X214240476Y-39738095D01*
X214240476Y-39642857D01*
X214288095Y-39547619D01*
X214335714Y-39500000D01*
X214430952Y-39452381D01*
X214669048Y-39452381D01*
X214811905Y-39500000D01*
X215145238Y-39452381D02*
X215383333Y-40452381D01*
X215573810Y-39738095D01*
X215764286Y-40452381D01*
X216002381Y-39452381D01*
X216907143Y-40452381D02*
X216335714Y-40452381D01*
X216621428Y-40452381D02*
X216621428Y-39452381D01*
X216526190Y-39595238D01*
X216430952Y-39690476D01*
X216335714Y-39738095D01*
X217859524Y-40452381D02*
X217288095Y-40452381D01*
X217573809Y-40452381D02*
X217573809Y-39452381D01*
X217478571Y-39595238D01*
X217383333Y-39690476D01*
X217288095Y-39738095D01*
X174340476Y-40404762D02*
X174483333Y-40452381D01*
X174721429Y-40452381D01*
X174816667Y-40404762D01*
X174864286Y-40357143D01*
X174911905Y-40261905D01*
X174911905Y-40166667D01*
X174864286Y-40071429D01*
X174816667Y-40023810D01*
X174721429Y-39976190D01*
X174530952Y-39928571D01*
X174435714Y-39880952D01*
X174388095Y-39833333D01*
X174340476Y-39738095D01*
X174340476Y-39642857D01*
X174388095Y-39547619D01*
X174435714Y-39500000D01*
X174530952Y-39452381D01*
X174769048Y-39452381D01*
X174911905Y-39500000D01*
X175245238Y-39452381D02*
X175483333Y-40452381D01*
X175673810Y-39738095D01*
X175864286Y-40452381D01*
X176102381Y-39452381D01*
X177007143Y-40452381D02*
X176435714Y-40452381D01*
X176721428Y-40452381D02*
X176721428Y-39452381D01*
X176626190Y-39595238D01*
X176530952Y-39690476D01*
X176435714Y-39738095D01*
X177388095Y-39547619D02*
X177435714Y-39500000D01*
X177530952Y-39452381D01*
X177769048Y-39452381D01*
X177864286Y-39500000D01*
X177911905Y-39547619D01*
X177959524Y-39642857D01*
X177959524Y-39738095D01*
X177911905Y-39880952D01*
X177340476Y-40452381D01*
X177959524Y-40452381D01*
X134440476Y-40404762D02*
X134583333Y-40452381D01*
X134821429Y-40452381D01*
X134916667Y-40404762D01*
X134964286Y-40357143D01*
X135011905Y-40261905D01*
X135011905Y-40166667D01*
X134964286Y-40071429D01*
X134916667Y-40023810D01*
X134821429Y-39976190D01*
X134630952Y-39928571D01*
X134535714Y-39880952D01*
X134488095Y-39833333D01*
X134440476Y-39738095D01*
X134440476Y-39642857D01*
X134488095Y-39547619D01*
X134535714Y-39500000D01*
X134630952Y-39452381D01*
X134869048Y-39452381D01*
X135011905Y-39500000D01*
X135345238Y-39452381D02*
X135583333Y-40452381D01*
X135773810Y-39738095D01*
X135964286Y-40452381D01*
X136202381Y-39452381D01*
X137107143Y-40452381D02*
X136535714Y-40452381D01*
X136821428Y-40452381D02*
X136821428Y-39452381D01*
X136726190Y-39595238D01*
X136630952Y-39690476D01*
X136535714Y-39738095D01*
X137440476Y-39452381D02*
X138059524Y-39452381D01*
X137726190Y-39833333D01*
X137869048Y-39833333D01*
X137964286Y-39880952D01*
X138011905Y-39928571D01*
X138059524Y-40023810D01*
X138059524Y-40261905D01*
X138011905Y-40357143D01*
X137964286Y-40404762D01*
X137869048Y-40452381D01*
X137583333Y-40452381D01*
X137488095Y-40404762D01*
X137440476Y-40357143D01*
X117010476Y-68404762D02*
X117153333Y-68452381D01*
X117391429Y-68452381D01*
X117486667Y-68404762D01*
X117534286Y-68357143D01*
X117581905Y-68261905D01*
X117581905Y-68166667D01*
X117534286Y-68071429D01*
X117486667Y-68023810D01*
X117391429Y-67976190D01*
X117200952Y-67928571D01*
X117105714Y-67880952D01*
X117058095Y-67833333D01*
X117010476Y-67738095D01*
X117010476Y-67642857D01*
X117058095Y-67547619D01*
X117105714Y-67500000D01*
X117200952Y-67452381D01*
X117439048Y-67452381D01*
X117581905Y-67500000D01*
X117915238Y-67452381D02*
X118153333Y-68452381D01*
X118343810Y-67738095D01*
X118534286Y-68452381D01*
X118772381Y-67452381D01*
X119677143Y-68452381D02*
X119105714Y-68452381D01*
X119391428Y-68452381D02*
X119391428Y-67452381D01*
X119296190Y-67595238D01*
X119200952Y-67690476D01*
X119105714Y-67738095D01*
X120534286Y-67785714D02*
X120534286Y-68452381D01*
X120296190Y-67404762D02*
X120058095Y-68119048D01*
X120677143Y-68119048D01*
X156910476Y-68404762D02*
X157053333Y-68452381D01*
X157291429Y-68452381D01*
X157386667Y-68404762D01*
X157434286Y-68357143D01*
X157481905Y-68261905D01*
X157481905Y-68166667D01*
X157434286Y-68071429D01*
X157386667Y-68023810D01*
X157291429Y-67976190D01*
X157100952Y-67928571D01*
X157005714Y-67880952D01*
X156958095Y-67833333D01*
X156910476Y-67738095D01*
X156910476Y-67642857D01*
X156958095Y-67547619D01*
X157005714Y-67500000D01*
X157100952Y-67452381D01*
X157339048Y-67452381D01*
X157481905Y-67500000D01*
X157815238Y-67452381D02*
X158053333Y-68452381D01*
X158243810Y-67738095D01*
X158434286Y-68452381D01*
X158672381Y-67452381D01*
X159577143Y-68452381D02*
X159005714Y-68452381D01*
X159291428Y-68452381D02*
X159291428Y-67452381D01*
X159196190Y-67595238D01*
X159100952Y-67690476D01*
X159005714Y-67738095D01*
X160481905Y-67452381D02*
X160005714Y-67452381D01*
X159958095Y-67928571D01*
X160005714Y-67880952D01*
X160100952Y-67833333D01*
X160339048Y-67833333D01*
X160434286Y-67880952D01*
X160481905Y-67928571D01*
X160529524Y-68023810D01*
X160529524Y-68261905D01*
X160481905Y-68357143D01*
X160434286Y-68404762D01*
X160339048Y-68452381D01*
X160100952Y-68452381D01*
X160005714Y-68404762D01*
X159958095Y-68357143D01*
X210110476Y-68404762D02*
X210253333Y-68452381D01*
X210491429Y-68452381D01*
X210586667Y-68404762D01*
X210634286Y-68357143D01*
X210681905Y-68261905D01*
X210681905Y-68166667D01*
X210634286Y-68071429D01*
X210586667Y-68023810D01*
X210491429Y-67976190D01*
X210300952Y-67928571D01*
X210205714Y-67880952D01*
X210158095Y-67833333D01*
X210110476Y-67738095D01*
X210110476Y-67642857D01*
X210158095Y-67547619D01*
X210205714Y-67500000D01*
X210300952Y-67452381D01*
X210539048Y-67452381D01*
X210681905Y-67500000D01*
X211015238Y-67452381D02*
X211253333Y-68452381D01*
X211443810Y-67738095D01*
X211634286Y-68452381D01*
X211872381Y-67452381D01*
X212777143Y-68452381D02*
X212205714Y-68452381D01*
X212491428Y-68452381D02*
X212491428Y-67452381D01*
X212396190Y-67595238D01*
X212300952Y-67690476D01*
X212205714Y-67738095D01*
X213634286Y-67452381D02*
X213443809Y-67452381D01*
X213348571Y-67500000D01*
X213300952Y-67547619D01*
X213205714Y-67690476D01*
X213158095Y-67880952D01*
X213158095Y-68261905D01*
X213205714Y-68357143D01*
X213253333Y-68404762D01*
X213348571Y-68452381D01*
X213539048Y-68452381D01*
X213634286Y-68404762D01*
X213681905Y-68357143D01*
X213729524Y-68261905D01*
X213729524Y-68023810D01*
X213681905Y-67928571D01*
X213634286Y-67880952D01*
X213539048Y-67833333D01*
X213348571Y-67833333D01*
X213253333Y-67880952D01*
X213205714Y-67928571D01*
X213158095Y-68023810D01*
X233350476Y-54404762D02*
X233493333Y-54452381D01*
X233731429Y-54452381D01*
X233826667Y-54404762D01*
X233874286Y-54357143D01*
X233921905Y-54261905D01*
X233921905Y-54166667D01*
X233874286Y-54071429D01*
X233826667Y-54023810D01*
X233731429Y-53976190D01*
X233540952Y-53928571D01*
X233445714Y-53880952D01*
X233398095Y-53833333D01*
X233350476Y-53738095D01*
X233350476Y-53642857D01*
X233398095Y-53547619D01*
X233445714Y-53500000D01*
X233540952Y-53452381D01*
X233779048Y-53452381D01*
X233921905Y-53500000D01*
X234255238Y-53452381D02*
X234493333Y-54452381D01*
X234683810Y-53738095D01*
X234874286Y-54452381D01*
X235112381Y-53452381D01*
X236017143Y-54452381D02*
X235445714Y-54452381D01*
X235731428Y-54452381D02*
X235731428Y-53452381D01*
X235636190Y-53595238D01*
X235540952Y-53690476D01*
X235445714Y-53738095D01*
X236350476Y-53452381D02*
X237017143Y-53452381D01*
X236588571Y-54452381D01*
X193450476Y-54404762D02*
X193593333Y-54452381D01*
X193831429Y-54452381D01*
X193926667Y-54404762D01*
X193974286Y-54357143D01*
X194021905Y-54261905D01*
X194021905Y-54166667D01*
X193974286Y-54071429D01*
X193926667Y-54023810D01*
X193831429Y-53976190D01*
X193640952Y-53928571D01*
X193545714Y-53880952D01*
X193498095Y-53833333D01*
X193450476Y-53738095D01*
X193450476Y-53642857D01*
X193498095Y-53547619D01*
X193545714Y-53500000D01*
X193640952Y-53452381D01*
X193879048Y-53452381D01*
X194021905Y-53500000D01*
X194355238Y-53452381D02*
X194593333Y-54452381D01*
X194783810Y-53738095D01*
X194974286Y-54452381D01*
X195212381Y-53452381D01*
X196117143Y-54452381D02*
X195545714Y-54452381D01*
X195831428Y-54452381D02*
X195831428Y-53452381D01*
X195736190Y-53595238D01*
X195640952Y-53690476D01*
X195545714Y-53738095D01*
X196688571Y-53880952D02*
X196593333Y-53833333D01*
X196545714Y-53785714D01*
X196498095Y-53690476D01*
X196498095Y-53642857D01*
X196545714Y-53547619D01*
X196593333Y-53500000D01*
X196688571Y-53452381D01*
X196879048Y-53452381D01*
X196974286Y-53500000D01*
X197021905Y-53547619D01*
X197069524Y-53642857D01*
X197069524Y-53690476D01*
X197021905Y-53785714D01*
X196974286Y-53833333D01*
X196879048Y-53880952D01*
X196688571Y-53880952D01*
X196593333Y-53928571D01*
X196545714Y-53976190D01*
X196498095Y-54071429D01*
X196498095Y-54261905D01*
X196545714Y-54357143D01*
X196593333Y-54404762D01*
X196688571Y-54452381D01*
X196879048Y-54452381D01*
X196974286Y-54404762D01*
X197021905Y-54357143D01*
X197069524Y-54261905D01*
X197069524Y-54071429D01*
X197021905Y-53976190D01*
X196974286Y-53928571D01*
X196879048Y-53880952D01*
X123660476Y-82404762D02*
X123803333Y-82452381D01*
X124041429Y-82452381D01*
X124136667Y-82404762D01*
X124184286Y-82357143D01*
X124231905Y-82261905D01*
X124231905Y-82166667D01*
X124184286Y-82071429D01*
X124136667Y-82023810D01*
X124041429Y-81976190D01*
X123850952Y-81928571D01*
X123755714Y-81880952D01*
X123708095Y-81833333D01*
X123660476Y-81738095D01*
X123660476Y-81642857D01*
X123708095Y-81547619D01*
X123755714Y-81500000D01*
X123850952Y-81452381D01*
X124089048Y-81452381D01*
X124231905Y-81500000D01*
X124565238Y-81452381D02*
X124803333Y-82452381D01*
X124993810Y-81738095D01*
X125184286Y-82452381D01*
X125422381Y-81452381D01*
X126327143Y-82452381D02*
X125755714Y-82452381D01*
X126041428Y-82452381D02*
X126041428Y-81452381D01*
X125946190Y-81595238D01*
X125850952Y-81690476D01*
X125755714Y-81738095D01*
X126803333Y-82452381D02*
X126993809Y-82452381D01*
X127089048Y-82404762D01*
X127136667Y-82357143D01*
X127231905Y-82214286D01*
X127279524Y-82023810D01*
X127279524Y-81642857D01*
X127231905Y-81547619D01*
X127184286Y-81500000D01*
X127089048Y-81452381D01*
X126898571Y-81452381D01*
X126803333Y-81500000D01*
X126755714Y-81547619D01*
X126708095Y-81642857D01*
X126708095Y-81880952D01*
X126755714Y-81976190D01*
X126803333Y-82023810D01*
X126898571Y-82071429D01*
X127089048Y-82071429D01*
X127184286Y-82023810D01*
X127231905Y-81976190D01*
X127279524Y-81880952D01*
X176860476Y-82404762D02*
X177003333Y-82452381D01*
X177241429Y-82452381D01*
X177336667Y-82404762D01*
X177384286Y-82357143D01*
X177431905Y-82261905D01*
X177431905Y-82166667D01*
X177384286Y-82071429D01*
X177336667Y-82023810D01*
X177241429Y-81976190D01*
X177050952Y-81928571D01*
X176955714Y-81880952D01*
X176908095Y-81833333D01*
X176860476Y-81738095D01*
X176860476Y-81642857D01*
X176908095Y-81547619D01*
X176955714Y-81500000D01*
X177050952Y-81452381D01*
X177289048Y-81452381D01*
X177431905Y-81500000D01*
X177765238Y-81452381D02*
X178003333Y-82452381D01*
X178193810Y-81738095D01*
X178384286Y-82452381D01*
X178622381Y-81452381D01*
X178955714Y-81547619D02*
X179003333Y-81500000D01*
X179098571Y-81452381D01*
X179336667Y-81452381D01*
X179431905Y-81500000D01*
X179479524Y-81547619D01*
X179527143Y-81642857D01*
X179527143Y-81738095D01*
X179479524Y-81880952D01*
X178908095Y-82452381D01*
X179527143Y-82452381D01*
X180146190Y-81452381D02*
X180241429Y-81452381D01*
X180336667Y-81500000D01*
X180384286Y-81547619D01*
X180431905Y-81642857D01*
X180479524Y-81833333D01*
X180479524Y-82071429D01*
X180431905Y-82261905D01*
X180384286Y-82357143D01*
X180336667Y-82404762D01*
X180241429Y-82452381D01*
X180146190Y-82452381D01*
X180050952Y-82404762D01*
X180003333Y-82357143D01*
X179955714Y-82261905D01*
X179908095Y-82071429D01*
X179908095Y-81833333D01*
X179955714Y-81642857D01*
X180003333Y-81547619D01*
X180050952Y-81500000D01*
X180146190Y-81452381D01*
X170210476Y-68404762D02*
X170353333Y-68452381D01*
X170591429Y-68452381D01*
X170686667Y-68404762D01*
X170734286Y-68357143D01*
X170781905Y-68261905D01*
X170781905Y-68166667D01*
X170734286Y-68071429D01*
X170686667Y-68023810D01*
X170591429Y-67976190D01*
X170400952Y-67928571D01*
X170305714Y-67880952D01*
X170258095Y-67833333D01*
X170210476Y-67738095D01*
X170210476Y-67642857D01*
X170258095Y-67547619D01*
X170305714Y-67500000D01*
X170400952Y-67452381D01*
X170639048Y-67452381D01*
X170781905Y-67500000D01*
X171115238Y-67452381D02*
X171353333Y-68452381D01*
X171543810Y-67738095D01*
X171734286Y-68452381D01*
X171972381Y-67452381D01*
X172305714Y-67547619D02*
X172353333Y-67500000D01*
X172448571Y-67452381D01*
X172686667Y-67452381D01*
X172781905Y-67500000D01*
X172829524Y-67547619D01*
X172877143Y-67642857D01*
X172877143Y-67738095D01*
X172829524Y-67880952D01*
X172258095Y-68452381D01*
X172877143Y-68452381D01*
X173829524Y-68452381D02*
X173258095Y-68452381D01*
X173543809Y-68452381D02*
X173543809Y-67452381D01*
X173448571Y-67595238D01*
X173353333Y-67690476D01*
X173258095Y-67738095D01*
X113650476Y-54404762D02*
X113793333Y-54452381D01*
X114031429Y-54452381D01*
X114126667Y-54404762D01*
X114174286Y-54357143D01*
X114221905Y-54261905D01*
X114221905Y-54166667D01*
X114174286Y-54071429D01*
X114126667Y-54023810D01*
X114031429Y-53976190D01*
X113840952Y-53928571D01*
X113745714Y-53880952D01*
X113698095Y-53833333D01*
X113650476Y-53738095D01*
X113650476Y-53642857D01*
X113698095Y-53547619D01*
X113745714Y-53500000D01*
X113840952Y-53452381D01*
X114079048Y-53452381D01*
X114221905Y-53500000D01*
X114555238Y-53452381D02*
X114793333Y-54452381D01*
X114983810Y-53738095D01*
X115174286Y-54452381D01*
X115412381Y-53452381D01*
X115745714Y-53547619D02*
X115793333Y-53500000D01*
X115888571Y-53452381D01*
X116126667Y-53452381D01*
X116221905Y-53500000D01*
X116269524Y-53547619D01*
X116317143Y-53642857D01*
X116317143Y-53738095D01*
X116269524Y-53880952D01*
X115698095Y-54452381D01*
X116317143Y-54452381D01*
X116650476Y-53452381D02*
X117269524Y-53452381D01*
X116936190Y-53833333D01*
X117079048Y-53833333D01*
X117174286Y-53880952D01*
X117221905Y-53928571D01*
X117269524Y-54023810D01*
X117269524Y-54261905D01*
X117221905Y-54357143D01*
X117174286Y-54404762D01*
X117079048Y-54452381D01*
X116793333Y-54452381D01*
X116698095Y-54404762D01*
X116650476Y-54357143D01*
X163560476Y-82404762D02*
X163703333Y-82452381D01*
X163941429Y-82452381D01*
X164036667Y-82404762D01*
X164084286Y-82357143D01*
X164131905Y-82261905D01*
X164131905Y-82166667D01*
X164084286Y-82071429D01*
X164036667Y-82023810D01*
X163941429Y-81976190D01*
X163750952Y-81928571D01*
X163655714Y-81880952D01*
X163608095Y-81833333D01*
X163560476Y-81738095D01*
X163560476Y-81642857D01*
X163608095Y-81547619D01*
X163655714Y-81500000D01*
X163750952Y-81452381D01*
X163989048Y-81452381D01*
X164131905Y-81500000D01*
X164465238Y-81452381D02*
X164703333Y-82452381D01*
X164893810Y-81738095D01*
X165084286Y-82452381D01*
X165322381Y-81452381D01*
X165655714Y-81547619D02*
X165703333Y-81500000D01*
X165798571Y-81452381D01*
X166036667Y-81452381D01*
X166131905Y-81500000D01*
X166179524Y-81547619D01*
X166227143Y-81642857D01*
X166227143Y-81738095D01*
X166179524Y-81880952D01*
X165608095Y-82452381D01*
X166227143Y-82452381D01*
X167084286Y-81785714D02*
X167084286Y-82452381D01*
X166846190Y-81404762D02*
X166608095Y-82119048D01*
X167227143Y-82119048D01*
X246685476Y-82404762D02*
X246828333Y-82452381D01*
X247066429Y-82452381D01*
X247161667Y-82404762D01*
X247209286Y-82357143D01*
X247256905Y-82261905D01*
X247256905Y-82166667D01*
X247209286Y-82071429D01*
X247161667Y-82023810D01*
X247066429Y-81976190D01*
X246875952Y-81928571D01*
X246780714Y-81880952D01*
X246733095Y-81833333D01*
X246685476Y-81738095D01*
X246685476Y-81642857D01*
X246733095Y-81547619D01*
X246780714Y-81500000D01*
X246875952Y-81452381D01*
X247114048Y-81452381D01*
X247256905Y-81500000D01*
X247590238Y-81452381D02*
X247828333Y-82452381D01*
X248018810Y-81738095D01*
X248209286Y-82452381D01*
X248447381Y-81452381D01*
X248780714Y-81547619D02*
X248828333Y-81500000D01*
X248923571Y-81452381D01*
X249161667Y-81452381D01*
X249256905Y-81500000D01*
X249304524Y-81547619D01*
X249352143Y-81642857D01*
X249352143Y-81738095D01*
X249304524Y-81880952D01*
X248733095Y-82452381D01*
X249352143Y-82452381D01*
X250256905Y-81452381D02*
X249780714Y-81452381D01*
X249733095Y-81928571D01*
X249780714Y-81880952D01*
X249875952Y-81833333D01*
X250114048Y-81833333D01*
X250209286Y-81880952D01*
X250256905Y-81928571D01*
X250304524Y-82023810D01*
X250304524Y-82261905D01*
X250256905Y-82357143D01*
X250209286Y-82404762D01*
X250114048Y-82452381D01*
X249875952Y-82452381D01*
X249780714Y-82404762D01*
X249733095Y-82357143D01*
X236710476Y-68404762D02*
X236853333Y-68452381D01*
X237091429Y-68452381D01*
X237186667Y-68404762D01*
X237234286Y-68357143D01*
X237281905Y-68261905D01*
X237281905Y-68166667D01*
X237234286Y-68071429D01*
X237186667Y-68023810D01*
X237091429Y-67976190D01*
X236900952Y-67928571D01*
X236805714Y-67880952D01*
X236758095Y-67833333D01*
X236710476Y-67738095D01*
X236710476Y-67642857D01*
X236758095Y-67547619D01*
X236805714Y-67500000D01*
X236900952Y-67452381D01*
X237139048Y-67452381D01*
X237281905Y-67500000D01*
X237615238Y-67452381D02*
X237853333Y-68452381D01*
X238043810Y-67738095D01*
X238234286Y-68452381D01*
X238472381Y-67452381D01*
X238805714Y-67547619D02*
X238853333Y-67500000D01*
X238948571Y-67452381D01*
X239186667Y-67452381D01*
X239281905Y-67500000D01*
X239329524Y-67547619D01*
X239377143Y-67642857D01*
X239377143Y-67738095D01*
X239329524Y-67880952D01*
X238758095Y-68452381D01*
X239377143Y-68452381D01*
X240234286Y-67452381D02*
X240043809Y-67452381D01*
X239948571Y-67500000D01*
X239900952Y-67547619D01*
X239805714Y-67690476D01*
X239758095Y-67880952D01*
X239758095Y-68261905D01*
X239805714Y-68357143D01*
X239853333Y-68404762D01*
X239948571Y-68452381D01*
X240139048Y-68452381D01*
X240234286Y-68404762D01*
X240281905Y-68357143D01*
X240329524Y-68261905D01*
X240329524Y-68023810D01*
X240281905Y-67928571D01*
X240234286Y-67880952D01*
X240139048Y-67833333D01*
X239948571Y-67833333D01*
X239853333Y-67880952D01*
X239805714Y-67928571D01*
X239758095Y-68023810D01*
X150260476Y-82404762D02*
X150403333Y-82452381D01*
X150641429Y-82452381D01*
X150736667Y-82404762D01*
X150784286Y-82357143D01*
X150831905Y-82261905D01*
X150831905Y-82166667D01*
X150784286Y-82071429D01*
X150736667Y-82023810D01*
X150641429Y-81976190D01*
X150450952Y-81928571D01*
X150355714Y-81880952D01*
X150308095Y-81833333D01*
X150260476Y-81738095D01*
X150260476Y-81642857D01*
X150308095Y-81547619D01*
X150355714Y-81500000D01*
X150450952Y-81452381D01*
X150689048Y-81452381D01*
X150831905Y-81500000D01*
X151165238Y-81452381D02*
X151403333Y-82452381D01*
X151593810Y-81738095D01*
X151784286Y-82452381D01*
X152022381Y-81452381D01*
X152355714Y-81547619D02*
X152403333Y-81500000D01*
X152498571Y-81452381D01*
X152736667Y-81452381D01*
X152831905Y-81500000D01*
X152879524Y-81547619D01*
X152927143Y-81642857D01*
X152927143Y-81738095D01*
X152879524Y-81880952D01*
X152308095Y-82452381D01*
X152927143Y-82452381D01*
X153260476Y-81452381D02*
X153927143Y-81452381D01*
X153498571Y-82452381D01*
X183510476Y-68404762D02*
X183653333Y-68452381D01*
X183891429Y-68452381D01*
X183986667Y-68404762D01*
X184034286Y-68357143D01*
X184081905Y-68261905D01*
X184081905Y-68166667D01*
X184034286Y-68071429D01*
X183986667Y-68023810D01*
X183891429Y-67976190D01*
X183700952Y-67928571D01*
X183605714Y-67880952D01*
X183558095Y-67833333D01*
X183510476Y-67738095D01*
X183510476Y-67642857D01*
X183558095Y-67547619D01*
X183605714Y-67500000D01*
X183700952Y-67452381D01*
X183939048Y-67452381D01*
X184081905Y-67500000D01*
X184415238Y-67452381D02*
X184653333Y-68452381D01*
X184843810Y-67738095D01*
X185034286Y-68452381D01*
X185272381Y-67452381D01*
X185605714Y-67547619D02*
X185653333Y-67500000D01*
X185748571Y-67452381D01*
X185986667Y-67452381D01*
X186081905Y-67500000D01*
X186129524Y-67547619D01*
X186177143Y-67642857D01*
X186177143Y-67738095D01*
X186129524Y-67880952D01*
X185558095Y-68452381D01*
X186177143Y-68452381D01*
X186748571Y-67880952D02*
X186653333Y-67833333D01*
X186605714Y-67785714D01*
X186558095Y-67690476D01*
X186558095Y-67642857D01*
X186605714Y-67547619D01*
X186653333Y-67500000D01*
X186748571Y-67452381D01*
X186939048Y-67452381D01*
X187034286Y-67500000D01*
X187081905Y-67547619D01*
X187129524Y-67642857D01*
X187129524Y-67690476D01*
X187081905Y-67785714D01*
X187034286Y-67833333D01*
X186939048Y-67880952D01*
X186748571Y-67880952D01*
X186653333Y-67928571D01*
X186605714Y-67976190D01*
X186558095Y-68071429D01*
X186558095Y-68261905D01*
X186605714Y-68357143D01*
X186653333Y-68404762D01*
X186748571Y-68452381D01*
X186939048Y-68452381D01*
X187034286Y-68404762D01*
X187081905Y-68357143D01*
X187129524Y-68261905D01*
X187129524Y-68071429D01*
X187081905Y-67976190D01*
X187034286Y-67928571D01*
X186939048Y-67880952D01*
X153550476Y-54404762D02*
X153693333Y-54452381D01*
X153931429Y-54452381D01*
X154026667Y-54404762D01*
X154074286Y-54357143D01*
X154121905Y-54261905D01*
X154121905Y-54166667D01*
X154074286Y-54071429D01*
X154026667Y-54023810D01*
X153931429Y-53976190D01*
X153740952Y-53928571D01*
X153645714Y-53880952D01*
X153598095Y-53833333D01*
X153550476Y-53738095D01*
X153550476Y-53642857D01*
X153598095Y-53547619D01*
X153645714Y-53500000D01*
X153740952Y-53452381D01*
X153979048Y-53452381D01*
X154121905Y-53500000D01*
X154455238Y-53452381D02*
X154693333Y-54452381D01*
X154883810Y-53738095D01*
X155074286Y-54452381D01*
X155312381Y-53452381D01*
X155598095Y-53452381D02*
X156217143Y-53452381D01*
X155883809Y-53833333D01*
X156026667Y-53833333D01*
X156121905Y-53880952D01*
X156169524Y-53928571D01*
X156217143Y-54023810D01*
X156217143Y-54261905D01*
X156169524Y-54357143D01*
X156121905Y-54404762D01*
X156026667Y-54452381D01*
X155740952Y-54452381D01*
X155645714Y-54404762D01*
X155598095Y-54357143D01*
X156836190Y-53452381D02*
X156931429Y-53452381D01*
X157026667Y-53500000D01*
X157074286Y-53547619D01*
X157121905Y-53642857D01*
X157169524Y-53833333D01*
X157169524Y-54071429D01*
X157121905Y-54261905D01*
X157074286Y-54357143D01*
X157026667Y-54404762D01*
X156931429Y-54452381D01*
X156836190Y-54452381D01*
X156740952Y-54404762D01*
X156693333Y-54357143D01*
X156645714Y-54261905D01*
X156598095Y-54071429D01*
X156598095Y-53833333D01*
X156645714Y-53642857D01*
X156693333Y-53547619D01*
X156740952Y-53500000D01*
X156836190Y-53452381D01*
X126950476Y-54404762D02*
X127093333Y-54452381D01*
X127331429Y-54452381D01*
X127426667Y-54404762D01*
X127474286Y-54357143D01*
X127521905Y-54261905D01*
X127521905Y-54166667D01*
X127474286Y-54071429D01*
X127426667Y-54023810D01*
X127331429Y-53976190D01*
X127140952Y-53928571D01*
X127045714Y-53880952D01*
X126998095Y-53833333D01*
X126950476Y-53738095D01*
X126950476Y-53642857D01*
X126998095Y-53547619D01*
X127045714Y-53500000D01*
X127140952Y-53452381D01*
X127379048Y-53452381D01*
X127521905Y-53500000D01*
X127855238Y-53452381D02*
X128093333Y-54452381D01*
X128283810Y-53738095D01*
X128474286Y-54452381D01*
X128712381Y-53452381D01*
X128998095Y-53452381D02*
X129617143Y-53452381D01*
X129283809Y-53833333D01*
X129426667Y-53833333D01*
X129521905Y-53880952D01*
X129569524Y-53928571D01*
X129617143Y-54023810D01*
X129617143Y-54261905D01*
X129569524Y-54357143D01*
X129521905Y-54404762D01*
X129426667Y-54452381D01*
X129140952Y-54452381D01*
X129045714Y-54404762D01*
X128998095Y-54357143D01*
X130569524Y-54452381D02*
X129998095Y-54452381D01*
X130283809Y-54452381D02*
X130283809Y-53452381D01*
X130188571Y-53595238D01*
X130093333Y-53690476D01*
X129998095Y-53738095D01*
X250010476Y-68404762D02*
X250153333Y-68452381D01*
X250391429Y-68452381D01*
X250486667Y-68404762D01*
X250534286Y-68357143D01*
X250581905Y-68261905D01*
X250581905Y-68166667D01*
X250534286Y-68071429D01*
X250486667Y-68023810D01*
X250391429Y-67976190D01*
X250200952Y-67928571D01*
X250105714Y-67880952D01*
X250058095Y-67833333D01*
X250010476Y-67738095D01*
X250010476Y-67642857D01*
X250058095Y-67547619D01*
X250105714Y-67500000D01*
X250200952Y-67452381D01*
X250439048Y-67452381D01*
X250581905Y-67500000D01*
X250915238Y-67452381D02*
X251153333Y-68452381D01*
X251343810Y-67738095D01*
X251534286Y-68452381D01*
X251772381Y-67452381D01*
X252058095Y-67452381D02*
X252677143Y-67452381D01*
X252343809Y-67833333D01*
X252486667Y-67833333D01*
X252581905Y-67880952D01*
X252629524Y-67928571D01*
X252677143Y-68023810D01*
X252677143Y-68261905D01*
X252629524Y-68357143D01*
X252581905Y-68404762D01*
X252486667Y-68452381D01*
X252200952Y-68452381D01*
X252105714Y-68404762D01*
X252058095Y-68357143D01*
X253058095Y-67547619D02*
X253105714Y-67500000D01*
X253200952Y-67452381D01*
X253439048Y-67452381D01*
X253534286Y-67500000D01*
X253581905Y-67547619D01*
X253629524Y-67642857D01*
X253629524Y-67738095D01*
X253581905Y-67880952D01*
X253010476Y-68452381D01*
X253629524Y-68452381D01*
X143610476Y-68404762D02*
X143753333Y-68452381D01*
X143991429Y-68452381D01*
X144086667Y-68404762D01*
X144134286Y-68357143D01*
X144181905Y-68261905D01*
X144181905Y-68166667D01*
X144134286Y-68071429D01*
X144086667Y-68023810D01*
X143991429Y-67976190D01*
X143800952Y-67928571D01*
X143705714Y-67880952D01*
X143658095Y-67833333D01*
X143610476Y-67738095D01*
X143610476Y-67642857D01*
X143658095Y-67547619D01*
X143705714Y-67500000D01*
X143800952Y-67452381D01*
X144039048Y-67452381D01*
X144181905Y-67500000D01*
X144515238Y-67452381D02*
X144753333Y-68452381D01*
X144943810Y-67738095D01*
X145134286Y-68452381D01*
X145372381Y-67452381D01*
X145658095Y-67452381D02*
X146277143Y-67452381D01*
X145943809Y-67833333D01*
X146086667Y-67833333D01*
X146181905Y-67880952D01*
X146229524Y-67928571D01*
X146277143Y-68023810D01*
X146277143Y-68261905D01*
X146229524Y-68357143D01*
X146181905Y-68404762D01*
X146086667Y-68452381D01*
X145800952Y-68452381D01*
X145705714Y-68404762D01*
X145658095Y-68357143D01*
X146610476Y-67452381D02*
X147229524Y-67452381D01*
X146896190Y-67833333D01*
X147039048Y-67833333D01*
X147134286Y-67880952D01*
X147181905Y-67928571D01*
X147229524Y-68023810D01*
X147229524Y-68261905D01*
X147181905Y-68357143D01*
X147134286Y-68404762D01*
X147039048Y-68452381D01*
X146753333Y-68452381D01*
X146658095Y-68404762D01*
X146610476Y-68357143D01*
X206750476Y-54404762D02*
X206893333Y-54452381D01*
X207131429Y-54452381D01*
X207226667Y-54404762D01*
X207274286Y-54357143D01*
X207321905Y-54261905D01*
X207321905Y-54166667D01*
X207274286Y-54071429D01*
X207226667Y-54023810D01*
X207131429Y-53976190D01*
X206940952Y-53928571D01*
X206845714Y-53880952D01*
X206798095Y-53833333D01*
X206750476Y-53738095D01*
X206750476Y-53642857D01*
X206798095Y-53547619D01*
X206845714Y-53500000D01*
X206940952Y-53452381D01*
X207179048Y-53452381D01*
X207321905Y-53500000D01*
X207655238Y-53452381D02*
X207893333Y-54452381D01*
X208083810Y-53738095D01*
X208274286Y-54452381D01*
X208512381Y-53452381D01*
X208798095Y-53452381D02*
X209417143Y-53452381D01*
X209083809Y-53833333D01*
X209226667Y-53833333D01*
X209321905Y-53880952D01*
X209369524Y-53928571D01*
X209417143Y-54023810D01*
X209417143Y-54261905D01*
X209369524Y-54357143D01*
X209321905Y-54404762D01*
X209226667Y-54452381D01*
X208940952Y-54452381D01*
X208845714Y-54404762D01*
X208798095Y-54357143D01*
X210274286Y-53785714D02*
X210274286Y-54452381D01*
X210036190Y-53404762D02*
X209798095Y-54119048D01*
X210417143Y-54119048D01*
X130310476Y-68404762D02*
X130453333Y-68452381D01*
X130691429Y-68452381D01*
X130786667Y-68404762D01*
X130834286Y-68357143D01*
X130881905Y-68261905D01*
X130881905Y-68166667D01*
X130834286Y-68071429D01*
X130786667Y-68023810D01*
X130691429Y-67976190D01*
X130500952Y-67928571D01*
X130405714Y-67880952D01*
X130358095Y-67833333D01*
X130310476Y-67738095D01*
X130310476Y-67642857D01*
X130358095Y-67547619D01*
X130405714Y-67500000D01*
X130500952Y-67452381D01*
X130739048Y-67452381D01*
X130881905Y-67500000D01*
X131215238Y-67452381D02*
X131453333Y-68452381D01*
X131643810Y-67738095D01*
X131834286Y-68452381D01*
X132072381Y-67452381D01*
X132358095Y-67452381D02*
X132977143Y-67452381D01*
X132643809Y-67833333D01*
X132786667Y-67833333D01*
X132881905Y-67880952D01*
X132929524Y-67928571D01*
X132977143Y-68023810D01*
X132977143Y-68261905D01*
X132929524Y-68357143D01*
X132881905Y-68404762D01*
X132786667Y-68452381D01*
X132500952Y-68452381D01*
X132405714Y-68404762D01*
X132358095Y-68357143D01*
X133834286Y-67452381D02*
X133643809Y-67452381D01*
X133548571Y-67500000D01*
X133500952Y-67547619D01*
X133405714Y-67690476D01*
X133358095Y-67880952D01*
X133358095Y-68261905D01*
X133405714Y-68357143D01*
X133453333Y-68404762D01*
X133548571Y-68452381D01*
X133739048Y-68452381D01*
X133834286Y-68404762D01*
X133881905Y-68357143D01*
X133929524Y-68261905D01*
X133929524Y-68023810D01*
X133881905Y-67928571D01*
X133834286Y-67880952D01*
X133739048Y-67833333D01*
X133548571Y-67833333D01*
X133453333Y-67880952D01*
X133405714Y-67928571D01*
X133358095Y-68023810D01*
X136960476Y-82404762D02*
X137103333Y-82452381D01*
X137341429Y-82452381D01*
X137436667Y-82404762D01*
X137484286Y-82357143D01*
X137531905Y-82261905D01*
X137531905Y-82166667D01*
X137484286Y-82071429D01*
X137436667Y-82023810D01*
X137341429Y-81976190D01*
X137150952Y-81928571D01*
X137055714Y-81880952D01*
X137008095Y-81833333D01*
X136960476Y-81738095D01*
X136960476Y-81642857D01*
X137008095Y-81547619D01*
X137055714Y-81500000D01*
X137150952Y-81452381D01*
X137389048Y-81452381D01*
X137531905Y-81500000D01*
X137865238Y-81452381D02*
X138103333Y-82452381D01*
X138293810Y-81738095D01*
X138484286Y-82452381D01*
X138722381Y-81452381D01*
X139008095Y-81452381D02*
X139627143Y-81452381D01*
X139293809Y-81833333D01*
X139436667Y-81833333D01*
X139531905Y-81880952D01*
X139579524Y-81928571D01*
X139627143Y-82023810D01*
X139627143Y-82261905D01*
X139579524Y-82357143D01*
X139531905Y-82404762D01*
X139436667Y-82452381D01*
X139150952Y-82452381D01*
X139055714Y-82404762D01*
X139008095Y-82357143D01*
X139960476Y-81452381D02*
X140627143Y-81452381D01*
X140198571Y-82452381D01*
X103710476Y-68404762D02*
X103853333Y-68452381D01*
X104091429Y-68452381D01*
X104186667Y-68404762D01*
X104234286Y-68357143D01*
X104281905Y-68261905D01*
X104281905Y-68166667D01*
X104234286Y-68071429D01*
X104186667Y-68023810D01*
X104091429Y-67976190D01*
X103900952Y-67928571D01*
X103805714Y-67880952D01*
X103758095Y-67833333D01*
X103710476Y-67738095D01*
X103710476Y-67642857D01*
X103758095Y-67547619D01*
X103805714Y-67500000D01*
X103900952Y-67452381D01*
X104139048Y-67452381D01*
X104281905Y-67500000D01*
X104615238Y-67452381D02*
X104853333Y-68452381D01*
X105043810Y-67738095D01*
X105234286Y-68452381D01*
X105472381Y-67452381D01*
X105758095Y-67452381D02*
X106377143Y-67452381D01*
X106043809Y-67833333D01*
X106186667Y-67833333D01*
X106281905Y-67880952D01*
X106329524Y-67928571D01*
X106377143Y-68023810D01*
X106377143Y-68261905D01*
X106329524Y-68357143D01*
X106281905Y-68404762D01*
X106186667Y-68452381D01*
X105900952Y-68452381D01*
X105805714Y-68404762D01*
X105758095Y-68357143D01*
X106948571Y-67880952D02*
X106853333Y-67833333D01*
X106805714Y-67785714D01*
X106758095Y-67690476D01*
X106758095Y-67642857D01*
X106805714Y-67547619D01*
X106853333Y-67500000D01*
X106948571Y-67452381D01*
X107139048Y-67452381D01*
X107234286Y-67500000D01*
X107281905Y-67547619D01*
X107329524Y-67642857D01*
X107329524Y-67690476D01*
X107281905Y-67785714D01*
X107234286Y-67833333D01*
X107139048Y-67880952D01*
X106948571Y-67880952D01*
X106853333Y-67928571D01*
X106805714Y-67976190D01*
X106758095Y-68071429D01*
X106758095Y-68261905D01*
X106805714Y-68357143D01*
X106853333Y-68404762D01*
X106948571Y-68452381D01*
X107139048Y-68452381D01*
X107234286Y-68404762D01*
X107281905Y-68357143D01*
X107329524Y-68261905D01*
X107329524Y-68071429D01*
X107281905Y-67976190D01*
X107234286Y-67928571D01*
X107139048Y-67880952D01*
X107035476Y-82404762D02*
X107178333Y-82452381D01*
X107416429Y-82452381D01*
X107511667Y-82404762D01*
X107559286Y-82357143D01*
X107606905Y-82261905D01*
X107606905Y-82166667D01*
X107559286Y-82071429D01*
X107511667Y-82023810D01*
X107416429Y-81976190D01*
X107225952Y-81928571D01*
X107130714Y-81880952D01*
X107083095Y-81833333D01*
X107035476Y-81738095D01*
X107035476Y-81642857D01*
X107083095Y-81547619D01*
X107130714Y-81500000D01*
X107225952Y-81452381D01*
X107464048Y-81452381D01*
X107606905Y-81500000D01*
X107940238Y-81452381D02*
X108178333Y-82452381D01*
X108368810Y-81738095D01*
X108559286Y-82452381D01*
X108797381Y-81452381D01*
X109083095Y-81452381D02*
X109702143Y-81452381D01*
X109368809Y-81833333D01*
X109511667Y-81833333D01*
X109606905Y-81880952D01*
X109654524Y-81928571D01*
X109702143Y-82023810D01*
X109702143Y-82261905D01*
X109654524Y-82357143D01*
X109606905Y-82404762D01*
X109511667Y-82452381D01*
X109225952Y-82452381D01*
X109130714Y-82404762D01*
X109083095Y-82357143D01*
X110178333Y-82452381D02*
X110368809Y-82452381D01*
X110464048Y-82404762D01*
X110511667Y-82357143D01*
X110606905Y-82214286D01*
X110654524Y-82023810D01*
X110654524Y-81642857D01*
X110606905Y-81547619D01*
X110559286Y-81500000D01*
X110464048Y-81452381D01*
X110273571Y-81452381D01*
X110178333Y-81500000D01*
X110130714Y-81547619D01*
X110083095Y-81642857D01*
X110083095Y-81880952D01*
X110130714Y-81976190D01*
X110178333Y-82023810D01*
X110273571Y-82071429D01*
X110464048Y-82071429D01*
X110559286Y-82023810D01*
X110606905Y-81976190D01*
X110654524Y-81880952D01*
X140250476Y-54404762D02*
X140393333Y-54452381D01*
X140631429Y-54452381D01*
X140726667Y-54404762D01*
X140774286Y-54357143D01*
X140821905Y-54261905D01*
X140821905Y-54166667D01*
X140774286Y-54071429D01*
X140726667Y-54023810D01*
X140631429Y-53976190D01*
X140440952Y-53928571D01*
X140345714Y-53880952D01*
X140298095Y-53833333D01*
X140250476Y-53738095D01*
X140250476Y-53642857D01*
X140298095Y-53547619D01*
X140345714Y-53500000D01*
X140440952Y-53452381D01*
X140679048Y-53452381D01*
X140821905Y-53500000D01*
X141155238Y-53452381D02*
X141393333Y-54452381D01*
X141583810Y-53738095D01*
X141774286Y-54452381D01*
X142012381Y-53452381D01*
X142821905Y-53785714D02*
X142821905Y-54452381D01*
X142583809Y-53404762D02*
X142345714Y-54119048D01*
X142964762Y-54119048D01*
X143536190Y-53452381D02*
X143631429Y-53452381D01*
X143726667Y-53500000D01*
X143774286Y-53547619D01*
X143821905Y-53642857D01*
X143869524Y-53833333D01*
X143869524Y-54071429D01*
X143821905Y-54261905D01*
X143774286Y-54357143D01*
X143726667Y-54404762D01*
X143631429Y-54452381D01*
X143536190Y-54452381D01*
X143440952Y-54404762D01*
X143393333Y-54357143D01*
X143345714Y-54261905D01*
X143298095Y-54071429D01*
X143298095Y-53833333D01*
X143345714Y-53642857D01*
X143393333Y-53547619D01*
X143440952Y-53500000D01*
X143536190Y-53452381D01*
X196810476Y-68404762D02*
X196953333Y-68452381D01*
X197191429Y-68452381D01*
X197286667Y-68404762D01*
X197334286Y-68357143D01*
X197381905Y-68261905D01*
X197381905Y-68166667D01*
X197334286Y-68071429D01*
X197286667Y-68023810D01*
X197191429Y-67976190D01*
X197000952Y-67928571D01*
X196905714Y-67880952D01*
X196858095Y-67833333D01*
X196810476Y-67738095D01*
X196810476Y-67642857D01*
X196858095Y-67547619D01*
X196905714Y-67500000D01*
X197000952Y-67452381D01*
X197239048Y-67452381D01*
X197381905Y-67500000D01*
X197715238Y-67452381D02*
X197953333Y-68452381D01*
X198143810Y-67738095D01*
X198334286Y-68452381D01*
X198572381Y-67452381D01*
X199381905Y-67785714D02*
X199381905Y-68452381D01*
X199143809Y-67404762D02*
X198905714Y-68119048D01*
X199524762Y-68119048D01*
X200429524Y-68452381D02*
X199858095Y-68452381D01*
X200143809Y-68452381D02*
X200143809Y-67452381D01*
X200048571Y-67595238D01*
X199953333Y-67690476D01*
X199858095Y-67738095D01*
X220050476Y-54404762D02*
X220193333Y-54452381D01*
X220431429Y-54452381D01*
X220526667Y-54404762D01*
X220574286Y-54357143D01*
X220621905Y-54261905D01*
X220621905Y-54166667D01*
X220574286Y-54071429D01*
X220526667Y-54023810D01*
X220431429Y-53976190D01*
X220240952Y-53928571D01*
X220145714Y-53880952D01*
X220098095Y-53833333D01*
X220050476Y-53738095D01*
X220050476Y-53642857D01*
X220098095Y-53547619D01*
X220145714Y-53500000D01*
X220240952Y-53452381D01*
X220479048Y-53452381D01*
X220621905Y-53500000D01*
X220955238Y-53452381D02*
X221193333Y-54452381D01*
X221383810Y-53738095D01*
X221574286Y-54452381D01*
X221812381Y-53452381D01*
X222621905Y-53785714D02*
X222621905Y-54452381D01*
X222383809Y-53404762D02*
X222145714Y-54119048D01*
X222764762Y-54119048D01*
X223098095Y-53547619D02*
X223145714Y-53500000D01*
X223240952Y-53452381D01*
X223479048Y-53452381D01*
X223574286Y-53500000D01*
X223621905Y-53547619D01*
X223669524Y-53642857D01*
X223669524Y-53738095D01*
X223621905Y-53880952D01*
X223050476Y-54452381D01*
X223669524Y-54452381D01*
X166850476Y-54404762D02*
X166993333Y-54452381D01*
X167231429Y-54452381D01*
X167326667Y-54404762D01*
X167374286Y-54357143D01*
X167421905Y-54261905D01*
X167421905Y-54166667D01*
X167374286Y-54071429D01*
X167326667Y-54023810D01*
X167231429Y-53976190D01*
X167040952Y-53928571D01*
X166945714Y-53880952D01*
X166898095Y-53833333D01*
X166850476Y-53738095D01*
X166850476Y-53642857D01*
X166898095Y-53547619D01*
X166945714Y-53500000D01*
X167040952Y-53452381D01*
X167279048Y-53452381D01*
X167421905Y-53500000D01*
X167755238Y-53452381D02*
X167993333Y-54452381D01*
X168183810Y-53738095D01*
X168374286Y-54452381D01*
X168612381Y-53452381D01*
X169421905Y-53785714D02*
X169421905Y-54452381D01*
X169183809Y-53404762D02*
X168945714Y-54119048D01*
X169564762Y-54119048D01*
X169850476Y-53452381D02*
X170469524Y-53452381D01*
X170136190Y-53833333D01*
X170279048Y-53833333D01*
X170374286Y-53880952D01*
X170421905Y-53928571D01*
X170469524Y-54023810D01*
X170469524Y-54261905D01*
X170421905Y-54357143D01*
X170374286Y-54404762D01*
X170279048Y-54452381D01*
X169993333Y-54452381D01*
X169898095Y-54404762D01*
X169850476Y-54357143D01*
X180150476Y-54404762D02*
X180293333Y-54452381D01*
X180531429Y-54452381D01*
X180626667Y-54404762D01*
X180674286Y-54357143D01*
X180721905Y-54261905D01*
X180721905Y-54166667D01*
X180674286Y-54071429D01*
X180626667Y-54023810D01*
X180531429Y-53976190D01*
X180340952Y-53928571D01*
X180245714Y-53880952D01*
X180198095Y-53833333D01*
X180150476Y-53738095D01*
X180150476Y-53642857D01*
X180198095Y-53547619D01*
X180245714Y-53500000D01*
X180340952Y-53452381D01*
X180579048Y-53452381D01*
X180721905Y-53500000D01*
X181055238Y-53452381D02*
X181293333Y-54452381D01*
X181483810Y-53738095D01*
X181674286Y-54452381D01*
X181912381Y-53452381D01*
X182721905Y-53785714D02*
X182721905Y-54452381D01*
X182483809Y-53404762D02*
X182245714Y-54119048D01*
X182864762Y-54119048D01*
X183674286Y-53785714D02*
X183674286Y-54452381D01*
X183436190Y-53404762D02*
X183198095Y-54119048D01*
X183817143Y-54119048D01*
X248330476Y-54404762D02*
X248473333Y-54452381D01*
X248711429Y-54452381D01*
X248806667Y-54404762D01*
X248854286Y-54357143D01*
X248901905Y-54261905D01*
X248901905Y-54166667D01*
X248854286Y-54071429D01*
X248806667Y-54023810D01*
X248711429Y-53976190D01*
X248520952Y-53928571D01*
X248425714Y-53880952D01*
X248378095Y-53833333D01*
X248330476Y-53738095D01*
X248330476Y-53642857D01*
X248378095Y-53547619D01*
X248425714Y-53500000D01*
X248520952Y-53452381D01*
X248759048Y-53452381D01*
X248901905Y-53500000D01*
X249235238Y-53452381D02*
X249473333Y-54452381D01*
X249663810Y-53738095D01*
X249854286Y-54452381D01*
X250092381Y-53452381D01*
X250901905Y-53785714D02*
X250901905Y-54452381D01*
X250663809Y-53404762D02*
X250425714Y-54119048D01*
X251044762Y-54119048D01*
X251901905Y-53452381D02*
X251425714Y-53452381D01*
X251378095Y-53928571D01*
X251425714Y-53880952D01*
X251520952Y-53833333D01*
X251759048Y-53833333D01*
X251854286Y-53880952D01*
X251901905Y-53928571D01*
X251949524Y-54023810D01*
X251949524Y-54261905D01*
X251901905Y-54357143D01*
X251854286Y-54404762D01*
X251759048Y-54452381D01*
X251520952Y-54452381D01*
X251425714Y-54404762D01*
X251378095Y-54357143D01*
X99862381Y-35686905D02*
X100671905Y-35686905D01*
X100767143Y-35639286D01*
X100814762Y-35591667D01*
X100862381Y-35496429D01*
X100862381Y-35305952D01*
X100814762Y-35210714D01*
X100767143Y-35163095D01*
X100671905Y-35115476D01*
X99862381Y-35115476D01*
X100862381Y-34115476D02*
X100862381Y-34686905D01*
X100862381Y-34401191D02*
X99862381Y-34401191D01*
X100005238Y-34496429D01*
X100100476Y-34591667D01*
X100148095Y-34686905D01*
X250591905Y-44140381D02*
X250591905Y-43140381D01*
X250830000Y-43140381D01*
X250972858Y-43188000D01*
X251068096Y-43283238D01*
X251115715Y-43378476D01*
X251163334Y-43568952D01*
X251163334Y-43711810D01*
X251115715Y-43902286D01*
X251068096Y-43997524D01*
X250972858Y-44092762D01*
X250830000Y-44140381D01*
X250591905Y-44140381D01*
X252115715Y-44140381D02*
X251544286Y-44140381D01*
X251830000Y-44140381D02*
X251830000Y-43140381D01*
X251734762Y-43283238D01*
X251639524Y-43378476D01*
X251544286Y-43426095D01*
X171089905Y-34869381D02*
X171089905Y-33869381D01*
X171470858Y-33869381D01*
X171566096Y-33917000D01*
X171613715Y-33964619D01*
X171661334Y-34059857D01*
X171661334Y-34202714D01*
X171613715Y-34297952D01*
X171566096Y-34345571D01*
X171470858Y-34393190D01*
X171089905Y-34393190D01*
X172613715Y-34869381D02*
X172042286Y-34869381D01*
X172328000Y-34869381D02*
X172328000Y-33869381D01*
X172232762Y-34012238D01*
X172137524Y-34107476D01*
X172042286Y-34155095D01*
M02*
