G04 #@! TF.FileFunction,Legend,Top*
%FSLAX46Y46*%
G04 Gerber Fmt 4.6, Leading zero omitted, Abs format (unit mm)*
G04 Created by KiCad (PCBNEW 4.0.1-stable) date 03.08.2019 21:45:47*
%MOMM*%
G01*
G04 APERTURE LIST*
%ADD10C,0.100000*%
%ADD11C,0.300000*%
%ADD12C,0.250000*%
%ADD13C,0.200000*%
%ADD14C,0.120000*%
%ADD15C,0.150000*%
G04 APERTURE END LIST*
D10*
D11*
X164297286Y-66138357D02*
X164297286Y-64938357D01*
X164983001Y-66138357D02*
X164468715Y-65452643D01*
X164983001Y-64938357D02*
X164297286Y-65624071D01*
X165954429Y-66081214D02*
X165840143Y-66138357D01*
X165611572Y-66138357D01*
X165497286Y-66081214D01*
X165440143Y-65966929D01*
X165440143Y-65509786D01*
X165497286Y-65395500D01*
X165611572Y-65338357D01*
X165840143Y-65338357D01*
X165954429Y-65395500D01*
X166011572Y-65509786D01*
X166011572Y-65624071D01*
X165440143Y-65738357D01*
X166411572Y-65338357D02*
X166697286Y-66138357D01*
X166983000Y-65338357D02*
X166697286Y-66138357D01*
X166583000Y-66424071D01*
X166525857Y-66481214D01*
X166411572Y-66538357D01*
X167440143Y-65681214D02*
X168354429Y-65681214D01*
X169611572Y-66138357D02*
X169211572Y-65566929D01*
X168925857Y-66138357D02*
X168925857Y-64938357D01*
X169383000Y-64938357D01*
X169497286Y-64995500D01*
X169554429Y-65052643D01*
X169611572Y-65166929D01*
X169611572Y-65338357D01*
X169554429Y-65452643D01*
X169497286Y-65509786D01*
X169383000Y-65566929D01*
X168925857Y-65566929D01*
X170583000Y-66081214D02*
X170468714Y-66138357D01*
X170240143Y-66138357D01*
X170125857Y-66081214D01*
X170068714Y-65966929D01*
X170068714Y-65509786D01*
X170125857Y-65395500D01*
X170240143Y-65338357D01*
X170468714Y-65338357D01*
X170583000Y-65395500D01*
X170640143Y-65509786D01*
X170640143Y-65624071D01*
X170068714Y-65738357D01*
X171097285Y-66081214D02*
X171211571Y-66138357D01*
X171440143Y-66138357D01*
X171554428Y-66081214D01*
X171611571Y-65966929D01*
X171611571Y-65909786D01*
X171554428Y-65795500D01*
X171440143Y-65738357D01*
X171268714Y-65738357D01*
X171154428Y-65681214D01*
X171097285Y-65566929D01*
X171097285Y-65509786D01*
X171154428Y-65395500D01*
X171268714Y-65338357D01*
X171440143Y-65338357D01*
X171554428Y-65395500D01*
X172583000Y-66081214D02*
X172468714Y-66138357D01*
X172240143Y-66138357D01*
X172125857Y-66081214D01*
X172068714Y-65966929D01*
X172068714Y-65509786D01*
X172125857Y-65395500D01*
X172240143Y-65338357D01*
X172468714Y-65338357D01*
X172583000Y-65395500D01*
X172640143Y-65509786D01*
X172640143Y-65624071D01*
X172068714Y-65738357D01*
X172983000Y-65338357D02*
X173440143Y-65338357D01*
X173154428Y-64938357D02*
X173154428Y-65966929D01*
X173211571Y-66081214D01*
X173325857Y-66138357D01*
X173440143Y-66138357D01*
D12*
X154080071Y-66265357D02*
X154080071Y-65065357D01*
X154537214Y-65065357D01*
X154651500Y-65122500D01*
X154708643Y-65179643D01*
X154765786Y-65293929D01*
X154765786Y-65465357D01*
X154708643Y-65579643D01*
X154651500Y-65636786D01*
X154537214Y-65693929D01*
X154080071Y-65693929D01*
X155165786Y-65065357D02*
X155451500Y-66265357D01*
X155680071Y-65408214D01*
X155908643Y-66265357D01*
X156194357Y-65065357D01*
X157337215Y-66265357D02*
X156937215Y-65693929D01*
X156651500Y-66265357D02*
X156651500Y-65065357D01*
X157108643Y-65065357D01*
X157222929Y-65122500D01*
X157280072Y-65179643D01*
X157337215Y-65293929D01*
X157337215Y-65465357D01*
X157280072Y-65579643D01*
X157222929Y-65636786D01*
X157108643Y-65693929D01*
X156651500Y-65693929D01*
X157851500Y-65808214D02*
X158765786Y-65808214D01*
X159908643Y-66265357D02*
X159337214Y-66265357D01*
X159337214Y-65065357D01*
X160308643Y-65636786D02*
X160708643Y-65636786D01*
X160880072Y-66265357D02*
X160308643Y-66265357D01*
X160308643Y-65065357D01*
X160880072Y-65065357D01*
X161394357Y-66265357D02*
X161394357Y-65065357D01*
X161680072Y-65065357D01*
X161851500Y-65122500D01*
X161965786Y-65236786D01*
X162022929Y-65351071D01*
X162080072Y-65579643D01*
X162080072Y-65751071D01*
X162022929Y-65979643D01*
X161965786Y-66093929D01*
X161851500Y-66208214D01*
X161680072Y-66265357D01*
X161394357Y-66265357D01*
D11*
X122015924Y-63674571D02*
X122073067Y-63731714D01*
X122015924Y-63788857D01*
X121958781Y-63731714D01*
X122015924Y-63674571D01*
X122015924Y-63788857D01*
X122587353Y-63674571D02*
X122644496Y-63731714D01*
X122587353Y-63788857D01*
X122530210Y-63731714D01*
X122587353Y-63674571D01*
X122587353Y-63788857D01*
X123158782Y-63674571D02*
X123215925Y-63731714D01*
X123158782Y-63788857D01*
X123101639Y-63731714D01*
X123158782Y-63674571D01*
X123158782Y-63788857D01*
X123730211Y-63674571D02*
X123787354Y-63731714D01*
X123730211Y-63788857D01*
X123673068Y-63731714D01*
X123730211Y-63674571D01*
X123730211Y-63788857D01*
X124301640Y-63674571D02*
X124358783Y-63731714D01*
X124301640Y-63788857D01*
X124244497Y-63731714D01*
X124301640Y-63674571D01*
X124301640Y-63788857D01*
X124873069Y-63674571D02*
X124930212Y-63731714D01*
X124873069Y-63788857D01*
X124815926Y-63731714D01*
X124873069Y-63674571D01*
X124873069Y-63788857D01*
X125444498Y-63674571D02*
X125501641Y-63731714D01*
X125444498Y-63788857D01*
X125387355Y-63731714D01*
X125444498Y-63674571D01*
X125444498Y-63788857D01*
X126015927Y-63674571D02*
X126073070Y-63731714D01*
X126015927Y-63788857D01*
X125958784Y-63731714D01*
X126015927Y-63674571D01*
X126015927Y-63788857D01*
X126587356Y-63674571D02*
X126644499Y-63731714D01*
X126587356Y-63788857D01*
X126530213Y-63731714D01*
X126587356Y-63674571D01*
X126587356Y-63788857D01*
X127158785Y-63674571D02*
X127215928Y-63731714D01*
X127158785Y-63788857D01*
X127101642Y-63731714D01*
X127158785Y-63674571D01*
X127158785Y-63788857D01*
X127730214Y-63674571D02*
X127787357Y-63731714D01*
X127730214Y-63788857D01*
X127673071Y-63731714D01*
X127730214Y-63674571D01*
X127730214Y-63788857D01*
X128301643Y-63674571D02*
X128358786Y-63731714D01*
X128301643Y-63788857D01*
X128244500Y-63731714D01*
X128301643Y-63674571D01*
X128301643Y-63788857D01*
X128873072Y-63674571D02*
X128930215Y-63731714D01*
X128873072Y-63788857D01*
X128815929Y-63731714D01*
X128873072Y-63674571D01*
X128873072Y-63788857D01*
X129444501Y-63674571D02*
X129501644Y-63731714D01*
X129444501Y-63788857D01*
X129387358Y-63731714D01*
X129444501Y-63674571D01*
X129444501Y-63788857D01*
X130015930Y-63674571D02*
X130073073Y-63731714D01*
X130015930Y-63788857D01*
X129958787Y-63731714D01*
X130015930Y-63674571D01*
X130015930Y-63788857D01*
X130587359Y-63674571D02*
X130644502Y-63731714D01*
X130587359Y-63788857D01*
X130530216Y-63731714D01*
X130587359Y-63674571D01*
X130587359Y-63788857D01*
X131158788Y-63674571D02*
X131215931Y-63731714D01*
X131158788Y-63788857D01*
X131101645Y-63731714D01*
X131158788Y-63674571D01*
X131158788Y-63788857D01*
X131730217Y-63674571D02*
X131787360Y-63731714D01*
X131730217Y-63788857D01*
X131673074Y-63731714D01*
X131730217Y-63674571D01*
X131730217Y-63788857D01*
X132301646Y-63674571D02*
X132358789Y-63731714D01*
X132301646Y-63788857D01*
X132244503Y-63731714D01*
X132301646Y-63674571D01*
X132301646Y-63788857D01*
X132873075Y-63674571D02*
X132930218Y-63731714D01*
X132873075Y-63788857D01*
X132815932Y-63731714D01*
X132873075Y-63674571D01*
X132873075Y-63788857D01*
X96203210Y-63738071D02*
X96260353Y-63795214D01*
X96203210Y-63852357D01*
X96146067Y-63795214D01*
X96203210Y-63738071D01*
X96203210Y-63852357D01*
X96774639Y-63738071D02*
X96831782Y-63795214D01*
X96774639Y-63852357D01*
X96717496Y-63795214D01*
X96774639Y-63738071D01*
X96774639Y-63852357D01*
X97346068Y-63738071D02*
X97403211Y-63795214D01*
X97346068Y-63852357D01*
X97288925Y-63795214D01*
X97346068Y-63738071D01*
X97346068Y-63852357D01*
X97917497Y-63738071D02*
X97974640Y-63795214D01*
X97917497Y-63852357D01*
X97860354Y-63795214D01*
X97917497Y-63738071D01*
X97917497Y-63852357D01*
X98488926Y-63738071D02*
X98546069Y-63795214D01*
X98488926Y-63852357D01*
X98431783Y-63795214D01*
X98488926Y-63738071D01*
X98488926Y-63852357D01*
X99060355Y-63738071D02*
X99117498Y-63795214D01*
X99060355Y-63852357D01*
X99003212Y-63795214D01*
X99060355Y-63738071D01*
X99060355Y-63852357D01*
X99631784Y-63738071D02*
X99688927Y-63795214D01*
X99631784Y-63852357D01*
X99574641Y-63795214D01*
X99631784Y-63738071D01*
X99631784Y-63852357D01*
X100203213Y-63738071D02*
X100260356Y-63795214D01*
X100203213Y-63852357D01*
X100146070Y-63795214D01*
X100203213Y-63738071D01*
X100203213Y-63852357D01*
X100774642Y-63738071D02*
X100831785Y-63795214D01*
X100774642Y-63852357D01*
X100717499Y-63795214D01*
X100774642Y-63738071D01*
X100774642Y-63852357D01*
X101346071Y-63738071D02*
X101403214Y-63795214D01*
X101346071Y-63852357D01*
X101288928Y-63795214D01*
X101346071Y-63738071D01*
X101346071Y-63852357D01*
X101917500Y-63738071D02*
X101974643Y-63795214D01*
X101917500Y-63852357D01*
X101860357Y-63795214D01*
X101917500Y-63738071D01*
X101917500Y-63852357D01*
X102488929Y-63738071D02*
X102546072Y-63795214D01*
X102488929Y-63852357D01*
X102431786Y-63795214D01*
X102488929Y-63738071D01*
X102488929Y-63852357D01*
X103060358Y-63738071D02*
X103117501Y-63795214D01*
X103060358Y-63852357D01*
X103003215Y-63795214D01*
X103060358Y-63738071D01*
X103060358Y-63852357D01*
X103631787Y-63738071D02*
X103688930Y-63795214D01*
X103631787Y-63852357D01*
X103574644Y-63795214D01*
X103631787Y-63738071D01*
X103631787Y-63852357D01*
X104203216Y-63738071D02*
X104260359Y-63795214D01*
X104203216Y-63852357D01*
X104146073Y-63795214D01*
X104203216Y-63738071D01*
X104203216Y-63852357D01*
X104774645Y-63738071D02*
X104831788Y-63795214D01*
X104774645Y-63852357D01*
X104717502Y-63795214D01*
X104774645Y-63738071D01*
X104774645Y-63852357D01*
X105346074Y-63738071D02*
X105403217Y-63795214D01*
X105346074Y-63852357D01*
X105288931Y-63795214D01*
X105346074Y-63738071D01*
X105346074Y-63852357D01*
X105917503Y-63738071D02*
X105974646Y-63795214D01*
X105917503Y-63852357D01*
X105860360Y-63795214D01*
X105917503Y-63738071D01*
X105917503Y-63852357D01*
X106488932Y-63738071D02*
X106546075Y-63795214D01*
X106488932Y-63852357D01*
X106431789Y-63795214D01*
X106488932Y-63738071D01*
X106488932Y-63852357D01*
X107060361Y-63738071D02*
X107117504Y-63795214D01*
X107060361Y-63852357D01*
X107003218Y-63795214D01*
X107060361Y-63738071D01*
X107060361Y-63852357D01*
X107631790Y-63738071D02*
X107688933Y-63795214D01*
X107631790Y-63852357D01*
X107574647Y-63795214D01*
X107631790Y-63738071D01*
X107631790Y-63852357D01*
D13*
X146105595Y-63952381D02*
X146629405Y-63285714D01*
X146105595Y-63285714D02*
X146629405Y-63952381D01*
X143248095Y-63952381D02*
X143771905Y-63285714D01*
X143248095Y-63285714D02*
X143771905Y-63952381D01*
X140771595Y-63952381D02*
X141295405Y-63285714D01*
X140771595Y-63285714D02*
X141295405Y-63952381D01*
X138358595Y-63952381D02*
X138882405Y-63285714D01*
X138358595Y-63285714D02*
X138882405Y-63952381D01*
X115244595Y-63888881D02*
X115768405Y-63222214D01*
X115244595Y-63222214D02*
X115768405Y-63888881D01*
X112958595Y-63888881D02*
X113482405Y-63222214D01*
X112958595Y-63222214D02*
X113482405Y-63888881D01*
D12*
X133477214Y-63674571D02*
X133534357Y-63731714D01*
X133477214Y-63788857D01*
X133420071Y-63731714D01*
X133477214Y-63674571D01*
X133477214Y-63788857D01*
X134048643Y-63674571D02*
X134105786Y-63731714D01*
X134048643Y-63788857D01*
X133991500Y-63731714D01*
X134048643Y-63674571D01*
X134048643Y-63788857D01*
X134620072Y-63674571D02*
X134677215Y-63731714D01*
X134620072Y-63788857D01*
X134562929Y-63731714D01*
X134620072Y-63674571D01*
X134620072Y-63788857D01*
X135077216Y-62588857D02*
X135877216Y-63788857D01*
X135877216Y-62588857D02*
X135077216Y-63788857D01*
X136562930Y-62588857D02*
X136677215Y-62588857D01*
X136791501Y-62646000D01*
X136848644Y-62703143D01*
X136905787Y-62817429D01*
X136962930Y-63046000D01*
X136962930Y-63331714D01*
X136905787Y-63560286D01*
X136848644Y-63674571D01*
X136791501Y-63731714D01*
X136677215Y-63788857D01*
X136562930Y-63788857D01*
X136448644Y-63731714D01*
X136391501Y-63674571D01*
X136334358Y-63560286D01*
X136277215Y-63331714D01*
X136277215Y-63046000D01*
X136334358Y-62817429D01*
X136391501Y-62703143D01*
X136448644Y-62646000D01*
X136562930Y-62588857D01*
D11*
X117805429Y-62588857D02*
X118605429Y-63788857D01*
X118605429Y-62588857D02*
X117805429Y-63788857D01*
X118948286Y-62588857D02*
X119748286Y-62588857D01*
X119234000Y-63788857D01*
X120205428Y-63674571D02*
X120262571Y-63731714D01*
X120205428Y-63788857D01*
X120148285Y-63731714D01*
X120205428Y-63674571D01*
X120205428Y-63788857D01*
X120776857Y-63674571D02*
X120834000Y-63731714D01*
X120776857Y-63788857D01*
X120719714Y-63731714D01*
X120776857Y-63674571D01*
X120776857Y-63788857D01*
X121348286Y-63674571D02*
X121405429Y-63731714D01*
X121348286Y-63788857D01*
X121291143Y-63731714D01*
X121348286Y-63674571D01*
X121348286Y-63788857D01*
X108197857Y-63738071D02*
X108255000Y-63795214D01*
X108197857Y-63852357D01*
X108140714Y-63795214D01*
X108197857Y-63738071D01*
X108197857Y-63852357D01*
X108769286Y-63738071D02*
X108826429Y-63795214D01*
X108769286Y-63852357D01*
X108712143Y-63795214D01*
X108769286Y-63738071D01*
X108769286Y-63852357D01*
X109340715Y-63738071D02*
X109397858Y-63795214D01*
X109340715Y-63852357D01*
X109283572Y-63795214D01*
X109340715Y-63738071D01*
X109340715Y-63852357D01*
X110140716Y-63280929D02*
X110140716Y-63852357D01*
X109740716Y-62652357D02*
X110140716Y-63280929D01*
X110540716Y-62652357D01*
X111169287Y-62652357D02*
X111283572Y-62652357D01*
X111397858Y-62709500D01*
X111455001Y-62766643D01*
X111512144Y-62880929D01*
X111569287Y-63109500D01*
X111569287Y-63395214D01*
X111512144Y-63623786D01*
X111455001Y-63738071D01*
X111397858Y-63795214D01*
X111283572Y-63852357D01*
X111169287Y-63852357D01*
X111055001Y-63795214D01*
X110997858Y-63738071D01*
X110940715Y-63623786D01*
X110883572Y-63395214D01*
X110883572Y-63109500D01*
X110940715Y-62880929D01*
X110997858Y-62766643D01*
X111055001Y-62709500D01*
X111169287Y-62652357D01*
X92487929Y-63280929D02*
X92487929Y-63852357D01*
X92087929Y-62652357D02*
X92487929Y-63280929D01*
X92887929Y-62652357D01*
X93173643Y-62652357D02*
X93973643Y-62652357D01*
X93459357Y-63852357D01*
X94430785Y-63738071D02*
X94487928Y-63795214D01*
X94430785Y-63852357D01*
X94373642Y-63795214D01*
X94430785Y-63738071D01*
X94430785Y-63852357D01*
X95002214Y-63738071D02*
X95059357Y-63795214D01*
X95002214Y-63852357D01*
X94945071Y-63795214D01*
X95002214Y-63738071D01*
X95002214Y-63852357D01*
X95573643Y-63738071D02*
X95630786Y-63795214D01*
X95573643Y-63852357D01*
X95516500Y-63795214D01*
X95573643Y-63738071D01*
X95573643Y-63852357D01*
D13*
X92941000Y-77814000D02*
G75*
G03X92941000Y-77814000I-2250000J0D01*
G01*
X92941000Y-120064000D02*
G75*
G03X92941000Y-120064000I-2250000J0D01*
G01*
X249250000Y-120250000D02*
G75*
G03X249250000Y-120250000I-2250000J0D01*
G01*
X247750000Y-84250000D02*
G75*
G03X247750000Y-84250000I-2250000J0D01*
G01*
D11*
X183023931Y-64329571D02*
X183523931Y-65829571D01*
X184023931Y-64329571D01*
X184381074Y-64329571D02*
X185381074Y-64329571D01*
X184381074Y-65829571D01*
X185381074Y-65829571D01*
X185881073Y-64472429D02*
X185952502Y-64401000D01*
X186095359Y-64329571D01*
X186452502Y-64329571D01*
X186595359Y-64401000D01*
X186666788Y-64472429D01*
X186738216Y-64615286D01*
X186738216Y-64758143D01*
X186666788Y-64972429D01*
X185809645Y-65829571D01*
X186738216Y-65829571D01*
X187666787Y-64329571D02*
X187809644Y-64329571D01*
X187952501Y-64401000D01*
X188023930Y-64472429D01*
X188095359Y-64615286D01*
X188166787Y-64901000D01*
X188166787Y-65258143D01*
X188095359Y-65543857D01*
X188023930Y-65686714D01*
X187952501Y-65758143D01*
X187809644Y-65829571D01*
X187666787Y-65829571D01*
X187523930Y-65758143D01*
X187452501Y-65686714D01*
X187381073Y-65543857D01*
X187309644Y-65258143D01*
X187309644Y-64901000D01*
X187381073Y-64615286D01*
X187452501Y-64472429D01*
X187523930Y-64401000D01*
X187666787Y-64329571D01*
X189095358Y-64329571D02*
X189238215Y-64329571D01*
X189381072Y-64401000D01*
X189452501Y-64472429D01*
X189523930Y-64615286D01*
X189595358Y-64901000D01*
X189595358Y-65258143D01*
X189523930Y-65543857D01*
X189452501Y-65686714D01*
X189381072Y-65758143D01*
X189238215Y-65829571D01*
X189095358Y-65829571D01*
X188952501Y-65758143D01*
X188881072Y-65686714D01*
X188809644Y-65543857D01*
X188738215Y-65258143D01*
X188738215Y-64901000D01*
X188809644Y-64615286D01*
X188881072Y-64472429D01*
X188952501Y-64401000D01*
X189095358Y-64329571D01*
X191381072Y-65829571D02*
X191381072Y-64329571D01*
X192238215Y-65829571D02*
X191595358Y-64972429D01*
X192238215Y-64329571D02*
X191381072Y-65186714D01*
X193452500Y-65758143D02*
X193309643Y-65829571D01*
X193023929Y-65829571D01*
X192881072Y-65758143D01*
X192809643Y-65615286D01*
X192809643Y-65043857D01*
X192881072Y-64901000D01*
X193023929Y-64829571D01*
X193309643Y-64829571D01*
X193452500Y-64901000D01*
X193523929Y-65043857D01*
X193523929Y-65186714D01*
X192809643Y-65329571D01*
X194023929Y-64829571D02*
X194381072Y-65829571D01*
X194738214Y-64829571D02*
X194381072Y-65829571D01*
X194238214Y-66186714D01*
X194166786Y-66258143D01*
X194023929Y-66329571D01*
X195309643Y-65829571D02*
X195309643Y-64329571D01*
X195309643Y-64901000D02*
X195452500Y-64829571D01*
X195738214Y-64829571D01*
X195881071Y-64901000D01*
X195952500Y-64972429D01*
X196023929Y-65115286D01*
X196023929Y-65543857D01*
X195952500Y-65686714D01*
X195881071Y-65758143D01*
X195738214Y-65829571D01*
X195452500Y-65829571D01*
X195309643Y-65758143D01*
X196881072Y-65829571D02*
X196738214Y-65758143D01*
X196666786Y-65686714D01*
X196595357Y-65543857D01*
X196595357Y-65115286D01*
X196666786Y-64972429D01*
X196738214Y-64901000D01*
X196881072Y-64829571D01*
X197095357Y-64829571D01*
X197238214Y-64901000D01*
X197309643Y-64972429D01*
X197381072Y-65115286D01*
X197381072Y-65543857D01*
X197309643Y-65686714D01*
X197238214Y-65758143D01*
X197095357Y-65829571D01*
X196881072Y-65829571D01*
X198666786Y-65829571D02*
X198666786Y-65043857D01*
X198595357Y-64901000D01*
X198452500Y-64829571D01*
X198166786Y-64829571D01*
X198023929Y-64901000D01*
X198666786Y-65758143D02*
X198523929Y-65829571D01*
X198166786Y-65829571D01*
X198023929Y-65758143D01*
X197952500Y-65615286D01*
X197952500Y-65472429D01*
X198023929Y-65329571D01*
X198166786Y-65258143D01*
X198523929Y-65258143D01*
X198666786Y-65186714D01*
X199381072Y-65829571D02*
X199381072Y-64829571D01*
X199381072Y-65115286D02*
X199452500Y-64972429D01*
X199523929Y-64901000D01*
X199666786Y-64829571D01*
X199809643Y-64829571D01*
X200952500Y-65829571D02*
X200952500Y-64329571D01*
X200952500Y-65758143D02*
X200809643Y-65829571D01*
X200523929Y-65829571D01*
X200381071Y-65758143D01*
X200309643Y-65686714D01*
X200238214Y-65543857D01*
X200238214Y-65115286D01*
X200309643Y-64972429D01*
X200381071Y-64901000D01*
X200523929Y-64829571D01*
X200809643Y-64829571D01*
X200952500Y-64901000D01*
X202809643Y-65829571D02*
X202809643Y-64329571D01*
X203381071Y-64329571D01*
X203523929Y-64401000D01*
X203595357Y-64472429D01*
X203666786Y-64615286D01*
X203666786Y-64829571D01*
X203595357Y-64972429D01*
X203523929Y-65043857D01*
X203381071Y-65115286D01*
X202809643Y-65115286D01*
X204523929Y-65829571D02*
X204381071Y-65758143D01*
X204309643Y-65615286D01*
X204309643Y-64329571D01*
X205738214Y-65829571D02*
X205738214Y-65043857D01*
X205666785Y-64901000D01*
X205523928Y-64829571D01*
X205238214Y-64829571D01*
X205095357Y-64901000D01*
X205738214Y-65758143D02*
X205595357Y-65829571D01*
X205238214Y-65829571D01*
X205095357Y-65758143D01*
X205023928Y-65615286D01*
X205023928Y-65472429D01*
X205095357Y-65329571D01*
X205238214Y-65258143D01*
X205595357Y-65258143D01*
X205738214Y-65186714D01*
X206238214Y-64829571D02*
X206809643Y-64829571D01*
X206452500Y-64329571D02*
X206452500Y-65615286D01*
X206523928Y-65758143D01*
X206666786Y-65829571D01*
X206809643Y-65829571D01*
X207309643Y-65829571D02*
X207309643Y-64829571D01*
X207309643Y-64329571D02*
X207238214Y-64401000D01*
X207309643Y-64472429D01*
X207381071Y-64401000D01*
X207309643Y-64329571D01*
X207309643Y-64472429D01*
X208023929Y-64829571D02*
X208023929Y-65829571D01*
X208023929Y-64972429D02*
X208095357Y-64901000D01*
X208238215Y-64829571D01*
X208452500Y-64829571D01*
X208595357Y-64901000D01*
X208666786Y-65043857D01*
X208666786Y-65829571D01*
X209952500Y-65758143D02*
X209809643Y-65829571D01*
X209523929Y-65829571D01*
X209381072Y-65758143D01*
X209309643Y-65615286D01*
X209309643Y-65043857D01*
X209381072Y-64901000D01*
X209523929Y-64829571D01*
X209809643Y-64829571D01*
X209952500Y-64901000D01*
X210023929Y-65043857D01*
X210023929Y-65186714D01*
X209309643Y-65329571D01*
X210666786Y-64829571D02*
X210666786Y-65829571D01*
X210666786Y-64972429D02*
X210738214Y-64901000D01*
X210881072Y-64829571D01*
X211095357Y-64829571D01*
X211238214Y-64901000D01*
X211309643Y-65043857D01*
X211309643Y-65829571D01*
X212238215Y-65829571D02*
X212095357Y-65758143D01*
X212023929Y-65615286D01*
X212023929Y-64329571D01*
X213452500Y-65829571D02*
X213452500Y-65043857D01*
X213381071Y-64901000D01*
X213238214Y-64829571D01*
X212952500Y-64829571D01*
X212809643Y-64901000D01*
X213452500Y-65758143D02*
X213309643Y-65829571D01*
X212952500Y-65829571D01*
X212809643Y-65758143D01*
X212738214Y-65615286D01*
X212738214Y-65472429D01*
X212809643Y-65329571D01*
X212952500Y-65258143D01*
X213309643Y-65258143D01*
X213452500Y-65186714D01*
X214023929Y-64829571D02*
X214381072Y-65829571D01*
X214738214Y-64829571D02*
X214381072Y-65829571D01*
X214238214Y-66186714D01*
X214166786Y-66258143D01*
X214023929Y-66329571D01*
X215523929Y-65829571D02*
X215381071Y-65758143D01*
X215309643Y-65686714D01*
X215238214Y-65543857D01*
X215238214Y-65115286D01*
X215309643Y-64972429D01*
X215381071Y-64901000D01*
X215523929Y-64829571D01*
X215738214Y-64829571D01*
X215881071Y-64901000D01*
X215952500Y-64972429D01*
X216023929Y-65115286D01*
X216023929Y-65543857D01*
X215952500Y-65686714D01*
X215881071Y-65758143D01*
X215738214Y-65829571D01*
X215523929Y-65829571D01*
X217309643Y-64829571D02*
X217309643Y-65829571D01*
X216666786Y-64829571D02*
X216666786Y-65615286D01*
X216738214Y-65758143D01*
X216881072Y-65829571D01*
X217095357Y-65829571D01*
X217238214Y-65758143D01*
X217309643Y-65686714D01*
X217809643Y-64829571D02*
X218381072Y-64829571D01*
X218023929Y-64329571D02*
X218023929Y-65615286D01*
X218095357Y-65758143D01*
X218238215Y-65829571D01*
X218381072Y-65829571D01*
X220023929Y-65258143D02*
X221166786Y-65258143D01*
X222952500Y-64472429D02*
X223023929Y-64401000D01*
X223166786Y-64329571D01*
X223523929Y-64329571D01*
X223666786Y-64401000D01*
X223738215Y-64472429D01*
X223809643Y-64615286D01*
X223809643Y-64758143D01*
X223738215Y-64972429D01*
X222881072Y-65829571D01*
X223809643Y-65829571D01*
X224738214Y-64329571D02*
X224881071Y-64329571D01*
X225023928Y-64401000D01*
X225095357Y-64472429D01*
X225166786Y-64615286D01*
X225238214Y-64901000D01*
X225238214Y-65258143D01*
X225166786Y-65543857D01*
X225095357Y-65686714D01*
X225023928Y-65758143D01*
X224881071Y-65829571D01*
X224738214Y-65829571D01*
X224595357Y-65758143D01*
X224523928Y-65686714D01*
X224452500Y-65543857D01*
X224381071Y-65258143D01*
X224381071Y-64901000D01*
X224452500Y-64615286D01*
X224523928Y-64472429D01*
X224595357Y-64401000D01*
X224738214Y-64329571D01*
X226666785Y-65829571D02*
X225809642Y-65829571D01*
X226238214Y-65829571D02*
X226238214Y-64329571D01*
X226095357Y-64543857D01*
X225952499Y-64686714D01*
X225809642Y-64758143D01*
X227381070Y-65829571D02*
X227666785Y-65829571D01*
X227809642Y-65758143D01*
X227881070Y-65686714D01*
X228023928Y-65472429D01*
X228095356Y-65186714D01*
X228095356Y-64615286D01*
X228023928Y-64472429D01*
X227952499Y-64401000D01*
X227809642Y-64329571D01*
X227523928Y-64329571D01*
X227381070Y-64401000D01*
X227309642Y-64472429D01*
X227238213Y-64615286D01*
X227238213Y-64972429D01*
X227309642Y-65115286D01*
X227381070Y-65186714D01*
X227523928Y-65258143D01*
X227809642Y-65258143D01*
X227952499Y-65186714D01*
X228023928Y-65115286D01*
X228095356Y-64972429D01*
X229881070Y-65258143D02*
X231023927Y-65258143D01*
X233738213Y-65686714D02*
X233666784Y-65758143D01*
X233452498Y-65829571D01*
X233309641Y-65829571D01*
X233095356Y-65758143D01*
X232952498Y-65615286D01*
X232881070Y-65472429D01*
X232809641Y-65186714D01*
X232809641Y-64972429D01*
X232881070Y-64686714D01*
X232952498Y-64543857D01*
X233095356Y-64401000D01*
X233309641Y-64329571D01*
X233452498Y-64329571D01*
X233666784Y-64401000D01*
X233738213Y-64472429D01*
X234381070Y-65829571D02*
X234381070Y-64329571D01*
X235023927Y-65829571D02*
X235023927Y-65043857D01*
X234952498Y-64901000D01*
X234809641Y-64829571D01*
X234595356Y-64829571D01*
X234452498Y-64901000D01*
X234381070Y-64972429D01*
X235738213Y-65829571D02*
X235738213Y-64829571D01*
X235738213Y-65115286D02*
X235809641Y-64972429D01*
X235881070Y-64901000D01*
X236023927Y-64829571D01*
X236166784Y-64829571D01*
X236666784Y-65829571D02*
X236666784Y-64829571D01*
X236666784Y-64329571D02*
X236595355Y-64401000D01*
X236666784Y-64472429D01*
X236738212Y-64401000D01*
X236666784Y-64329571D01*
X236666784Y-64472429D01*
X237309641Y-65758143D02*
X237452498Y-65829571D01*
X237738213Y-65829571D01*
X237881070Y-65758143D01*
X237952498Y-65615286D01*
X237952498Y-65543857D01*
X237881070Y-65401000D01*
X237738213Y-65329571D01*
X237523927Y-65329571D01*
X237381070Y-65258143D01*
X237309641Y-65115286D01*
X237309641Y-65043857D01*
X237381070Y-64901000D01*
X237523927Y-64829571D01*
X237738213Y-64829571D01*
X237881070Y-64901000D01*
X238381070Y-64829571D02*
X238952499Y-64829571D01*
X238595356Y-64329571D02*
X238595356Y-65615286D01*
X238666784Y-65758143D01*
X238809642Y-65829571D01*
X238952499Y-65829571D01*
X239452499Y-65829571D02*
X239452499Y-64829571D01*
X239452499Y-64329571D02*
X239381070Y-64401000D01*
X239452499Y-64472429D01*
X239523927Y-64401000D01*
X239452499Y-64329571D01*
X239452499Y-64472429D01*
X240809642Y-65829571D02*
X240809642Y-65043857D01*
X240738213Y-64901000D01*
X240595356Y-64829571D01*
X240309642Y-64829571D01*
X240166785Y-64901000D01*
X240809642Y-65758143D02*
X240666785Y-65829571D01*
X240309642Y-65829571D01*
X240166785Y-65758143D01*
X240095356Y-65615286D01*
X240095356Y-65472429D01*
X240166785Y-65329571D01*
X240309642Y-65258143D01*
X240666785Y-65258143D01*
X240809642Y-65186714D01*
X241523928Y-64829571D02*
X241523928Y-65829571D01*
X241523928Y-64972429D02*
X241595356Y-64901000D01*
X241738214Y-64829571D01*
X241952499Y-64829571D01*
X242095356Y-64901000D01*
X242166785Y-65043857D01*
X242166785Y-65829571D01*
X243881071Y-64329571D02*
X244238214Y-65829571D01*
X244523928Y-64758143D01*
X244809642Y-65829571D01*
X245166785Y-64329571D01*
X246381071Y-65829571D02*
X246381071Y-65043857D01*
X246309642Y-64901000D01*
X246166785Y-64829571D01*
X245881071Y-64829571D01*
X245738214Y-64901000D01*
X246381071Y-65758143D02*
X246238214Y-65829571D01*
X245881071Y-65829571D01*
X245738214Y-65758143D01*
X245666785Y-65615286D01*
X245666785Y-65472429D01*
X245738214Y-65329571D01*
X245881071Y-65258143D01*
X246238214Y-65258143D01*
X246381071Y-65186714D01*
X247095357Y-65829571D02*
X247095357Y-64329571D01*
X247738214Y-65829571D02*
X247738214Y-65043857D01*
X247666785Y-64901000D01*
X247523928Y-64829571D01*
X247309643Y-64829571D01*
X247166785Y-64901000D01*
X247095357Y-64972429D01*
X248666786Y-65829571D02*
X248523928Y-65758143D01*
X248452500Y-65615286D01*
X248452500Y-64329571D01*
X249238214Y-65829571D02*
X249238214Y-64829571D01*
X249238214Y-64972429D02*
X249309642Y-64901000D01*
X249452500Y-64829571D01*
X249666785Y-64829571D01*
X249809642Y-64901000D01*
X249881071Y-65043857D01*
X249881071Y-65829571D01*
X249881071Y-65043857D02*
X249952500Y-64901000D01*
X250095357Y-64829571D01*
X250309642Y-64829571D01*
X250452500Y-64901000D01*
X250523928Y-65043857D01*
X250523928Y-65829571D01*
X251881071Y-65829571D02*
X251881071Y-65043857D01*
X251809642Y-64901000D01*
X251666785Y-64829571D01*
X251381071Y-64829571D01*
X251238214Y-64901000D01*
X251881071Y-65758143D02*
X251738214Y-65829571D01*
X251381071Y-65829571D01*
X251238214Y-65758143D01*
X251166785Y-65615286D01*
X251166785Y-65472429D01*
X251238214Y-65329571D01*
X251381071Y-65258143D01*
X251738214Y-65258143D01*
X251881071Y-65186714D01*
X252595357Y-64829571D02*
X252595357Y-65829571D01*
X252595357Y-64972429D02*
X252666785Y-64901000D01*
X252809643Y-64829571D01*
X253023928Y-64829571D01*
X253166785Y-64901000D01*
X253238214Y-65043857D01*
X253238214Y-65829571D01*
X253952500Y-64829571D02*
X253952500Y-65829571D01*
X253952500Y-64972429D02*
X254023928Y-64901000D01*
X254166786Y-64829571D01*
X254381071Y-64829571D01*
X254523928Y-64901000D01*
X254595357Y-65043857D01*
X254595357Y-65829571D01*
D14*
X193304000Y-123328000D02*
X197804000Y-123328000D01*
X192054000Y-119328000D02*
X192054000Y-120828000D01*
X197804000Y-116828000D02*
X193304000Y-116828000D01*
X199054000Y-120828000D02*
X199054000Y-119328000D01*
X180004000Y-123328000D02*
X184504000Y-123328000D01*
X178754000Y-119328000D02*
X178754000Y-120828000D01*
X184504000Y-116828000D02*
X180004000Y-116828000D01*
X185754000Y-120828000D02*
X185754000Y-119328000D01*
X213254000Y-109328000D02*
X217754000Y-109328000D01*
X212004000Y-105328000D02*
X212004000Y-106828000D01*
X217754000Y-102828000D02*
X213254000Y-102828000D01*
X219004000Y-106828000D02*
X219004000Y-105328000D01*
X177484000Y-81328000D02*
X181984000Y-81328000D01*
X176234000Y-77328000D02*
X176234000Y-78828000D01*
X181984000Y-74828000D02*
X177484000Y-74828000D01*
X183234000Y-78828000D02*
X183234000Y-77328000D01*
X137584000Y-81328000D02*
X142084000Y-81328000D01*
X136334000Y-77328000D02*
X136334000Y-78828000D01*
X142084000Y-74828000D02*
X137584000Y-74828000D01*
X143334000Y-78828000D02*
X143334000Y-77328000D01*
X97684000Y-81328000D02*
X102184000Y-81328000D01*
X96434000Y-77328000D02*
X96434000Y-78828000D01*
X102184000Y-74828000D02*
X97684000Y-74828000D01*
X103434000Y-78828000D02*
X103434000Y-77328000D01*
X230684000Y-81328000D02*
X235184000Y-81328000D01*
X229434000Y-77328000D02*
X229434000Y-78828000D01*
X235184000Y-74828000D02*
X230684000Y-74828000D01*
X236434000Y-78828000D02*
X236434000Y-77328000D01*
X206604000Y-123328000D02*
X211104000Y-123328000D01*
X205354000Y-119328000D02*
X205354000Y-120828000D01*
X211104000Y-116828000D02*
X206604000Y-116828000D01*
X212354000Y-120828000D02*
X212354000Y-119328000D01*
X190784000Y-81328000D02*
X195284000Y-81328000D01*
X189534000Y-77328000D02*
X189534000Y-78828000D01*
X195284000Y-74828000D02*
X190784000Y-74828000D01*
X196534000Y-78828000D02*
X196534000Y-77328000D01*
X150884000Y-81328000D02*
X155384000Y-81328000D01*
X149634000Y-77328000D02*
X149634000Y-78828000D01*
X155384000Y-74828000D02*
X150884000Y-74828000D01*
X156634000Y-78828000D02*
X156634000Y-77328000D01*
X110984000Y-81328000D02*
X115484000Y-81328000D01*
X109734000Y-77328000D02*
X109734000Y-78828000D01*
X115484000Y-74828000D02*
X110984000Y-74828000D01*
X116734000Y-78828000D02*
X116734000Y-77328000D01*
X217384000Y-81328000D02*
X221884000Y-81328000D01*
X216134000Y-77328000D02*
X216134000Y-78828000D01*
X221884000Y-74828000D02*
X217384000Y-74828000D01*
X223134000Y-78828000D02*
X223134000Y-77328000D01*
X219904000Y-123328000D02*
X224404000Y-123328000D01*
X218654000Y-119328000D02*
X218654000Y-120828000D01*
X224404000Y-116828000D02*
X219904000Y-116828000D01*
X225654000Y-120828000D02*
X225654000Y-119328000D01*
X204084000Y-81328000D02*
X208584000Y-81328000D01*
X202834000Y-77328000D02*
X202834000Y-78828000D01*
X208584000Y-74828000D02*
X204084000Y-74828000D01*
X209834000Y-78828000D02*
X209834000Y-77328000D01*
X164184000Y-81328000D02*
X168684000Y-81328000D01*
X162934000Y-77328000D02*
X162934000Y-78828000D01*
X168684000Y-74828000D02*
X164184000Y-74828000D01*
X169934000Y-78828000D02*
X169934000Y-77328000D01*
X124284000Y-81328000D02*
X128784000Y-81328000D01*
X123034000Y-77328000D02*
X123034000Y-78828000D01*
X128784000Y-74828000D02*
X124284000Y-74828000D01*
X130034000Y-78828000D02*
X130034000Y-77328000D01*
X106854000Y-109328000D02*
X111354000Y-109328000D01*
X105604000Y-105328000D02*
X105604000Y-106828000D01*
X111354000Y-102828000D02*
X106854000Y-102828000D01*
X112604000Y-106828000D02*
X112604000Y-105328000D01*
X146754000Y-109328000D02*
X151254000Y-109328000D01*
X145504000Y-105328000D02*
X145504000Y-106828000D01*
X151254000Y-102828000D02*
X146754000Y-102828000D01*
X152504000Y-106828000D02*
X152504000Y-105328000D01*
X199954000Y-109328000D02*
X204454000Y-109328000D01*
X198704000Y-105328000D02*
X198704000Y-106828000D01*
X204454000Y-102828000D02*
X199954000Y-102828000D01*
X205704000Y-106828000D02*
X205704000Y-105328000D01*
X223194000Y-95328000D02*
X227694000Y-95328000D01*
X221944000Y-91328000D02*
X221944000Y-92828000D01*
X227694000Y-88828000D02*
X223194000Y-88828000D01*
X228944000Y-92828000D02*
X228944000Y-91328000D01*
X183294000Y-95328000D02*
X187794000Y-95328000D01*
X182044000Y-91328000D02*
X182044000Y-92828000D01*
X187794000Y-88828000D02*
X183294000Y-88828000D01*
X189044000Y-92828000D02*
X189044000Y-91328000D01*
X113504000Y-123328000D02*
X118004000Y-123328000D01*
X112254000Y-119328000D02*
X112254000Y-120828000D01*
X118004000Y-116828000D02*
X113504000Y-116828000D01*
X119254000Y-120828000D02*
X119254000Y-119328000D01*
X166704000Y-123328000D02*
X171204000Y-123328000D01*
X165454000Y-119328000D02*
X165454000Y-120828000D01*
X171204000Y-116828000D02*
X166704000Y-116828000D01*
X172454000Y-120828000D02*
X172454000Y-119328000D01*
X160054000Y-109328000D02*
X164554000Y-109328000D01*
X158804000Y-105328000D02*
X158804000Y-106828000D01*
X164554000Y-102828000D02*
X160054000Y-102828000D01*
X165804000Y-106828000D02*
X165804000Y-105328000D01*
X103494000Y-95328000D02*
X107994000Y-95328000D01*
X102244000Y-91328000D02*
X102244000Y-92828000D01*
X107994000Y-88828000D02*
X103494000Y-88828000D01*
X109244000Y-92828000D02*
X109244000Y-91328000D01*
X153404000Y-123328000D02*
X157904000Y-123328000D01*
X152154000Y-119328000D02*
X152154000Y-120828000D01*
X157904000Y-116828000D02*
X153404000Y-116828000D01*
X159154000Y-120828000D02*
X159154000Y-119328000D01*
X236529000Y-123328000D02*
X241029000Y-123328000D01*
X235279000Y-119328000D02*
X235279000Y-120828000D01*
X241029000Y-116828000D02*
X236529000Y-116828000D01*
X242279000Y-120828000D02*
X242279000Y-119328000D01*
X226554000Y-109328000D02*
X231054000Y-109328000D01*
X225304000Y-105328000D02*
X225304000Y-106828000D01*
X231054000Y-102828000D02*
X226554000Y-102828000D01*
X232304000Y-106828000D02*
X232304000Y-105328000D01*
X140104000Y-123328000D02*
X144604000Y-123328000D01*
X138854000Y-119328000D02*
X138854000Y-120828000D01*
X144604000Y-116828000D02*
X140104000Y-116828000D01*
X145854000Y-120828000D02*
X145854000Y-119328000D01*
X173354000Y-109328000D02*
X177854000Y-109328000D01*
X172104000Y-105328000D02*
X172104000Y-106828000D01*
X177854000Y-102828000D02*
X173354000Y-102828000D01*
X179104000Y-106828000D02*
X179104000Y-105328000D01*
X143394000Y-95328000D02*
X147894000Y-95328000D01*
X142144000Y-91328000D02*
X142144000Y-92828000D01*
X147894000Y-88828000D02*
X143394000Y-88828000D01*
X149144000Y-92828000D02*
X149144000Y-91328000D01*
X116794000Y-95328000D02*
X121294000Y-95328000D01*
X115544000Y-91328000D02*
X115544000Y-92828000D01*
X121294000Y-88828000D02*
X116794000Y-88828000D01*
X122544000Y-92828000D02*
X122544000Y-91328000D01*
X239854000Y-109328000D02*
X244354000Y-109328000D01*
X238604000Y-105328000D02*
X238604000Y-106828000D01*
X244354000Y-102828000D02*
X239854000Y-102828000D01*
X245604000Y-106828000D02*
X245604000Y-105328000D01*
X133454000Y-109328000D02*
X137954000Y-109328000D01*
X132204000Y-105328000D02*
X132204000Y-106828000D01*
X137954000Y-102828000D02*
X133454000Y-102828000D01*
X139204000Y-106828000D02*
X139204000Y-105328000D01*
X196594000Y-95328000D02*
X201094000Y-95328000D01*
X195344000Y-91328000D02*
X195344000Y-92828000D01*
X201094000Y-88828000D02*
X196594000Y-88828000D01*
X202344000Y-92828000D02*
X202344000Y-91328000D01*
X120154000Y-109328000D02*
X124654000Y-109328000D01*
X118904000Y-105328000D02*
X118904000Y-106828000D01*
X124654000Y-102828000D02*
X120154000Y-102828000D01*
X125904000Y-106828000D02*
X125904000Y-105328000D01*
X126804000Y-123328000D02*
X131304000Y-123328000D01*
X125554000Y-119328000D02*
X125554000Y-120828000D01*
X131304000Y-116828000D02*
X126804000Y-116828000D01*
X132554000Y-120828000D02*
X132554000Y-119328000D01*
X93554000Y-109328000D02*
X98054000Y-109328000D01*
X92304000Y-105328000D02*
X92304000Y-106828000D01*
X98054000Y-102828000D02*
X93554000Y-102828000D01*
X99304000Y-106828000D02*
X99304000Y-105328000D01*
X96879000Y-123328000D02*
X101379000Y-123328000D01*
X95629000Y-119328000D02*
X95629000Y-120828000D01*
X101379000Y-116828000D02*
X96879000Y-116828000D01*
X102629000Y-120828000D02*
X102629000Y-119328000D01*
X130094000Y-95328000D02*
X134594000Y-95328000D01*
X128844000Y-91328000D02*
X128844000Y-92828000D01*
X134594000Y-88828000D02*
X130094000Y-88828000D01*
X135844000Y-92828000D02*
X135844000Y-91328000D01*
X186654000Y-109328000D02*
X191154000Y-109328000D01*
X185404000Y-105328000D02*
X185404000Y-106828000D01*
X191154000Y-102828000D02*
X186654000Y-102828000D01*
X192404000Y-106828000D02*
X192404000Y-105328000D01*
X209894000Y-95328000D02*
X214394000Y-95328000D01*
X208644000Y-91328000D02*
X208644000Y-92828000D01*
X214394000Y-88828000D02*
X209894000Y-88828000D01*
X215644000Y-92828000D02*
X215644000Y-91328000D01*
X156694000Y-95328000D02*
X161194000Y-95328000D01*
X155444000Y-91328000D02*
X155444000Y-92828000D01*
X161194000Y-88828000D02*
X156694000Y-88828000D01*
X162444000Y-92828000D02*
X162444000Y-91328000D01*
X169994000Y-95328000D02*
X174494000Y-95328000D01*
X168744000Y-91328000D02*
X168744000Y-92828000D01*
X174494000Y-88828000D02*
X169994000Y-88828000D01*
X175744000Y-92828000D02*
X175744000Y-91328000D01*
X238174000Y-95328000D02*
X242674000Y-95328000D01*
X236924000Y-91328000D02*
X236924000Y-92828000D01*
X242674000Y-88828000D02*
X238174000Y-88828000D01*
X243924000Y-92828000D02*
X243924000Y-91328000D01*
X94294000Y-70083000D02*
X147694000Y-70083000D01*
X147694000Y-70083000D02*
X147694000Y-67423000D01*
X147694000Y-67423000D02*
X94294000Y-67423000D01*
X94294000Y-67423000D02*
X94294000Y-70083000D01*
X93024000Y-70083000D02*
X91694000Y-70083000D01*
X91694000Y-70083000D02*
X91694000Y-68753000D01*
X243968000Y-76256000D02*
X247388000Y-76256000D01*
X243968000Y-78776000D02*
X247388000Y-78776000D01*
X243968000Y-76256000D02*
X243968000Y-76436000D01*
X243968000Y-78596000D02*
X243968000Y-78776000D01*
X247388000Y-76256000D02*
X247388000Y-76421000D01*
X247388000Y-78611000D02*
X247388000Y-78776000D01*
X244088000Y-76256000D02*
X244088000Y-76436000D01*
X244088000Y-78596000D02*
X244088000Y-78776000D01*
X244208000Y-76256000D02*
X244208000Y-76436000D01*
X244208000Y-78596000D02*
X244208000Y-78776000D01*
X160394000Y-70083000D02*
X160394000Y-67423000D01*
X157794000Y-70083000D02*
X160394000Y-70083000D01*
X157794000Y-67423000D02*
X160394000Y-67423000D01*
X157794000Y-70083000D02*
X157794000Y-67423000D01*
X156524000Y-70083000D02*
X155194000Y-70083000D01*
X155194000Y-70083000D02*
X155194000Y-68753000D01*
X165929000Y-67313500D02*
X165929000Y-69973500D01*
X168529000Y-67313500D02*
X165929000Y-67313500D01*
X168529000Y-69973500D02*
X165929000Y-69973500D01*
X168529000Y-67313500D02*
X168529000Y-69973500D01*
X169799000Y-67313500D02*
X171129000Y-67313500D01*
X171129000Y-67313500D02*
X171129000Y-68643500D01*
X237027000Y-70006000D02*
X237027000Y-71726000D01*
X237027000Y-71726000D02*
X240747000Y-71726000D01*
X240747000Y-71726000D02*
X240747000Y-70006000D01*
X240747000Y-70006000D02*
X237027000Y-70006000D01*
X235957000Y-70866000D02*
X237027000Y-70866000D01*
X241817000Y-70866000D02*
X240747000Y-70866000D01*
D15*
X193744476Y-116232762D02*
X193887333Y-116280381D01*
X194125429Y-116280381D01*
X194220667Y-116232762D01*
X194268286Y-116185143D01*
X194315905Y-116089905D01*
X194315905Y-115994667D01*
X194268286Y-115899429D01*
X194220667Y-115851810D01*
X194125429Y-115804190D01*
X193934952Y-115756571D01*
X193839714Y-115708952D01*
X193792095Y-115661333D01*
X193744476Y-115566095D01*
X193744476Y-115470857D01*
X193792095Y-115375619D01*
X193839714Y-115328000D01*
X193934952Y-115280381D01*
X194173048Y-115280381D01*
X194315905Y-115328000D01*
X194649238Y-115280381D02*
X194887333Y-116280381D01*
X195077810Y-115566095D01*
X195268286Y-116280381D01*
X195506381Y-115280381D01*
X195839714Y-115375619D02*
X195887333Y-115328000D01*
X195982571Y-115280381D01*
X196220667Y-115280381D01*
X196315905Y-115328000D01*
X196363524Y-115375619D01*
X196411143Y-115470857D01*
X196411143Y-115566095D01*
X196363524Y-115708952D01*
X195792095Y-116280381D01*
X196411143Y-116280381D01*
X196887333Y-116280381D02*
X197077809Y-116280381D01*
X197173048Y-116232762D01*
X197220667Y-116185143D01*
X197315905Y-116042286D01*
X197363524Y-115851810D01*
X197363524Y-115470857D01*
X197315905Y-115375619D01*
X197268286Y-115328000D01*
X197173048Y-115280381D01*
X196982571Y-115280381D01*
X196887333Y-115328000D01*
X196839714Y-115375619D01*
X196792095Y-115470857D01*
X196792095Y-115708952D01*
X196839714Y-115804190D01*
X196887333Y-115851810D01*
X196982571Y-115899429D01*
X197173048Y-115899429D01*
X197268286Y-115851810D01*
X197315905Y-115804190D01*
X197363524Y-115708952D01*
X180444476Y-116232762D02*
X180587333Y-116280381D01*
X180825429Y-116280381D01*
X180920667Y-116232762D01*
X180968286Y-116185143D01*
X181015905Y-116089905D01*
X181015905Y-115994667D01*
X180968286Y-115899429D01*
X180920667Y-115851810D01*
X180825429Y-115804190D01*
X180634952Y-115756571D01*
X180539714Y-115708952D01*
X180492095Y-115661333D01*
X180444476Y-115566095D01*
X180444476Y-115470857D01*
X180492095Y-115375619D01*
X180539714Y-115328000D01*
X180634952Y-115280381D01*
X180873048Y-115280381D01*
X181015905Y-115328000D01*
X181349238Y-115280381D02*
X181587333Y-116280381D01*
X181777810Y-115566095D01*
X181968286Y-116280381D01*
X182206381Y-115280381D01*
X182492095Y-115280381D02*
X183111143Y-115280381D01*
X182777809Y-115661333D01*
X182920667Y-115661333D01*
X183015905Y-115708952D01*
X183063524Y-115756571D01*
X183111143Y-115851810D01*
X183111143Y-116089905D01*
X183063524Y-116185143D01*
X183015905Y-116232762D01*
X182920667Y-116280381D01*
X182634952Y-116280381D01*
X182539714Y-116232762D01*
X182492095Y-116185143D01*
X184015905Y-115280381D02*
X183539714Y-115280381D01*
X183492095Y-115756571D01*
X183539714Y-115708952D01*
X183634952Y-115661333D01*
X183873048Y-115661333D01*
X183968286Y-115708952D01*
X184015905Y-115756571D01*
X184063524Y-115851810D01*
X184063524Y-116089905D01*
X184015905Y-116185143D01*
X183968286Y-116232762D01*
X183873048Y-116280381D01*
X183634952Y-116280381D01*
X183539714Y-116232762D01*
X183492095Y-116185143D01*
X213694476Y-102232762D02*
X213837333Y-102280381D01*
X214075429Y-102280381D01*
X214170667Y-102232762D01*
X214218286Y-102185143D01*
X214265905Y-102089905D01*
X214265905Y-101994667D01*
X214218286Y-101899429D01*
X214170667Y-101851810D01*
X214075429Y-101804190D01*
X213884952Y-101756571D01*
X213789714Y-101708952D01*
X213742095Y-101661333D01*
X213694476Y-101566095D01*
X213694476Y-101470857D01*
X213742095Y-101375619D01*
X213789714Y-101328000D01*
X213884952Y-101280381D01*
X214123048Y-101280381D01*
X214265905Y-101328000D01*
X214599238Y-101280381D02*
X214837333Y-102280381D01*
X215027810Y-101566095D01*
X215218286Y-102280381D01*
X215456381Y-101280381D01*
X215789714Y-101375619D02*
X215837333Y-101328000D01*
X215932571Y-101280381D01*
X216170667Y-101280381D01*
X216265905Y-101328000D01*
X216313524Y-101375619D01*
X216361143Y-101470857D01*
X216361143Y-101566095D01*
X216313524Y-101708952D01*
X215742095Y-102280381D01*
X216361143Y-102280381D01*
X216742095Y-101375619D02*
X216789714Y-101328000D01*
X216884952Y-101280381D01*
X217123048Y-101280381D01*
X217218286Y-101328000D01*
X217265905Y-101375619D01*
X217313524Y-101470857D01*
X217313524Y-101566095D01*
X217265905Y-101708952D01*
X216694476Y-102280381D01*
X217313524Y-102280381D01*
X178400667Y-74232762D02*
X178543524Y-74280381D01*
X178781620Y-74280381D01*
X178876858Y-74232762D01*
X178924477Y-74185143D01*
X178972096Y-74089905D01*
X178972096Y-73994667D01*
X178924477Y-73899429D01*
X178876858Y-73851810D01*
X178781620Y-73804190D01*
X178591143Y-73756571D01*
X178495905Y-73708952D01*
X178448286Y-73661333D01*
X178400667Y-73566095D01*
X178400667Y-73470857D01*
X178448286Y-73375619D01*
X178495905Y-73328000D01*
X178591143Y-73280381D01*
X178829239Y-73280381D01*
X178972096Y-73328000D01*
X179305429Y-73280381D02*
X179543524Y-74280381D01*
X179734001Y-73566095D01*
X179924477Y-74280381D01*
X180162572Y-73280381D01*
X181067334Y-74280381D02*
X180495905Y-74280381D01*
X180781619Y-74280381D02*
X180781619Y-73280381D01*
X180686381Y-73423238D01*
X180591143Y-73518476D01*
X180495905Y-73566095D01*
X138500667Y-74232762D02*
X138643524Y-74280381D01*
X138881620Y-74280381D01*
X138976858Y-74232762D01*
X139024477Y-74185143D01*
X139072096Y-74089905D01*
X139072096Y-73994667D01*
X139024477Y-73899429D01*
X138976858Y-73851810D01*
X138881620Y-73804190D01*
X138691143Y-73756571D01*
X138595905Y-73708952D01*
X138548286Y-73661333D01*
X138500667Y-73566095D01*
X138500667Y-73470857D01*
X138548286Y-73375619D01*
X138595905Y-73328000D01*
X138691143Y-73280381D01*
X138929239Y-73280381D01*
X139072096Y-73328000D01*
X139405429Y-73280381D02*
X139643524Y-74280381D01*
X139834001Y-73566095D01*
X140024477Y-74280381D01*
X140262572Y-73280381D01*
X140595905Y-73375619D02*
X140643524Y-73328000D01*
X140738762Y-73280381D01*
X140976858Y-73280381D01*
X141072096Y-73328000D01*
X141119715Y-73375619D01*
X141167334Y-73470857D01*
X141167334Y-73566095D01*
X141119715Y-73708952D01*
X140548286Y-74280381D01*
X141167334Y-74280381D01*
X98600667Y-74232762D02*
X98743524Y-74280381D01*
X98981620Y-74280381D01*
X99076858Y-74232762D01*
X99124477Y-74185143D01*
X99172096Y-74089905D01*
X99172096Y-73994667D01*
X99124477Y-73899429D01*
X99076858Y-73851810D01*
X98981620Y-73804190D01*
X98791143Y-73756571D01*
X98695905Y-73708952D01*
X98648286Y-73661333D01*
X98600667Y-73566095D01*
X98600667Y-73470857D01*
X98648286Y-73375619D01*
X98695905Y-73328000D01*
X98791143Y-73280381D01*
X99029239Y-73280381D01*
X99172096Y-73328000D01*
X99505429Y-73280381D02*
X99743524Y-74280381D01*
X99934001Y-73566095D01*
X100124477Y-74280381D01*
X100362572Y-73280381D01*
X100648286Y-73280381D02*
X101267334Y-73280381D01*
X100934000Y-73661333D01*
X101076858Y-73661333D01*
X101172096Y-73708952D01*
X101219715Y-73756571D01*
X101267334Y-73851810D01*
X101267334Y-74089905D01*
X101219715Y-74185143D01*
X101172096Y-74232762D01*
X101076858Y-74280381D01*
X100791143Y-74280381D01*
X100695905Y-74232762D01*
X100648286Y-74185143D01*
X231600667Y-74232762D02*
X231743524Y-74280381D01*
X231981620Y-74280381D01*
X232076858Y-74232762D01*
X232124477Y-74185143D01*
X232172096Y-74089905D01*
X232172096Y-73994667D01*
X232124477Y-73899429D01*
X232076858Y-73851810D01*
X231981620Y-73804190D01*
X231791143Y-73756571D01*
X231695905Y-73708952D01*
X231648286Y-73661333D01*
X231600667Y-73566095D01*
X231600667Y-73470857D01*
X231648286Y-73375619D01*
X231695905Y-73328000D01*
X231791143Y-73280381D01*
X232029239Y-73280381D01*
X232172096Y-73328000D01*
X232505429Y-73280381D02*
X232743524Y-74280381D01*
X232934001Y-73566095D01*
X233124477Y-74280381D01*
X233362572Y-73280381D01*
X234172096Y-73613714D02*
X234172096Y-74280381D01*
X233934000Y-73232762D02*
X233695905Y-73947048D01*
X234314953Y-73947048D01*
X207520667Y-116232762D02*
X207663524Y-116280381D01*
X207901620Y-116280381D01*
X207996858Y-116232762D01*
X208044477Y-116185143D01*
X208092096Y-116089905D01*
X208092096Y-115994667D01*
X208044477Y-115899429D01*
X207996858Y-115851810D01*
X207901620Y-115804190D01*
X207711143Y-115756571D01*
X207615905Y-115708952D01*
X207568286Y-115661333D01*
X207520667Y-115566095D01*
X207520667Y-115470857D01*
X207568286Y-115375619D01*
X207615905Y-115328000D01*
X207711143Y-115280381D01*
X207949239Y-115280381D01*
X208092096Y-115328000D01*
X208425429Y-115280381D02*
X208663524Y-116280381D01*
X208854001Y-115566095D01*
X209044477Y-116280381D01*
X209282572Y-115280381D01*
X210139715Y-115280381D02*
X209663524Y-115280381D01*
X209615905Y-115756571D01*
X209663524Y-115708952D01*
X209758762Y-115661333D01*
X209996858Y-115661333D01*
X210092096Y-115708952D01*
X210139715Y-115756571D01*
X210187334Y-115851810D01*
X210187334Y-116089905D01*
X210139715Y-116185143D01*
X210092096Y-116232762D01*
X209996858Y-116280381D01*
X209758762Y-116280381D01*
X209663524Y-116232762D01*
X209615905Y-116185143D01*
X191700667Y-74232762D02*
X191843524Y-74280381D01*
X192081620Y-74280381D01*
X192176858Y-74232762D01*
X192224477Y-74185143D01*
X192272096Y-74089905D01*
X192272096Y-73994667D01*
X192224477Y-73899429D01*
X192176858Y-73851810D01*
X192081620Y-73804190D01*
X191891143Y-73756571D01*
X191795905Y-73708952D01*
X191748286Y-73661333D01*
X191700667Y-73566095D01*
X191700667Y-73470857D01*
X191748286Y-73375619D01*
X191795905Y-73328000D01*
X191891143Y-73280381D01*
X192129239Y-73280381D01*
X192272096Y-73328000D01*
X192605429Y-73280381D02*
X192843524Y-74280381D01*
X193034001Y-73566095D01*
X193224477Y-74280381D01*
X193462572Y-73280381D01*
X194272096Y-73280381D02*
X194081619Y-73280381D01*
X193986381Y-73328000D01*
X193938762Y-73375619D01*
X193843524Y-73518476D01*
X193795905Y-73708952D01*
X193795905Y-74089905D01*
X193843524Y-74185143D01*
X193891143Y-74232762D01*
X193986381Y-74280381D01*
X194176858Y-74280381D01*
X194272096Y-74232762D01*
X194319715Y-74185143D01*
X194367334Y-74089905D01*
X194367334Y-73851810D01*
X194319715Y-73756571D01*
X194272096Y-73708952D01*
X194176858Y-73661333D01*
X193986381Y-73661333D01*
X193891143Y-73708952D01*
X193843524Y-73756571D01*
X193795905Y-73851810D01*
X151800667Y-74232762D02*
X151943524Y-74280381D01*
X152181620Y-74280381D01*
X152276858Y-74232762D01*
X152324477Y-74185143D01*
X152372096Y-74089905D01*
X152372096Y-73994667D01*
X152324477Y-73899429D01*
X152276858Y-73851810D01*
X152181620Y-73804190D01*
X151991143Y-73756571D01*
X151895905Y-73708952D01*
X151848286Y-73661333D01*
X151800667Y-73566095D01*
X151800667Y-73470857D01*
X151848286Y-73375619D01*
X151895905Y-73328000D01*
X151991143Y-73280381D01*
X152229239Y-73280381D01*
X152372096Y-73328000D01*
X152705429Y-73280381D02*
X152943524Y-74280381D01*
X153134001Y-73566095D01*
X153324477Y-74280381D01*
X153562572Y-73280381D01*
X153848286Y-73280381D02*
X154514953Y-73280381D01*
X154086381Y-74280381D01*
X111900667Y-74232762D02*
X112043524Y-74280381D01*
X112281620Y-74280381D01*
X112376858Y-74232762D01*
X112424477Y-74185143D01*
X112472096Y-74089905D01*
X112472096Y-73994667D01*
X112424477Y-73899429D01*
X112376858Y-73851810D01*
X112281620Y-73804190D01*
X112091143Y-73756571D01*
X111995905Y-73708952D01*
X111948286Y-73661333D01*
X111900667Y-73566095D01*
X111900667Y-73470857D01*
X111948286Y-73375619D01*
X111995905Y-73328000D01*
X112091143Y-73280381D01*
X112329239Y-73280381D01*
X112472096Y-73328000D01*
X112805429Y-73280381D02*
X113043524Y-74280381D01*
X113234001Y-73566095D01*
X113424477Y-74280381D01*
X113662572Y-73280381D01*
X114186381Y-73708952D02*
X114091143Y-73661333D01*
X114043524Y-73613714D01*
X113995905Y-73518476D01*
X113995905Y-73470857D01*
X114043524Y-73375619D01*
X114091143Y-73328000D01*
X114186381Y-73280381D01*
X114376858Y-73280381D01*
X114472096Y-73328000D01*
X114519715Y-73375619D01*
X114567334Y-73470857D01*
X114567334Y-73518476D01*
X114519715Y-73613714D01*
X114472096Y-73661333D01*
X114376858Y-73708952D01*
X114186381Y-73708952D01*
X114091143Y-73756571D01*
X114043524Y-73804190D01*
X113995905Y-73899429D01*
X113995905Y-74089905D01*
X114043524Y-74185143D01*
X114091143Y-74232762D01*
X114186381Y-74280381D01*
X114376858Y-74280381D01*
X114472096Y-74232762D01*
X114519715Y-74185143D01*
X114567334Y-74089905D01*
X114567334Y-73899429D01*
X114519715Y-73804190D01*
X114472096Y-73756571D01*
X114376858Y-73708952D01*
X218300667Y-74232762D02*
X218443524Y-74280381D01*
X218681620Y-74280381D01*
X218776858Y-74232762D01*
X218824477Y-74185143D01*
X218872096Y-74089905D01*
X218872096Y-73994667D01*
X218824477Y-73899429D01*
X218776858Y-73851810D01*
X218681620Y-73804190D01*
X218491143Y-73756571D01*
X218395905Y-73708952D01*
X218348286Y-73661333D01*
X218300667Y-73566095D01*
X218300667Y-73470857D01*
X218348286Y-73375619D01*
X218395905Y-73328000D01*
X218491143Y-73280381D01*
X218729239Y-73280381D01*
X218872096Y-73328000D01*
X219205429Y-73280381D02*
X219443524Y-74280381D01*
X219634001Y-73566095D01*
X219824477Y-74280381D01*
X220062572Y-73280381D01*
X220491143Y-74280381D02*
X220681619Y-74280381D01*
X220776858Y-74232762D01*
X220824477Y-74185143D01*
X220919715Y-74042286D01*
X220967334Y-73851810D01*
X220967334Y-73470857D01*
X220919715Y-73375619D01*
X220872096Y-73328000D01*
X220776858Y-73280381D01*
X220586381Y-73280381D01*
X220491143Y-73328000D01*
X220443524Y-73375619D01*
X220395905Y-73470857D01*
X220395905Y-73708952D01*
X220443524Y-73804190D01*
X220491143Y-73851810D01*
X220586381Y-73899429D01*
X220776858Y-73899429D01*
X220872096Y-73851810D01*
X220919715Y-73804190D01*
X220967334Y-73708952D01*
X220344476Y-116232762D02*
X220487333Y-116280381D01*
X220725429Y-116280381D01*
X220820667Y-116232762D01*
X220868286Y-116185143D01*
X220915905Y-116089905D01*
X220915905Y-115994667D01*
X220868286Y-115899429D01*
X220820667Y-115851810D01*
X220725429Y-115804190D01*
X220534952Y-115756571D01*
X220439714Y-115708952D01*
X220392095Y-115661333D01*
X220344476Y-115566095D01*
X220344476Y-115470857D01*
X220392095Y-115375619D01*
X220439714Y-115328000D01*
X220534952Y-115280381D01*
X220773048Y-115280381D01*
X220915905Y-115328000D01*
X221249238Y-115280381D02*
X221487333Y-116280381D01*
X221677810Y-115566095D01*
X221868286Y-116280381D01*
X222106381Y-115280381D01*
X223011143Y-116280381D02*
X222439714Y-116280381D01*
X222725428Y-116280381D02*
X222725428Y-115280381D01*
X222630190Y-115423238D01*
X222534952Y-115518476D01*
X222439714Y-115566095D01*
X223630190Y-115280381D02*
X223725429Y-115280381D01*
X223820667Y-115328000D01*
X223868286Y-115375619D01*
X223915905Y-115470857D01*
X223963524Y-115661333D01*
X223963524Y-115899429D01*
X223915905Y-116089905D01*
X223868286Y-116185143D01*
X223820667Y-116232762D01*
X223725429Y-116280381D01*
X223630190Y-116280381D01*
X223534952Y-116232762D01*
X223487333Y-116185143D01*
X223439714Y-116089905D01*
X223392095Y-115899429D01*
X223392095Y-115661333D01*
X223439714Y-115470857D01*
X223487333Y-115375619D01*
X223534952Y-115328000D01*
X223630190Y-115280381D01*
X204524476Y-74232762D02*
X204667333Y-74280381D01*
X204905429Y-74280381D01*
X205000667Y-74232762D01*
X205048286Y-74185143D01*
X205095905Y-74089905D01*
X205095905Y-73994667D01*
X205048286Y-73899429D01*
X205000667Y-73851810D01*
X204905429Y-73804190D01*
X204714952Y-73756571D01*
X204619714Y-73708952D01*
X204572095Y-73661333D01*
X204524476Y-73566095D01*
X204524476Y-73470857D01*
X204572095Y-73375619D01*
X204619714Y-73328000D01*
X204714952Y-73280381D01*
X204953048Y-73280381D01*
X205095905Y-73328000D01*
X205429238Y-73280381D02*
X205667333Y-74280381D01*
X205857810Y-73566095D01*
X206048286Y-74280381D01*
X206286381Y-73280381D01*
X207191143Y-74280381D02*
X206619714Y-74280381D01*
X206905428Y-74280381D02*
X206905428Y-73280381D01*
X206810190Y-73423238D01*
X206714952Y-73518476D01*
X206619714Y-73566095D01*
X208143524Y-74280381D02*
X207572095Y-74280381D01*
X207857809Y-74280381D02*
X207857809Y-73280381D01*
X207762571Y-73423238D01*
X207667333Y-73518476D01*
X207572095Y-73566095D01*
X164624476Y-74232762D02*
X164767333Y-74280381D01*
X165005429Y-74280381D01*
X165100667Y-74232762D01*
X165148286Y-74185143D01*
X165195905Y-74089905D01*
X165195905Y-73994667D01*
X165148286Y-73899429D01*
X165100667Y-73851810D01*
X165005429Y-73804190D01*
X164814952Y-73756571D01*
X164719714Y-73708952D01*
X164672095Y-73661333D01*
X164624476Y-73566095D01*
X164624476Y-73470857D01*
X164672095Y-73375619D01*
X164719714Y-73328000D01*
X164814952Y-73280381D01*
X165053048Y-73280381D01*
X165195905Y-73328000D01*
X165529238Y-73280381D02*
X165767333Y-74280381D01*
X165957810Y-73566095D01*
X166148286Y-74280381D01*
X166386381Y-73280381D01*
X167291143Y-74280381D02*
X166719714Y-74280381D01*
X167005428Y-74280381D02*
X167005428Y-73280381D01*
X166910190Y-73423238D01*
X166814952Y-73518476D01*
X166719714Y-73566095D01*
X167672095Y-73375619D02*
X167719714Y-73328000D01*
X167814952Y-73280381D01*
X168053048Y-73280381D01*
X168148286Y-73328000D01*
X168195905Y-73375619D01*
X168243524Y-73470857D01*
X168243524Y-73566095D01*
X168195905Y-73708952D01*
X167624476Y-74280381D01*
X168243524Y-74280381D01*
X124724476Y-74232762D02*
X124867333Y-74280381D01*
X125105429Y-74280381D01*
X125200667Y-74232762D01*
X125248286Y-74185143D01*
X125295905Y-74089905D01*
X125295905Y-73994667D01*
X125248286Y-73899429D01*
X125200667Y-73851810D01*
X125105429Y-73804190D01*
X124914952Y-73756571D01*
X124819714Y-73708952D01*
X124772095Y-73661333D01*
X124724476Y-73566095D01*
X124724476Y-73470857D01*
X124772095Y-73375619D01*
X124819714Y-73328000D01*
X124914952Y-73280381D01*
X125153048Y-73280381D01*
X125295905Y-73328000D01*
X125629238Y-73280381D02*
X125867333Y-74280381D01*
X126057810Y-73566095D01*
X126248286Y-74280381D01*
X126486381Y-73280381D01*
X127391143Y-74280381D02*
X126819714Y-74280381D01*
X127105428Y-74280381D02*
X127105428Y-73280381D01*
X127010190Y-73423238D01*
X126914952Y-73518476D01*
X126819714Y-73566095D01*
X127724476Y-73280381D02*
X128343524Y-73280381D01*
X128010190Y-73661333D01*
X128153048Y-73661333D01*
X128248286Y-73708952D01*
X128295905Y-73756571D01*
X128343524Y-73851810D01*
X128343524Y-74089905D01*
X128295905Y-74185143D01*
X128248286Y-74232762D01*
X128153048Y-74280381D01*
X127867333Y-74280381D01*
X127772095Y-74232762D01*
X127724476Y-74185143D01*
X107294476Y-102232762D02*
X107437333Y-102280381D01*
X107675429Y-102280381D01*
X107770667Y-102232762D01*
X107818286Y-102185143D01*
X107865905Y-102089905D01*
X107865905Y-101994667D01*
X107818286Y-101899429D01*
X107770667Y-101851810D01*
X107675429Y-101804190D01*
X107484952Y-101756571D01*
X107389714Y-101708952D01*
X107342095Y-101661333D01*
X107294476Y-101566095D01*
X107294476Y-101470857D01*
X107342095Y-101375619D01*
X107389714Y-101328000D01*
X107484952Y-101280381D01*
X107723048Y-101280381D01*
X107865905Y-101328000D01*
X108199238Y-101280381D02*
X108437333Y-102280381D01*
X108627810Y-101566095D01*
X108818286Y-102280381D01*
X109056381Y-101280381D01*
X109961143Y-102280381D02*
X109389714Y-102280381D01*
X109675428Y-102280381D02*
X109675428Y-101280381D01*
X109580190Y-101423238D01*
X109484952Y-101518476D01*
X109389714Y-101566095D01*
X110818286Y-101613714D02*
X110818286Y-102280381D01*
X110580190Y-101232762D02*
X110342095Y-101947048D01*
X110961143Y-101947048D01*
X147194476Y-102232762D02*
X147337333Y-102280381D01*
X147575429Y-102280381D01*
X147670667Y-102232762D01*
X147718286Y-102185143D01*
X147765905Y-102089905D01*
X147765905Y-101994667D01*
X147718286Y-101899429D01*
X147670667Y-101851810D01*
X147575429Y-101804190D01*
X147384952Y-101756571D01*
X147289714Y-101708952D01*
X147242095Y-101661333D01*
X147194476Y-101566095D01*
X147194476Y-101470857D01*
X147242095Y-101375619D01*
X147289714Y-101328000D01*
X147384952Y-101280381D01*
X147623048Y-101280381D01*
X147765905Y-101328000D01*
X148099238Y-101280381D02*
X148337333Y-102280381D01*
X148527810Y-101566095D01*
X148718286Y-102280381D01*
X148956381Y-101280381D01*
X149861143Y-102280381D02*
X149289714Y-102280381D01*
X149575428Y-102280381D02*
X149575428Y-101280381D01*
X149480190Y-101423238D01*
X149384952Y-101518476D01*
X149289714Y-101566095D01*
X150765905Y-101280381D02*
X150289714Y-101280381D01*
X150242095Y-101756571D01*
X150289714Y-101708952D01*
X150384952Y-101661333D01*
X150623048Y-101661333D01*
X150718286Y-101708952D01*
X150765905Y-101756571D01*
X150813524Y-101851810D01*
X150813524Y-102089905D01*
X150765905Y-102185143D01*
X150718286Y-102232762D01*
X150623048Y-102280381D01*
X150384952Y-102280381D01*
X150289714Y-102232762D01*
X150242095Y-102185143D01*
X200394476Y-102232762D02*
X200537333Y-102280381D01*
X200775429Y-102280381D01*
X200870667Y-102232762D01*
X200918286Y-102185143D01*
X200965905Y-102089905D01*
X200965905Y-101994667D01*
X200918286Y-101899429D01*
X200870667Y-101851810D01*
X200775429Y-101804190D01*
X200584952Y-101756571D01*
X200489714Y-101708952D01*
X200442095Y-101661333D01*
X200394476Y-101566095D01*
X200394476Y-101470857D01*
X200442095Y-101375619D01*
X200489714Y-101328000D01*
X200584952Y-101280381D01*
X200823048Y-101280381D01*
X200965905Y-101328000D01*
X201299238Y-101280381D02*
X201537333Y-102280381D01*
X201727810Y-101566095D01*
X201918286Y-102280381D01*
X202156381Y-101280381D01*
X203061143Y-102280381D02*
X202489714Y-102280381D01*
X202775428Y-102280381D02*
X202775428Y-101280381D01*
X202680190Y-101423238D01*
X202584952Y-101518476D01*
X202489714Y-101566095D01*
X203918286Y-101280381D02*
X203727809Y-101280381D01*
X203632571Y-101328000D01*
X203584952Y-101375619D01*
X203489714Y-101518476D01*
X203442095Y-101708952D01*
X203442095Y-102089905D01*
X203489714Y-102185143D01*
X203537333Y-102232762D01*
X203632571Y-102280381D01*
X203823048Y-102280381D01*
X203918286Y-102232762D01*
X203965905Y-102185143D01*
X204013524Y-102089905D01*
X204013524Y-101851810D01*
X203965905Y-101756571D01*
X203918286Y-101708952D01*
X203823048Y-101661333D01*
X203632571Y-101661333D01*
X203537333Y-101708952D01*
X203489714Y-101756571D01*
X203442095Y-101851810D01*
X223634476Y-88232762D02*
X223777333Y-88280381D01*
X224015429Y-88280381D01*
X224110667Y-88232762D01*
X224158286Y-88185143D01*
X224205905Y-88089905D01*
X224205905Y-87994667D01*
X224158286Y-87899429D01*
X224110667Y-87851810D01*
X224015429Y-87804190D01*
X223824952Y-87756571D01*
X223729714Y-87708952D01*
X223682095Y-87661333D01*
X223634476Y-87566095D01*
X223634476Y-87470857D01*
X223682095Y-87375619D01*
X223729714Y-87328000D01*
X223824952Y-87280381D01*
X224063048Y-87280381D01*
X224205905Y-87328000D01*
X224539238Y-87280381D02*
X224777333Y-88280381D01*
X224967810Y-87566095D01*
X225158286Y-88280381D01*
X225396381Y-87280381D01*
X226301143Y-88280381D02*
X225729714Y-88280381D01*
X226015428Y-88280381D02*
X226015428Y-87280381D01*
X225920190Y-87423238D01*
X225824952Y-87518476D01*
X225729714Y-87566095D01*
X226634476Y-87280381D02*
X227301143Y-87280381D01*
X226872571Y-88280381D01*
X183734476Y-88232762D02*
X183877333Y-88280381D01*
X184115429Y-88280381D01*
X184210667Y-88232762D01*
X184258286Y-88185143D01*
X184305905Y-88089905D01*
X184305905Y-87994667D01*
X184258286Y-87899429D01*
X184210667Y-87851810D01*
X184115429Y-87804190D01*
X183924952Y-87756571D01*
X183829714Y-87708952D01*
X183782095Y-87661333D01*
X183734476Y-87566095D01*
X183734476Y-87470857D01*
X183782095Y-87375619D01*
X183829714Y-87328000D01*
X183924952Y-87280381D01*
X184163048Y-87280381D01*
X184305905Y-87328000D01*
X184639238Y-87280381D02*
X184877333Y-88280381D01*
X185067810Y-87566095D01*
X185258286Y-88280381D01*
X185496381Y-87280381D01*
X186401143Y-88280381D02*
X185829714Y-88280381D01*
X186115428Y-88280381D02*
X186115428Y-87280381D01*
X186020190Y-87423238D01*
X185924952Y-87518476D01*
X185829714Y-87566095D01*
X186972571Y-87708952D02*
X186877333Y-87661333D01*
X186829714Y-87613714D01*
X186782095Y-87518476D01*
X186782095Y-87470857D01*
X186829714Y-87375619D01*
X186877333Y-87328000D01*
X186972571Y-87280381D01*
X187163048Y-87280381D01*
X187258286Y-87328000D01*
X187305905Y-87375619D01*
X187353524Y-87470857D01*
X187353524Y-87518476D01*
X187305905Y-87613714D01*
X187258286Y-87661333D01*
X187163048Y-87708952D01*
X186972571Y-87708952D01*
X186877333Y-87756571D01*
X186829714Y-87804190D01*
X186782095Y-87899429D01*
X186782095Y-88089905D01*
X186829714Y-88185143D01*
X186877333Y-88232762D01*
X186972571Y-88280381D01*
X187163048Y-88280381D01*
X187258286Y-88232762D01*
X187305905Y-88185143D01*
X187353524Y-88089905D01*
X187353524Y-87899429D01*
X187305905Y-87804190D01*
X187258286Y-87756571D01*
X187163048Y-87708952D01*
X113944476Y-116232762D02*
X114087333Y-116280381D01*
X114325429Y-116280381D01*
X114420667Y-116232762D01*
X114468286Y-116185143D01*
X114515905Y-116089905D01*
X114515905Y-115994667D01*
X114468286Y-115899429D01*
X114420667Y-115851810D01*
X114325429Y-115804190D01*
X114134952Y-115756571D01*
X114039714Y-115708952D01*
X113992095Y-115661333D01*
X113944476Y-115566095D01*
X113944476Y-115470857D01*
X113992095Y-115375619D01*
X114039714Y-115328000D01*
X114134952Y-115280381D01*
X114373048Y-115280381D01*
X114515905Y-115328000D01*
X114849238Y-115280381D02*
X115087333Y-116280381D01*
X115277810Y-115566095D01*
X115468286Y-116280381D01*
X115706381Y-115280381D01*
X116611143Y-116280381D02*
X116039714Y-116280381D01*
X116325428Y-116280381D02*
X116325428Y-115280381D01*
X116230190Y-115423238D01*
X116134952Y-115518476D01*
X116039714Y-115566095D01*
X117087333Y-116280381D02*
X117277809Y-116280381D01*
X117373048Y-116232762D01*
X117420667Y-116185143D01*
X117515905Y-116042286D01*
X117563524Y-115851810D01*
X117563524Y-115470857D01*
X117515905Y-115375619D01*
X117468286Y-115328000D01*
X117373048Y-115280381D01*
X117182571Y-115280381D01*
X117087333Y-115328000D01*
X117039714Y-115375619D01*
X116992095Y-115470857D01*
X116992095Y-115708952D01*
X117039714Y-115804190D01*
X117087333Y-115851810D01*
X117182571Y-115899429D01*
X117373048Y-115899429D01*
X117468286Y-115851810D01*
X117515905Y-115804190D01*
X117563524Y-115708952D01*
X167144476Y-116232762D02*
X167287333Y-116280381D01*
X167525429Y-116280381D01*
X167620667Y-116232762D01*
X167668286Y-116185143D01*
X167715905Y-116089905D01*
X167715905Y-115994667D01*
X167668286Y-115899429D01*
X167620667Y-115851810D01*
X167525429Y-115804190D01*
X167334952Y-115756571D01*
X167239714Y-115708952D01*
X167192095Y-115661333D01*
X167144476Y-115566095D01*
X167144476Y-115470857D01*
X167192095Y-115375619D01*
X167239714Y-115328000D01*
X167334952Y-115280381D01*
X167573048Y-115280381D01*
X167715905Y-115328000D01*
X168049238Y-115280381D02*
X168287333Y-116280381D01*
X168477810Y-115566095D01*
X168668286Y-116280381D01*
X168906381Y-115280381D01*
X169239714Y-115375619D02*
X169287333Y-115328000D01*
X169382571Y-115280381D01*
X169620667Y-115280381D01*
X169715905Y-115328000D01*
X169763524Y-115375619D01*
X169811143Y-115470857D01*
X169811143Y-115566095D01*
X169763524Y-115708952D01*
X169192095Y-116280381D01*
X169811143Y-116280381D01*
X170430190Y-115280381D02*
X170525429Y-115280381D01*
X170620667Y-115328000D01*
X170668286Y-115375619D01*
X170715905Y-115470857D01*
X170763524Y-115661333D01*
X170763524Y-115899429D01*
X170715905Y-116089905D01*
X170668286Y-116185143D01*
X170620667Y-116232762D01*
X170525429Y-116280381D01*
X170430190Y-116280381D01*
X170334952Y-116232762D01*
X170287333Y-116185143D01*
X170239714Y-116089905D01*
X170192095Y-115899429D01*
X170192095Y-115661333D01*
X170239714Y-115470857D01*
X170287333Y-115375619D01*
X170334952Y-115328000D01*
X170430190Y-115280381D01*
X160494476Y-102232762D02*
X160637333Y-102280381D01*
X160875429Y-102280381D01*
X160970667Y-102232762D01*
X161018286Y-102185143D01*
X161065905Y-102089905D01*
X161065905Y-101994667D01*
X161018286Y-101899429D01*
X160970667Y-101851810D01*
X160875429Y-101804190D01*
X160684952Y-101756571D01*
X160589714Y-101708952D01*
X160542095Y-101661333D01*
X160494476Y-101566095D01*
X160494476Y-101470857D01*
X160542095Y-101375619D01*
X160589714Y-101328000D01*
X160684952Y-101280381D01*
X160923048Y-101280381D01*
X161065905Y-101328000D01*
X161399238Y-101280381D02*
X161637333Y-102280381D01*
X161827810Y-101566095D01*
X162018286Y-102280381D01*
X162256381Y-101280381D01*
X162589714Y-101375619D02*
X162637333Y-101328000D01*
X162732571Y-101280381D01*
X162970667Y-101280381D01*
X163065905Y-101328000D01*
X163113524Y-101375619D01*
X163161143Y-101470857D01*
X163161143Y-101566095D01*
X163113524Y-101708952D01*
X162542095Y-102280381D01*
X163161143Y-102280381D01*
X164113524Y-102280381D02*
X163542095Y-102280381D01*
X163827809Y-102280381D02*
X163827809Y-101280381D01*
X163732571Y-101423238D01*
X163637333Y-101518476D01*
X163542095Y-101566095D01*
X103934476Y-88232762D02*
X104077333Y-88280381D01*
X104315429Y-88280381D01*
X104410667Y-88232762D01*
X104458286Y-88185143D01*
X104505905Y-88089905D01*
X104505905Y-87994667D01*
X104458286Y-87899429D01*
X104410667Y-87851810D01*
X104315429Y-87804190D01*
X104124952Y-87756571D01*
X104029714Y-87708952D01*
X103982095Y-87661333D01*
X103934476Y-87566095D01*
X103934476Y-87470857D01*
X103982095Y-87375619D01*
X104029714Y-87328000D01*
X104124952Y-87280381D01*
X104363048Y-87280381D01*
X104505905Y-87328000D01*
X104839238Y-87280381D02*
X105077333Y-88280381D01*
X105267810Y-87566095D01*
X105458286Y-88280381D01*
X105696381Y-87280381D01*
X106029714Y-87375619D02*
X106077333Y-87328000D01*
X106172571Y-87280381D01*
X106410667Y-87280381D01*
X106505905Y-87328000D01*
X106553524Y-87375619D01*
X106601143Y-87470857D01*
X106601143Y-87566095D01*
X106553524Y-87708952D01*
X105982095Y-88280381D01*
X106601143Y-88280381D01*
X106934476Y-87280381D02*
X107553524Y-87280381D01*
X107220190Y-87661333D01*
X107363048Y-87661333D01*
X107458286Y-87708952D01*
X107505905Y-87756571D01*
X107553524Y-87851810D01*
X107553524Y-88089905D01*
X107505905Y-88185143D01*
X107458286Y-88232762D01*
X107363048Y-88280381D01*
X107077333Y-88280381D01*
X106982095Y-88232762D01*
X106934476Y-88185143D01*
X153844476Y-116232762D02*
X153987333Y-116280381D01*
X154225429Y-116280381D01*
X154320667Y-116232762D01*
X154368286Y-116185143D01*
X154415905Y-116089905D01*
X154415905Y-115994667D01*
X154368286Y-115899429D01*
X154320667Y-115851810D01*
X154225429Y-115804190D01*
X154034952Y-115756571D01*
X153939714Y-115708952D01*
X153892095Y-115661333D01*
X153844476Y-115566095D01*
X153844476Y-115470857D01*
X153892095Y-115375619D01*
X153939714Y-115328000D01*
X154034952Y-115280381D01*
X154273048Y-115280381D01*
X154415905Y-115328000D01*
X154749238Y-115280381D02*
X154987333Y-116280381D01*
X155177810Y-115566095D01*
X155368286Y-116280381D01*
X155606381Y-115280381D01*
X155939714Y-115375619D02*
X155987333Y-115328000D01*
X156082571Y-115280381D01*
X156320667Y-115280381D01*
X156415905Y-115328000D01*
X156463524Y-115375619D01*
X156511143Y-115470857D01*
X156511143Y-115566095D01*
X156463524Y-115708952D01*
X155892095Y-116280381D01*
X156511143Y-116280381D01*
X157368286Y-115613714D02*
X157368286Y-116280381D01*
X157130190Y-115232762D02*
X156892095Y-115947048D01*
X157511143Y-115947048D01*
X236969476Y-116232762D02*
X237112333Y-116280381D01*
X237350429Y-116280381D01*
X237445667Y-116232762D01*
X237493286Y-116185143D01*
X237540905Y-116089905D01*
X237540905Y-115994667D01*
X237493286Y-115899429D01*
X237445667Y-115851810D01*
X237350429Y-115804190D01*
X237159952Y-115756571D01*
X237064714Y-115708952D01*
X237017095Y-115661333D01*
X236969476Y-115566095D01*
X236969476Y-115470857D01*
X237017095Y-115375619D01*
X237064714Y-115328000D01*
X237159952Y-115280381D01*
X237398048Y-115280381D01*
X237540905Y-115328000D01*
X237874238Y-115280381D02*
X238112333Y-116280381D01*
X238302810Y-115566095D01*
X238493286Y-116280381D01*
X238731381Y-115280381D01*
X239064714Y-115375619D02*
X239112333Y-115328000D01*
X239207571Y-115280381D01*
X239445667Y-115280381D01*
X239540905Y-115328000D01*
X239588524Y-115375619D01*
X239636143Y-115470857D01*
X239636143Y-115566095D01*
X239588524Y-115708952D01*
X239017095Y-116280381D01*
X239636143Y-116280381D01*
X240540905Y-115280381D02*
X240064714Y-115280381D01*
X240017095Y-115756571D01*
X240064714Y-115708952D01*
X240159952Y-115661333D01*
X240398048Y-115661333D01*
X240493286Y-115708952D01*
X240540905Y-115756571D01*
X240588524Y-115851810D01*
X240588524Y-116089905D01*
X240540905Y-116185143D01*
X240493286Y-116232762D01*
X240398048Y-116280381D01*
X240159952Y-116280381D01*
X240064714Y-116232762D01*
X240017095Y-116185143D01*
X226994476Y-102232762D02*
X227137333Y-102280381D01*
X227375429Y-102280381D01*
X227470667Y-102232762D01*
X227518286Y-102185143D01*
X227565905Y-102089905D01*
X227565905Y-101994667D01*
X227518286Y-101899429D01*
X227470667Y-101851810D01*
X227375429Y-101804190D01*
X227184952Y-101756571D01*
X227089714Y-101708952D01*
X227042095Y-101661333D01*
X226994476Y-101566095D01*
X226994476Y-101470857D01*
X227042095Y-101375619D01*
X227089714Y-101328000D01*
X227184952Y-101280381D01*
X227423048Y-101280381D01*
X227565905Y-101328000D01*
X227899238Y-101280381D02*
X228137333Y-102280381D01*
X228327810Y-101566095D01*
X228518286Y-102280381D01*
X228756381Y-101280381D01*
X229089714Y-101375619D02*
X229137333Y-101328000D01*
X229232571Y-101280381D01*
X229470667Y-101280381D01*
X229565905Y-101328000D01*
X229613524Y-101375619D01*
X229661143Y-101470857D01*
X229661143Y-101566095D01*
X229613524Y-101708952D01*
X229042095Y-102280381D01*
X229661143Y-102280381D01*
X230518286Y-101280381D02*
X230327809Y-101280381D01*
X230232571Y-101328000D01*
X230184952Y-101375619D01*
X230089714Y-101518476D01*
X230042095Y-101708952D01*
X230042095Y-102089905D01*
X230089714Y-102185143D01*
X230137333Y-102232762D01*
X230232571Y-102280381D01*
X230423048Y-102280381D01*
X230518286Y-102232762D01*
X230565905Y-102185143D01*
X230613524Y-102089905D01*
X230613524Y-101851810D01*
X230565905Y-101756571D01*
X230518286Y-101708952D01*
X230423048Y-101661333D01*
X230232571Y-101661333D01*
X230137333Y-101708952D01*
X230089714Y-101756571D01*
X230042095Y-101851810D01*
X140544476Y-116232762D02*
X140687333Y-116280381D01*
X140925429Y-116280381D01*
X141020667Y-116232762D01*
X141068286Y-116185143D01*
X141115905Y-116089905D01*
X141115905Y-115994667D01*
X141068286Y-115899429D01*
X141020667Y-115851810D01*
X140925429Y-115804190D01*
X140734952Y-115756571D01*
X140639714Y-115708952D01*
X140592095Y-115661333D01*
X140544476Y-115566095D01*
X140544476Y-115470857D01*
X140592095Y-115375619D01*
X140639714Y-115328000D01*
X140734952Y-115280381D01*
X140973048Y-115280381D01*
X141115905Y-115328000D01*
X141449238Y-115280381D02*
X141687333Y-116280381D01*
X141877810Y-115566095D01*
X142068286Y-116280381D01*
X142306381Y-115280381D01*
X142639714Y-115375619D02*
X142687333Y-115328000D01*
X142782571Y-115280381D01*
X143020667Y-115280381D01*
X143115905Y-115328000D01*
X143163524Y-115375619D01*
X143211143Y-115470857D01*
X143211143Y-115566095D01*
X143163524Y-115708952D01*
X142592095Y-116280381D01*
X143211143Y-116280381D01*
X143544476Y-115280381D02*
X144211143Y-115280381D01*
X143782571Y-116280381D01*
X173794476Y-102232762D02*
X173937333Y-102280381D01*
X174175429Y-102280381D01*
X174270667Y-102232762D01*
X174318286Y-102185143D01*
X174365905Y-102089905D01*
X174365905Y-101994667D01*
X174318286Y-101899429D01*
X174270667Y-101851810D01*
X174175429Y-101804190D01*
X173984952Y-101756571D01*
X173889714Y-101708952D01*
X173842095Y-101661333D01*
X173794476Y-101566095D01*
X173794476Y-101470857D01*
X173842095Y-101375619D01*
X173889714Y-101328000D01*
X173984952Y-101280381D01*
X174223048Y-101280381D01*
X174365905Y-101328000D01*
X174699238Y-101280381D02*
X174937333Y-102280381D01*
X175127810Y-101566095D01*
X175318286Y-102280381D01*
X175556381Y-101280381D01*
X175889714Y-101375619D02*
X175937333Y-101328000D01*
X176032571Y-101280381D01*
X176270667Y-101280381D01*
X176365905Y-101328000D01*
X176413524Y-101375619D01*
X176461143Y-101470857D01*
X176461143Y-101566095D01*
X176413524Y-101708952D01*
X175842095Y-102280381D01*
X176461143Y-102280381D01*
X177032571Y-101708952D02*
X176937333Y-101661333D01*
X176889714Y-101613714D01*
X176842095Y-101518476D01*
X176842095Y-101470857D01*
X176889714Y-101375619D01*
X176937333Y-101328000D01*
X177032571Y-101280381D01*
X177223048Y-101280381D01*
X177318286Y-101328000D01*
X177365905Y-101375619D01*
X177413524Y-101470857D01*
X177413524Y-101518476D01*
X177365905Y-101613714D01*
X177318286Y-101661333D01*
X177223048Y-101708952D01*
X177032571Y-101708952D01*
X176937333Y-101756571D01*
X176889714Y-101804190D01*
X176842095Y-101899429D01*
X176842095Y-102089905D01*
X176889714Y-102185143D01*
X176937333Y-102232762D01*
X177032571Y-102280381D01*
X177223048Y-102280381D01*
X177318286Y-102232762D01*
X177365905Y-102185143D01*
X177413524Y-102089905D01*
X177413524Y-101899429D01*
X177365905Y-101804190D01*
X177318286Y-101756571D01*
X177223048Y-101708952D01*
X143834476Y-88232762D02*
X143977333Y-88280381D01*
X144215429Y-88280381D01*
X144310667Y-88232762D01*
X144358286Y-88185143D01*
X144405905Y-88089905D01*
X144405905Y-87994667D01*
X144358286Y-87899429D01*
X144310667Y-87851810D01*
X144215429Y-87804190D01*
X144024952Y-87756571D01*
X143929714Y-87708952D01*
X143882095Y-87661333D01*
X143834476Y-87566095D01*
X143834476Y-87470857D01*
X143882095Y-87375619D01*
X143929714Y-87328000D01*
X144024952Y-87280381D01*
X144263048Y-87280381D01*
X144405905Y-87328000D01*
X144739238Y-87280381D02*
X144977333Y-88280381D01*
X145167810Y-87566095D01*
X145358286Y-88280381D01*
X145596381Y-87280381D01*
X145882095Y-87280381D02*
X146501143Y-87280381D01*
X146167809Y-87661333D01*
X146310667Y-87661333D01*
X146405905Y-87708952D01*
X146453524Y-87756571D01*
X146501143Y-87851810D01*
X146501143Y-88089905D01*
X146453524Y-88185143D01*
X146405905Y-88232762D01*
X146310667Y-88280381D01*
X146024952Y-88280381D01*
X145929714Y-88232762D01*
X145882095Y-88185143D01*
X147120190Y-87280381D02*
X147215429Y-87280381D01*
X147310667Y-87328000D01*
X147358286Y-87375619D01*
X147405905Y-87470857D01*
X147453524Y-87661333D01*
X147453524Y-87899429D01*
X147405905Y-88089905D01*
X147358286Y-88185143D01*
X147310667Y-88232762D01*
X147215429Y-88280381D01*
X147120190Y-88280381D01*
X147024952Y-88232762D01*
X146977333Y-88185143D01*
X146929714Y-88089905D01*
X146882095Y-87899429D01*
X146882095Y-87661333D01*
X146929714Y-87470857D01*
X146977333Y-87375619D01*
X147024952Y-87328000D01*
X147120190Y-87280381D01*
X117234476Y-88232762D02*
X117377333Y-88280381D01*
X117615429Y-88280381D01*
X117710667Y-88232762D01*
X117758286Y-88185143D01*
X117805905Y-88089905D01*
X117805905Y-87994667D01*
X117758286Y-87899429D01*
X117710667Y-87851810D01*
X117615429Y-87804190D01*
X117424952Y-87756571D01*
X117329714Y-87708952D01*
X117282095Y-87661333D01*
X117234476Y-87566095D01*
X117234476Y-87470857D01*
X117282095Y-87375619D01*
X117329714Y-87328000D01*
X117424952Y-87280381D01*
X117663048Y-87280381D01*
X117805905Y-87328000D01*
X118139238Y-87280381D02*
X118377333Y-88280381D01*
X118567810Y-87566095D01*
X118758286Y-88280381D01*
X118996381Y-87280381D01*
X119282095Y-87280381D02*
X119901143Y-87280381D01*
X119567809Y-87661333D01*
X119710667Y-87661333D01*
X119805905Y-87708952D01*
X119853524Y-87756571D01*
X119901143Y-87851810D01*
X119901143Y-88089905D01*
X119853524Y-88185143D01*
X119805905Y-88232762D01*
X119710667Y-88280381D01*
X119424952Y-88280381D01*
X119329714Y-88232762D01*
X119282095Y-88185143D01*
X120853524Y-88280381D02*
X120282095Y-88280381D01*
X120567809Y-88280381D02*
X120567809Y-87280381D01*
X120472571Y-87423238D01*
X120377333Y-87518476D01*
X120282095Y-87566095D01*
X240294476Y-102232762D02*
X240437333Y-102280381D01*
X240675429Y-102280381D01*
X240770667Y-102232762D01*
X240818286Y-102185143D01*
X240865905Y-102089905D01*
X240865905Y-101994667D01*
X240818286Y-101899429D01*
X240770667Y-101851810D01*
X240675429Y-101804190D01*
X240484952Y-101756571D01*
X240389714Y-101708952D01*
X240342095Y-101661333D01*
X240294476Y-101566095D01*
X240294476Y-101470857D01*
X240342095Y-101375619D01*
X240389714Y-101328000D01*
X240484952Y-101280381D01*
X240723048Y-101280381D01*
X240865905Y-101328000D01*
X241199238Y-101280381D02*
X241437333Y-102280381D01*
X241627810Y-101566095D01*
X241818286Y-102280381D01*
X242056381Y-101280381D01*
X242342095Y-101280381D02*
X242961143Y-101280381D01*
X242627809Y-101661333D01*
X242770667Y-101661333D01*
X242865905Y-101708952D01*
X242913524Y-101756571D01*
X242961143Y-101851810D01*
X242961143Y-102089905D01*
X242913524Y-102185143D01*
X242865905Y-102232762D01*
X242770667Y-102280381D01*
X242484952Y-102280381D01*
X242389714Y-102232762D01*
X242342095Y-102185143D01*
X243342095Y-101375619D02*
X243389714Y-101328000D01*
X243484952Y-101280381D01*
X243723048Y-101280381D01*
X243818286Y-101328000D01*
X243865905Y-101375619D01*
X243913524Y-101470857D01*
X243913524Y-101566095D01*
X243865905Y-101708952D01*
X243294476Y-102280381D01*
X243913524Y-102280381D01*
X133894476Y-102232762D02*
X134037333Y-102280381D01*
X134275429Y-102280381D01*
X134370667Y-102232762D01*
X134418286Y-102185143D01*
X134465905Y-102089905D01*
X134465905Y-101994667D01*
X134418286Y-101899429D01*
X134370667Y-101851810D01*
X134275429Y-101804190D01*
X134084952Y-101756571D01*
X133989714Y-101708952D01*
X133942095Y-101661333D01*
X133894476Y-101566095D01*
X133894476Y-101470857D01*
X133942095Y-101375619D01*
X133989714Y-101328000D01*
X134084952Y-101280381D01*
X134323048Y-101280381D01*
X134465905Y-101328000D01*
X134799238Y-101280381D02*
X135037333Y-102280381D01*
X135227810Y-101566095D01*
X135418286Y-102280381D01*
X135656381Y-101280381D01*
X135942095Y-101280381D02*
X136561143Y-101280381D01*
X136227809Y-101661333D01*
X136370667Y-101661333D01*
X136465905Y-101708952D01*
X136513524Y-101756571D01*
X136561143Y-101851810D01*
X136561143Y-102089905D01*
X136513524Y-102185143D01*
X136465905Y-102232762D01*
X136370667Y-102280381D01*
X136084952Y-102280381D01*
X135989714Y-102232762D01*
X135942095Y-102185143D01*
X136894476Y-101280381D02*
X137513524Y-101280381D01*
X137180190Y-101661333D01*
X137323048Y-101661333D01*
X137418286Y-101708952D01*
X137465905Y-101756571D01*
X137513524Y-101851810D01*
X137513524Y-102089905D01*
X137465905Y-102185143D01*
X137418286Y-102232762D01*
X137323048Y-102280381D01*
X137037333Y-102280381D01*
X136942095Y-102232762D01*
X136894476Y-102185143D01*
X197034476Y-88232762D02*
X197177333Y-88280381D01*
X197415429Y-88280381D01*
X197510667Y-88232762D01*
X197558286Y-88185143D01*
X197605905Y-88089905D01*
X197605905Y-87994667D01*
X197558286Y-87899429D01*
X197510667Y-87851810D01*
X197415429Y-87804190D01*
X197224952Y-87756571D01*
X197129714Y-87708952D01*
X197082095Y-87661333D01*
X197034476Y-87566095D01*
X197034476Y-87470857D01*
X197082095Y-87375619D01*
X197129714Y-87328000D01*
X197224952Y-87280381D01*
X197463048Y-87280381D01*
X197605905Y-87328000D01*
X197939238Y-87280381D02*
X198177333Y-88280381D01*
X198367810Y-87566095D01*
X198558286Y-88280381D01*
X198796381Y-87280381D01*
X199082095Y-87280381D02*
X199701143Y-87280381D01*
X199367809Y-87661333D01*
X199510667Y-87661333D01*
X199605905Y-87708952D01*
X199653524Y-87756571D01*
X199701143Y-87851810D01*
X199701143Y-88089905D01*
X199653524Y-88185143D01*
X199605905Y-88232762D01*
X199510667Y-88280381D01*
X199224952Y-88280381D01*
X199129714Y-88232762D01*
X199082095Y-88185143D01*
X200558286Y-87613714D02*
X200558286Y-88280381D01*
X200320190Y-87232762D02*
X200082095Y-87947048D01*
X200701143Y-87947048D01*
X120594476Y-102232762D02*
X120737333Y-102280381D01*
X120975429Y-102280381D01*
X121070667Y-102232762D01*
X121118286Y-102185143D01*
X121165905Y-102089905D01*
X121165905Y-101994667D01*
X121118286Y-101899429D01*
X121070667Y-101851810D01*
X120975429Y-101804190D01*
X120784952Y-101756571D01*
X120689714Y-101708952D01*
X120642095Y-101661333D01*
X120594476Y-101566095D01*
X120594476Y-101470857D01*
X120642095Y-101375619D01*
X120689714Y-101328000D01*
X120784952Y-101280381D01*
X121023048Y-101280381D01*
X121165905Y-101328000D01*
X121499238Y-101280381D02*
X121737333Y-102280381D01*
X121927810Y-101566095D01*
X122118286Y-102280381D01*
X122356381Y-101280381D01*
X122642095Y-101280381D02*
X123261143Y-101280381D01*
X122927809Y-101661333D01*
X123070667Y-101661333D01*
X123165905Y-101708952D01*
X123213524Y-101756571D01*
X123261143Y-101851810D01*
X123261143Y-102089905D01*
X123213524Y-102185143D01*
X123165905Y-102232762D01*
X123070667Y-102280381D01*
X122784952Y-102280381D01*
X122689714Y-102232762D01*
X122642095Y-102185143D01*
X124118286Y-101280381D02*
X123927809Y-101280381D01*
X123832571Y-101328000D01*
X123784952Y-101375619D01*
X123689714Y-101518476D01*
X123642095Y-101708952D01*
X123642095Y-102089905D01*
X123689714Y-102185143D01*
X123737333Y-102232762D01*
X123832571Y-102280381D01*
X124023048Y-102280381D01*
X124118286Y-102232762D01*
X124165905Y-102185143D01*
X124213524Y-102089905D01*
X124213524Y-101851810D01*
X124165905Y-101756571D01*
X124118286Y-101708952D01*
X124023048Y-101661333D01*
X123832571Y-101661333D01*
X123737333Y-101708952D01*
X123689714Y-101756571D01*
X123642095Y-101851810D01*
X127244476Y-116232762D02*
X127387333Y-116280381D01*
X127625429Y-116280381D01*
X127720667Y-116232762D01*
X127768286Y-116185143D01*
X127815905Y-116089905D01*
X127815905Y-115994667D01*
X127768286Y-115899429D01*
X127720667Y-115851810D01*
X127625429Y-115804190D01*
X127434952Y-115756571D01*
X127339714Y-115708952D01*
X127292095Y-115661333D01*
X127244476Y-115566095D01*
X127244476Y-115470857D01*
X127292095Y-115375619D01*
X127339714Y-115328000D01*
X127434952Y-115280381D01*
X127673048Y-115280381D01*
X127815905Y-115328000D01*
X128149238Y-115280381D02*
X128387333Y-116280381D01*
X128577810Y-115566095D01*
X128768286Y-116280381D01*
X129006381Y-115280381D01*
X129292095Y-115280381D02*
X129911143Y-115280381D01*
X129577809Y-115661333D01*
X129720667Y-115661333D01*
X129815905Y-115708952D01*
X129863524Y-115756571D01*
X129911143Y-115851810D01*
X129911143Y-116089905D01*
X129863524Y-116185143D01*
X129815905Y-116232762D01*
X129720667Y-116280381D01*
X129434952Y-116280381D01*
X129339714Y-116232762D01*
X129292095Y-116185143D01*
X130244476Y-115280381D02*
X130911143Y-115280381D01*
X130482571Y-116280381D01*
X93994476Y-102232762D02*
X94137333Y-102280381D01*
X94375429Y-102280381D01*
X94470667Y-102232762D01*
X94518286Y-102185143D01*
X94565905Y-102089905D01*
X94565905Y-101994667D01*
X94518286Y-101899429D01*
X94470667Y-101851810D01*
X94375429Y-101804190D01*
X94184952Y-101756571D01*
X94089714Y-101708952D01*
X94042095Y-101661333D01*
X93994476Y-101566095D01*
X93994476Y-101470857D01*
X94042095Y-101375619D01*
X94089714Y-101328000D01*
X94184952Y-101280381D01*
X94423048Y-101280381D01*
X94565905Y-101328000D01*
X94899238Y-101280381D02*
X95137333Y-102280381D01*
X95327810Y-101566095D01*
X95518286Y-102280381D01*
X95756381Y-101280381D01*
X96042095Y-101280381D02*
X96661143Y-101280381D01*
X96327809Y-101661333D01*
X96470667Y-101661333D01*
X96565905Y-101708952D01*
X96613524Y-101756571D01*
X96661143Y-101851810D01*
X96661143Y-102089905D01*
X96613524Y-102185143D01*
X96565905Y-102232762D01*
X96470667Y-102280381D01*
X96184952Y-102280381D01*
X96089714Y-102232762D01*
X96042095Y-102185143D01*
X97232571Y-101708952D02*
X97137333Y-101661333D01*
X97089714Y-101613714D01*
X97042095Y-101518476D01*
X97042095Y-101470857D01*
X97089714Y-101375619D01*
X97137333Y-101328000D01*
X97232571Y-101280381D01*
X97423048Y-101280381D01*
X97518286Y-101328000D01*
X97565905Y-101375619D01*
X97613524Y-101470857D01*
X97613524Y-101518476D01*
X97565905Y-101613714D01*
X97518286Y-101661333D01*
X97423048Y-101708952D01*
X97232571Y-101708952D01*
X97137333Y-101756571D01*
X97089714Y-101804190D01*
X97042095Y-101899429D01*
X97042095Y-102089905D01*
X97089714Y-102185143D01*
X97137333Y-102232762D01*
X97232571Y-102280381D01*
X97423048Y-102280381D01*
X97518286Y-102232762D01*
X97565905Y-102185143D01*
X97613524Y-102089905D01*
X97613524Y-101899429D01*
X97565905Y-101804190D01*
X97518286Y-101756571D01*
X97423048Y-101708952D01*
X97319476Y-116232762D02*
X97462333Y-116280381D01*
X97700429Y-116280381D01*
X97795667Y-116232762D01*
X97843286Y-116185143D01*
X97890905Y-116089905D01*
X97890905Y-115994667D01*
X97843286Y-115899429D01*
X97795667Y-115851810D01*
X97700429Y-115804190D01*
X97509952Y-115756571D01*
X97414714Y-115708952D01*
X97367095Y-115661333D01*
X97319476Y-115566095D01*
X97319476Y-115470857D01*
X97367095Y-115375619D01*
X97414714Y-115328000D01*
X97509952Y-115280381D01*
X97748048Y-115280381D01*
X97890905Y-115328000D01*
X98224238Y-115280381D02*
X98462333Y-116280381D01*
X98652810Y-115566095D01*
X98843286Y-116280381D01*
X99081381Y-115280381D01*
X99367095Y-115280381D02*
X99986143Y-115280381D01*
X99652809Y-115661333D01*
X99795667Y-115661333D01*
X99890905Y-115708952D01*
X99938524Y-115756571D01*
X99986143Y-115851810D01*
X99986143Y-116089905D01*
X99938524Y-116185143D01*
X99890905Y-116232762D01*
X99795667Y-116280381D01*
X99509952Y-116280381D01*
X99414714Y-116232762D01*
X99367095Y-116185143D01*
X100462333Y-116280381D02*
X100652809Y-116280381D01*
X100748048Y-116232762D01*
X100795667Y-116185143D01*
X100890905Y-116042286D01*
X100938524Y-115851810D01*
X100938524Y-115470857D01*
X100890905Y-115375619D01*
X100843286Y-115328000D01*
X100748048Y-115280381D01*
X100557571Y-115280381D01*
X100462333Y-115328000D01*
X100414714Y-115375619D01*
X100367095Y-115470857D01*
X100367095Y-115708952D01*
X100414714Y-115804190D01*
X100462333Y-115851810D01*
X100557571Y-115899429D01*
X100748048Y-115899429D01*
X100843286Y-115851810D01*
X100890905Y-115804190D01*
X100938524Y-115708952D01*
X130534476Y-88232762D02*
X130677333Y-88280381D01*
X130915429Y-88280381D01*
X131010667Y-88232762D01*
X131058286Y-88185143D01*
X131105905Y-88089905D01*
X131105905Y-87994667D01*
X131058286Y-87899429D01*
X131010667Y-87851810D01*
X130915429Y-87804190D01*
X130724952Y-87756571D01*
X130629714Y-87708952D01*
X130582095Y-87661333D01*
X130534476Y-87566095D01*
X130534476Y-87470857D01*
X130582095Y-87375619D01*
X130629714Y-87328000D01*
X130724952Y-87280381D01*
X130963048Y-87280381D01*
X131105905Y-87328000D01*
X131439238Y-87280381D02*
X131677333Y-88280381D01*
X131867810Y-87566095D01*
X132058286Y-88280381D01*
X132296381Y-87280381D01*
X133105905Y-87613714D02*
X133105905Y-88280381D01*
X132867809Y-87232762D02*
X132629714Y-87947048D01*
X133248762Y-87947048D01*
X133820190Y-87280381D02*
X133915429Y-87280381D01*
X134010667Y-87328000D01*
X134058286Y-87375619D01*
X134105905Y-87470857D01*
X134153524Y-87661333D01*
X134153524Y-87899429D01*
X134105905Y-88089905D01*
X134058286Y-88185143D01*
X134010667Y-88232762D01*
X133915429Y-88280381D01*
X133820190Y-88280381D01*
X133724952Y-88232762D01*
X133677333Y-88185143D01*
X133629714Y-88089905D01*
X133582095Y-87899429D01*
X133582095Y-87661333D01*
X133629714Y-87470857D01*
X133677333Y-87375619D01*
X133724952Y-87328000D01*
X133820190Y-87280381D01*
X187094476Y-102232762D02*
X187237333Y-102280381D01*
X187475429Y-102280381D01*
X187570667Y-102232762D01*
X187618286Y-102185143D01*
X187665905Y-102089905D01*
X187665905Y-101994667D01*
X187618286Y-101899429D01*
X187570667Y-101851810D01*
X187475429Y-101804190D01*
X187284952Y-101756571D01*
X187189714Y-101708952D01*
X187142095Y-101661333D01*
X187094476Y-101566095D01*
X187094476Y-101470857D01*
X187142095Y-101375619D01*
X187189714Y-101328000D01*
X187284952Y-101280381D01*
X187523048Y-101280381D01*
X187665905Y-101328000D01*
X187999238Y-101280381D02*
X188237333Y-102280381D01*
X188427810Y-101566095D01*
X188618286Y-102280381D01*
X188856381Y-101280381D01*
X189665905Y-101613714D02*
X189665905Y-102280381D01*
X189427809Y-101232762D02*
X189189714Y-101947048D01*
X189808762Y-101947048D01*
X190713524Y-102280381D02*
X190142095Y-102280381D01*
X190427809Y-102280381D02*
X190427809Y-101280381D01*
X190332571Y-101423238D01*
X190237333Y-101518476D01*
X190142095Y-101566095D01*
X210334476Y-88232762D02*
X210477333Y-88280381D01*
X210715429Y-88280381D01*
X210810667Y-88232762D01*
X210858286Y-88185143D01*
X210905905Y-88089905D01*
X210905905Y-87994667D01*
X210858286Y-87899429D01*
X210810667Y-87851810D01*
X210715429Y-87804190D01*
X210524952Y-87756571D01*
X210429714Y-87708952D01*
X210382095Y-87661333D01*
X210334476Y-87566095D01*
X210334476Y-87470857D01*
X210382095Y-87375619D01*
X210429714Y-87328000D01*
X210524952Y-87280381D01*
X210763048Y-87280381D01*
X210905905Y-87328000D01*
X211239238Y-87280381D02*
X211477333Y-88280381D01*
X211667810Y-87566095D01*
X211858286Y-88280381D01*
X212096381Y-87280381D01*
X212905905Y-87613714D02*
X212905905Y-88280381D01*
X212667809Y-87232762D02*
X212429714Y-87947048D01*
X213048762Y-87947048D01*
X213382095Y-87375619D02*
X213429714Y-87328000D01*
X213524952Y-87280381D01*
X213763048Y-87280381D01*
X213858286Y-87328000D01*
X213905905Y-87375619D01*
X213953524Y-87470857D01*
X213953524Y-87566095D01*
X213905905Y-87708952D01*
X213334476Y-88280381D01*
X213953524Y-88280381D01*
X157134476Y-88232762D02*
X157277333Y-88280381D01*
X157515429Y-88280381D01*
X157610667Y-88232762D01*
X157658286Y-88185143D01*
X157705905Y-88089905D01*
X157705905Y-87994667D01*
X157658286Y-87899429D01*
X157610667Y-87851810D01*
X157515429Y-87804190D01*
X157324952Y-87756571D01*
X157229714Y-87708952D01*
X157182095Y-87661333D01*
X157134476Y-87566095D01*
X157134476Y-87470857D01*
X157182095Y-87375619D01*
X157229714Y-87328000D01*
X157324952Y-87280381D01*
X157563048Y-87280381D01*
X157705905Y-87328000D01*
X158039238Y-87280381D02*
X158277333Y-88280381D01*
X158467810Y-87566095D01*
X158658286Y-88280381D01*
X158896381Y-87280381D01*
X159705905Y-87613714D02*
X159705905Y-88280381D01*
X159467809Y-87232762D02*
X159229714Y-87947048D01*
X159848762Y-87947048D01*
X160134476Y-87280381D02*
X160753524Y-87280381D01*
X160420190Y-87661333D01*
X160563048Y-87661333D01*
X160658286Y-87708952D01*
X160705905Y-87756571D01*
X160753524Y-87851810D01*
X160753524Y-88089905D01*
X160705905Y-88185143D01*
X160658286Y-88232762D01*
X160563048Y-88280381D01*
X160277333Y-88280381D01*
X160182095Y-88232762D01*
X160134476Y-88185143D01*
X170434476Y-88232762D02*
X170577333Y-88280381D01*
X170815429Y-88280381D01*
X170910667Y-88232762D01*
X170958286Y-88185143D01*
X171005905Y-88089905D01*
X171005905Y-87994667D01*
X170958286Y-87899429D01*
X170910667Y-87851810D01*
X170815429Y-87804190D01*
X170624952Y-87756571D01*
X170529714Y-87708952D01*
X170482095Y-87661333D01*
X170434476Y-87566095D01*
X170434476Y-87470857D01*
X170482095Y-87375619D01*
X170529714Y-87328000D01*
X170624952Y-87280381D01*
X170863048Y-87280381D01*
X171005905Y-87328000D01*
X171339238Y-87280381D02*
X171577333Y-88280381D01*
X171767810Y-87566095D01*
X171958286Y-88280381D01*
X172196381Y-87280381D01*
X173005905Y-87613714D02*
X173005905Y-88280381D01*
X172767809Y-87232762D02*
X172529714Y-87947048D01*
X173148762Y-87947048D01*
X173958286Y-87613714D02*
X173958286Y-88280381D01*
X173720190Y-87232762D02*
X173482095Y-87947048D01*
X174101143Y-87947048D01*
X238614476Y-88232762D02*
X238757333Y-88280381D01*
X238995429Y-88280381D01*
X239090667Y-88232762D01*
X239138286Y-88185143D01*
X239185905Y-88089905D01*
X239185905Y-87994667D01*
X239138286Y-87899429D01*
X239090667Y-87851810D01*
X238995429Y-87804190D01*
X238804952Y-87756571D01*
X238709714Y-87708952D01*
X238662095Y-87661333D01*
X238614476Y-87566095D01*
X238614476Y-87470857D01*
X238662095Y-87375619D01*
X238709714Y-87328000D01*
X238804952Y-87280381D01*
X239043048Y-87280381D01*
X239185905Y-87328000D01*
X239519238Y-87280381D02*
X239757333Y-88280381D01*
X239947810Y-87566095D01*
X240138286Y-88280381D01*
X240376381Y-87280381D01*
X241185905Y-87613714D02*
X241185905Y-88280381D01*
X240947809Y-87232762D02*
X240709714Y-87947048D01*
X241328762Y-87947048D01*
X242185905Y-87280381D02*
X241709714Y-87280381D01*
X241662095Y-87756571D01*
X241709714Y-87708952D01*
X241804952Y-87661333D01*
X242043048Y-87661333D01*
X242138286Y-87708952D01*
X242185905Y-87756571D01*
X242233524Y-87851810D01*
X242233524Y-88089905D01*
X242185905Y-88185143D01*
X242138286Y-88232762D01*
X242043048Y-88280381D01*
X241804952Y-88280381D01*
X241709714Y-88232762D01*
X241662095Y-88185143D01*
X90146381Y-69514905D02*
X90955905Y-69514905D01*
X91051143Y-69467286D01*
X91098762Y-69419667D01*
X91146381Y-69324429D01*
X91146381Y-69133952D01*
X91098762Y-69038714D01*
X91051143Y-68991095D01*
X90955905Y-68943476D01*
X90146381Y-68943476D01*
X91146381Y-67943476D02*
X91146381Y-68514905D01*
X91146381Y-68229191D02*
X90146381Y-68229191D01*
X90289238Y-68324429D01*
X90384476Y-68419667D01*
X90432095Y-68514905D01*
X240875905Y-77968381D02*
X240875905Y-76968381D01*
X241114000Y-76968381D01*
X241256858Y-77016000D01*
X241352096Y-77111238D01*
X241399715Y-77206476D01*
X241447334Y-77396952D01*
X241447334Y-77539810D01*
X241399715Y-77730286D01*
X241352096Y-77825524D01*
X241256858Y-77920762D01*
X241114000Y-77968381D01*
X240875905Y-77968381D01*
X242399715Y-77968381D02*
X241828286Y-77968381D01*
X242114000Y-77968381D02*
X242114000Y-76968381D01*
X242018762Y-77111238D01*
X241923524Y-77206476D01*
X241828286Y-77254095D01*
X161373905Y-68697381D02*
X161373905Y-67697381D01*
X161754858Y-67697381D01*
X161850096Y-67745000D01*
X161897715Y-67792619D01*
X161945334Y-67887857D01*
X161945334Y-68030714D01*
X161897715Y-68125952D01*
X161850096Y-68173571D01*
X161754858Y-68221190D01*
X161373905Y-68221190D01*
X162897715Y-68697381D02*
X162326286Y-68697381D01*
X162612000Y-68697381D02*
X162612000Y-67697381D01*
X162516762Y-67840238D01*
X162421524Y-67935476D01*
X162326286Y-67983095D01*
X173061405Y-68905381D02*
X173061405Y-67905381D01*
X173442358Y-67905381D01*
X173537596Y-67953000D01*
X173585215Y-68000619D01*
X173632834Y-68095857D01*
X173632834Y-68238714D01*
X173585215Y-68333952D01*
X173537596Y-68381571D01*
X173442358Y-68429190D01*
X173061405Y-68429190D01*
X174013786Y-68000619D02*
X174061405Y-67953000D01*
X174156643Y-67905381D01*
X174394739Y-67905381D01*
X174489977Y-67953000D01*
X174537596Y-68000619D01*
X174585215Y-68095857D01*
X174585215Y-68191095D01*
X174537596Y-68333952D01*
X173966167Y-68905381D01*
X174585215Y-68905381D01*
X238720334Y-69458381D02*
X238387000Y-68982190D01*
X238148905Y-69458381D02*
X238148905Y-68458381D01*
X238529858Y-68458381D01*
X238625096Y-68506000D01*
X238672715Y-68553619D01*
X238720334Y-68648857D01*
X238720334Y-68791714D01*
X238672715Y-68886952D01*
X238625096Y-68934571D01*
X238529858Y-68982190D01*
X238148905Y-68982190D01*
X239672715Y-69458381D02*
X239101286Y-69458381D01*
X239387000Y-69458381D02*
X239387000Y-68458381D01*
X239291762Y-68601238D01*
X239196524Y-68696476D01*
X239101286Y-68744095D01*
M02*
