M48
;DRILL file {KiCad 4.0.1-stable} date 03.08.2019 21:45:51
;FORMAT={-:-/ absolute / inch / decimal}
FMAT,2
INCH,TZ
T1C0.016
T2C0.028
T3C0.035
T4C0.039
T5C0.043
%
G90
G05
M72
T1
X9.4874Y-3.8318
X9.7374Y-3.9568
T2
X9.255Y-2.79
X9.555Y-2.79
T3
X9.6224Y-3.0518
X9.7224Y-3.0518
T4
X3.6624Y-2.7068
X3.7624Y-2.7068
X3.8624Y-2.7068
X3.9624Y-2.7068
X4.0624Y-2.7068
X4.1624Y-2.7068
X4.2624Y-2.7068
X4.3624Y-2.7068
X4.4624Y-2.7068
X4.5624Y-2.7068
X4.6624Y-2.7068
X4.7624Y-2.7068
X4.8624Y-2.7068
X4.9624Y-2.7068
X5.0624Y-2.7068
X5.1624Y-2.7068
X5.2624Y-2.7068
X5.3624Y-2.7068
X5.4624Y-2.7068
X5.5624Y-2.7068
X5.6624Y-2.7068
X5.7624Y-2.7068
X6.1624Y-2.7068
X6.2624Y-2.7068
X6.585Y-2.7025
X6.685Y-2.7025
T5
X3.6439Y-4.0877
X3.6439Y-4.2649
X3.7748Y-4.6389
X3.7748Y-4.8161
X3.8065Y-2.9854
X3.8065Y-3.1625
X3.8998Y-4.0877
X3.8998Y-4.2649
X4.0307Y-4.6389
X4.0307Y-4.8161
X4.0352Y-3.5365
X4.0352Y-3.7137
X4.0624Y-2.9854
X4.0624Y-3.1625
X4.1675Y-4.0877
X4.1675Y-4.2649
X4.2911Y-3.5365
X4.2911Y-3.7137
X4.3301Y-2.9854
X4.3301Y-3.1625
X4.4234Y-4.0877
X4.4234Y-4.2649
X4.4293Y-4.6389
X4.4293Y-4.8161
X4.5588Y-3.5365
X4.5588Y-3.7137
X4.586Y-2.9854
X4.586Y-3.1625
X4.6852Y-4.6389
X4.6852Y-4.8161
X4.6911Y-4.0877
X4.6911Y-4.2649
X4.8147Y-3.5365
X4.8147Y-3.7137
X4.8537Y-2.9854
X4.8537Y-3.1625
X4.947Y-4.0877
X4.947Y-4.2649
X4.9529Y-4.6389
X4.9529Y-4.8161
X5.0824Y-3.5365
X5.0824Y-3.7137
X5.1096Y-2.9854
X5.1096Y-3.1625
X5.2088Y-4.6389
X5.2088Y-4.8161
X5.2147Y-4.0877
X5.2147Y-4.2649
X5.3383Y-3.5365
X5.3383Y-3.7137
X5.3773Y-2.9854
X5.3773Y-3.1625
X5.4706Y-4.0877
X5.4706Y-4.2649
X5.4765Y-4.6389
X5.4765Y-4.8161
X5.6061Y-3.5365
X5.6061Y-3.7137
X5.6332Y-2.9854
X5.6332Y-3.1625
X5.7324Y-4.6389
X5.7324Y-4.8161
X5.7383Y-4.0877
X5.7383Y-4.2649
X5.862Y-3.5365
X5.862Y-3.7137
X5.9009Y-2.9854
X5.9009Y-3.1625
X5.9943Y-4.0877
X5.9943Y-4.2649
X6.0002Y-4.6389
X6.0002Y-4.8161
X6.1297Y-3.5365
X6.1297Y-3.7137
X6.1569Y-2.9854
X6.1569Y-3.1625
X6.2561Y-4.6389
X6.2561Y-4.8161
X6.262Y-4.0877
X6.262Y-4.2649
X6.3856Y-3.5365
X6.3856Y-3.7137
X6.4246Y-2.9854
X6.4246Y-3.1625
X6.5179Y-4.0877
X6.5179Y-4.2649
X6.5238Y-4.6389
X6.5238Y-4.8161
X6.6533Y-3.5365
X6.6533Y-3.7137
X6.6805Y-2.9854
X6.6805Y-3.1625
X6.7797Y-4.6389
X6.7797Y-4.8161
X6.7856Y-4.0877
X6.7856Y-4.2649
X6.9092Y-3.5365
X6.9092Y-3.7137
X6.9482Y-2.9854
X6.9482Y-3.1625
X7.0415Y-4.0877
X7.0415Y-4.2649
X7.0474Y-4.6389
X7.0474Y-4.8161
X7.1769Y-3.5365
X7.1769Y-3.7137
X7.2041Y-2.9854
X7.2041Y-3.1625
X7.3033Y-4.6389
X7.3033Y-4.8161
X7.3092Y-4.0877
X7.3092Y-4.2649
X7.4328Y-3.5365
X7.4328Y-3.7137
X7.4718Y-2.9854
X7.4718Y-3.1625
X7.5651Y-4.0877
X7.5651Y-4.2649
X7.571Y-4.6389
X7.571Y-4.8161
X7.7006Y-3.5365
X7.7006Y-3.7137
X7.7277Y-2.9854
X7.7277Y-3.1625
X7.8269Y-4.6389
X7.8269Y-4.8161
X7.8328Y-4.0877
X7.8328Y-4.2649
X7.9565Y-3.5365
X7.9565Y-3.7137
X7.9954Y-2.9854
X7.9954Y-3.1625
X8.0887Y-4.0877
X8.0887Y-4.2649
X8.0946Y-4.6389
X8.0946Y-4.8161
X8.2242Y-3.5365
X8.2242Y-3.7137
X8.2513Y-2.9854
X8.2513Y-3.1625
X8.3506Y-4.6389
X8.3506Y-4.8161
X8.3565Y-4.0877
X8.3565Y-4.2649
X8.4801Y-3.5365
X8.4801Y-3.7137
X8.5191Y-2.9854
X8.5191Y-3.1625
X8.6124Y-4.0877
X8.6124Y-4.2649
X8.6183Y-4.6389
X8.6183Y-4.8161
X8.7478Y-3.5365
X8.7478Y-3.7137
X8.775Y-2.9854
X8.775Y-3.1625
X8.8742Y-4.6389
X8.8742Y-4.8161
X8.8801Y-4.0877
X8.8801Y-4.2649
X9.0037Y-3.5365
X9.0037Y-3.7137
X9.0427Y-2.9854
X9.0427Y-3.1625
X9.136Y-4.0877
X9.136Y-4.2649
X9.2728Y-4.6389
X9.2728Y-4.8161
X9.2986Y-2.9854
X9.2986Y-3.1625
X9.3376Y-3.5365
X9.3376Y-3.7137
X9.4037Y-4.0877
X9.4037Y-4.2649
X9.5287Y-4.6389
X9.5287Y-4.8161
X9.5935Y-3.5365
X9.5935Y-3.7137
X9.6596Y-4.0877
X9.6596Y-4.2649
T0
M30
