G04 #@! TF.FileFunction,Soldermask,Top*
%FSLAX46Y46*%
G04 Gerber Fmt 4.6, Leading zero omitted, Abs format (unit mm)*
G04 Created by KiCad (PCBNEW 4.0.1-stable) date 03.08.2019 21:45:47*
%MOMM*%
G01*
G04 APERTURE LIST*
%ADD10C,0.100000*%
%ADD11C,2.400000*%
%ADD12R,2.100000X2.100000*%
%ADD13O,2.100000X2.100000*%
%ADD14R,2.200000X2.200000*%
%ADD15C,2.200000*%
%ADD16C,1.800000*%
%ADD17O,1.800000X1.800000*%
G04 APERTURE END LIST*
D10*
D11*
X192304000Y-122328000D03*
X192304000Y-117828000D03*
X198804000Y-122328000D03*
X198804000Y-117828000D03*
X179004000Y-122328000D03*
X179004000Y-117828000D03*
X185504000Y-122328000D03*
X185504000Y-117828000D03*
X212254000Y-108328000D03*
X212254000Y-103828000D03*
X218754000Y-108328000D03*
X218754000Y-103828000D03*
X176484000Y-80328000D03*
X176484000Y-75828000D03*
X182984000Y-80328000D03*
X182984000Y-75828000D03*
X136584000Y-80328000D03*
X136584000Y-75828000D03*
X143084000Y-80328000D03*
X143084000Y-75828000D03*
X96684000Y-80328000D03*
X96684000Y-75828000D03*
X103184000Y-80328000D03*
X103184000Y-75828000D03*
X229684000Y-80328000D03*
X229684000Y-75828000D03*
X236184000Y-80328000D03*
X236184000Y-75828000D03*
X205604000Y-122328000D03*
X205604000Y-117828000D03*
X212104000Y-122328000D03*
X212104000Y-117828000D03*
X189784000Y-80328000D03*
X189784000Y-75828000D03*
X196284000Y-80328000D03*
X196284000Y-75828000D03*
X149884000Y-80328000D03*
X149884000Y-75828000D03*
X156384000Y-80328000D03*
X156384000Y-75828000D03*
X109984000Y-80328000D03*
X109984000Y-75828000D03*
X116484000Y-80328000D03*
X116484000Y-75828000D03*
X216384000Y-80328000D03*
X216384000Y-75828000D03*
X222884000Y-80328000D03*
X222884000Y-75828000D03*
X218904000Y-122328000D03*
X218904000Y-117828000D03*
X225404000Y-122328000D03*
X225404000Y-117828000D03*
X203084000Y-80328000D03*
X203084000Y-75828000D03*
X209584000Y-80328000D03*
X209584000Y-75828000D03*
X163184000Y-80328000D03*
X163184000Y-75828000D03*
X169684000Y-80328000D03*
X169684000Y-75828000D03*
X123284000Y-80328000D03*
X123284000Y-75828000D03*
X129784000Y-80328000D03*
X129784000Y-75828000D03*
X105854000Y-108328000D03*
X105854000Y-103828000D03*
X112354000Y-108328000D03*
X112354000Y-103828000D03*
X145754000Y-108328000D03*
X145754000Y-103828000D03*
X152254000Y-108328000D03*
X152254000Y-103828000D03*
X198954000Y-108328000D03*
X198954000Y-103828000D03*
X205454000Y-108328000D03*
X205454000Y-103828000D03*
X222194000Y-94328000D03*
X222194000Y-89828000D03*
X228694000Y-94328000D03*
X228694000Y-89828000D03*
X182294000Y-94328000D03*
X182294000Y-89828000D03*
X188794000Y-94328000D03*
X188794000Y-89828000D03*
X112504000Y-122328000D03*
X112504000Y-117828000D03*
X119004000Y-122328000D03*
X119004000Y-117828000D03*
X165704000Y-122328000D03*
X165704000Y-117828000D03*
X172204000Y-122328000D03*
X172204000Y-117828000D03*
X159054000Y-108328000D03*
X159054000Y-103828000D03*
X165554000Y-108328000D03*
X165554000Y-103828000D03*
X102494000Y-94328000D03*
X102494000Y-89828000D03*
X108994000Y-94328000D03*
X108994000Y-89828000D03*
X152404000Y-122328000D03*
X152404000Y-117828000D03*
X158904000Y-122328000D03*
X158904000Y-117828000D03*
X235529000Y-122328000D03*
X235529000Y-117828000D03*
X242029000Y-122328000D03*
X242029000Y-117828000D03*
X225554000Y-108328000D03*
X225554000Y-103828000D03*
X232054000Y-108328000D03*
X232054000Y-103828000D03*
X139104000Y-122328000D03*
X139104000Y-117828000D03*
X145604000Y-122328000D03*
X145604000Y-117828000D03*
X172354000Y-108328000D03*
X172354000Y-103828000D03*
X178854000Y-108328000D03*
X178854000Y-103828000D03*
X142394000Y-94328000D03*
X142394000Y-89828000D03*
X148894000Y-94328000D03*
X148894000Y-89828000D03*
X115794000Y-94328000D03*
X115794000Y-89828000D03*
X122294000Y-94328000D03*
X122294000Y-89828000D03*
X238854000Y-108328000D03*
X238854000Y-103828000D03*
X245354000Y-108328000D03*
X245354000Y-103828000D03*
X132454000Y-108328000D03*
X132454000Y-103828000D03*
X138954000Y-108328000D03*
X138954000Y-103828000D03*
X195594000Y-94328000D03*
X195594000Y-89828000D03*
X202094000Y-94328000D03*
X202094000Y-89828000D03*
X119154000Y-108328000D03*
X119154000Y-103828000D03*
X125654000Y-108328000D03*
X125654000Y-103828000D03*
X125804000Y-122328000D03*
X125804000Y-117828000D03*
X132304000Y-122328000D03*
X132304000Y-117828000D03*
X92554000Y-108328000D03*
X92554000Y-103828000D03*
X99054000Y-108328000D03*
X99054000Y-103828000D03*
X95879000Y-122328000D03*
X95879000Y-117828000D03*
X102379000Y-122328000D03*
X102379000Y-117828000D03*
X129094000Y-94328000D03*
X129094000Y-89828000D03*
X135594000Y-94328000D03*
X135594000Y-89828000D03*
X185654000Y-108328000D03*
X185654000Y-103828000D03*
X192154000Y-108328000D03*
X192154000Y-103828000D03*
X208894000Y-94328000D03*
X208894000Y-89828000D03*
X215394000Y-94328000D03*
X215394000Y-89828000D03*
X155694000Y-94328000D03*
X155694000Y-89828000D03*
X162194000Y-94328000D03*
X162194000Y-89828000D03*
X168994000Y-94328000D03*
X168994000Y-89828000D03*
X175494000Y-94328000D03*
X175494000Y-89828000D03*
X237174000Y-94328000D03*
X237174000Y-89828000D03*
X243674000Y-94328000D03*
X243674000Y-89828000D03*
D12*
X93024000Y-68753000D03*
D13*
X95564000Y-68753000D03*
X98104000Y-68753000D03*
X100644000Y-68753000D03*
X103184000Y-68753000D03*
X105724000Y-68753000D03*
X108264000Y-68753000D03*
X110804000Y-68753000D03*
X113344000Y-68753000D03*
X115884000Y-68753000D03*
X118424000Y-68753000D03*
X120964000Y-68753000D03*
X123504000Y-68753000D03*
X126044000Y-68753000D03*
X128584000Y-68753000D03*
X131124000Y-68753000D03*
X133664000Y-68753000D03*
X136204000Y-68753000D03*
X138744000Y-68753000D03*
X141284000Y-68753000D03*
X143824000Y-68753000D03*
X146364000Y-68753000D03*
D14*
X244408000Y-77516000D03*
D15*
X246948000Y-77516000D03*
D12*
X156524000Y-68753000D03*
D13*
X159064000Y-68753000D03*
D12*
X169799000Y-68643500D03*
D13*
X167259000Y-68643500D03*
D16*
X235077000Y-70866000D03*
D17*
X242697000Y-70866000D03*
M02*
