M48
;DRILL file {KiCad 4.0.1-stable} date 19.05.2019 22:55:50
;FORMAT={-:-/ absolute / inch / decimal}
FMAT,2
INCH,TZ
T1C0.016
T2C0.035
T3C0.039
T4C0.043
%
G90
G05
M72
T1
X9.8699Y-2.5
X10.1199Y-2.625
T2
X10.0049Y-1.72
X10.1049Y-1.72
T3
X4.0449Y-1.375
X4.1449Y-1.375
X4.2449Y-1.375
X4.3449Y-1.375
X4.4449Y-1.375
X4.5449Y-1.375
X4.6449Y-1.375
X4.7449Y-1.375
X4.8449Y-1.375
X4.9449Y-1.375
X5.0449Y-1.375
X5.1449Y-1.375
X5.2449Y-1.375
X5.3449Y-1.375
X5.4449Y-1.375
X5.5449Y-1.375
X5.6449Y-1.375
X5.7449Y-1.375
X5.8449Y-1.375
X5.9449Y-1.375
X6.0449Y-1.375
X6.1449Y-1.375
X6.5449Y-1.375
X6.6449Y-1.375
T4
X4.0264Y-2.7559
X4.0264Y-2.9331
X4.1573Y-3.3071
X4.1573Y-3.4843
X4.189Y-1.6535
X4.189Y-1.8307
X4.2823Y-2.7559
X4.2823Y-2.9331
X4.4132Y-3.3071
X4.4132Y-3.4843
X4.4177Y-2.2047
X4.4177Y-2.3819
X4.4449Y-1.6535
X4.4449Y-1.8307
X4.55Y-2.7559
X4.55Y-2.9331
X4.6736Y-2.2047
X4.6736Y-2.3819
X4.7126Y-1.6535
X4.7126Y-1.8307
X4.8059Y-2.7559
X4.8059Y-2.9331
X4.8118Y-3.3071
X4.8118Y-3.4843
X4.9413Y-2.2047
X4.9413Y-2.3819
X4.9685Y-1.6535
X4.9685Y-1.8307
X5.0677Y-3.3071
X5.0677Y-3.4843
X5.0736Y-2.7559
X5.0736Y-2.9331
X5.1972Y-2.2047
X5.1972Y-2.3819
X5.2362Y-1.6535
X5.2362Y-1.8307
X5.3295Y-2.7559
X5.3295Y-2.9331
X5.3354Y-3.3071
X5.3354Y-3.4843
X5.465Y-2.2047
X5.465Y-2.3819
X5.4921Y-1.6535
X5.4921Y-1.8307
X5.5913Y-3.3071
X5.5913Y-3.4843
X5.5972Y-2.7559
X5.5972Y-2.9331
X5.7209Y-2.2047
X5.7209Y-2.3819
X5.7598Y-1.6535
X5.7598Y-1.8307
X5.8531Y-2.7559
X5.8531Y-2.9331
X5.8591Y-3.3071
X5.8591Y-3.4843
X5.9886Y-2.2047
X5.9886Y-2.3819
X6.0157Y-1.6535
X6.0157Y-1.8307
X6.115Y-3.3071
X6.115Y-3.4843
X6.1209Y-2.7559
X6.1209Y-2.9331
X6.2445Y-2.2047
X6.2445Y-2.3819
X6.2835Y-1.6535
X6.2835Y-1.8307
X6.3768Y-2.7559
X6.3768Y-2.9331
X6.3827Y-3.3071
X6.3827Y-3.4843
X6.5122Y-2.2047
X6.5122Y-2.3819
X6.5394Y-1.6535
X6.5394Y-1.8307
X6.6386Y-3.3071
X6.6386Y-3.4843
X6.6445Y-2.7559
X6.6445Y-2.9331
X6.7681Y-2.2047
X6.7681Y-2.3819
X6.8071Y-1.6535
X6.8071Y-1.8307
X6.9004Y-2.7559
X6.9004Y-2.9331
X6.9063Y-3.3071
X6.9063Y-3.4843
X7.0358Y-2.2047
X7.0358Y-2.3819
X7.063Y-1.6535
X7.063Y-1.8307
X7.1622Y-3.3071
X7.1622Y-3.4843
X7.1681Y-2.7559
X7.1681Y-2.9331
X7.2917Y-2.2047
X7.2917Y-2.3819
X7.3307Y-1.6535
X7.3307Y-1.8307
X7.424Y-2.7559
X7.424Y-2.9331
X7.4299Y-3.3071
X7.4299Y-3.4843
X7.5594Y-2.2047
X7.5594Y-2.3819
X7.5866Y-1.6535
X7.5866Y-1.8307
X7.6858Y-3.3071
X7.6858Y-3.4843
X7.6917Y-2.7559
X7.6917Y-2.9331
X7.8154Y-2.2047
X7.8154Y-2.3819
X7.8543Y-1.6535
X7.8543Y-1.8307
X7.9476Y-2.7559
X7.9476Y-2.9331
X7.9535Y-3.3071
X7.9535Y-3.4843
X8.0831Y-2.2047
X8.0831Y-2.3819
X8.1102Y-1.6535
X8.1102Y-1.8307
X8.2094Y-3.3071
X8.2094Y-3.4843
X8.2154Y-2.7559
X8.2154Y-2.9331
X8.339Y-2.2047
X8.339Y-2.3819
X8.378Y-1.6535
X8.378Y-1.8307
X8.4713Y-2.7559
X8.4713Y-2.9331
X8.4772Y-3.3071
X8.4772Y-3.4843
X8.6067Y-2.2047
X8.6067Y-2.3819
X8.6339Y-1.6535
X8.6339Y-1.8307
X8.7331Y-3.3071
X8.7331Y-3.4843
X8.739Y-2.7559
X8.739Y-2.9331
X8.8626Y-2.2047
X8.8626Y-2.3819
X8.9016Y-1.6535
X8.9016Y-1.8307
X8.9949Y-2.7559
X8.9949Y-2.9331
X9.0008Y-3.3071
X9.0008Y-3.4843
X9.1303Y-2.2047
X9.1303Y-2.3819
X9.1575Y-1.6535
X9.1575Y-1.8307
X9.2567Y-3.3071
X9.2567Y-3.4843
X9.2626Y-2.7559
X9.2626Y-2.9331
X9.3862Y-2.2047
X9.3862Y-2.3819
X9.4252Y-1.6535
X9.4252Y-1.8307
X9.5185Y-2.7559
X9.5185Y-2.9331
X9.6553Y-3.3071
X9.6553Y-3.4843
X9.6811Y-1.6535
X9.6811Y-1.8307
X9.7201Y-2.2047
X9.7201Y-2.3819
X9.7862Y-2.7559
X9.7862Y-2.9331
X9.9112Y-3.3071
X9.9112Y-3.4843
X9.976Y-2.2047
X9.976Y-2.3819
X10.0421Y-2.7559
X10.0421Y-2.9331
T0
M30
